<?xml version="1.0" encoding="UTF-8"?><svg id="Layer_1" xmlns="http://www.w3.org/2000/svg" viewBox="0 0 176.2 106.49"><defs><style>.cls-1{fill:#f01428;}</style></defs><path class="cls-1" d="M92.67,49.51c0-2.23,1.16-2.67,3.31-1.46,3.95,2.21,8.07,4.49,8.07,4.49,.14-1.25,1.23-2.31,3.6-1.78,2.2,.53,4.67,1.07,4.67,1.07,0,0-1.32-2.99-1.92-4.32-1.09-2.42-.05-3.58,1-3.91,0,0-1.5-1.02-2.5-1.71-2.12-1.48-1.63-2.93,.44-3.81,2.82-1.2,6.34-2.79,6.34-2.79-1.12-.65-2.43-2.49-.96-4.61,1.44-2.11,3.61-5.04,3.61-5.04,0,0-3.83,.02-6.38,0-2.31-.05-2.88-1.88-2.86-3.2,0,0-3.77,2.67-6.46,4.48-2.26,1.52-4.33,.03-3.99-2.59,.54-4.1,1.03-8.64,1.03-8.64-1.4,.93-3.8,.91-4.86-1.39-1.57-3.39-3.4-7.35-3.4-7.35,0,0-1.8,3.96-3.37,7.35-1.05,2.3-3.46,2.32-4.85,1.39,0,0,.47,4.54,1.02,8.64,.35,2.62-1.72,4.11-3.98,2.59-2.69-1.82-6.47-4.48-6.47-4.48,.02,1.32-.53,3.15-2.84,3.2-2.56,.02-6.38,0-6.38,0,0,0,2.18,2.93,3.63,5.04,1.45,2.12,.13,3.96-.96,4.61,0,0,3.5,1.59,6.32,2.79,2.07,.88,2.58,2.33,.43,3.81-.98,.69-2.51,1.71-2.51,1.71,1.08,.34,2.11,1.49,1.02,3.91-.58,1.32-1.92,4.32-1.92,4.32,0,0,2.47-.55,4.68-1.07,2.37-.53,3.47,.53,3.6,1.78,0,0,4.1-2.28,8.06-4.49,2.14-1.2,3.29-.77,3.31,1.46v5.52c0,3.19-.57,6.68-1.79,8.55-15.15-1.66-27.68-13.78-27.71-29.78-.02-16.47,13.76-29.83,30.72-29.83s30.72,13.36,30.72,29.83c0,15.39-11.96,27.97-27.3,29.63v4.04c18.02-1.63,32.11-16.09,32.11-33.67C126.95,15.13,111.03,0,91.42,0S55.9,15.13,55.9,33.81c0,16.45,12.32,30.12,28.66,33.19,2.76,.53,4.51,.94,5.96,2.72,1.75-3.2,2.15-9.96,2.15-13.78v-6.43Z"/><g><path d="M42.55,97.14l-5.34-4.48h-12.42s.77,4.48,6.02,4.48h11.74Z"/><path d="M24.79,83.9s.77,4.48,6.02,4.48h12.65l-5.34-4.48h-13.34Z"/><polygon points="118.57 83.9 113.23 83.9 113.23 105.9 127.09 105.9 127.09 101.27 118.57 101.27 118.57 83.9"/><path d="M9.23,83.9L0,105.9H5.78l1.68-4.48H15.85l1.77,4.48h5.91l-9.14-22h-5.16Zm-.24,13.24l2.73-7.37,2.67,7.37h-5.4Z"/><path d="M24.79,101.41s.77,4.48,6.02,4.48h12.65l-5.34-4.48h-13.34Z"/><path d="M138.99,83.9l-9.23,22h5.78l1.68-4.48h8.39l1.77,4.48h5.91l-9.14-22h-5.16Zm-.24,13.24l2.73-7.37,2.67,7.37h-5.4Z"/><path d="M101.54,83.9h-8.08v22h5.31v-8.29h2.64c4.85,0,8.73-2,8.73-6.93s-3.69-6.77-8.61-6.77Zm-.23,9.41h-2.54v-5.22h2.85c1.94,0,3.56,.56,3.56,2.5,0,2.09-1.79,2.72-3.87,2.72Z"/><path d="M78.14,83.31c-6.95,0-11.96,4.52-11.96,11.5s4.96,11.68,11.96,11.68,11.99-4.79,11.99-11.68-5.05-11.5-11.99-11.5Zm0,18.4c-3.74,0-6.27-2.93-6.27-6.87s2.74-6.74,6.27-6.74c3.79,0,6.3,2.95,6.3,6.74,0,4.11-2.72,6.87-6.3,6.87Z"/><polygon points="170.97 83.9 171.1 98.25 171 98.25 162.05 83.9 155.91 83.9 155.91 105.9 161.14 105.9 161.01 91.51 161.11 91.51 170.09 105.9 176.2 105.9 176.2 83.9 170.97 83.9"/><path d="M63.56,90.55c0-4.72-3.7-6.65-8.42-6.65h-8.43v22h5.19v-8.76h1.84l4.79,8.76h6.21l-5.75-9.41c2.83-.86,4.57-2.92,4.57-5.93Zm-9.12,2.76h-2.54v-5.22h2.85c1.94,0,3.56,.56,3.56,2.5,0,2.09-1.79,2.72-3.87,2.72Z"/></g></svg>