<svg version="1.1" id="Layer_1" xmlns="http://www.w3.org/2000/svg" xmlns:xlink="http://www.w3.org/1999/xlink" x="0px" y="0px"
	 width="100%" viewBox="0 0 1000 1000" enable-background="new 0 0 1000 1000" xml:space="preserve">
<path fill="#000000" opacity="1.000000" stroke="none" 
	d="
M907.000000,1001.000000 
	C604.666687,1001.000000 302.833344,1001.000000 1.000000,1001.000000 
	C1.000000,667.666687 1.000000,334.333344 1.000000,1.000000 
	C334.333344,1.000000 667.666687,1.000000 1001.000000,1.000000 
	C1001.000000,334.333344 1001.000000,667.666687 1001.000000,1001.000000 
	C969.833313,1001.000000 938.666687,1001.000000 907.000000,1001.000000 
M904.273010,551.302490 
	C905.490417,550.842957 906.707825,550.383484 908.484131,550.328064 
	C909.831787,551.055054 911.179443,551.782043 913.051147,552.791687 
	C912.600281,549.456116 912.297668,547.217529 912.607544,544.695679 
	C917.056763,540.126404 921.505981,535.557190 926.714722,530.980347 
	C932.916626,529.410034 932.083740,524.502930 932.042847,519.208374 
	C932.361084,516.138428 932.679321,513.068420 933.703186,510.122101 
	C934.898621,510.978424 936.093994,511.834747 937.289490,512.691101 
	C937.859314,511.265167 938.713440,509.880615 938.928528,508.403015 
	C939.211487,506.459076 939.008362,504.441833 938.984985,502.456421 
	C938.943665,498.950195 937.339355,497.687897 933.955688,498.339905 
	C933.959534,497.893524 933.963379,497.447113 934.536377,496.791351 
	C935.698853,496.329102 937.802124,495.978760 937.872559,495.386597 
	C938.365540,491.242157 938.438538,487.047729 938.645935,482.869354 
	C937.392761,482.912323 936.060913,482.711334 934.913391,483.081726 
	C934.113098,483.340027 933.565491,484.381409 932.384827,484.558075 
	C930.553772,479.395721 928.722717,474.233398 927.473938,468.610962 
	C927.566345,465.980896 928.034912,463.268799 927.491760,460.777283 
	C927.352661,460.139160 923.971558,460.365479 922.166199,459.876373 
	C921.000488,459.560486 919.991638,458.665405 918.294495,457.754883 
	C915.611267,455.402374 913.012512,452.943481 910.220825,450.727692 
	C907.498718,448.567169 904.623535,446.588257 901.721436,444.672180 
	C900.761902,444.038666 899.012024,443.172882 898.474548,443.568756 
	C895.658875,445.642700 894.046021,444.464355 892.362854,442.106323 
	C891.774658,441.282349 890.554016,440.459503 889.593323,440.424225 
	C882.886536,440.178131 876.170471,440.025696 869.461304,440.120056 
	C867.950317,440.141296 866.454773,441.254517 864.325195,442.043365 
	C863.892334,442.072571 863.459534,442.101746 862.478455,441.513031 
	C854.916504,439.186462 848.681213,443.473358 842.078857,445.729279 
	C839.122681,446.739380 836.101013,448.032471 833.645264,449.901611 
	C831.094055,451.843384 829.159485,454.608887 827.009888,457.062103 
	C821.028503,463.888245 814.777466,470.485596 811.753235,479.392365 
	C808.579102,488.740845 808.603210,498.356750 809.181274,507.957031 
	C809.678284,516.210938 810.891235,524.418396 816.980896,530.885742 
	C823.040405,537.321045 829.040710,543.812134 835.026245,550.235168 
	C834.642212,551.103210 833.999634,552.555725 833.357056,554.008240 
	C834.817017,553.636719 836.259949,553.078796 837.741516,552.943481 
	C839.377930,552.794006 841.140625,552.712646 842.691284,553.153687 
	C851.489197,555.656128 860.240051,558.323792 869.277893,561.326294 
	C869.845459,560.861755 870.412964,560.397156 871.615295,559.856445 
	C872.581543,559.415771 873.545410,558.605042 874.514587,558.598633 
	C878.657410,558.571167 882.801758,558.781006 887.341370,559.476868 
	C892.661926,562.772278 892.369019,556.380920 895.729919,554.936035 
	C897.150208,554.606995 898.570435,554.277893 900.071411,554.669067 
	C901.843628,555.992188 903.498352,557.554138 905.449463,558.513489 
	C906.166321,558.865967 907.583923,557.793396 908.681885,557.370789 
	C908.169128,556.316650 907.844177,555.095398 907.094116,554.252441 
	C906.237366,553.289490 905.002319,552.663147 904.273010,551.302490 
M733.414734,487.023224 
	C727.884583,478.123535 722.404236,469.192047 716.766357,460.361115 
	C715.992676,459.149200 714.462341,457.662567 713.237244,457.620636 
	C705.802185,457.366089 698.354004,457.493744 690.726562,457.493744 
	C690.726562,486.938782 690.726562,515.863159 690.726562,544.855225 
	C697.710083,544.855225 704.439819,544.855225 711.338379,544.855225 
	C711.338379,526.207092 711.338379,507.880432 711.338379,488.578369 
	C722.777039,506.890198 733.663269,524.358521 744.623291,541.780334 
	C745.433105,543.067566 746.740967,544.939026 747.874268,544.980469 
	C755.608459,545.263184 763.358032,545.128540 771.016479,545.128540 
	C771.016479,515.569336 771.016479,486.761353 771.016479,457.722351 
	C764.082642,457.722351 757.326172,457.722351 750.450439,457.722351 
	C750.450439,476.099152 750.450439,494.246399 750.450439,512.393616 
	C750.141418,512.503601 749.832397,512.613586 749.523376,512.723572 
	C744.297546,504.351776 739.071655,495.980011 733.414734,487.023224 
M346.663696,468.164520 
	C328.747192,486.776337 328.986847,517.258057 347.571686,535.087708 
	C359.494476,546.526062 374.277557,549.362366 390.135712,546.975098 
	C406.792206,544.467651 419.389862,535.839233 425.530884,519.869690 
	C431.874969,503.372101 430.966278,486.946533 419.951660,472.573273 
	C403.596252,451.230774 367.530701,449.084869 346.663696,468.164520 
M256.142365,537.425781 
	C256.142365,539.874207 256.142365,542.322632 256.142365,544.893738 
	C263.408539,544.893738 270.153259,544.893738 277.183960,544.893738 
	C277.183960,533.321228 277.183960,522.030701 277.183960,510.931549 
	C282.265594,509.435577 284.971710,511.405853 287.151428,515.789062 
	C291.511963,524.557678 296.353149,533.093262 301.202972,541.607056 
	C302.049408,543.093018 303.865601,544.950317 305.308960,545.017273 
	C312.728821,545.361206 320.173157,545.176636 328.235443,545.176636 
	C320.482635,532.439575 313.119446,520.342651 305.641846,508.057678 
	C306.723602,507.535492 307.294952,507.237610 307.883453,506.978821 
	C318.996185,502.091827 324.410126,493.532593 323.434692,482.383606 
	C322.353943,470.030884 315.753784,460.978088 303.638458,459.447540 
	C288.074585,457.481323 272.252808,457.556763 256.142365,456.732239 
	C256.142365,484.173187 256.142365,510.309326 256.142365,537.425781 
M101.902489,527.571411 
	C111.396492,527.567322 120.893822,527.438721 130.380981,527.691101 
	C131.835892,527.729858 133.867172,529.210449 134.555176,530.569275 
	C136.498032,534.406616 137.762878,538.581543 139.560013,542.501892 
	C140.065933,543.605530 141.463135,545.017639 142.490433,545.049927 
	C149.576279,545.272522 156.672424,545.166992 164.350845,545.166992 
	C152.329910,516.196716 140.596802,487.858765 128.728912,459.577362 
	C128.319458,458.601654 126.579338,457.647400 125.429001,457.609619 
	C119.456848,457.413452 113.474800,457.518311 107.250427,457.518311 
	C95.047760,486.607788 82.878700,515.617126 70.476669,545.181885 
	C77.907860,545.181885 84.562813,545.336731 91.198586,545.048950 
	C92.497612,544.992676 94.271393,543.483032 94.883171,542.195618 
	C97.137283,537.451965 98.995193,532.520142 101.902489,527.571411 
M679.468811,543.269836 
	C667.585815,514.654724 655.702759,486.039551 643.871033,457.547852 
	C636.793030,457.547852 630.152405,457.547852 623.149048,457.547852 
	C611.001831,486.489349 598.835693,515.475952 586.370178,545.175781 
	C589.690186,545.175781 592.293579,545.200623 594.896240,545.170410 
	C599.713928,545.114502 605.772095,546.772400 609.008057,544.472595 
	C612.408875,542.055542 613.400574,535.929443 614.885620,531.246704 
	C615.903320,528.037659 617.607544,527.367859 620.671265,527.447815 
	C628.487976,527.651978 636.320251,527.706543 644.132751,527.433777 
	C647.937439,527.300964 650.166077,528.039673 651.320679,532.157837 
	C652.553955,536.556824 653.732788,542.312073 656.945923,544.441345 
	C660.217773,546.609497 665.941650,545.243896 670.583679,545.119263 
	C673.671692,545.036438 676.745178,544.416016 679.468811,543.269836 
M441.994141,461.728699 
	C441.994141,489.484222 441.994141,517.239746 441.994141,544.991943 
	C449.424438,544.991943 456.221558,544.991943 463.557892,544.991943 
	C463.557892,534.073425 463.557892,523.329163 463.557892,512.791321 
	C471.698486,512.149170 479.379944,512.110352 486.848602,510.830078 
	C500.301270,508.524017 508.667023,498.318542 508.865356,485.100769 
	C509.070587,471.427002 501.566681,461.043030 487.547699,459.285522 
	C473.256592,457.493927 458.679016,457.947418 444.222137,457.636841 
	C443.499390,457.621307 442.731873,459.688202 441.994141,461.728699 
M520.817932,527.499146 
	C520.817932,533.272034 520.817932,539.044983 520.817932,544.821289 
	C539.479614,544.821289 557.654541,544.821289 575.770020,544.821289 
	C575.770020,538.697388 575.770020,532.932495 575.770020,526.605347 
	C564.507996,526.605347 553.468384,526.605347 542.078979,526.605347 
	C542.078979,503.294067 542.078979,480.548553 542.078979,457.830322 
	C534.843994,457.830322 527.986328,457.830322 520.817932,457.830322 
	C520.817932,480.942566 520.817932,503.721100 520.817932,527.499146 
M169.249756,459.158905 
	C173.958969,470.801025 181.032593,475.737061 193.717468,475.832977 
	C209.035690,475.948792 224.355484,475.866699 239.674561,475.844330 
	C240.678940,475.842865 241.682999,475.620636 243.503983,475.403900 
	C236.976059,469.900543 231.269440,464.818268 225.235245,460.160400 
	C223.314026,458.677368 220.532776,457.604553 218.126663,457.568420 
	C202.978073,457.340942 187.824234,457.438660 172.672409,457.500671 
	C171.494705,457.505463 170.319214,458.058563 169.249756,459.158905 
M169.417252,528.953796 
	C172.423065,538.252991 178.822952,544.440430 188.438522,544.823792 
	C206.340836,545.537415 224.291885,545.028564 243.483063,545.028564 
	C236.044479,538.823608 229.516678,533.258789 222.811798,527.916138 
	C221.819122,527.125122 219.990402,527.191650 218.547424,527.187012 
	C203.413910,527.138367 188.280060,527.131592 173.146698,527.199280 
	C171.844757,527.205139 170.545578,527.826660 169.417252,528.953796 
M189.500519,492.441528 
	C182.775177,492.441528 176.049820,492.441528 169.152847,492.441528 
	C171.921387,502.945740 178.641922,509.570160 188.425110,509.999176 
	C203.887726,510.677185 219.391235,510.428253 234.877579,510.551880 
	C236.258545,510.562897 237.640640,510.429138 240.023621,510.314484 
	C233.764893,505.048981 228.218567,500.571472 222.903854,495.834137 
	C220.133881,493.365021 217.276398,492.221405 213.490479,492.358521 
	C205.836166,492.635773 198.164780,492.441467 189.500519,492.441528 
z"/>
<path fill="#FCFCFC" opacity="1.000000" stroke="none" 
	d="
M733.630249,487.315735 
	C739.071655,495.980011 744.297546,504.351776 749.523376,512.723572 
	C749.832397,512.613586 750.141418,512.503601 750.450439,512.393616 
	C750.450439,494.246399 750.450439,476.099152 750.450439,457.722351 
	C757.326172,457.722351 764.082642,457.722351 771.016479,457.722351 
	C771.016479,486.761353 771.016479,515.569336 771.016479,545.128540 
	C763.358032,545.128540 755.608459,545.263184 747.874268,544.980469 
	C746.740967,544.939026 745.433105,543.067566 744.623291,541.780334 
	C733.663269,524.358521 722.777039,506.890198 711.338379,488.578369 
	C711.338379,507.880432 711.338379,526.207092 711.338379,544.855225 
	C704.439819,544.855225 697.710083,544.855225 690.726562,544.855225 
	C690.726562,515.863159 690.726562,486.938782 690.726562,457.493744 
	C698.354004,457.493744 705.802185,457.366089 713.237244,457.620636 
	C714.462341,457.662567 715.992676,459.149200 716.766357,460.361115 
	C722.404236,469.192047 727.884583,478.123535 733.630249,487.315735 
z"/>
<path fill="#FAFAFA" opacity="1.000000" stroke="none" 
	d="
M346.911865,467.909302 
	C367.530701,449.084869 403.596252,451.230774 419.951660,472.573273 
	C430.966278,486.946533 431.874969,503.372101 425.530884,519.869690 
	C419.389862,535.839233 406.792206,544.467651 390.135712,546.975098 
	C374.277557,549.362366 359.494476,546.526062 347.571686,535.087708 
	C328.986847,517.258057 328.747192,486.776337 346.911865,467.909302 
M356.527740,502.412750 
	C356.692413,503.903107 356.815094,505.399475 357.028351,506.882843 
	C358.956635,520.294617 370.023163,529.301819 383.211639,528.210571 
	C399.921051,526.828125 410.031189,510.452057 405.071014,492.803589 
	C400.633026,477.013245 383.618164,469.742981 369.291504,477.653992 
	C359.979156,482.796082 356.781006,491.396759 356.527740,502.412750 
z"/>
<path fill="#FAFAFA" opacity="1.000000" stroke="none" 
	d="
M256.142365,536.935608 
	C256.142365,510.309326 256.142365,484.173187 256.142365,456.732239 
	C272.252808,457.556763 288.074585,457.481323 303.638458,459.447540 
	C315.753784,460.978088 322.353943,470.030884 323.434692,482.383606 
	C324.410126,493.532593 318.996185,502.091827 307.883453,506.978821 
	C307.294952,507.237610 306.723602,507.535492 305.641846,508.057678 
	C313.119446,520.342651 320.482635,532.439575 328.235443,545.176636 
	C320.173157,545.176636 312.728821,545.361206 305.308960,545.017273 
	C303.865601,544.950317 302.049408,543.093018 301.202972,541.607056 
	C296.353149,533.093262 291.511963,524.557678 287.151428,515.789062 
	C284.971710,511.405853 282.265594,509.435577 277.183960,510.931549 
	C277.183960,522.030701 277.183960,533.321228 277.183960,544.893738 
	C270.153259,544.893738 263.408539,544.893738 256.142365,544.893738 
	C256.142365,542.322632 256.142365,539.874207 256.142365,536.935608 
M277.001862,483.501465 
	C277.001862,487.263702 277.001862,491.025909 277.001862,495.537781 
	C283.510986,494.939270 289.502747,494.876251 295.271698,493.710663 
	C300.308014,492.693024 302.343658,488.844543 302.166473,483.600830 
	C301.995026,478.525787 298.764923,475.907654 294.418091,475.280975 
	C288.784210,474.468719 283.014648,474.597717 277.001984,474.306915 
	C277.001984,477.566467 277.001984,480.040131 277.001862,483.501465 
z"/>
<path fill="#FAFAFA" opacity="1.000000" stroke="none" 
	d="
M101.452309,527.615234 
	C98.995193,532.520142 97.137283,537.451965 94.883171,542.195618 
	C94.271393,543.483032 92.497612,544.992676 91.198586,545.048950 
	C84.562813,545.336731 77.907860,545.181885 70.476669,545.181885 
	C82.878700,515.617126 95.047760,486.607788 107.250427,457.518311 
	C113.474800,457.518311 119.456848,457.413452 125.429001,457.609619 
	C126.579338,457.647400 128.319458,458.601654 128.728912,459.577362 
	C140.596802,487.858765 152.329910,516.196716 164.350845,545.166992 
	C156.672424,545.166992 149.576279,545.272522 142.490433,545.049927 
	C141.463135,545.017639 140.065933,543.605530 139.560013,542.501892 
	C137.762878,538.581543 136.498032,534.406616 134.555176,530.569275 
	C133.867172,529.210449 131.835892,527.729858 130.380981,527.691101 
	C120.893822,527.438721 111.396492,527.567322 101.452309,527.615234 
M123.507782,498.958588 
	C121.542786,493.532806 119.577782,488.107025 117.242867,481.659821 
	C113.547073,491.579620 110.172768,500.636505 106.731575,509.872925 
	C113.813713,509.872925 120.374306,509.872925 127.430511,509.872925 
	C126.126717,506.188477 124.974785,502.933167 123.507782,498.958588 
z"/>
<path fill="#FAFAFA" opacity="1.000000" stroke="none" 
	d="
M679.646973,543.653015 
	C676.745178,544.416016 673.671692,545.036438 670.583679,545.119263 
	C665.941650,545.243896 660.217773,546.609497 656.945923,544.441345 
	C653.732788,542.312073 652.553955,536.556824 651.320679,532.157837 
	C650.166077,528.039673 647.937439,527.300964 644.132751,527.433777 
	C636.320251,527.706543 628.487976,527.651978 620.671265,527.447815 
	C617.607544,527.367859 615.903320,528.037659 614.885620,531.246704 
	C613.400574,535.929443 612.408875,542.055542 609.008057,544.472595 
	C605.772095,546.772400 599.713928,545.114502 594.896240,545.170410 
	C592.293579,545.200623 589.690186,545.175781 586.370178,545.175781 
	C598.835693,515.475952 611.001831,486.489349 623.149048,457.547852 
	C630.152405,457.547852 636.793030,457.547852 643.871033,457.547852 
	C655.702759,486.039551 667.585815,514.654724 679.646973,543.653015 
M628.670044,510.167847 
	C633.407959,510.167847 638.145813,510.167847 643.480591,510.167847 
	C640.018433,500.620483 636.796448,491.735382 633.124390,481.609039 
	C629.399658,491.715790 626.089355,500.698273 622.599487,510.167877 
	C624.762390,510.167877 626.242676,510.167877 628.670044,510.167847 
z"/>
<path fill="#FCFCFC" opacity="1.000000" stroke="none" 
	d="
M441.989685,461.257080 
	C442.731873,459.688202 443.499390,457.621307 444.222137,457.636841 
	C458.679016,457.947418 473.256592,457.493927 487.547699,459.285522 
	C501.566681,461.043030 509.070587,471.427002 508.865356,485.100769 
	C508.667023,498.318542 500.301270,508.524017 486.848602,510.830078 
	C479.379944,512.110352 471.698486,512.149170 463.557892,512.791321 
	C463.557892,523.329163 463.557892,534.073425 463.557892,544.991943 
	C456.221558,544.991943 449.424438,544.991943 441.994141,544.991943 
	C441.994141,517.239746 441.994141,489.484222 441.989685,461.257080 
M473.364624,494.981232 
	C475.992371,494.654816 478.708923,494.644257 481.229156,493.935547 
	C486.310486,492.506561 489.253113,488.241547 488.813812,483.594757 
	C488.380310,479.009430 485.156738,475.550262 479.840820,475.099670 
	C474.604309,474.655823 469.300781,475.002838 463.747070,475.002838 
	C463.747070,481.583344 463.747070,488.154633 463.747070,495.000885 
	C466.792816,495.000885 469.609375,495.000885 473.364624,494.981232 
z"/>
<path fill="#FCFCFC" opacity="1.000000" stroke="none" 
	d="
M520.817932,526.999390 
	C520.817932,503.721100 520.817932,480.942566 520.817932,457.830322 
	C527.986328,457.830322 534.843994,457.830322 542.078979,457.830322 
	C542.078979,480.548553 542.078979,503.294067 542.078979,526.605347 
	C553.468384,526.605347 564.507996,526.605347 575.770020,526.605347 
	C575.770020,532.932495 575.770020,538.697388 575.770020,544.821289 
	C557.654541,544.821289 539.479614,544.821289 520.817932,544.821289 
	C520.817932,539.044983 520.817932,533.272034 520.817932,526.999390 
z"/>
<path fill="#F3F3F3" opacity="1.000000" stroke="none" 
	d="
M169.196228,458.757874 
	C170.319214,458.058563 171.494705,457.505463 172.672409,457.500671 
	C187.824234,457.438660 202.978073,457.340942 218.126663,457.568420 
	C220.532776,457.604553 223.314026,458.677368 225.235245,460.160400 
	C231.269440,464.818268 236.976059,469.900543 243.503983,475.403900 
	C241.682999,475.620636 240.678940,475.842865 239.674561,475.844330 
	C224.355484,475.866699 209.035690,475.948792 193.717468,475.832977 
	C181.032593,475.737061 173.958969,470.801025 169.196228,458.757874 
z"/>
<path fill="#FAFAFA" opacity="1.000000" stroke="none" 
	d="
M169.331177,528.557983 
	C170.545578,527.826660 171.844757,527.205139 173.146698,527.199280 
	C188.280060,527.131592 203.413910,527.138367 218.547424,527.187012 
	C219.990402,527.191650 221.819122,527.125122 222.811798,527.916138 
	C229.516678,533.258789 236.044479,538.823608 243.483063,545.028564 
	C224.291885,545.028564 206.340836,545.537415 188.438522,544.823792 
	C178.822952,544.440430 172.423065,538.252991 169.331177,528.557983 
z"/>
<path fill="#F3F3F3" opacity="1.000000" stroke="none" 
	d="
M190.000473,492.441559 
	C198.164780,492.441467 205.836166,492.635773 213.490479,492.358521 
	C217.276398,492.221405 220.133881,493.365021 222.903854,495.834137 
	C228.218567,500.571472 233.764893,505.048981 240.023621,510.314484 
	C237.640640,510.429138 236.258545,510.562897 234.877579,510.551880 
	C219.391235,510.428253 203.887726,510.677185 188.425110,509.999176 
	C178.641922,509.570160 171.921387,502.945740 169.152847,492.441528 
	C176.049820,492.441528 182.775177,492.441528 190.000473,492.441559 
z"/>
<path fill="#380405" opacity="1.000000" stroke="none" 
	d="
M869.006958,560.935181 
	C860.240051,558.323792 851.489197,555.656128 842.691284,553.153687 
	C841.140625,552.712646 839.377930,552.794006 837.741516,552.943481 
	C836.259949,553.078796 834.817017,553.636719 833.357056,554.008240 
	C833.999634,552.555725 834.642212,551.103210 835.026245,550.235168 
	C829.040710,543.812134 823.040405,537.321045 816.980896,530.885742 
	C810.891235,524.418396 809.678284,516.210938 809.181274,507.957031 
	C808.603210,498.356750 808.579102,488.740845 811.753235,479.392365 
	C814.777466,470.485596 821.028503,463.888245 827.009888,457.062103 
	C829.159485,454.608887 831.094055,451.843384 833.645264,449.901611 
	C836.101013,448.032471 839.122681,446.739380 842.078857,445.729279 
	C848.681213,443.473358 854.916504,439.186462 862.740295,442.045349 
	C863.002136,442.577698 862.962585,443.023834 862.599731,442.996216 
	C861.514465,443.052216 860.792114,443.135773 859.673950,443.159882 
	C849.439148,445.216675 840.178955,448.543732 832.561646,455.869507 
	C832.059204,456.143524 831.830505,456.369843 831.386902,456.732117 
	C830.710815,457.171967 830.303284,457.529999 829.620117,458.045593 
	C828.192200,459.434387 827.039917,460.665649 825.644897,462.043701 
	C825.140808,462.687164 824.879395,463.183899 824.317017,463.822784 
	C800.186646,489.739838 810.373352,536.482666 842.999756,550.424438 
	C843.710632,550.853760 844.233276,551.069092 845.024414,551.517456 
	C850.913269,553.475769 856.594421,555.030884 862.126343,557.004333 
	C864.575623,557.878113 866.722717,559.598938 869.006958,560.935181 
z"/>
<path fill="#380405" opacity="1.000000" stroke="none" 
	d="
M886.945557,558.904358 
	C882.801758,558.781006 878.657410,558.571167 874.514587,558.598633 
	C873.545410,558.605042 872.581543,559.415771 871.263916,559.495605 
	C871.666687,554.591492 872.715271,550.073547 873.107971,545.499329 
	C873.743713,538.094055 873.948853,530.651733 874.511597,523.199829 
	C874.687500,523.174622 875.010437,523.026367 875.374756,523.053650 
	C877.557007,523.952698 879.375061,524.824524 880.812744,525.776367 
	C878.503540,525.935486 876.377014,525.610840 876.323059,528.610718 
	C876.233459,533.597778 876.079468,538.584839 875.869873,543.568359 
	C875.724304,547.029541 877.826294,547.224243 880.433167,546.980896 
	C888.280090,546.248047 895.197327,543.526428 901.146545,538.180115 
	C902.391602,537.061279 904.738403,537.168457 906.448425,536.947510 
	C906.131348,537.688232 905.943359,538.192200 905.757324,538.720459 
	C905.759338,538.744873 905.774170,538.791504 905.524170,538.837769 
	C905.110229,539.165100 904.946350,539.446167 904.745056,539.711670 
	C904.707703,539.696167 904.627686,539.708496 904.299805,539.747437 
	C901.947266,541.153564 899.922607,542.520691 897.939941,543.935425 
	C897.981995,543.983032 897.931946,543.866333 897.630981,543.882874 
	C896.870911,544.254517 896.411743,544.609558 895.977539,544.980225 
	C896.002563,544.995789 895.970825,544.945984 895.602417,544.958862 
	C892.350647,546.249146 889.467407,547.526550 886.442139,548.765686 
	C886.300232,548.727478 886.030945,548.845398 885.604980,548.838989 
	C876.715393,549.838867 876.010498,550.601318 878.095520,557.245850 
	C882.323364,556.445984 886.621826,555.632751 890.775146,555.118591 
	C889.401917,556.579834 888.173706,557.742126 886.945557,558.904358 
z"/>
<path fill="#380405" opacity="1.000000" stroke="none" 
	d="
M933.967285,497.000732 
	C933.963379,497.447113 933.959534,497.893524 933.959595,499.117950 
	C933.641479,503.263489 933.319458,506.630981 932.997559,509.998474 
	C932.679321,513.068420 932.361084,516.138428 931.695679,519.741699 
	C929.550720,523.846008 927.752991,527.416992 925.955200,530.987915 
	C921.505981,535.557190 917.056763,540.126404 911.991699,544.846191 
	C910.967346,545.047852 910.558960,545.098999 910.059814,545.066406 
	C909.969055,544.982727 909.785095,544.818115 909.829834,544.596436 
	C909.874634,544.374817 909.876160,543.921570 909.915955,543.953491 
	C909.955750,543.985474 909.921997,543.889160 910.199341,543.795044 
	C910.729126,543.206787 910.981506,542.712708 911.150085,542.203369 
	C911.066284,542.188171 911.239197,542.234802 911.577148,542.208984 
	C924.948486,531.634888 931.394958,517.852539 932.023560,501.216309 
	C932.476440,489.231262 928.813660,478.395233 923.150757,468.183105 
	C924.633179,468.455811 925.762390,468.763428 926.891663,469.071045 
	C928.722717,474.233398 930.553772,479.395721 932.676514,485.224701 
	C933.301270,489.594452 933.634277,493.297607 933.967285,497.000732 
z"/>
<path fill="#B93B3A" opacity="1.000000" stroke="none" 
	d="
M874.335754,523.225098 
	C873.948853,530.651733 873.743713,538.094055 873.107971,545.499329 
	C872.715271,550.073547 871.666687,554.591492 870.946533,559.533691 
	C870.412964,560.397156 869.845459,560.861755 869.142456,561.130737 
	C866.722717,559.598938 864.575623,557.878113 862.126343,557.004333 
	C856.594421,555.030884 850.913269,553.475769 845.099121,551.427368 
	C844.905518,551.104309 845.054382,550.923523 845.452637,550.950623 
	C852.270508,552.499023 858.665588,554.141174 865.128296,555.449341 
	C866.587646,555.744751 869.465454,555.199585 869.659485,554.487732 
	C870.410339,551.733643 870.340332,548.755676 870.576050,545.861145 
	C869.768677,545.935974 868.961243,546.010803 868.143616,545.660889 
	C868.436157,538.171204 868.738953,531.106201 869.425293,524.018066 
	C871.317810,523.738220 872.826782,523.481689 874.335754,523.225098 
z"/>
<path fill="#380405" opacity="1.000000" stroke="none" 
	d="
M864.952087,441.865082 
	C866.454773,441.254517 867.950317,440.141296 869.461304,440.120056 
	C876.170471,440.025696 882.886536,440.178131 889.593323,440.424225 
	C890.554016,440.459503 891.774658,441.282349 892.362854,442.106323 
	C894.046021,444.464355 895.658875,445.642700 898.474548,443.568756 
	C899.012024,443.172882 900.761902,444.038666 901.721436,444.672180 
	C904.623535,446.588257 907.498718,448.567169 910.220825,450.727692 
	C913.012512,452.943481 915.611267,455.402374 918.631226,458.280518 
	C919.265381,460.575378 919.562866,462.344574 919.557678,463.984314 
	C917.158203,461.915710 915.061340,459.976532 912.973999,458.030457 
	C912.983582,458.023529 912.955811,458.038300 912.842957,457.721222 
	C909.071228,454.872986 905.528381,452.150574 901.731628,449.846680 
	C890.414490,442.979431 877.873596,441.482574 864.952087,441.865082 
z"/>
<path fill="#B93B3A" opacity="1.000000" stroke="none" 
	d="
M864.638672,441.954224 
	C877.873596,441.482574 890.414490,442.979431 901.731628,449.846680 
	C905.528381,452.150574 909.071228,454.872986 912.461914,457.721252 
	C910.838928,457.555481 909.293945,457.343689 908.158752,456.547607 
	C897.176208,448.845764 885.427490,443.541748 871.628357,443.929047 
	C868.750488,444.009827 865.851746,443.345032 862.962585,443.023834 
	C862.962585,443.023834 863.002136,442.577698 863.014404,442.354309 
	C863.459534,442.101746 863.892334,442.072571 864.638672,441.954224 
z"/>
<path fill="#070304" opacity="1.000000" stroke="none" 
	d="
M934.251831,496.896057 
	C933.634277,493.297607 933.301270,489.594452 932.936646,485.482117 
	C933.565491,484.381409 934.113098,483.340027 934.913391,483.081726 
	C936.060913,482.711334 937.392761,482.912323 938.645935,482.869324 
	C938.438538,487.047729 938.365540,491.242157 937.872559,495.386597 
	C937.802124,495.978760 935.698853,496.329102 934.251831,496.896057 
z"/>
<path fill="#070304" opacity="1.000000" stroke="none" 
	d="
M933.350342,510.060303 
	C933.319458,506.630981 933.641479,503.263489 933.966553,499.452698 
	C937.339355,497.687897 938.943665,498.950195 938.984985,502.456421 
	C939.008362,504.441833 939.211487,506.459076 938.928528,508.403015 
	C938.713440,509.880615 937.859314,511.265167 937.289429,512.691101 
	C936.093994,511.834747 934.898621,510.978424 933.350342,510.060303 
z"/>
<path fill="#070304" opacity="1.000000" stroke="none" 
	d="
M919.860352,464.113770 
	C919.562866,462.344574 919.265381,460.575378 918.940186,458.418030 
	C919.991638,458.665405 921.000488,459.560486 922.166199,459.876373 
	C923.971558,460.365479 927.352661,460.139160 927.491760,460.777283 
	C928.034912,463.268799 927.566345,465.980896 927.182800,468.841003 
	C925.762390,468.763428 924.633179,468.455811 923.165039,468.166168 
	C922.826172,468.184143 922.825317,468.143860 922.879761,467.767212 
	C921.914734,466.296143 920.895142,465.201752 919.875610,464.092834 
	C919.875549,464.078339 919.860352,464.113770 919.860352,464.113770 
z"/>
<path fill="#380405" opacity="1.000000" stroke="none" 
	d="
M899.990723,553.948853 
	C898.570435,554.277893 897.150208,554.606995 894.939087,554.965210 
	C893.305115,554.876892 892.461975,554.759460 891.903931,554.425171 
	C898.054321,551.078308 903.919739,547.948242 909.785095,544.818115 
	C909.785095,544.818115 909.969055,544.982727 910.002563,545.412598 
	C909.332397,547.202942 908.628845,548.563416 907.925232,549.923950 
	C906.707825,550.383484 905.490417,550.842957 903.762329,551.625244 
	C902.164673,552.614868 901.077698,553.281860 899.990723,553.948853 
z"/>
<path fill="#070304" opacity="1.000000" stroke="none" 
	d="
M900.031067,554.308960 
	C901.077698,553.281860 902.164673,552.614868 903.591675,551.919312 
	C905.002319,552.663147 906.237366,553.289490 907.094116,554.252441 
	C907.844177,555.095398 908.169128,556.316650 908.681885,557.370850 
	C907.583923,557.793396 906.166321,558.865967 905.449463,558.513489 
	C903.498352,557.554138 901.843628,555.992188 900.031067,554.308960 
z"/>
<path fill="#070304" opacity="1.000000" stroke="none" 
	d="
M926.334961,530.984131 
	C927.752991,527.416992 929.550720,523.846008 931.652222,520.102661 
	C932.083740,524.502930 932.916626,529.410034 926.334961,530.984131 
z"/>
<path fill="#070304" opacity="1.000000" stroke="none" 
	d="
M891.618896,554.641968 
	C892.461975,554.759460 893.305115,554.876892 894.574890,555.016113 
	C892.369019,556.380920 892.661926,562.772278 887.143433,559.190613 
	C888.173706,557.742126 889.401917,556.579834 890.945618,555.057373 
	C891.261169,554.697205 891.618896,554.641968 891.618896,554.641968 
z"/>
<path fill="#070304" opacity="1.000000" stroke="none" 
	d="
M908.204712,550.125977 
	C908.628845,548.563416 909.332397,547.202942 910.093262,545.496216 
	C910.558960,545.098999 910.967346,545.047852 911.685425,544.987793 
	C912.297668,547.217529 912.600281,549.456116 913.051147,552.791687 
	C911.179443,551.782043 909.831787,551.055054 908.204712,550.125977 
z"/>
<path fill="#070304" opacity="1.000000" stroke="none" 
	d="
M356.504517,501.942993 
	C356.781006,491.396759 359.979156,482.796082 369.291504,477.653992 
	C383.618164,469.742981 400.633026,477.013245 405.071014,492.803589 
	C410.031189,510.452057 399.921051,526.828125 383.211639,528.210571 
	C370.023163,529.301819 358.956635,520.294617 357.028351,506.882843 
	C356.815094,505.399475 356.692413,503.903107 356.504517,501.942993 
z"/>
<path fill="#070304" opacity="1.000000" stroke="none" 
	d="
M277.001923,483.007629 
	C277.001984,480.040131 277.001984,477.566467 277.001984,474.306915 
	C283.014648,474.597717 288.784210,474.468719 294.418091,475.280975 
	C298.764923,475.907654 301.995026,478.525787 302.166473,483.600830 
	C302.343658,488.844543 300.308014,492.693024 295.271698,493.710663 
	C289.502747,494.876251 283.510986,494.939270 277.001862,495.537781 
	C277.001862,491.025909 277.001862,487.263702 277.001923,483.007629 
z"/>
<path fill="#070304" opacity="1.000000" stroke="none" 
	d="
M123.665314,499.318237 
	C124.974785,502.933167 126.126717,506.188477 127.430511,509.872925 
	C120.374306,509.872925 113.813713,509.872925 106.731575,509.872925 
	C110.172768,500.636505 113.547073,491.579620 117.242867,481.659821 
	C119.577782,488.107025 121.542786,493.532806 123.665314,499.318237 
z"/>
<path fill="#070304" opacity="1.000000" stroke="none" 
	d="
M628.196533,510.167847 
	C626.242676,510.167877 624.762390,510.167877 622.599487,510.167877 
	C626.089355,500.698273 629.399658,491.715790 633.124390,481.609039 
	C636.796448,491.735382 640.018433,500.620483 643.480591,510.167847 
	C638.145813,510.167847 633.407959,510.167847 628.196533,510.167847 
z"/>
<path fill="#070304" opacity="1.000000" stroke="none" 
	d="
M472.895264,494.991058 
	C469.609375,495.000885 466.792816,495.000885 463.747070,495.000885 
	C463.747070,488.154633 463.747070,481.583344 463.747070,475.002838 
	C469.300781,475.002838 474.604309,474.655823 479.840820,475.099670 
	C485.156738,475.550262 488.380310,479.009430 488.813812,483.594757 
	C489.253113,488.241547 486.310486,492.506561 481.229156,493.935547 
	C478.708923,494.644257 475.992371,494.654816 472.895264,494.991058 
z"/>
<path fill="#E3322F" opacity="1.000000" stroke="none" 
	d="
M862.599731,442.996216 
	C865.851746,443.345032 868.750488,444.009827 871.628357,443.929047 
	C885.427490,443.541748 897.176208,448.845764 908.158752,456.547607 
	C909.293945,457.343689 910.838928,457.555481 912.574768,458.038330 
	C912.955811,458.038300 912.983582,458.023529 912.977356,458.395020 
	C914.051270,460.572021 914.789124,462.744812 916.267700,464.122864 
	C925.143311,472.394897 928.389771,483.534973 929.665161,494.643707 
	C931.302002,508.900970 928.052795,522.501404 917.316345,533.370667 
	C914.838745,535.878967 913.241516,539.256958 911.239197,542.234802 
	C911.239197,542.234802 911.066284,542.188171 910.857361,542.264160 
	C910.406311,542.856506 910.164124,543.372803 909.921997,543.889160 
	C909.921997,543.889160 909.955750,543.985474 909.548401,543.974731 
	C904.990417,545.928406 900.750122,547.726257 896.711792,549.899414 
	C891.623352,552.637573 886.303162,553.751221 879.600708,553.888184 
	C882.385315,551.704407 884.208130,550.274902 886.030945,548.845398 
	C886.030945,548.845398 886.300232,548.727478 886.883545,548.829346 
	C890.301575,547.602783 893.136169,546.274414 895.970825,544.945984 
	C895.970825,544.945984 896.002563,544.995789 896.290649,544.986084 
	C897.029846,544.606323 897.480896,544.236328 897.931946,543.866333 
	C897.931946,543.866333 897.981995,543.983032 898.323486,543.971924 
	C900.652527,542.543396 902.640137,541.125977 904.627686,539.708496 
	C904.627686,539.708496 904.707703,539.696167 905.012756,539.693115 
	C905.469971,539.390503 905.622070,539.091003 905.774170,538.791504 
	C905.774170,538.791504 905.759338,538.744873 906.131958,538.796753 
	C909.586792,538.086548 912.079224,536.764404 912.362305,532.962524 
	C913.166870,531.965637 913.639648,531.035339 914.444031,530.037720 
	C915.951172,529.253906 917.818542,528.795471 918.196716,527.781494 
	C922.686523,515.745117 927.916870,504.223145 924.416992,490.313416 
	C922.339050,482.054688 919.244751,474.825714 914.816284,467.895691 
	C914.296326,467.082123 912.703247,466.954376 911.616577,466.431946 
	C911.625488,466.355194 911.711487,466.226776 911.695740,465.959869 
	C911.375977,465.556580 911.071960,465.420197 910.732117,465.285461 
	C910.696289,465.287079 910.625488,465.275818 910.721313,464.915588 
	C909.086914,460.713989 906.395264,458.180786 901.975586,458.022095 
	C902.003662,458.006927 901.966309,458.058868 901.953003,457.746887 
	C900.922302,457.037567 899.904907,456.640228 898.613403,456.164307 
	C897.882874,455.761353 897.426514,455.437042 896.868713,454.869141 
	C896.456604,454.495483 896.145874,454.365387 895.813232,454.236694 
	C895.791321,454.238098 895.755798,454.264069 895.694824,453.898987 
	C893.116943,452.658722 890.599976,451.783478 887.839111,450.653259 
	C874.883728,443.954712 862.136353,446.865540 849.045044,450.216980 
	C849.949158,448.533173 851.158997,447.690002 852.455322,447.012207 
	C854.967712,445.698700 857.528809,444.478302 860.069763,443.219299 
	C860.792114,443.135773 861.514465,443.052216 862.599731,442.996216 
z"/>
<path fill="#B93B3A" opacity="1.000000" stroke="none" 
	d="
M842.811584,550.210510 
	C810.373352,536.482666 800.186646,489.739838 824.418457,463.905640 
	C824.821045,463.846405 825.018799,464.018311 824.849854,464.339447 
	C823.507263,467.328094 822.724182,470.267273 821.091187,472.615265 
	C814.633301,481.900238 811.569336,491.898621 812.920959,503.299011 
	C814.681519,518.149231 820.404907,530.809998 832.083923,540.488892 
	C835.802612,543.570740 839.456909,546.730286 843.057983,549.942932 
	C842.975342,550.031616 842.811584,550.210510 842.811584,550.210510 
z"/>
<path fill="#B93B3A" opacity="1.000000" stroke="none" 
	d="
M859.673950,443.159851 
	C857.528809,444.478302 854.967712,445.698700 852.455322,447.012207 
	C851.158997,447.690002 849.949158,448.533173 849.045044,450.216980 
	C862.136353,446.865540 874.883728,443.954712 887.771423,450.737030 
	C887.947693,451.075806 887.816467,451.243713 887.416138,451.196594 
	C882.790833,450.443207 878.590088,449.476898 874.336243,449.080627 
	C862.699829,447.996643 852.251160,451.961639 842.123779,456.780212 
	C843.783508,454.399139 845.458374,452.371429 847.133240,450.343719 
	C845.098755,450.235046 843.338440,450.801300 841.696899,451.608856 
	C838.791992,453.037964 835.959290,454.613800 833.018555,456.037354 
	C832.940796,455.946442 832.781738,455.767609 832.781738,455.767609 
	C840.178955,448.543732 849.439148,445.216675 859.673950,443.159851 
z"/>
<path fill="#B93B3A" opacity="1.000000" stroke="none" 
	d="
M825.887634,461.896942 
	C827.039917,460.665649 828.192200,459.434387 829.688599,458.115631 
	C830.032654,458.028137 830.171448,458.166382 830.110107,458.517944 
	C828.754822,459.970245 827.460815,461.070984 826.097412,462.102661 
	C826.028015,462.033569 825.887634,461.896942 825.887634,461.896942 
z"/>
<path fill="#B93B3A" opacity="1.000000" stroke="none" 
	d="
M824.719543,463.763550 
	C824.879395,463.183899 825.140808,462.687164 825.644897,462.043701 
	C825.887634,461.896942 826.028015,462.033569 826.020752,462.372955 
	C825.681885,463.147675 825.350342,463.582977 825.018799,464.018311 
	C825.018799,464.018311 824.821045,463.846405 824.719543,463.763550 
z"/>
<path fill="#B93B3A" opacity="1.000000" stroke="none" 
	d="
M844.830750,551.194397 
	C844.233276,551.069092 843.710632,550.853760 842.999756,550.424438 
	C842.811584,550.210510 842.975342,550.031616 843.333618,550.006653 
	C844.145996,550.295654 844.600220,550.609558 845.054382,550.923523 
	C845.054382,550.923523 844.905518,551.104309 844.830750,551.194397 
z"/>
<path fill="#B93B3A" opacity="1.000000" stroke="none" 
	d="
M829.964233,457.958069 
	C830.303284,457.529999 830.710815,457.171967 831.478455,456.825073 
	C831.838562,456.836212 832.020813,457.022888 831.857300,457.253296 
	C831.186279,457.711273 830.678894,457.938843 830.171448,458.166382 
	C830.171448,458.166382 830.032654,458.028137 829.964233,457.958069 
z"/>
<path fill="#B93B3A" opacity="1.000000" stroke="none" 
	d="
M831.747009,456.743286 
	C831.830505,456.369843 832.059204,456.143524 832.561646,455.869507 
	C832.781738,455.767609 832.940796,455.946442 832.876587,456.227600 
	C832.594482,456.750702 832.330566,456.922089 832.020813,457.022888 
	C832.020813,457.022888 831.838562,456.836212 831.747009,456.743286 
z"/>
<path fill="#E3322F" opacity="1.000000" stroke="none" 
	d="
M874.511597,523.199829 
	C872.826782,523.481689 871.317810,523.738220 869.268738,523.819397 
	C868.463928,523.439636 868.199219,523.235291 867.890381,522.678467 
	C862.801941,520.067383 859.275391,523.508728 855.742981,525.923096 
	C851.586975,528.763550 849.138245,528.917114 845.647583,525.327820 
	C844.033813,526.214478 842.443970,527.087952 839.502014,528.704407 
	C841.856262,523.223511 839.616394,518.421753 844.269653,514.531921 
	C847.864014,511.527252 845.860718,507.599731 841.461548,505.799774 
	C838.328186,504.517700 835.576843,502.301758 832.677185,500.241699 
	C832.794739,499.645691 832.890137,499.310547 833.265198,498.746033 
	C833.007812,497.025879 832.470764,495.535065 831.959351,494.018311 
	C831.984924,493.992371 831.952942,494.057098 831.941040,493.680664 
	C831.596130,491.779114 831.263184,490.254028 831.052551,489.289062 
	C834.068176,486.796356 839.017883,490.385345 839.946289,484.879791 
	C840.007019,484.899933 839.881836,484.884003 840.296448,484.929810 
	C843.732910,486.137512 846.686462,487.559998 849.799194,488.374908 
	C852.088135,488.974121 854.585205,488.778107 857.121704,488.863373 
	C857.253784,488.790253 857.554688,488.763977 857.955078,488.828369 
	C862.951599,487.025055 863.018311,486.239380 858.970459,480.685303 
	C858.919189,479.930176 858.922363,479.496338 859.218262,478.803375 
	C860.580994,475.591309 861.651001,472.638367 862.736816,469.700806 
	C862.752686,469.716187 862.796570,469.720947 863.059265,469.707031 
	C863.512024,469.415497 863.702087,469.137878 863.947388,468.907349 
	C864.002563,468.954407 863.872498,468.890045 864.125916,468.825897 
	C864.566345,468.480316 864.753296,468.198853 864.953857,467.962280 
	C864.967529,468.007141 864.921509,467.923340 865.289551,467.913757 
	C866.775330,466.613312 867.877563,465.308624 869.015625,464.035919 
	C869.896423,463.050934 870.821838,462.105865 871.727417,461.143005 
	C872.486267,462.093567 873.322510,462.993195 873.987854,464.005249 
	C875.392639,466.142426 876.258240,469.590271 878.146912,470.269012 
	C883.266113,472.108582 883.189270,474.905975 882.368652,479.465637 
	C881.781006,482.730743 879.701843,487.820648 886.205322,489.360901 
	C889.170776,490.028290 892.077881,491.061890 893.494629,487.075134 
	C896.894165,486.381256 899.912720,485.727783 903.024719,485.434387 
	C904.328979,486.508881 905.579224,487.887024 906.743347,487.817719 
	C910.825806,487.574677 911.446594,489.709595 910.663330,493.133789 
	C909.842346,494.813049 908.776672,496.379608 908.920288,497.826050 
	C909.205261,500.695618 908.751770,502.470886 905.637451,503.340332 
	C903.487976,503.940399 901.472412,505.192017 899.580200,506.431976 
	C899.049316,506.779877 899.166931,508.117462 898.975586,509.371216 
	C899.080444,510.468872 899.196655,511.196442 899.039551,512.097229 
	C900.047119,516.268005 901.362976,520.254883 902.594177,524.267761 
	C903.188660,526.205566 902.824402,529.029236 900.540405,527.593994 
	C897.545715,525.712097 895.753967,527.521240 893.358459,527.793152 
	C891.506714,528.003235 889.410156,527.035400 887.578613,526.234192 
	C884.102173,524.713440 880.773682,522.851868 877.281738,521.372681 
	C876.837830,521.184570 875.782532,522.439819 875.010437,523.026367 
	C875.010437,523.026367 874.687500,523.174622 874.511597,523.199829 
z"/>
<path fill="#070304" opacity="1.000000" stroke="none" 
	d="
M906.577515,536.710693 
	C904.738403,537.168457 902.391602,537.061279 901.146545,538.180115 
	C895.197327,543.526428 888.280090,546.248047 880.433167,546.980896 
	C877.826294,547.224243 875.724304,547.029541 875.869873,543.568359 
	C876.079468,538.584839 876.233459,533.597778 876.323059,528.610718 
	C876.377014,525.610840 878.503540,525.935486 880.803467,525.804504 
	C881.174377,525.752686 881.162292,525.807617 881.260864,526.093689 
	C881.732544,526.475525 882.105652,526.571289 882.646057,526.639221 
	C882.813416,526.611389 883.119751,526.757385 883.138062,527.138550 
	C884.446167,528.003723 885.736084,528.487793 887.012939,528.984741 
	C887.000000,528.997559 887.025818,528.967163 887.046448,529.322144 
	C888.530457,531.076477 889.993835,532.475830 891.457153,533.875183 
	C892.260864,532.868408 893.064514,531.861572 893.937012,530.919800 
	C894.005737,530.984924 893.859863,530.865662 894.219482,530.909912 
	C895.413696,530.333313 896.248230,529.712402 897.441650,529.036682 
	C898.518188,529.068787 899.235657,529.155762 900.143433,529.515686 
	C902.428467,531.983276 904.523132,534.177795 906.614014,536.457703 
	C906.610168,536.543030 906.577515,536.710693 906.577515,536.710693 
z"/>
<path fill="#B93B3A" opacity="1.000000" stroke="none" 
	d="
M883.119751,526.757385 
	C883.119751,526.757385 882.813416,526.611389 882.476685,526.426086 
	C881.814087,526.096375 881.488159,525.952026 881.162292,525.807617 
	C881.162292,525.807617 881.174377,525.752686 881.183716,525.724487 
	C879.375061,524.824524 877.557007,523.952698 875.374756,523.053650 
	C875.782532,522.439819 876.837830,521.184570 877.281738,521.372681 
	C880.773682,522.851868 884.102173,524.713440 887.578613,526.234192 
	C889.410156,527.035400 891.506714,528.003235 893.358459,527.793152 
	C895.753967,527.521240 897.545715,525.712097 900.540405,527.593994 
	C902.824402,529.029236 903.188660,526.205566 902.594177,524.267761 
	C901.362976,520.254883 900.047119,516.268005 899.266541,512.211792 
	C900.196777,512.414001 900.626526,512.674927 901.250183,513.193054 
	C902.459839,514.273987 903.475708,515.097717 904.491516,515.921448 
	C904.073242,516.052795 903.654968,516.184143 903.236694,516.315491 
	C904.052673,520.710693 904.868591,525.105896 905.750366,529.855591 
	C903.739868,529.643005 901.846497,529.442871 899.953186,529.242676 
	C899.235657,529.155762 898.518188,529.068787 897.082764,528.958252 
	C895.529907,529.578369 894.694885,530.222046 893.859863,530.865662 
	C893.859863,530.865662 894.005737,530.984924 893.575684,530.946167 
	C891.105713,530.260681 889.065735,529.613953 887.025818,528.967163 
	C887.025818,528.967163 887.000000,528.997559 886.835632,528.707275 
	C885.487427,527.863770 884.303589,527.310547 883.119751,526.757385 
z"/>
<path fill="#B93B3A" opacity="1.000000" stroke="none" 
	d="
M885.604980,548.838989 
	C884.208130,550.274902 882.385315,551.704407 879.600708,553.888184 
	C886.303162,553.751221 891.623352,552.637573 896.711792,549.899414 
	C900.750122,547.726257 904.990417,545.928406 909.508606,543.942749 
	C909.876160,543.921570 909.874634,544.374817 909.829834,544.596436 
	C903.919739,547.948242 898.054321,551.078308 891.903931,554.425171 
	C891.618896,554.641968 891.261169,554.697205 891.090698,554.758423 
	C886.621826,555.632751 882.323364,556.445984 878.095520,557.245850 
	C876.010498,550.601318 876.715393,549.838867 885.604980,548.838989 
z"/>
<path fill="#B93B3A" opacity="1.000000" stroke="none" 
	d="
M912.030457,533.029175 
	C912.079224,536.764404 909.586792,538.086548 906.129944,538.772400 
	C905.943359,538.192200 906.131348,537.688232 906.448425,536.947510 
	C906.577515,536.710693 906.610168,536.543030 906.901489,536.395874 
	C908.637268,535.010132 910.081604,533.771545 911.652100,532.656982 
	C911.778259,532.781006 912.030457,533.029175 912.030457,533.029175 
z"/>
<path fill="#B93B3A" opacity="1.000000" stroke="none" 
	d="
M895.602417,544.958862 
	C893.136169,546.274414 890.301575,547.602783 887.025513,548.867554 
	C889.467407,547.526550 892.350647,546.249146 895.602417,544.958862 
z"/>
<path fill="#B93B3A" opacity="1.000000" stroke="none" 
	d="
M904.299805,539.747437 
	C902.640137,541.125977 900.652527,542.543396 898.281494,543.924377 
	C899.922607,542.520691 901.947266,541.153564 904.299805,539.747437 
z"/>
<path fill="#B93B3A" opacity="1.000000" stroke="none" 
	d="
M897.630981,543.882874 
	C897.480896,544.236328 897.029846,544.606323 896.265686,544.970459 
	C896.411743,544.609558 896.870911,544.254517 897.630981,543.882874 
z"/>
<path fill="#B93B3A" opacity="1.000000" stroke="none" 
	d="
M905.524170,538.837769 
	C905.622070,539.091003 905.469971,539.390503 905.050110,539.708618 
	C904.946350,539.446167 905.110229,539.165100 905.524170,538.837769 
z"/>
<path fill="#B93B3A" opacity="1.000000" stroke="none" 
	d="
M911.577148,542.208984 
	C913.241516,539.256958 914.838745,535.878967 917.316345,533.370667 
	C928.052795,522.501404 931.302002,508.900970 929.665161,494.643707 
	C928.389771,483.534973 925.143311,472.394897 916.267700,464.122864 
	C914.789124,462.744812 914.051270,460.572021 912.967773,458.401917 
	C915.061340,459.976532 917.158203,461.915710 919.557739,463.984314 
	C919.860352,464.113770 919.875549,464.078339 919.930176,464.410461 
	C920.931641,465.876343 921.878479,467.010101 922.825317,468.143860 
	C922.825317,468.143860 922.826172,468.184143 922.811890,468.201080 
	C928.813660,478.395233 932.476440,489.231262 932.023560,501.216309 
	C931.394958,517.852539 924.948486,531.634888 911.577148,542.208984 
z"/>
<path fill="#B93B3A" opacity="1.000000" stroke="none" 
	d="
M910.199341,543.795044 
	C910.164124,543.372803 910.406311,542.856506 910.941162,542.279419 
	C910.981506,542.712708 910.729126,543.206787 910.199341,543.795044 
z"/>
<path fill="#E3322F" opacity="1.000000" stroke="none" 
	d="
M831.857300,457.253296 
	C832.330566,456.922089 832.594482,456.750702 832.954407,456.318512 
	C835.959290,454.613800 838.791992,453.037964 841.696899,451.608856 
	C843.338440,450.801300 845.098755,450.235046 847.133240,450.343719 
	C845.458374,452.371429 843.783508,454.399139 842.102173,456.768219 
	C842.095642,457.109589 842.086792,457.063019 841.839722,457.131165 
	C841.391785,457.465881 841.190979,457.732391 840.994568,457.998840 
	C840.998962,457.998779 841.001221,457.990814 840.635498,457.986145 
	C839.196716,459.010406 838.123657,460.039337 837.026489,461.034729 
	C837.002441,461.001160 837.065796,461.054199 836.689392,461.031677 
	C833.758362,462.681458 830.862671,464.012939 828.749939,466.126953 
	C826.836426,468.041534 825.474670,470.682098 824.400879,473.226715 
	C821.795471,479.400879 818.576477,485.532349 817.360657,492.010590 
	C816.326233,497.521729 817.451965,503.528900 818.157043,509.250702 
	C818.875427,515.080627 819.930725,520.976440 825.206360,524.758545 
	C825.145386,524.724304 825.280579,524.764038 825.216187,525.139771 
	C827.175598,529.181580 826.925293,534.792847 833.087036,534.932251 
	C833.024292,534.998779 833.129639,534.849487 833.117188,535.212463 
	C834.147339,536.293884 835.190002,537.012329 836.166016,537.815552 
	C836.099304,537.900391 836.268005,537.765869 836.208496,538.137573 
	C838.509949,539.963379 840.871033,541.417480 843.435547,542.929138 
	C843.893799,543.111206 844.127625,543.267151 844.349426,543.832031 
	C847.100281,548.473633 861.347717,553.571411 865.573547,551.504395 
	C866.684143,550.961182 867.126770,549.052368 867.895142,547.485474 
	C867.993958,546.828735 868.073914,546.457214 868.153870,546.085632 
	C868.961243,546.010803 869.768677,545.935974 870.576050,545.861145 
	C870.340332,548.755676 870.410339,551.733643 869.659485,554.487732 
	C869.465454,555.199585 866.587646,555.744751 865.128296,555.449341 
	C858.665588,554.141174 852.270508,552.499023 845.452637,550.950623 
	C844.600220,550.609558 844.145996,550.295654 843.416260,549.917969 
	C839.456909,546.730286 835.802612,543.570740 832.083923,540.488892 
	C820.404907,530.809998 814.681519,518.149231 812.920959,503.299011 
	C811.569336,491.898621 814.633301,481.900238 821.091187,472.615265 
	C822.724182,470.267273 823.507263,467.328094 824.849854,464.339447 
	C825.350342,463.582977 825.681885,463.147675 826.090088,462.442047 
	C827.460815,461.070984 828.754822,459.970245 830.110107,458.517944 
	C830.678894,457.938843 831.186279,457.711273 831.857300,457.253296 
z"/>
<path fill="#380405" opacity="1.000000" stroke="none" 
	d="
M868.143616,545.660889 
	C868.073914,546.457214 867.993958,546.828735 867.605469,547.735840 
	C865.749512,548.808044 864.005615,550.092529 862.690063,549.746887 
	C858.000610,548.514771 853.456787,546.728516 848.927490,545.077454 
	C848.997192,545.002930 849.137024,544.854431 849.551270,544.898682 
	C854.165344,545.640625 858.352783,546.691956 862.571655,546.838318 
	C863.990540,546.887512 866.323425,544.887573 866.777222,543.383362 
	C867.710266,540.290771 868.015503,536.887390 867.895386,533.637268 
	C867.801697,531.100769 866.675293,528.602417 865.898743,525.676147 
	C863.486755,527.042786 862.090942,527.884216 860.648621,528.636597 
	C859.194946,529.394897 857.432434,529.772217 856.260925,530.823975 
	C851.216492,535.352661 849.672363,534.010986 846.379028,528.964233 
	C850.179199,531.705994 853.205627,530.002502 856.435120,528.302002 
	C860.160583,526.340332 864.092346,524.770752 867.934570,523.030884 
	C868.199219,523.235291 868.463928,523.439636 868.885193,523.842651 
	C868.738953,531.106201 868.436157,538.171204 868.143616,545.660889 
z"/>
<path fill="#380405" opacity="1.000000" stroke="none" 
	d="
M922.879761,467.767212 
	C921.878479,467.010101 920.931641,465.876343 919.930176,464.424957 
	C920.895142,465.201752 921.914734,466.296143 922.879761,467.767212 
z"/>
<path fill="#B93B3A" opacity="1.000000" stroke="none" 
	d="
M911.607666,466.508667 
	C912.703247,466.954376 914.296326,467.082123 914.816284,467.895691 
	C919.244751,474.825714 922.339050,482.054688 924.416992,490.313416 
	C927.916870,504.223145 922.686523,515.745117 918.196716,527.781494 
	C917.818542,528.795471 915.951172,529.253906 914.371338,529.973694 
	C913.966980,529.976929 913.820251,529.850220 913.916870,529.517578 
	C916.600220,523.450623 919.186890,517.716248 921.854858,511.666870 
	C921.986511,510.921448 922.036987,510.491058 922.355469,509.777222 
	C925.414551,494.857361 922.621338,481.545563 913.125244,469.503845 
	C912.563538,468.305450 912.085632,467.407074 911.607666,466.508667 
z"/>
<path fill="#380405" opacity="1.000000" stroke="none" 
	d="
M911.616577,466.431946 
	C912.085632,467.407074 912.563538,468.305450 913.031982,469.592834 
	C913.022461,469.981812 912.838135,470.159454 912.488342,470.097229 
	C911.025269,469.409302 909.694885,468.997253 908.834656,468.122711 
	C903.892883,463.098969 899.240906,457.762665 892.189941,455.472961 
	C891.259338,455.170776 890.626831,453.950714 889.949219,453.052734 
	C890.042175,452.949707 890.227173,452.742889 890.584473,452.815338 
	C892.546448,453.346558 894.151123,453.805298 895.755798,454.264069 
	C895.755798,454.264069 895.791321,454.238098 895.903442,454.480408 
	C896.333740,454.852692 896.651978,454.982697 896.970154,455.112701 
	C897.426514,455.437042 897.882874,455.761353 898.796265,456.410767 
	C900.157654,457.176880 901.061951,457.617889 901.966309,458.058899 
	C901.966309,458.058868 902.003662,458.006927 902.118774,458.325745 
	C905.031067,460.855011 907.828308,463.065399 910.625488,465.275818 
	C910.625488,465.275818 910.696289,465.287079 910.782593,465.528656 
	C911.149780,465.922424 911.430603,466.074585 911.711487,466.226776 
	C911.711487,466.226776 911.625488,466.355194 911.616577,466.431946 
z"/>
<path fill="#B93B3A" opacity="1.000000" stroke="none" 
	d="
M910.721313,464.915588 
	C907.828308,463.065399 905.031067,460.855011 902.090698,458.340942 
	C906.395264,458.180786 909.086914,460.713989 910.721313,464.915588 
z"/>
<path fill="#B93B3A" opacity="1.000000" stroke="none" 
	d="
M895.694824,453.898987 
	C894.151123,453.805298 892.546448,453.346558 890.373901,452.619995 
	C889.142883,451.982727 888.479675,451.613220 887.816467,451.243713 
	C887.816467,451.243713 887.947693,451.075806 888.015381,450.992004 
	C890.599976,451.783478 893.116943,452.658722 895.694824,453.898987 
z"/>
<path fill="#B93B3A" opacity="1.000000" stroke="none" 
	d="
M901.953003,457.746887 
	C901.061951,457.617889 900.157654,457.176880 899.070435,456.489380 
	C899.904907,456.640228 900.922302,457.037567 901.953003,457.746887 
z"/>
<path fill="#B93B3A" opacity="1.000000" stroke="none" 
	d="
M914.039673,530.041016 
	C913.639648,531.035339 913.166870,531.965637 912.362305,532.962524 
	C912.030457,533.029175 911.778259,532.781006 911.794617,532.396301 
	C912.480713,531.291138 913.150452,530.570679 913.820190,529.850220 
	C913.820251,529.850220 913.966980,529.976929 914.039673,530.041016 
z"/>
<path fill="#B93B3A" opacity="1.000000" stroke="none" 
	d="
M911.695740,465.959869 
	C911.430603,466.074585 911.149780,465.922424 910.818420,465.527039 
	C911.071960,465.420197 911.375977,465.556580 911.695740,465.959869 
z"/>
<path fill="#B93B3A" opacity="1.000000" stroke="none" 
	d="
M896.868713,454.869141 
	C896.651978,454.982697 896.333740,454.852692 895.925415,454.478973 
	C896.145874,454.365387 896.456604,454.495483 896.868713,454.869141 
z"/>
<path fill="#380405" opacity="1.000000" stroke="none" 
	d="
M887.416138,451.196594 
	C888.479675,451.613220 889.142883,451.982727 890.016602,452.547546 
	C890.227173,452.742889 890.042175,452.949707 889.540344,453.007874 
	C880.479797,453.345306 872.123230,449.076111 863.441345,451.968689 
	C858.474609,453.623444 852.335205,452.429199 848.608276,457.973602 
	C847.489624,457.985291 846.743591,457.990936 845.648193,457.990570 
	C844.192200,458.650970 843.085632,459.317413 841.824768,460.280701 
	C839.109131,462.380646 836.547668,464.183716 833.808105,465.808868 
	C833.510925,465.512512 833.392029,465.394073 833.484497,465.044708 
	C834.819153,463.560577 835.942505,462.307373 837.065796,461.054199 
	C837.065796,461.054199 837.002441,461.001160 837.331848,460.933899 
	C838.774597,459.908051 839.887878,458.949432 841.001221,457.990814 
	C841.001221,457.990814 840.998962,457.998779 841.251099,457.942932 
	C841.697693,457.612427 841.892273,457.337738 842.086792,457.063019 
	C842.086792,457.063019 842.095642,457.109589 842.117310,457.121582 
	C852.251160,451.961639 862.699829,447.996643 874.336243,449.080627 
	C878.590088,449.476898 882.790833,450.443207 887.416138,451.196594 
z"/>
<path fill="#380405" opacity="1.000000" stroke="none" 
	d="
M832.985596,498.975372 
	C832.890137,499.310547 832.794739,499.645691 832.408447,500.335510 
	C831.751160,500.789948 831.384766,500.889679 830.741028,500.744781 
	C828.857178,496.544800 827.250732,492.589447 825.644226,488.634125 
	C824.961365,488.692871 824.278564,488.751617 823.595764,488.810364 
	C822.724304,491.327148 821.274719,493.801544 821.086548,496.368439 
	C820.440491,505.181671 822.386353,513.708130 826.844116,521.202637 
	C828.776855,524.452026 829.102356,530.116699 835.007324,530.359985 
	C836.072327,532.199280 837.156860,533.656189 838.206604,535.137756 
	C839.542542,537.023376 840.850342,538.928955 842.086182,540.912231 
	C842.002075,540.998413 841.834961,541.171753 841.534058,541.034790 
	C839.578125,539.853882 837.923096,538.809875 836.268005,537.765869 
	C836.268005,537.765869 836.099304,537.900391 836.090698,537.507812 
	C835.097900,536.359924 834.113770,535.604736 833.129639,534.849487 
	C833.129639,534.849487 833.024292,534.998779 833.015747,534.601685 
	C830.431641,531.057800 827.856140,527.910889 825.280579,524.764038 
	C825.280579,524.764038 825.145386,524.724304 825.189819,524.389648 
	C824.436157,522.060791 823.654480,520.059875 822.837402,518.073425 
	C815.385986,499.957092 819.504150,479.108887 833.273071,465.275665 
	C833.392029,465.394073 833.510925,465.512512 833.800537,466.176849 
	C832.320007,469.300110 830.594055,471.833344 829.038269,474.467041 
	C827.413757,477.217194 825.953003,480.064056 824.420593,482.868652 
	C824.892578,483.366547 825.364502,483.864471 825.836487,484.362366 
	C830.230469,483.252960 834.624390,482.143524 839.348938,481.027039 
	C840.119934,481.029694 840.560364,481.039459 840.998901,481.390137 
	C840.625366,482.782043 840.253601,483.833038 839.881836,484.884003 
	C839.881836,484.884003 840.007019,484.899933 839.543884,484.948547 
	C835.028564,485.458588 830.976318,485.919983 826.171143,486.467102 
	C828.240112,489.183105 830.096497,491.620117 831.952942,494.057129 
	C831.952942,494.057098 831.984924,493.992371 832.003174,494.378723 
	C832.342834,496.168518 832.664185,497.571960 832.985596,498.975372 
z"/>
<path fill="#B93B3A" opacity="1.000000" stroke="none" 
	d="
M831.018372,500.989441 
	C831.384766,500.889679 831.751160,500.789948 832.386292,500.596405 
	C835.576843,502.301758 838.328186,504.517700 841.461548,505.799774 
	C845.860718,507.599731 847.864014,511.527252 844.269653,514.531921 
	C839.616394,518.421753 841.856262,523.223511 839.502014,528.704407 
	C842.443970,527.087952 844.033813,526.214478 845.647583,525.327820 
	C849.138245,528.917114 851.586975,528.763550 855.742981,525.923096 
	C859.275391,523.508728 862.801941,520.067383 867.890381,522.678467 
	C864.092346,524.770752 860.160583,526.340332 856.435120,528.302002 
	C853.205627,530.002502 850.179199,531.705994 846.374634,528.962402 
	C846.000244,528.997559 845.992371,528.994812 845.912415,528.821045 
	C845.538269,528.761597 845.244019,528.875854 844.721436,528.984009 
	C844.493042,528.977844 844.052612,529.099548 843.662598,529.049927 
	C841.504883,529.420105 839.737244,529.839905 837.665405,530.203735 
	C836.958557,530.059509 836.555786,529.971191 836.291260,529.568787 
	C837.353821,525.812866 838.278259,522.371155 839.137329,518.599976 
	C838.866394,517.230042 838.660767,516.189392 838.764038,515.055603 
	C840.632690,513.258118 842.192322,511.553802 843.751953,509.849487 
	C842.217590,508.844482 840.683228,507.839478 839.145020,506.854858 
	C839.141174,506.875305 839.103455,506.857666 838.899841,506.584534 
	C836.161194,505.201813 833.626221,504.092255 831.046448,502.652466 
	C831.007263,501.877960 831.012817,501.433685 831.018372,500.989441 
z"/>
<path fill="#380405" opacity="1.000000" stroke="none" 
	d="
M858.925598,479.062500 
	C858.922363,479.496338 858.919189,479.930176 858.916626,481.094208 
	C858.463074,484.137604 858.008911,486.450775 857.554688,488.763977 
	C857.554688,488.763977 857.253784,488.790253 856.741455,488.840393 
	C851.828247,486.243500 847.427368,483.596436 843.239380,480.697205 
	C844.964844,480.643433 846.477539,480.841858 848.322205,481.048523 
	C849.096802,481.046814 849.539429,481.036896 850.119141,481.336182 
	C851.929077,483.317413 853.601990,484.989441 855.274963,486.661469 
	C855.536011,484.611572 855.798462,482.561890 856.055542,480.511475 
	C856.075989,480.348480 856.058716,480.180725 856.063477,479.636597 
	C856.059265,478.500763 856.050537,477.743530 856.021851,476.692322 
	C855.697327,475.927216 855.392822,475.456085 855.076294,474.552979 
	C855.056458,472.105804 855.048523,470.090576 855.422974,468.055878 
	C857.210449,467.702026 858.615662,467.367676 860.339905,467.007141 
	C861.437622,466.646118 862.216187,466.311279 863.286011,465.842041 
	C864.045898,464.804932 864.514648,463.902252 864.994629,462.672241 
	C865.010742,461.908813 865.015686,461.472656 865.325806,460.868591 
	C866.540527,458.963684 867.247925,457.069061 868.433960,455.547638 
	C869.169800,454.603577 870.056702,451.160583 871.683228,454.977478 
	C869.221069,459.405975 867.071289,463.664673 864.921509,467.923340 
	C864.921509,467.923340 864.967529,468.007141 864.714417,468.048096 
	C864.265015,468.356049 864.068787,468.623047 863.872559,468.890076 
	C863.872498,468.890045 864.002563,468.954407 863.704102,468.965912 
	C863.061401,469.109589 862.858337,469.357422 862.796570,469.720947 
	C862.796570,469.720947 862.752686,469.716187 862.376526,469.713318 
	C860.740479,469.710480 859.480591,469.710480 857.520996,469.710480 
	C858.012329,472.981659 858.468994,476.022064 858.925598,479.062500 
z"/>
<path fill="#B93B3A" opacity="1.000000" stroke="none" 
	d="
M865.289551,467.913757 
	C867.071289,463.664673 869.221069,459.405975 871.837891,455.184692 
	C872.504333,455.500061 872.703735,455.778046 872.951050,456.326416 
	C873.248596,456.858307 873.498352,457.119781 873.758057,457.555420 
	C873.767944,457.729614 873.923828,458.041809 873.956177,458.408661 
	C876.263855,463.861725 876.938904,470.401733 885.266541,470.181519 
	C884.913025,473.313995 884.226440,476.064606 884.393250,478.762421 
	C884.602417,482.144104 885.511719,485.482544 886.068115,488.908875 
	C886.017456,488.978119 885.918213,489.118134 885.918213,489.118134 
	C879.701843,487.820648 881.781006,482.730743 882.368652,479.465637 
	C883.189270,474.905975 883.266113,472.108582 878.146912,470.269012 
	C876.258240,469.590271 875.392639,466.142426 873.987854,464.005249 
	C873.322510,462.993195 872.486267,462.093567 871.727417,461.143005 
	C870.821838,462.105865 869.896423,463.050934 869.015625,464.035919 
	C867.877563,465.308624 866.775330,466.613312 865.289551,467.913757 
z"/>
<path fill="#B93B3A" opacity="1.000000" stroke="none" 
	d="
M898.987061,509.001129 
	C899.166931,508.117462 899.049316,506.779877 899.580200,506.431976 
	C901.472412,505.192017 903.487976,503.940399 905.637451,503.340332 
	C908.751770,502.470886 909.205261,500.695618 908.920288,497.826050 
	C908.776672,496.379608 909.842346,494.813049 910.799927,493.262329 
	C911.238708,493.223816 911.511902,493.480865 911.391846,493.795288 
	C911.146057,495.797607 911.020386,497.485504 911.051880,499.493408 
	C913.647461,503.725647 909.948425,503.810760 907.618774,504.948242 
	C904.495667,506.278198 901.741333,507.639679 898.987061,509.001129 
z"/>
<path fill="#B93B3A" opacity="1.000000" stroke="none" 
	d="
M911.102112,493.095276 
	C911.446594,489.709595 910.825806,487.574677 906.743347,487.817719 
	C905.579224,487.887024 904.328979,486.508881 903.114258,485.330444 
	C903.110352,484.866455 903.288269,484.657501 903.659912,484.808228 
	C905.789856,485.282837 907.541016,485.654114 909.308105,485.919281 
	C911.838074,486.299042 914.379639,486.601318 916.844116,487.105713 
	C916.772034,487.274780 916.736206,487.640594 916.436584,487.786316 
	C915.059204,489.594025 913.981445,491.255981 912.952454,492.955078 
	C913.001221,492.992249 912.915527,492.904175 912.660645,492.941528 
	C912.107727,493.146179 911.809814,493.313507 911.511902,493.480835 
	C911.511902,493.480865 911.238708,493.223816 911.102112,493.095276 
z"/>
<path fill="#B93B3A" opacity="1.000000" stroke="none" 
	d="
M831.941040,493.680664 
	C830.096497,491.620117 828.240112,489.183105 826.171143,486.467102 
	C830.976318,485.919983 835.028564,485.458588 839.483154,484.928406 
	C839.017883,490.385345 834.068176,486.796356 831.052551,489.289062 
	C831.263184,490.254028 831.596130,491.779114 831.941040,493.680664 
z"/>
<path fill="#B93B3A" opacity="1.000000" stroke="none" 
	d="
M843.026550,480.949371 
	C847.427368,483.596436 851.828247,486.243500 856.609314,488.913513 
	C854.585205,488.778107 852.088135,488.974121 849.799194,488.374908 
	C846.686462,487.559998 843.732910,486.137512 840.296448,484.929810 
	C840.253601,483.833038 840.625366,482.782043 841.332275,481.320801 
	C842.120483,480.923492 842.573486,480.936432 843.026550,480.949371 
z"/>
<path fill="#B93B3A" opacity="1.000000" stroke="none" 
	d="
M903.020752,484.970398 
	C899.912720,485.727783 896.894165,486.381256 893.409302,486.979523 
	C892.942993,486.924316 892.776184,486.729889 892.929504,486.487793 
	C893.818237,485.435028 894.553650,484.624329 895.544983,483.738953 
	C895.948120,483.564667 896.095337,483.465027 896.552856,483.308838 
	C897.619751,482.610046 898.376404,481.967712 899.473206,481.234283 
	C900.508972,481.127411 901.204590,481.111664 901.904541,481.425598 
	C902.368713,482.722687 902.828491,483.690094 903.288269,484.657501 
	C903.288269,484.657501 903.110352,484.866455 903.020752,484.970398 
z"/>
<path fill="#380405" opacity="1.000000" stroke="none" 
	d="
M898.975586,509.371216 
	C901.741333,507.639679 904.495667,506.278198 907.479736,505.269867 
	C906.343323,506.820984 904.875916,507.924835 903.643555,509.247589 
	C902.705322,510.254639 902.065491,511.539703 901.234131,512.760071 
	C901.175293,512.819092 901.056335,512.935852 901.056335,512.935852 
	C900.626526,512.674927 900.196777,512.414001 899.539917,512.038574 
	C899.196655,511.196442 899.080444,510.468872 898.975586,509.371216 
z"/>
<path fill="#B93B3A" opacity="1.000000" stroke="none" 
	d="
M859.218384,478.803375 
	C858.468994,476.022064 858.012329,472.981659 857.520996,469.710480 
	C859.480591,469.710480 860.740479,469.710480 862.360657,469.697937 
	C861.651001,472.638367 860.580994,475.591309 859.218384,478.803375 
z"/>
<path fill="#B93B3A" opacity="1.000000" stroke="none" 
	d="
M857.955078,488.828369 
	C858.008911,486.450775 858.463074,484.137604 858.971069,481.415527 
	C863.018311,486.239380 862.951599,487.025055 857.955078,488.828369 
z"/>
<path fill="#B93B3A" opacity="1.000000" stroke="none" 
	d="
M893.028320,487.019897 
	C892.077881,491.061890 889.170776,490.028290 886.205322,489.360901 
	C885.918213,489.118134 886.017456,488.978119 886.426025,488.928711 
	C888.815063,488.162811 890.795654,487.446350 892.776184,486.729858 
	C892.776184,486.729889 892.942993,486.924316 893.028320,487.019897 
z"/>
<path fill="#B93B3A" opacity="1.000000" stroke="none" 
	d="
M833.265137,498.746033 
	C832.664185,497.571960 832.342834,496.168518 831.977600,494.404663 
	C832.470764,495.535065 833.007812,497.025879 833.265137,498.746033 
z"/>
<path fill="#B93B3A" opacity="1.000000" stroke="none" 
	d="
M864.125977,468.825928 
	C864.068787,468.623047 864.265015,468.356049 864.700806,468.003204 
	C864.753296,468.198853 864.566345,468.480316 864.125977,468.825928 
z"/>
<path fill="#B93B3A" opacity="1.000000" stroke="none" 
	d="
M863.059265,469.707031 
	C862.858337,469.357422 863.061401,469.109589 863.648926,468.918823 
	C863.702087,469.137878 863.512024,469.415497 863.059265,469.707031 
z"/>
<path fill="#380405" opacity="1.000000" stroke="none" 
	d="
M913.916870,529.517578 
	C913.150452,530.570679 912.480713,531.291138 911.668457,532.272278 
	C910.081604,533.771545 908.637268,535.010132 906.905396,536.310547 
	C904.523132,534.177795 902.428467,531.983276 900.143433,529.515686 
	C901.846497,529.442871 903.739868,529.643005 905.750366,529.855591 
	C904.868591,525.105896 904.052673,520.710693 903.236694,516.315491 
	C903.654968,516.184143 904.073242,516.052795 904.491516,515.921448 
	C903.475708,515.097717 902.459839,514.273987 901.250183,513.193054 
	C901.056335,512.935852 901.175293,512.819092 901.628235,512.852051 
	C905.048340,512.684143 906.018127,513.977661 906.072205,517.007751 
	C906.153442,521.563477 906.894470,526.107483 907.354980,530.656433 
	C907.924988,530.929138 908.494995,531.201843 909.065002,531.474548 
	C910.428589,529.643738 911.908997,527.887390 913.132446,525.967285 
	C916.076904,521.346313 918.900940,516.648621 921.773560,511.981903 
	C919.186890,517.716248 916.600220,523.450623 913.916870,529.517578 
z"/>
<path fill="#380405" opacity="1.000000" stroke="none" 
	d="
M887.046448,529.322144 
	C889.065735,529.613953 891.105713,530.260681 893.506958,530.881104 
	C893.064514,531.861572 892.260864,532.868408 891.457153,533.875183 
	C889.993835,532.475830 888.530457,531.076477 887.046448,529.322144 
z"/>
<path fill="#380405" opacity="1.000000" stroke="none" 
	d="
M894.219482,530.909912 
	C894.694885,530.222046 895.529907,529.578369 896.723755,529.013062 
	C896.248230,529.712402 895.413696,530.333313 894.219482,530.909912 
z"/>
<path fill="#380405" opacity="1.000000" stroke="none" 
	d="
M883.138062,527.138550 
	C884.303589,527.310547 885.487427,527.863770 886.848633,528.694458 
	C885.736084,528.487793 884.446167,528.003723 883.138062,527.138550 
z"/>
<path fill="#380405" opacity="1.000000" stroke="none" 
	d="
M881.260864,526.093689 
	C881.488159,525.952026 881.814087,526.096375 882.309326,526.453918 
	C882.105652,526.571289 881.732544,526.475525 881.260864,526.093689 
z"/>
<path fill="#B93B3A" opacity="1.000000" stroke="none" 
	d="
M833.484497,465.044708 
	C819.504150,479.108887 815.385986,499.957092 822.837402,518.073425 
	C823.654480,520.059875 824.436157,522.060791 825.250732,524.423950 
	C819.930725,520.976440 818.875427,515.080627 818.157043,509.250702 
	C817.451965,503.528900 816.326233,497.521729 817.360657,492.010590 
	C818.576477,485.532349 821.795471,479.400879 824.400879,473.226715 
	C825.474670,470.682098 826.836426,468.041534 828.749939,466.126953 
	C830.862671,464.012939 833.758362,462.681458 836.689392,461.031677 
	C835.942505,462.307373 834.819153,463.560577 833.484497,465.044708 
z"/>
<path fill="#B93B3A" opacity="1.000000" stroke="none" 
	d="
M848.857849,545.151978 
	C853.456787,546.728516 858.000610,548.514771 862.690063,549.746887 
	C864.005615,550.092529 865.749512,548.808044 867.586548,548.020996 
	C867.126770,549.052368 866.684143,550.961182 865.573547,551.504395 
	C861.347717,553.571411 847.100281,548.473633 844.676880,543.937378 
	C846.282898,544.160767 847.570374,544.656372 848.857849,545.151978 
z"/>
<path fill="#B93B3A" opacity="1.000000" stroke="none" 
	d="
M825.216187,525.139771 
	C827.856140,527.910889 830.431641,531.057800 833.078491,534.535156 
	C826.925293,534.792847 827.175598,529.181580 825.216187,525.139771 
z"/>
<path fill="#380405" opacity="1.000000" stroke="none" 
	d="
M848.927490,545.077454 
	C847.570374,544.656372 846.282898,544.160767 844.667969,543.559814 
	C844.127625,543.267151 843.893799,543.111206 843.291016,542.692993 
	C842.573669,541.990234 842.204285,541.580994 841.834961,541.171753 
	C841.834961,541.171753 842.002075,540.998413 842.452881,540.964783 
	C844.981445,542.238953 847.059204,543.546692 849.137024,544.854431 
	C849.137024,544.854431 848.997192,545.002930 848.927490,545.077454 
z"/>
<path fill="#B93B3A" opacity="1.000000" stroke="none" 
	d="
M841.534058,541.034790 
	C842.204285,541.580994 842.573669,541.990234 843.087524,542.635498 
	C840.871033,541.417480 838.509949,539.963379 836.208496,538.137573 
	C837.923096,538.809875 839.578125,539.853882 841.534058,541.034790 
z"/>
<path fill="#B93B3A" opacity="1.000000" stroke="none" 
	d="
M833.117188,535.212463 
	C834.113770,535.604736 835.097900,536.359924 836.157349,537.422974 
	C835.190002,537.012329 834.147339,536.293884 833.117188,535.212463 
z"/>
<path fill="#B93B3A" opacity="1.000000" stroke="none" 
	d="
M840.635498,457.986145 
	C839.887878,458.949432 838.774597,459.908051 837.355957,460.967468 
	C838.123657,460.039337 839.196716,459.010406 840.635498,457.986145 
z"/>
<path fill="#B93B3A" opacity="1.000000" stroke="none" 
	d="
M841.839722,457.131165 
	C841.892273,457.337738 841.697693,457.612427 841.246704,457.942993 
	C841.190979,457.732391 841.391785,457.465881 841.839722,457.131165 
z"/>
<path fill="#070304" opacity="1.000000" stroke="none" 
	d="
M849.551270,544.898682 
	C847.059204,543.546692 844.981445,542.238953 842.536987,540.878540 
	C840.850342,538.928955 839.542542,537.023376 838.206604,535.137756 
	C837.156860,533.656189 836.072327,532.199280 835.000977,530.366333 
	C834.998718,530.001282 834.988037,530.011963 835.281128,529.996582 
	C835.767151,529.948425 835.960083,529.915710 836.153076,529.882935 
	C836.555786,529.971191 836.958557,530.059509 837.743408,530.512329 
	C840.101196,530.284424 842.076904,529.692017 844.052612,529.099548 
	C844.052612,529.099548 844.493042,528.977844 844.982178,529.017212 
	C845.644958,529.036011 845.818665,529.015381 845.992371,528.994812 
	C845.992371,528.994812 846.000244,528.997559 846.004578,528.999390 
	C849.672363,534.010986 851.216492,535.352661 856.260925,530.823975 
	C857.432434,529.772217 859.194946,529.394897 860.648621,528.636597 
	C862.090942,527.884216 863.486755,527.042786 865.898743,525.676147 
	C866.675293,528.602417 867.801697,531.100769 867.895386,533.637268 
	C868.015503,536.887390 867.710266,540.290771 866.777222,543.383362 
	C866.323425,544.887573 863.990540,546.887512 862.571655,546.838318 
	C858.352783,546.691956 854.165344,545.640625 849.551270,544.898682 
z"/>
<path fill="#070304" opacity="1.000000" stroke="none" 
	d="
M921.854858,511.666870 
	C918.900940,516.648621 916.076904,521.346313 913.132446,525.967285 
	C911.908997,527.887390 910.428589,529.643738 909.065002,531.474548 
	C908.494995,531.201843 907.924988,530.929138 907.354980,530.656433 
	C906.894470,526.107483 906.153442,521.563477 906.072205,517.007751 
	C906.018127,513.977661 905.048340,512.684143 901.687012,512.793030 
	C902.065491,511.539703 902.705322,510.254639 903.643555,509.247589 
	C904.875916,507.924835 906.343323,506.820984 907.848572,505.301392 
	C909.948425,503.810760 913.647461,503.725647 911.148926,499.126648 
	C911.697632,496.594604 912.306580,494.749390 912.915527,492.904175 
	C912.915527,492.904175 913.001221,492.992249 913.370605,492.979736 
	C918.168823,493.121094 916.816589,490.023132 916.736206,487.640594 
	C916.736206,487.640594 916.772034,487.274780 917.273193,487.119415 
	C920.466370,486.694794 921.101074,488.177826 921.061829,490.543732 
	C920.976379,495.695526 920.967773,500.851501 921.088745,506.001953 
	C921.120728,507.361938 921.738647,508.708160 922.087524,510.060699 
	C922.036987,510.491058 921.986511,510.921448 921.854858,511.666870 
z"/>
<path fill="#380405" opacity="1.000000" stroke="none" 
	d="
M922.355530,509.777222 
	C921.738647,508.708160 921.120728,507.361938 921.088745,506.001953 
	C920.967773,500.851501 920.976379,495.695526 921.061829,490.543732 
	C921.101074,488.177826 920.466370,486.694794 917.345276,486.950348 
	C914.379639,486.601318 911.838074,486.299042 909.308105,485.919281 
	C907.541016,485.654114 905.789856,485.282837 903.659912,484.808228 
	C902.828491,483.690094 902.368713,482.722687 902.299744,481.435547 
	C905.815125,481.758820 908.916931,482.650421 912.073792,482.938202 
	C913.612061,483.078461 916.482178,482.295929 916.602051,481.574310 
	C916.886475,479.862213 916.010132,477.894287 915.377808,476.109589 
	C914.659058,474.080933 913.695374,472.139069 912.838135,470.159485 
	C912.838135,470.159454 913.022461,469.981812 913.115723,469.892822 
	C922.621338,481.545563 925.414551,494.857361 922.355530,509.777222 
z"/>
<path fill="#070304" opacity="1.000000" stroke="none" 
	d="
M912.488281,470.097229 
	C913.695374,472.139069 914.659058,474.080933 915.377808,476.109589 
	C916.010132,477.894287 916.886475,479.862213 916.602051,481.574310 
	C916.482178,482.295929 913.612061,483.078461 912.073792,482.938202 
	C908.916931,482.650421 905.815125,481.758820 902.295410,481.105835 
	C901.204590,481.111664 900.508972,481.127411 899.300537,480.939758 
	C897.939270,481.612671 897.090881,482.489014 896.242554,483.365356 
	C896.095337,483.465027 895.948120,483.564667 895.384827,483.369171 
	C890.661926,480.242188 890.768616,486.843536 886.347351,486.296875 
	C886.347351,483.491058 886.301392,480.431488 886.361877,477.374023 
	C886.410156,474.934174 887.661621,471.596039 886.510742,470.224243 
	C882.777832,465.775146 878.185303,462.047333 873.923828,458.041809 
	C873.923828,458.041809 873.767944,457.729614 873.753662,457.263031 
	C873.460632,456.549622 873.181946,456.302826 872.903198,456.056030 
	C872.703735,455.778046 872.504333,455.500061 872.150269,455.014862 
	C870.056702,451.160583 869.169800,454.603577 868.433960,455.547638 
	C867.247925,457.069061 866.540527,458.963684 865.252930,460.505615 
	C861.172180,457.990051 857.579163,455.540741 852.916077,458.384125 
	C852.021545,458.929535 850.313538,458.140778 848.980835,457.967560 
	C852.335205,452.429199 858.474609,453.623444 863.441345,451.968689 
	C872.123230,449.076111 880.479797,453.345306 889.447388,453.110901 
	C890.626831,453.950714 891.259338,455.170776 892.189941,455.472961 
	C899.240906,457.762665 903.892883,463.098969 908.834656,468.122711 
	C909.694885,468.997253 911.025269,469.409302 912.488281,470.097229 
z"/>
<path fill="#000000" opacity="1.000000" stroke="none" 
	d="
M848.608276,457.973602 
	C850.313538,458.140778 852.021545,458.929535 852.916077,458.384125 
	C857.579163,455.540741 861.172180,457.990051 864.947815,460.673523 
	C865.015686,461.472656 865.010742,461.908813 864.654053,462.726990 
	C863.866455,464.064789 863.430603,465.020599 862.994812,465.976440 
	C862.216187,466.311279 861.437622,466.646118 860.130859,466.722534 
	C857.489807,465.324402 855.059021,463.284760 855.040649,468.075378 
	C855.048523,470.090576 855.056458,472.105804 854.661743,474.557831 
	C852.582458,475.379150 850.905762,475.763641 849.229004,476.148132 
	C849.390076,476.787170 849.551208,477.426178 849.712280,478.065186 
	C851.822144,477.705566 853.931946,477.345947 856.041809,476.986328 
	C856.050537,477.743530 856.059265,478.500763 855.651611,479.630859 
	C853.484192,480.344788 851.733154,480.685883 849.982056,481.026947 
	C849.539429,481.036896 849.096802,481.046814 848.319031,480.673004 
	C846.063416,478.901794 844.142883,477.514343 842.222412,476.126892 
	C841.154419,477.762634 840.086365,479.398376 839.018372,481.034119 
	C834.624390,482.143524 830.230469,483.252960 825.836487,484.362366 
	C825.364502,483.864471 824.892578,483.366547 824.420593,482.868652 
	C825.953003,480.064056 827.413757,477.217194 829.038269,474.467041 
	C830.594055,471.833344 832.320007,469.300110 833.978699,466.354736 
	C836.547668,464.183716 839.109131,462.380646 842.150879,460.425079 
	C845.207092,461.664215 846.087097,460.547394 845.997559,457.996582 
	C846.743591,457.990936 847.489624,457.985291 848.608276,457.973602 
M849.062866,465.547729 
	C849.383240,466.178009 849.703613,466.808319 850.023987,467.438599 
	C850.708252,466.270966 851.392517,465.103363 852.076782,463.935760 
	C851.751404,463.708496 851.426086,463.481232 851.100708,463.253967 
	C850.464478,463.788055 849.828186,464.322144 849.062866,465.547729 
z"/>
<path fill="#070304" opacity="1.000000" stroke="none" 
	d="
M845.648193,457.990570 
	C846.087097,460.547394 845.207092,461.664215 842.305054,460.128235 
	C843.085632,459.317413 844.192200,458.650970 845.648193,457.990570 
z"/>
<path fill="#070304" opacity="1.000000" stroke="none" 
	d="
M838.455078,515.148804 
	C838.660767,516.189392 838.866394,517.230042 838.834839,518.810486 
	C837.394409,522.904236 836.191223,526.458069 834.988037,530.011963 
	C834.988037,530.011963 834.998718,530.001282 835.005005,529.994934 
	C829.102356,530.116699 828.776855,524.452026 826.844116,521.202637 
	C822.386353,513.708130 820.440491,505.181671 821.086548,496.368439 
	C821.274719,493.801544 822.724304,491.327148 823.595764,488.810364 
	C824.278564,488.751617 824.961365,488.692871 825.644226,488.634125 
	C827.250732,492.589447 828.857178,496.544800 830.741028,500.744812 
	C831.012817,501.433685 831.007263,501.877960 830.778625,502.851898 
	C832.183960,507.542511 835.883423,506.610596 839.103455,506.857666 
	C839.103455,506.857666 839.141174,506.875305 839.129639,507.223877 
	C838.882324,508.745178 838.537415,509.908905 838.439880,511.093018 
	C838.329346,512.435425 838.440430,513.796082 838.455078,515.148804 
z"/>
<path fill="#070304" opacity="1.000000" stroke="none" 
	d="
M839.348938,481.027039 
	C840.086365,479.398376 841.154419,477.762634 842.222412,476.126892 
	C844.142883,477.514343 846.063416,478.901794 847.987061,480.664795 
	C846.477539,480.841858 844.964844,480.643433 843.239380,480.697205 
	C842.573486,480.936432 842.120483,480.923492 841.334106,480.979889 
	C840.560364,481.039459 840.119934,481.029694 839.348938,481.027039 
z"/>
<path fill="#380405" opacity="1.000000" stroke="none" 
	d="
M838.764099,515.055603 
	C838.440430,513.796082 838.329346,512.435425 838.439880,511.093018 
	C838.537415,509.908905 838.882324,508.745178 839.133423,507.203430 
	C840.683228,507.839478 842.217590,508.844482 843.751953,509.849487 
	C842.192322,511.553802 840.632690,513.258118 838.764099,515.055603 
z"/>
<path fill="#380405" opacity="1.000000" stroke="none" 
	d="
M835.281128,529.996582 
	C836.191223,526.458069 837.394409,522.904236 838.900146,519.139893 
	C838.278259,522.371155 837.353821,525.812866 836.291260,529.568787 
	C835.960083,529.915710 835.767151,529.948425 835.281128,529.996582 
z"/>
<path fill="#380405" opacity="1.000000" stroke="none" 
	d="
M838.899841,506.584534 
	C835.883423,506.610596 832.183960,507.542511 830.823364,503.182129 
	C833.626221,504.092255 836.161194,505.201813 838.899841,506.584534 
z"/>
<path fill="#380405" opacity="1.000000" stroke="none" 
	d="
M843.662598,529.049927 
	C842.076904,529.692017 840.101196,530.284424 838.047485,530.568359 
	C839.737244,529.839905 841.504883,529.420105 843.662598,529.049927 
z"/>
<path fill="#380405" opacity="1.000000" stroke="none" 
	d="
M845.912415,528.821045 
	C845.818665,529.015381 845.644958,529.036011 845.210571,529.023376 
	C845.244019,528.875854 845.538269,528.761597 845.912415,528.821045 
z"/>
<path fill="#070304" opacity="1.000000" stroke="none" 
	d="
M850.119141,481.336182 
	C851.733154,480.685883 853.484192,480.344788 855.647095,480.009460 
	C856.058716,480.180725 856.075989,480.348480 856.055542,480.511475 
	C855.798462,482.561890 855.536011,484.611572 855.274963,486.661469 
	C853.601990,484.989441 851.929077,483.317413 850.119141,481.336182 
z"/>
<path fill="#070304" opacity="1.000000" stroke="none" 
	d="
M856.021851,476.692322 
	C853.931946,477.345947 851.822144,477.705566 849.712280,478.065186 
	C849.551208,477.426178 849.390076,476.787170 849.229004,476.148132 
	C850.905762,475.763641 852.582458,475.379150 854.673767,474.989807 
	C855.392822,475.456085 855.697327,475.927216 856.021851,476.692322 
z"/>
<path fill="#070304" opacity="1.000000" stroke="none" 
	d="
M855.422974,468.055878 
	C855.059021,463.284760 857.489807,465.324402 859.811768,466.748688 
	C858.615662,467.367676 857.210449,467.702026 855.422974,468.055878 
z"/>
<path fill="#070304" opacity="1.000000" stroke="none" 
	d="
M863.286011,465.842010 
	C863.430603,465.020599 863.866455,464.064789 864.642822,463.054260 
	C864.514648,463.902252 864.045898,464.804932 863.286011,465.842010 
z"/>
<path fill="#380405" opacity="1.000000" stroke="none" 
	d="
M873.956177,458.408661 
	C878.185303,462.047333 882.777832,465.775146 886.510742,470.224243 
	C887.661621,471.596039 886.410156,474.934174 886.361877,477.374023 
	C886.301392,480.431488 886.347351,483.491058 886.347351,486.296875 
	C890.768616,486.843536 890.661926,480.242188 895.128906,483.443848 
	C894.553650,484.624329 893.818237,485.435028 892.929504,486.487793 
	C890.795654,487.446350 888.815063,488.162811 886.476685,488.859436 
	C885.511719,485.482544 884.602417,482.144104 884.393250,478.762421 
	C884.226440,476.064606 884.913025,473.313995 885.266541,470.181519 
	C876.938904,470.401733 876.263855,463.861725 873.956177,458.408661 
z"/>
<path fill="#380405" opacity="1.000000" stroke="none" 
	d="
M872.951050,456.326416 
	C873.181946,456.302826 873.460632,456.549622 873.743774,457.088867 
	C873.498352,457.119781 873.248596,456.858307 872.951050,456.326416 
z"/>
<path fill="#380405" opacity="1.000000" stroke="none" 
	d="
M912.660645,492.941528 
	C912.306580,494.749390 911.697632,496.594604 910.991699,498.806580 
	C911.020386,497.485504 911.146057,495.797607 911.391846,493.795288 
	C911.809814,493.313507 912.107727,493.146179 912.660645,492.941528 
z"/>
<path fill="#380405" opacity="1.000000" stroke="none" 
	d="
M916.436584,487.786316 
	C916.816589,490.023132 918.168823,493.121094 913.321838,492.942566 
	C913.981445,491.255981 915.059204,489.594025 916.436584,487.786316 
z"/>
<path fill="#380405" opacity="1.000000" stroke="none" 
	d="
M896.552856,483.308838 
	C897.090881,482.489014 897.939270,481.612671 898.960327,481.030884 
	C898.376404,481.967712 897.619751,482.610046 896.552856,483.308838 
z"/>
<path fill="#070304" opacity="1.000000" stroke="none" 
	d="
M849.127380,465.201996 
	C849.828186,464.322144 850.464478,463.788055 851.100708,463.253967 
	C851.426086,463.481232 851.751404,463.708496 852.076782,463.935760 
	C851.392517,465.103363 850.708252,466.270966 850.023987,467.438599 
	C849.703613,466.808319 849.383240,466.178009 849.127380,465.201996 
z"/>
</svg>