<svg version="1.1" id="Layer_1" xmlns="http://www.w3.org/2000/svg" xmlns:xlink="http://www.w3.org/1999/xlink" x="0px" y="0px"
	 width="100%" viewBox="0 0 512 512" enable-background="new 0 0 512 512" xml:space="preserve">
<path fill="#000000" opacity="1.000000" stroke="none" 
	d="
M513.000000,346.000000 
	C513.000000,401.638641 513.000000,457.277252 513.000000,512.957947 
	C342.447357,512.957947 171.894684,512.957947 1.000000,512.957947 
	C1.000000,452.311737 1.000000,391.622864 1.226338,330.130249 
	C11.339919,337.426178 21.049234,345.755402 31.147568,353.582703 
	C62.131325,377.598297 96.473846,395.581543 133.608582,407.772827 
	C151.883713,413.772522 170.801880,418.131653 189.707718,421.795074 
	C205.877914,424.928436 222.400482,426.716095 238.852341,427.770447 
	C251.541107,428.583618 264.387604,427.729401 277.116669,426.895142 
	C289.687592,426.071198 302.338531,425.100128 314.703522,422.828369 
	C332.546143,419.550262 350.345947,415.706421 367.829773,410.890503 
	C390.860840,404.546692 412.898865,395.335602 433.719421,383.564087 
	C444.167236,377.657166 454.113953,370.848389 464.155762,364.247345 
	C467.702820,361.915741 469.233612,356.252808 467.698792,353.230560 
	C465.953430,349.793610 461.149475,348.221436 456.512634,349.916992 
	C445.714539,353.865540 435.052124,358.195221 424.199158,361.982025 
	C392.682098,372.978882 360.452118,381.121399 327.250061,384.990417 
	C310.644409,386.925415 294.009460,388.923096 277.330231,389.807983 
	C265.121613,390.455688 252.788727,389.766449 240.565750,388.901978 
	C222.573776,387.629517 204.568893,386.147705 186.686478,383.846252 
	C173.331482,382.127472 160.080307,379.333466 146.926361,376.379425 
	C122.399879,370.871368 98.260635,363.772858 75.201660,353.793427 
	C54.976974,345.040710 35.437878,334.710724 15.518908,325.239410 
	C11.001360,323.091370 6.713663,319.110962 1.000000,322.000000 
	C1.000000,215.040390 1.000000,108.080765 1.000000,1.060575 
	C171.561844,1.060575 342.123718,1.060575 513.000000,1.060575 
	C513.000000,106.355141 513.000000,211.710587 512.755249,317.872192 
	C505.647583,312.299133 496.740784,311.727509 488.276276,311.210480 
	C478.747314,310.628479 469.089813,311.302277 459.541687,312.083344 
	C445.552551,313.227661 432.715607,318.058167 420.875885,325.600586 
	C417.969604,327.452026 415.760437,330.121246 417.371185,333.134552 
	C418.145569,334.583252 421.967285,335.016571 424.354797,334.889557 
	C439.469971,334.085388 454.561188,332.794678 469.680817,332.132080 
	C473.800995,331.951508 478.113434,332.978058 482.110291,334.196442 
	C485.163300,335.127075 488.289581,336.853394 488.019684,341.075439 
	C487.735870,345.515625 488.350647,350.218719 487.088837,354.354126 
	C482.466370,369.503662 477.141144,384.437622 472.323090,399.530151 
	C471.697693,401.489166 472.489319,403.900543 472.624573,406.102386 
	C474.843445,405.800262 477.876556,406.314453 479.139862,405.054352 
	C484.528229,399.679718 490.001495,394.202881 494.320587,387.983337 
	C502.819183,375.745361 508.138031,362.002075 511.095093,347.364563 
	C511.208252,346.804291 512.341858,346.450195 513.000000,346.000000 
M346.793457,198.275223 
	C351.670013,182.572205 356.561646,166.873871 361.416046,151.164032 
	C363.522827,144.346115 365.666870,137.536285 367.583313,130.664032 
	C369.253662,124.674438 367.316650,122.192322 361.102203,122.026207 
	C357.605255,121.932739 354.103821,121.991829 350.604492,122.006859 
	C341.011749,122.048058 338.384064,124.180962 336.056091,133.471939 
	C327.299652,168.418930 318.513367,203.358475 309.692108,238.289139 
	C309.407440,239.416473 308.622437,240.417435 307.354401,242.853134 
	C305.804474,235.753830 304.630432,230.132645 303.345978,224.536804 
	C298.852570,204.961243 294.345154,185.388840 289.794891,165.826447 
	C287.126495,154.354584 284.392181,142.897888 281.635834,131.446793 
	C280.531219,126.857681 278.614319,122.642616 273.177612,122.363892 
	C267.216949,122.058304 261.206940,122.105507 255.251465,122.499115 
	C250.350830,122.822998 247.768677,125.889359 246.782074,130.810913 
	C245.152267,138.940933 243.051010,146.975983 241.172699,155.056717 
	C235.575470,179.136856 229.990921,203.219910 224.399185,227.301331 
	C223.350845,231.816162 222.292099,236.328583 221.238144,240.842102 
	C217.392532,229.737610 214.728577,218.791245 211.979202,207.866364 
	C205.621246,182.602371 199.243515,157.343323 192.826508,132.094284 
	C190.838623,124.272530 187.869919,122.053337 179.723190,122.006760 
	C176.223907,121.986748 172.724319,121.985664 169.225082,122.008064 
	C161.310669,122.058723 159.631561,124.006500 161.833466,131.788406 
	C165.631638,145.211884 169.798203,158.531006 173.796021,171.898148 
	C183.310181,203.709793 192.780762,235.534561 202.353561,267.328552 
	C204.385742,274.077972 207.253723,275.963837 214.472092,275.997284 
	C218.471298,276.015808 222.471161,276.039124 226.469849,275.989319 
	C233.827057,275.897675 236.286163,273.961639 238.007477,266.918365 
	C239.583694,260.468842 241.129761,254.011826 242.657959,247.550751 
	C248.619476,222.346207 254.565445,197.138000 260.525879,171.933212 
	C261.394989,168.257996 262.310913,164.593842 263.205170,160.924561 
	C263.645996,160.983170 264.086853,161.041779 264.527679,161.100388 
	C267.343475,173.013870 270.134491,184.933289 272.980255,196.839600 
	C278.614624,220.412888 284.254211,243.984985 289.946686,267.544250 
	C291.630890,274.514679 293.504150,275.914978 300.704010,275.990936 
	C304.536285,276.031372 308.369263,276.002625 312.201935,275.999084 
	C321.608002,275.990417 322.988983,275.147552 325.793915,266.162689 
	C332.773193,243.806122 339.602448,221.402740 346.793457,198.275223 
M145.000168,224.342743 
	C144.999832,206.180969 145.060333,188.018829 144.951370,169.857712 
	C144.927597,165.896286 144.621658,161.877899 143.893158,157.989243 
	C140.164948,138.088364 128.950958,125.364754 108.741722,120.680000 
	C87.086678,115.660088 66.150681,118.166145 45.689888,125.792503 
	C31.826324,130.959869 31.952452,131.298264 32.000782,145.994156 
	C32.026608,153.846634 33.361870,154.950104 40.886887,152.104599 
	C55.915600,146.421661 71.079079,141.646393 87.449837,143.015747 
	C97.871941,143.887512 107.962570,145.984634 112.744583,156.730591 
	C117.291428,166.948074 116.659760,178.012802 116.972740,189.178177 
	C114.822006,189.009995 113.269844,189.140594 111.869652,188.740051 
	C98.256943,184.845734 84.289375,184.243393 70.346596,185.125137 
	C53.247646,186.206467 38.860989,193.205353 28.946514,207.671768 
	C22.004969,217.800308 20.925573,229.468124 22.131344,241.227463 
	C23.739168,256.907837 31.595381,269.216492 46.170898,275.298523 
	C65.824188,283.499451 85.304703,281.147339 103.383896,269.931549 
	C108.904533,266.506683 113.650658,261.833374 118.715103,257.761047 
	C121.943420,262.709808 124.946198,267.655121 128.295868,272.353058 
	C131.770035,277.225555 135.740112,277.892731 140.800415,274.707336 
	C144.032196,272.672943 147.097229,270.375641 150.279510,268.260162 
	C154.578079,265.402649 155.057800,261.594604 152.675156,257.436462 
	C146.953506,247.451080 145.841095,236.421173 145.000168,224.342743 
M426.551819,280.000000 
	C430.551453,280.000000 434.570404,280.255676 438.547272,279.954773 
	C453.996429,278.785828 467.864319,274.302307 479.551178,263.169342 
	C498.567413,245.054398 498.496185,205.358017 464.547394,193.052689 
	C455.495636,189.771698 446.188354,187.189011 437.168060,183.830078 
	C430.349548,181.291016 423.420929,178.659302 417.222870,174.934647 
	C408.266968,169.552704 407.549072,156.761551 415.046448,149.442825 
	C421.089874,143.543320 428.838470,142.496521 436.653534,142.058212 
	C450.361938,141.289383 463.397614,144.318634 475.849884,149.954269 
	C479.055298,151.404968 481.780243,151.289398 483.420624,147.857010 
	C486.990356,140.387680 483.382629,129.471970 475.885376,126.011940 
	C458.135864,117.820442 439.575165,115.901718 420.434998,119.724609 
	C407.630798,122.282013 396.767853,128.227127 388.836426,138.811005 
	C378.497131,152.608032 378.183960,171.751099 387.617706,186.056641 
	C395.770294,198.419388 408.230347,203.780869 421.624359,208.026825 
	C432.057190,211.334076 442.430664,214.907318 452.596924,218.949829 
	C459.761841,221.798904 463.419373,227.696365 462.934662,235.531464 
	C462.453033,243.316971 458.567200,248.949783 451.238953,252.038788 
	C436.209625,258.373993 420.955139,256.687164 405.784821,252.965088 
	C399.528198,251.429993 393.553040,248.766144 387.415924,246.717331 
	C384.694855,245.808929 381.861755,244.992325 379.950745,248.282410 
	C376.160065,254.808655 379.509399,267.134460 386.171387,270.561371 
	C398.520233,276.913605 411.803345,279.504486 426.551819,280.000000 
z"/>
<path fill="#FF9900" opacity="1.000000" stroke="none" 
	d="
M1.000000,322.444153 
	C6.713663,319.110962 11.001360,323.091370 15.518908,325.239410 
	C35.437878,334.710724 54.976974,345.040710 75.201660,353.793427 
	C98.260635,363.772858 122.399879,370.871368 146.926361,376.379425 
	C160.080307,379.333466 173.331482,382.127472 186.686478,383.846252 
	C204.568893,386.147705 222.573776,387.629517 240.565750,388.901978 
	C252.788727,389.766449 265.121613,390.455688 277.330231,389.807983 
	C294.009460,388.923096 310.644409,386.925415 327.250061,384.990417 
	C360.452118,381.121399 392.682098,372.978882 424.199158,361.982025 
	C435.052124,358.195221 445.714539,353.865540 456.512634,349.916992 
	C461.149475,348.221436 465.953430,349.793610 467.698792,353.230560 
	C469.233612,356.252808 467.702820,361.915741 464.155762,364.247345 
	C454.113953,370.848389 444.167236,377.657166 433.719421,383.564087 
	C412.898865,395.335602 390.860840,404.546692 367.829773,410.890503 
	C350.345947,415.706421 332.546143,419.550262 314.703522,422.828369 
	C302.338531,425.100128 289.687592,426.071198 277.116669,426.895142 
	C264.387604,427.729401 251.541107,428.583618 238.852341,427.770447 
	C222.400482,426.716095 205.877914,424.928436 189.707718,421.795074 
	C170.801880,418.131653 151.883713,413.772522 133.608582,407.772827 
	C96.473846,395.581543 62.131325,377.598297 31.147568,353.582703 
	C21.049234,345.755402 11.339919,337.426178 1.226338,329.663269 
	C1.000000,327.629425 1.000000,325.258881 1.000000,322.444153 
z"/>
<path fill="#FF9900" opacity="1.000000" stroke="none" 
	d="
M513.000000,345.531372 
	C512.341858,346.450195 511.208252,346.804291 511.095093,347.364563 
	C508.138031,362.002075 502.819183,375.745361 494.320587,387.983337 
	C490.001495,394.202881 484.528229,399.679718 479.139862,405.054352 
	C477.876556,406.314453 474.843445,405.800262 472.624573,406.102386 
	C472.489319,403.900543 471.697693,401.489166 472.323090,399.530151 
	C477.141144,384.437622 482.466370,369.503662 487.088837,354.354126 
	C488.350647,350.218719 487.735870,345.515625 488.019684,341.075439 
	C488.289581,336.853394 485.163300,335.127075 482.110291,334.196442 
	C478.113434,332.978058 473.800995,331.951508 469.680817,332.132080 
	C454.561188,332.794678 439.469971,334.085388 424.354797,334.889557 
	C421.967285,335.016571 418.145569,334.583252 417.371185,333.134552 
	C415.760437,330.121246 417.969604,327.452026 420.875885,325.600586 
	C432.715607,318.058167 445.552551,313.227661 459.541687,312.083344 
	C469.089813,311.302277 478.747314,310.628479 488.276276,311.210480 
	C496.740784,311.727509 505.647583,312.299133 512.755249,318.339172 
	C513.000000,327.020905 513.000000,336.041779 513.000000,345.531372 
z"/>
<path fill="#252F3E" opacity="1.000000" stroke="none" 
	d="
M346.642700,198.646698 
	C339.602448,221.402740 332.773193,243.806122 325.793915,266.162689 
	C322.988983,275.147552 321.608002,275.990417 312.201935,275.999084 
	C308.369263,276.002625 304.536285,276.031372 300.704010,275.990936 
	C293.504150,275.914978 291.630890,274.514679 289.946686,267.544250 
	C284.254211,243.984985 278.614624,220.412888 272.980255,196.839600 
	C270.134491,184.933289 267.343475,173.013870 264.527679,161.100388 
	C264.086853,161.041779 263.645996,160.983170 263.205170,160.924561 
	C262.310913,164.593842 261.394989,168.257996 260.525879,171.933212 
	C254.565445,197.138000 248.619476,222.346207 242.657959,247.550751 
	C241.129761,254.011826 239.583694,260.468842 238.007477,266.918365 
	C236.286163,273.961639 233.827057,275.897675 226.469849,275.989319 
	C222.471161,276.039124 218.471298,276.015808 214.472092,275.997284 
	C207.253723,275.963837 204.385742,274.077972 202.353561,267.328552 
	C192.780762,235.534561 183.310181,203.709793 173.796021,171.898148 
	C169.798203,158.531006 165.631638,145.211884 161.833466,131.788406 
	C159.631561,124.006500 161.310669,122.058723 169.225082,122.008064 
	C172.724319,121.985664 176.223907,121.986748 179.723190,122.006760 
	C187.869919,122.053337 190.838623,124.272530 192.826508,132.094284 
	C199.243515,157.343323 205.621246,182.602371 211.979202,207.866364 
	C214.728577,218.791245 217.392532,229.737610 221.238144,240.842102 
	C222.292099,236.328583 223.350845,231.816162 224.399185,227.301331 
	C229.990921,203.219910 235.575470,179.136856 241.172699,155.056717 
	C243.051010,146.975983 245.152267,138.940933 246.782074,130.810913 
	C247.768677,125.889359 250.350830,122.822998 255.251465,122.499115 
	C261.206940,122.105507 267.216949,122.058304 273.177612,122.363892 
	C278.614319,122.642616 280.531219,126.857681 281.635834,131.446793 
	C284.392181,142.897888 287.126495,154.354584 289.794891,165.826447 
	C294.345154,185.388840 298.852570,204.961243 303.345978,224.536804 
	C304.630432,230.132645 305.804474,235.753830 307.354401,242.853134 
	C308.622437,240.417435 309.407440,239.416473 309.692108,238.289139 
	C318.513367,203.358475 327.299652,168.418930 336.056091,133.471939 
	C338.384064,124.180962 341.011749,122.048058 350.604492,122.006859 
	C354.103821,121.991829 357.605255,121.932739 361.102203,122.026207 
	C367.316650,122.192322 369.253662,124.674438 367.583313,130.664032 
	C365.666870,137.536285 363.522827,144.346115 361.416046,151.164032 
	C356.561646,166.873871 351.670013,182.572205 346.642700,198.646698 
z"/>
<path fill="#252F3E" opacity="1.000000" stroke="none" 
	d="
M145.001007,224.821716 
	C145.841095,236.421173 146.953506,247.451080 152.675156,257.436462 
	C155.057800,261.594604 154.578079,265.402649 150.279510,268.260162 
	C147.097229,270.375641 144.032196,272.672943 140.800415,274.707336 
	C135.740112,277.892731 131.770035,277.225555 128.295868,272.353058 
	C124.946198,267.655121 121.943420,262.709808 118.715103,257.761047 
	C113.650658,261.833374 108.904533,266.506683 103.383896,269.931549 
	C85.304703,281.147339 65.824188,283.499451 46.170898,275.298523 
	C31.595381,269.216492 23.739168,256.907837 22.131344,241.227463 
	C20.925573,229.468124 22.004969,217.800308 28.946514,207.671768 
	C38.860989,193.205353 53.247646,186.206467 70.346596,185.125137 
	C84.289375,184.243393 98.256943,184.845734 111.869652,188.740051 
	C113.269844,189.140594 114.822006,189.009995 116.972740,189.178177 
	C116.659760,178.012802 117.291428,166.948074 112.744583,156.730591 
	C107.962570,145.984634 97.871941,143.887512 87.449837,143.015747 
	C71.079079,141.646393 55.915600,146.421661 40.886887,152.104599 
	C33.361870,154.950104 32.026608,153.846634 32.000782,145.994156 
	C31.952452,131.298264 31.826324,130.959869 45.689888,125.792503 
	C66.150681,118.166145 87.086678,115.660088 108.741722,120.680000 
	C128.950958,125.364754 140.164948,138.088364 143.893158,157.989243 
	C144.621658,161.877899 144.927597,165.896286 144.951370,169.857712 
	C145.060333,188.018829 144.999832,206.180969 145.001007,224.821716 
M55.478695,245.803711 
	C58.339375,248.487167 60.772957,252.039581 64.139336,253.694138 
	C75.036560,259.050018 95.753212,254.635162 105.042389,246.657471 
	C115.586304,237.602188 117.321442,225.890823 116.827881,213.270721 
	C116.772385,211.851562 114.812599,209.453812 113.523643,209.301102 
	C102.344398,207.976425 91.126556,206.428528 79.899658,206.251663 
	C72.644638,206.137375 65.516235,208.627106 59.778160,213.732666 
	C52.157146,220.513626 50.244823,233.344055 55.478695,245.803711 
z"/>
<path fill="#252F3E" opacity="1.000000" stroke="none" 
	d="
M426.062073,280.000000 
	C411.803345,279.504486 398.520233,276.913605 386.171387,270.561371 
	C379.509399,267.134460 376.160065,254.808655 379.950745,248.282410 
	C381.861755,244.992325 384.694855,245.808929 387.415924,246.717331 
	C393.553040,248.766144 399.528198,251.429993 405.784821,252.965088 
	C420.955139,256.687164 436.209625,258.373993 451.238953,252.038788 
	C458.567200,248.949783 462.453033,243.316971 462.934662,235.531464 
	C463.419373,227.696365 459.761841,221.798904 452.596924,218.949829 
	C442.430664,214.907318 432.057190,211.334076 421.624359,208.026825 
	C408.230347,203.780869 395.770294,198.419388 387.617706,186.056641 
	C378.183960,171.751099 378.497131,152.608032 388.836426,138.811005 
	C396.767853,128.227127 407.630798,122.282013 420.434998,119.724609 
	C439.575165,115.901718 458.135864,117.820442 475.885376,126.011940 
	C483.382629,129.471970 486.990356,140.387680 483.420624,147.857010 
	C481.780243,151.289398 479.055298,151.404968 475.849884,149.954269 
	C463.397614,144.318634 450.361938,141.289383 436.653534,142.058212 
	C428.838470,142.496521 421.089874,143.543320 415.046448,149.442825 
	C407.549072,156.761551 408.266968,169.552704 417.222870,174.934647 
	C423.420929,178.659302 430.349548,181.291016 437.168060,183.830078 
	C446.188354,187.189011 455.495636,189.771698 464.547394,193.052689 
	C498.496185,205.358017 498.567413,245.054398 479.551178,263.169342 
	C467.864319,274.302307 453.996429,278.785828 438.547272,279.954773 
	C434.570404,280.255676 430.551453,280.000000 426.062073,280.000000 
z"/>
<path fill="#000000" opacity="1.000000" stroke="none" 
	d="
M55.290283,245.470276 
	C50.244823,233.344055 52.157146,220.513626 59.778160,213.732666 
	C65.516235,208.627106 72.644638,206.137375 79.899658,206.251663 
	C91.126556,206.428528 102.344398,207.976425 113.523643,209.301102 
	C114.812599,209.453812 116.772385,211.851562 116.827881,213.270721 
	C117.321442,225.890823 115.586304,237.602188 105.042389,246.657471 
	C95.753212,254.635162 75.036560,259.050018 64.139336,253.694138 
	C60.772957,252.039581 58.339375,248.487167 55.290283,245.470276 
z"/>
</svg>