<svg version="1.1" id="Layer_1" xmlns="http://www.w3.org/2000/svg" xmlns:xlink="http://www.w3.org/1999/xlink" x="0px" y="0px"
	 width="100%" viewBox="0 0 1200 749" enable-background="new 0 0 1200 749" xml:space="preserve">
<path fill="#000000" opacity="1.000000" stroke="none" 
	d="
M841.000000,750.000000 
	C560.702515,750.000000 280.905060,750.000000 1.053791,750.000000 
	C1.053791,500.401184 1.053791,250.802383 1.053791,1.101783 
	C400.880890,1.101783 800.761780,1.101783 1200.821289,1.101783 
	C1200.821289,250.666565 1200.821289,500.333282 1200.821289,750.000000 
	C1081.135620,750.000000 961.317810,750.000000 841.000000,750.000000 
M412.500000,718.000732 
	C584.816284,718.000732 757.132568,717.981567 929.448853,718.026367 
	C949.738525,718.031677 969.950134,717.572571 990.026611,714.067688 
	C1012.037048,710.225220 1033.148804,703.701843 1053.365723,694.235596 
	C1072.325317,685.358215 1090.260376,674.742126 1105.737427,660.586182 
	C1117.098877,650.194519 1128.390625,639.537842 1138.317627,627.817139 
	C1149.203125,614.964600 1157.647217,600.291565 1164.122314,584.572693 
	C1171.258179,567.249817 1175.887939,549.435730 1175.990479,530.603577 
	C1176.044067,520.771484 1176.456787,510.911163 1175.864014,501.114624 
	C1175.333008,492.342072 1174.148804,483.535370 1172.366211,474.927338 
	C1168.399048,455.771149 1160.824951,437.929230 1151.402588,420.828217 
	C1142.557495,404.775085 1131.952759,389.928558 1119.683594,376.402283 
	C1111.674072,367.572083 1103.101440,359.071075 1093.816162,351.625977 
	C1082.321777,342.409760 1070.383179,333.477203 1057.648682,326.135406 
	C1032.766846,311.790283 1006.019653,302.330109 977.102417,299.856720 
	C975.981018,299.760803 974.373169,297.780121 974.119385,296.460754 
	C973.164551,291.497162 972.699341,286.440582 972.010803,281.424347 
	C968.064270,252.675171 955.380493,227.918030 936.623474,206.252823 
	C924.616882,192.384811 909.924866,181.473114 893.526306,173.334641 
	C877.932251,165.595428 861.410828,160.641785 843.870422,158.828903 
	C829.111938,157.303589 814.465881,157.480942 800.046387,160.213501 
	C780.360840,163.944046 761.856445,171.152359 745.043579,183.010513 
	C714.178589,117.818398 667.045837,68.944016 601.448975,38.963638 
	C535.841431,8.978397 467.907501,4.521399 398.872101,24.765177 
	C327.876373,45.583813 273.147278,88.615883 234.306931,151.365753 
	C204.331787,199.793091 190.994705,253.007965 192.061066,309.819031 
	C163.486023,318.805695 138.727295,334.186218 117.594902,355.146667 
	C108.179153,364.485809 99.626335,374.789581 91.429520,385.241882 
	C77.603195,402.872681 67.523155,422.736847 59.259773,443.476440 
	C48.870468,469.551697 44.965714,496.770386 46.022415,524.745239 
	C46.202553,529.514099 46.489361,534.293091 47.044334,539.030212 
	C47.763592,545.169678 48.481155,551.339844 49.764179,557.376831 
	C53.084122,572.997986 59.043819,587.609070 66.816643,601.578918 
	C74.640182,615.640076 83.807213,628.716492 94.940483,640.254150 
	C102.832573,648.432922 111.440094,655.950500 120.015427,663.434143 
	C133.830109,675.490173 149.572449,684.810730 165.897903,692.821838 
	C183.060150,701.243591 201.042892,708.114197 220.002335,711.347778 
	C236.406952,714.145630 252.973923,717.402344 269.518707,717.700012 
	C316.832306,718.551208 364.171112,718.000244 412.500000,718.000732 
z"/>
<path fill="#F7981F" opacity="1.000000" stroke="none" 
	d="
M412.000000,718.000732 
	C364.171112,718.000244 316.832306,718.551208 269.518707,717.700012 
	C252.973923,717.402344 236.406952,714.145630 220.002335,711.347778 
	C201.042892,708.114197 183.060150,701.243591 165.897903,692.821838 
	C149.572449,684.810730 133.830109,675.490173 120.015427,663.434143 
	C111.440094,655.950500 102.832573,648.432922 94.940483,640.254150 
	C83.807213,628.716492 74.640182,615.640076 66.816643,601.578918 
	C59.043819,587.609070 53.084122,572.997986 49.764179,557.376831 
	C48.481155,551.339844 47.763592,545.169678 47.044334,539.030212 
	C46.489361,534.293091 46.202553,529.514099 46.022415,524.745239 
	C44.965714,496.770386 48.870468,469.551697 59.259773,443.476440 
	C67.523155,422.736847 77.603195,402.872681 91.429520,385.241882 
	C99.626335,374.789581 108.179153,364.485809 117.594902,355.146667 
	C138.727295,334.186218 163.486023,318.805695 192.061066,309.819031 
	C190.994705,253.007965 204.331787,199.793091 234.306931,151.365753 
	C273.147278,88.615883 327.876373,45.583813 398.872101,24.765177 
	C467.907501,4.521399 535.841431,8.978397 601.448975,38.963638 
	C667.045837,68.944016 714.178589,117.818398 745.043579,183.010513 
	C761.856445,171.152359 780.360840,163.944046 800.046387,160.213501 
	C814.465881,157.480942 829.111938,157.303589 843.870422,158.828903 
	C861.410828,160.641785 877.932251,165.595428 893.526306,173.334641 
	C909.924866,181.473114 924.616882,192.384811 936.623474,206.252823 
	C955.380493,227.918030 968.064270,252.675171 972.010803,281.424347 
	C972.699341,286.440582 973.164551,291.497162 974.119385,296.460754 
	C974.373169,297.780121 975.981018,299.760803 977.102417,299.856720 
	C1006.019653,302.330109 1032.766846,311.790283 1057.648682,326.135406 
	C1070.383179,333.477203 1082.321777,342.409760 1093.816162,351.625977 
	C1103.101440,359.071075 1111.674072,367.572083 1119.683594,376.402283 
	C1131.952759,389.928558 1142.557495,404.775085 1151.402588,420.828217 
	C1160.824951,437.929230 1168.399048,455.771149 1172.366211,474.927338 
	C1174.148804,483.535370 1175.333008,492.342072 1175.864014,501.114624 
	C1176.456787,510.911163 1176.044067,520.771484 1175.990479,530.603577 
	C1175.887939,549.435730 1171.258179,567.249817 1164.122314,584.572693 
	C1157.647217,600.291565 1149.203125,614.964600 1138.317627,627.817139 
	C1128.390625,639.537842 1117.098877,650.194519 1105.737427,660.586182 
	C1090.260376,674.742126 1072.325317,685.358215 1053.365723,694.235596 
	C1033.148804,703.701843 1012.037048,710.225220 990.026611,714.067688 
	C969.950134,717.572571 949.738525,718.031677 929.448853,718.026367 
	C757.132568,717.981567 584.816284,718.000732 412.000000,718.000732 
M612.763855,362.830963 
	C610.816589,351.945801 608.869324,341.060638 606.926453,330.199951 
	C591.765991,330.199951 577.142822,330.199951 562.179138,330.199951 
	C550.661926,398.210846 539.168213,466.083374 527.674500,533.955872 
	C527.252319,533.946899 526.830139,533.937927 526.407959,533.928955 
	C514.900818,466.005005 503.393677,398.081085 491.924072,330.378632 
	C477.282990,330.378632 463.247070,330.378632 448.979309,330.378632 
	C466.090485,418.852417 483.122009,506.914185 500.204559,595.239807 
	C515.994202,595.239807 531.305969,595.318542 546.612854,595.081726 
	C547.765137,595.063904 549.659668,592.933167 549.901245,591.555359 
	C554.517334,565.232483 558.938354,538.875427 563.397156,512.524963 
	C568.270569,483.724213 573.132141,454.921417 578.018250,426.122803 
	C579.679138,416.333679 581.398804,406.554504 583.091614,396.770782 
	C585.838928,407.614258 587.716248,418.391754 589.561707,429.174713 
	C594.714111,459.279480 599.865845,489.384338 604.993713,519.493286 
	C609.090393,543.547729 613.157166,567.607300 617.220947,591.667358 
	C617.629700,594.087891 618.582092,595.344543 621.434814,595.314270 
	C635.598206,595.163879 649.765381,595.333740 663.926636,595.103760 
	C665.276184,595.081909 667.517517,593.264404 667.787964,591.958130 
	C672.328857,570.031433 676.607849,548.050537 680.973206,526.087341 
	C689.510315,483.135101 698.076477,440.188660 706.607788,397.235260 
	C711.029907,374.971130 715.403137,352.697266 719.845703,330.188538 
	C705.759644,330.188538 691.971497,330.188538 677.727478,330.188538 
	C666.297546,398.702301 654.885681,467.107788 643.473877,535.513306 
	C641.224548,528.853577 640.107727,522.331055 638.986450,515.809265 
	C633.840454,485.877502 628.683655,455.947571 623.549805,426.013733 
	C619.987122,405.241058 616.455444,384.463043 612.763855,362.830963 
M394.098389,534.413330 
	C399.226471,554.607666 404.354523,574.801941 409.486511,595.011841 
	C424.375061,595.011841 438.822235,595.011841 453.538452,595.011841 
	C453.226624,593.308960 453.058197,591.847473 452.687042,590.439331 
	C430.161530,504.975189 407.594116,419.522095 385.174316,334.030243 
	C384.308411,330.728363 382.951935,329.904388 379.789978,329.934814 
	C364.962372,330.077667 350.126587,330.234283 335.307190,329.857544 
	C330.728546,329.741150 329.116211,331.255402 327.935455,335.431152 
	C305.836151,413.585785 283.585907,491.697754 261.382568,569.822998 
	C259.040161,578.065063 256.793396,586.334351 254.389282,594.998047 
	C269.532959,594.998047 283.966736,594.998047 298.525940,594.998047 
	C299.045929,593.261292 299.558533,591.706421 299.977295,590.126648 
	C304.947021,571.378845 309.964661,552.643188 314.789215,533.858032 
	C315.441162,531.319519 316.322205,530.202698 319.041595,530.211121 
	C342.701111,530.284790 366.361389,530.200012 390.019470,530.396423 
	C391.353333,530.407532 392.670105,532.474915 394.098389,534.413330 
M759.440125,446.041931 
	C769.290222,457.933380 782.215210,465.405212 796.306213,470.858459 
	C810.997742,476.544128 826.143555,481.078613 840.736572,486.990601 
	C864.453308,496.598663 870.222046,517.024597 866.408325,538.484009 
	C862.861633,558.441284 847.079651,568.923523 824.761169,568.168091 
	C800.653870,567.352051 786.998840,554.427673 784.914856,530.406067 
	C784.417603,524.674927 784.035400,518.933838 783.615845,513.403076 
	C769.506592,513.403076 755.767944,513.403076 740.948425,513.403076 
	C742.021973,523.951721 742.222107,534.172974 744.224365,544.028015 
	C749.996643,572.439331 766.973145,590.968445 795.453369,597.583252 
	C817.726196,602.756287 840.113892,601.812805 861.981873,594.939636 
	C884.934448,587.725647 899.970764,572.446655 906.541565,549.143066 
	C909.968628,536.989075 910.730103,524.528870 909.810730,512.030640 
	C907.972778,487.045563 895.759216,468.679474 873.183472,457.797394 
	C863.056763,452.916077 852.389587,449.129364 841.876831,445.082123 
	C828.884766,440.080383 815.440125,436.117859 803.946045,427.830566 
	C786.516541,415.263885 781.949646,386.827637 795.003479,369.777008 
	C804.823669,356.950165 818.627563,355.318756 833.328613,357.824707 
	C848.442627,360.401001 856.137085,367.960052 859.156738,382.932861 
	C860.004517,387.136444 860.306335,391.524780 860.232178,395.817535 
	C860.165833,399.659332 861.196350,401.046051 865.277161,400.943573 
	C876.436218,400.663269 887.607056,400.858490 898.773132,400.830231 
	C900.052856,400.826996 901.332031,400.601013 903.355957,400.406921 
	C902.884033,392.855316 902.889771,385.526855 901.891907,378.337677 
	C898.598755,354.614258 886.586792,337.539368 863.156250,329.926514 
	C842.732422,323.290558 821.963501,323.215942 801.127258,327.779327 
	C784.881592,331.337311 770.970398,339.027924 760.412048,352.099579 
	C750.422119,364.467468 746.170166,379.026215 745.448303,394.619080 
	C744.600647,412.930084 747.196594,430.473877 759.440125,446.041931 
z"/>
<path fill="#FFFEFE" opacity="1.000000" stroke="none" 
	d="
M612.836914,363.259186 
	C616.455444,384.463043 619.987122,405.241058 623.549805,426.013733 
	C628.683655,455.947571 633.840454,485.877502 638.986450,515.809265 
	C640.107727,522.331055 641.224548,528.853577 643.473877,535.513306 
	C654.885681,467.107788 666.297546,398.702301 677.727478,330.188538 
	C691.971497,330.188538 705.759644,330.188538 719.845703,330.188538 
	C715.403137,352.697266 711.029907,374.971130 706.607788,397.235260 
	C698.076477,440.188660 689.510315,483.135101 680.973206,526.087341 
	C676.607849,548.050537 672.328857,570.031433 667.787964,591.958130 
	C667.517517,593.264404 665.276184,595.081909 663.926636,595.103760 
	C649.765381,595.333740 635.598206,595.163879 621.434814,595.314270 
	C618.582092,595.344543 617.629700,594.087891 617.220947,591.667358 
	C613.157166,567.607300 609.090393,543.547729 604.993713,519.493286 
	C599.865845,489.384338 594.714111,459.279480 589.561707,429.174713 
	C587.716248,418.391754 585.838928,407.614258 583.091614,396.770782 
	C581.398804,406.554504 579.679138,416.333679 578.018250,426.122803 
	C573.132141,454.921417 568.270569,483.724213 563.397156,512.524963 
	C558.938354,538.875427 554.517334,565.232483 549.901245,591.555359 
	C549.659668,592.933167 547.765137,595.063904 546.612854,595.081726 
	C531.305969,595.318542 515.994202,595.239807 500.204559,595.239807 
	C483.122009,506.914185 466.090485,418.852417 448.979309,330.378632 
	C463.247070,330.378632 477.282990,330.378632 491.924072,330.378632 
	C503.393677,398.081085 514.900818,466.005005 526.407959,533.928955 
	C526.830139,533.937927 527.252319,533.946899 527.674500,533.955872 
	C539.168213,466.083374 550.661926,398.210846 562.179138,330.199951 
	C577.142822,330.199951 591.765991,330.199951 606.926453,330.199951 
	C608.869324,341.060638 610.816589,351.945801 612.836914,363.259186 
z"/>
<path fill="#FFFFFE" opacity="1.000000" stroke="none" 
	d="
M394.046600,533.999268 
	C392.670105,532.474915 391.353333,530.407532 390.019470,530.396423 
	C366.361389,530.200012 342.701111,530.284790 319.041595,530.211121 
	C316.322205,530.202698 315.441162,531.319519 314.789215,533.858032 
	C309.964661,552.643188 304.947021,571.378845 299.977295,590.126648 
	C299.558533,591.706421 299.045929,593.261292 298.525940,594.998047 
	C283.966736,594.998047 269.532959,594.998047 254.389282,594.998047 
	C256.793396,586.334351 259.040161,578.065063 261.382568,569.822998 
	C283.585907,491.697754 305.836151,413.585785 327.935455,335.431152 
	C329.116211,331.255402 330.728546,329.741150 335.307190,329.857544 
	C350.126587,330.234283 364.962372,330.077667 379.789978,329.934814 
	C382.951935,329.904388 384.308411,330.728363 385.174316,334.030243 
	C407.594116,419.522095 430.161530,504.975189 452.687042,590.439331 
	C453.058197,591.847473 453.226624,593.308960 453.538452,595.011841 
	C438.822235,595.011841 424.375061,595.011841 409.486511,595.011841 
	C404.354523,574.801941 399.226471,554.607666 394.046600,533.999268 
M364.794678,404.789764 
	C361.774506,392.064728 358.754333,379.339691 355.734161,366.614655 
	C355.458038,366.569977 355.181885,366.525330 354.905731,366.480652 
	C344.515015,409.493073 334.124298,452.505524 323.641266,495.900085 
	C344.760284,495.900085 365.173340,495.900085 385.882996,495.900085 
	C378.865631,465.616516 371.913086,435.612640 364.794678,404.789764 
z"/>
<path fill="#FFFEFE" opacity="1.000000" stroke="none" 
	d="
M759.202148,445.773102 
	C747.196594,430.473877 744.600647,412.930084 745.448303,394.619080 
	C746.170166,379.026215 750.422119,364.467468 760.412048,352.099579 
	C770.970398,339.027924 784.881592,331.337311 801.127258,327.779327 
	C821.963501,323.215942 842.732422,323.290558 863.156250,329.926514 
	C886.586792,337.539368 898.598755,354.614258 901.891907,378.337677 
	C902.889771,385.526855 902.884033,392.855316 903.355957,400.406921 
	C901.332031,400.601013 900.052856,400.826996 898.773132,400.830231 
	C887.607056,400.858490 876.436218,400.663269 865.277161,400.943573 
	C861.196350,401.046051 860.165833,399.659332 860.232178,395.817535 
	C860.306335,391.524780 860.004517,387.136444 859.156738,382.932861 
	C856.137085,367.960052 848.442627,360.401001 833.328613,357.824707 
	C818.627563,355.318756 804.823669,356.950165 795.003479,369.777008 
	C781.949646,386.827637 786.516541,415.263885 803.946045,427.830566 
	C815.440125,436.117859 828.884766,440.080383 841.876831,445.082123 
	C852.389587,449.129364 863.056763,452.916077 873.183472,457.797394 
	C895.759216,468.679474 907.972778,487.045563 909.810730,512.030640 
	C910.730103,524.528870 909.968628,536.989075 906.541565,549.143066 
	C899.970764,572.446655 884.934448,587.725647 861.981873,594.939636 
	C840.113892,601.812805 817.726196,602.756287 795.453369,597.583252 
	C766.973145,590.968445 749.996643,572.439331 744.224365,544.028015 
	C742.222107,534.172974 742.021973,523.951721 740.948425,513.403076 
	C755.767944,513.403076 769.506592,513.403076 783.615845,513.403076 
	C784.035400,518.933838 784.417603,524.674927 784.914856,530.406067 
	C786.998840,554.427673 800.653870,567.352051 824.761169,568.168091 
	C847.079651,568.923523 862.861633,558.441284 866.408325,538.484009 
	C870.222046,517.024597 864.453308,496.598663 840.736572,486.990601 
	C826.143555,481.078613 810.997742,476.544128 796.306213,470.858459 
	C782.215210,465.405212 769.290222,457.933380 759.202148,445.773102 
z"/>
<path fill="#F79920" opacity="1.000000" stroke="none" 
	d="
M364.877594,405.199280 
	C371.913086,435.612640 378.865631,465.616516 385.882996,495.900085 
	C365.173340,495.900085 344.760284,495.900085 323.641266,495.900085 
	C334.124298,452.505524 344.515015,409.493073 354.905731,366.480652 
	C355.181885,366.525330 355.458038,366.569977 355.734161,366.614655 
	C358.754333,379.339691 361.774506,392.064728 364.877594,405.199280 
z"/>
</svg>