<svg version="1.1" id="Layer_1" xmlns="http://www.w3.org/2000/svg" xmlns:xlink="http://www.w3.org/1999/xlink" x="0px" y="0px"
	 width="100%" viewBox="0 0 200 200" enable-background="new 0 0 200 200" xml:space="preserve">
<path fill="#FEFDFE" opacity="1.000000" stroke="none" 
	d="
M119.000000,201.000000 
	C79.357826,201.000000 40.215649,201.000000 1.036737,201.000000 
	C1.036737,134.399536 1.036737,67.799034 1.036737,1.099268 
	C67.558670,1.099268 134.117538,1.099268 200.838196,1.099268 
	C200.838196,67.666351 200.838196,134.333145 200.838196,201.000000 
	C173.799316,201.000000 146.649658,201.000000 119.000000,201.000000 
M156.117340,55.887821 
	C156.117340,55.887821 156.227005,55.860435 156.078705,55.337326 
	C155.802094,55.121262 155.525467,54.905197 155.201767,54.818329 
	C155.201767,54.818329 155.320190,54.748432 155.167068,54.239548 
	C154.889343,54.036831 154.611633,53.834118 154.183167,53.928650 
	C154.183167,53.928650 154.377457,53.657852 154.237320,53.178631 
	C154.072464,52.863129 153.817047,52.663567 153.403152,52.533150 
	C153.403152,52.533150 153.429001,52.454826 153.153870,51.876606 
	C150.142883,49.195038 147.131897,46.513474 144.074142,43.920425 
	C144.074142,43.920425 144.172531,43.901974 143.972778,43.397533 
	C143.652969,43.252583 143.333176,43.107628 143.003433,43.003937 
	C143.003433,43.003937 143.037231,42.978073 142.729263,42.427399 
	C141.831528,41.909878 140.933792,41.392353 139.643784,40.325848 
	C137.114243,39.158028 134.584702,37.990204 131.805130,36.173195 
	C124.877548,34.134228 117.949974,32.095264 110.561737,29.985420 
	C110.561737,29.985420 110.095772,29.973812 109.615761,29.311159 
	C107.420883,29.176558 105.226013,29.041958 102.287064,28.577494 
	C95.062515,28.577494 87.837967,28.577494 80.221184,28.577494 
	C80.221184,30.955853 79.854843,32.865849 80.345810,34.521645 
	C80.691780,35.688450 82.174156,37.313671 83.197327,37.349266 
	C88.134445,37.521023 93.087891,37.223240 98.770599,37.249695 
	C99.513412,37.181667 100.256233,37.113640 101.870049,37.259869 
	C105.543617,37.520050 109.217194,37.780231 113.276962,38.680794 
	C117.986855,40.207962 122.696739,41.735126 127.899223,43.783665 
	C131.861710,46.216217 135.824188,48.648769 140.022186,51.583279 
	C140.337631,51.760551 140.653076,51.937828 141.146683,52.565269 
	C141.358459,52.839706 141.637482,52.984581 142.213699,53.525352 
	C142.684204,53.833561 143.154694,54.141769 143.935120,54.195274 
	C143.935120,54.195274 143.597000,54.411144 143.784683,54.880939 
	C144.063568,55.056259 144.342468,55.231579 144.895004,54.984936 
	C144.797180,55.121292 144.699371,55.257645 144.790451,55.868759 
	C145.071732,56.046448 145.352997,56.224133 145.633408,56.442986 
	C145.633408,56.442986 145.598572,56.464928 145.828568,57.006760 
	C146.540466,57.688251 147.252365,58.369743 148.001068,59.003609 
	C148.001068,59.003609 147.945694,59.027126 148.078735,59.543274 
	C148.365082,59.736187 148.651428,59.929100 148.968185,60.031536 
	C148.968185,60.031536 148.886002,60.080086 149.089523,60.729145 
	C150.997040,63.327389 152.904556,65.925636 154.807327,68.815811 
	C154.807327,68.815811 155.030197,69.004410 155.057281,69.558090 
	C155.387955,69.989471 155.718643,70.420853 156.141403,71.547791 
	C157.084808,73.367638 158.028214,75.187492 159.003494,77.784355 
	C162.484970,87.242287 163.490372,97.039238 162.806610,107.206345 
	C162.806610,107.206345 162.755920,107.460327 162.755920,107.460327 
	C162.755920,107.460327 162.951263,107.629913 162.599045,108.407410 
	C162.531601,108.967842 162.464157,109.528275 162.099777,110.823318 
	C160.044128,121.582855 156.320068,131.596146 148.995148,140.004791 
	C148.995148,140.004791 149.021118,140.045441 148.478668,140.288345 
	C148.000381,140.859192 147.522095,141.430038 146.737671,142.605118 
	C145.138412,144.348557 143.539154,146.091995 141.263199,148.011139 
	C136.078918,151.305191 130.894638,154.599243 124.971626,157.935150 
	C116.314369,159.672104 107.657112,161.409073 98.073540,162.993256 
	C85.065315,163.045761 72.057083,163.098267 58.377514,162.995377 
	C57.920853,163.027603 57.464188,163.059830 56.306862,162.943405 
	C55.768936,163.648560 55.231010,164.353729 54.455093,165.848755 
	C54.525688,167.211807 54.596287,168.574875 54.452934,170.692017 
	C55.239674,171.116180 56.026768,171.910507 56.813099,171.909760 
	C71.864754,171.895401 86.916328,171.787567 102.868233,171.798630 
	C104.650040,171.567047 106.431847,171.335480 108.473778,171.310730 
	C108.722191,171.335358 108.913162,171.242111 109.874962,171.079666 
	C113.929604,170.089157 117.984253,169.098648 122.804169,168.104950 
	C129.656158,164.414963 136.508163,160.724991 143.952744,156.824783 
	C146.304810,154.536453 148.656860,152.248108 151.587662,150.002716 
	C151.806320,149.696960 152.024979,149.391205 152.660141,148.959793 
	C152.927841,148.790192 153.067780,148.547058 153.586212,148.000229 
	C153.761444,147.682205 153.936661,147.364182 154.024857,147.027115 
	C154.024857,147.027115 154.075089,147.100708 154.690857,146.826935 
	C157.497086,142.576859 160.303314,138.326782 163.012024,134.012436 
	C163.012024,134.012436 163.084335,134.104141 163.588211,133.761215 
	C163.767563,133.189575 163.946915,132.617950 164.037506,132.038605 
	C164.037506,132.038605 164.087753,132.112183 164.587372,131.759369 
	C164.766907,131.187241 164.946426,130.615128 165.039459,130.042664 
	C165.039459,130.042664 165.087601,130.114517 165.562485,129.734573 
	C165.716217,129.160477 165.869949,128.586380 166.506607,127.478119 
	C175.417816,105.566628 173.322617,84.457115 161.865768,63.560764 
	C161.763702,63.235439 161.549728,63.022659 161.124420,62.332741 
	C160.753128,61.884613 160.381836,61.436485 160.000000,60.999847 
	C160.000000,60.999847 160.012466,60.991890 159.913544,60.383465 
	C159.270233,59.602783 158.626923,58.822102 157.882645,57.556320 
	C157.724030,57.239510 157.472870,57.038113 156.989655,56.420418 
	C156.706375,56.205963 156.423111,55.991512 156.117340,55.887821 
M138.198639,73.840965 
	C138.198639,73.840965 138.338058,73.791000 138.194839,73.221916 
	C137.793076,72.819832 137.391296,72.417747 137.000610,72.000305 
	C137.000610,72.000305 136.985214,72.009850 136.832718,71.443054 
	C136.139877,70.798431 135.447052,70.153801 134.613983,69.372505 
	C134.613983,69.372505 134.467102,69.243019 134.221741,68.810402 
	C133.722610,68.386139 133.223495,67.961884 132.584076,67.405968 
	C132.584076,67.405968 132.429092,67.292007 132.097198,66.800087 
	C131.097061,66.103355 130.096909,65.406616 128.712326,64.175362 
	C127.139206,63.242802 125.566086,62.310238 123.388557,60.937267 
	C118.603783,59.513432 113.819016,58.089596 108.317383,56.265106 
	C94.522690,56.311474 80.727997,56.357841 66.376900,56.884346 
	C66.376900,59.429218 66.376900,61.974091 66.376900,64.723213 
	C72.224518,64.723213 77.575409,64.723213 83.767006,64.879341 
	C85.180618,64.817871 86.594231,64.756393 88.859688,64.863258 
	C90.593552,64.811638 92.327423,64.760017 94.959007,64.892365 
	C98.654579,64.875679 102.350151,64.858994 106.820030,65.015472 
	C111.878479,66.684151 116.936928,68.352829 122.360924,70.550575 
	C123.597412,71.360069 124.833908,72.169571 126.323189,73.486359 
	C126.790794,73.787903 127.258400,74.089447 127.719803,74.189636 
	C127.719803,74.189636 127.652695,74.379585 127.946182,74.967705 
	C130.292542,77.985992 132.638901,81.004288 135.002670,84.003624 
	C135.002670,84.003624 134.979340,84.008896 135.039902,84.641273 
	C135.303665,84.957764 135.567429,85.274261 135.761520,85.837921 
	C135.761520,85.837921 135.958130,86.003120 136.007156,86.791489 
	C136.978928,92.532997 137.950684,98.274513 138.685898,104.576744 
	C138.718307,105.166367 138.750717,105.755997 138.226730,106.906075 
	C137.787796,108.925964 137.348862,110.945847 136.466934,113.345451 
	C136.323212,113.899101 136.179489,114.452751 135.590988,115.524879 
	C133.322235,118.938873 131.053482,122.352867 128.219070,125.989471 
	C127.356308,126.842171 126.493546,127.694870 125.080063,128.733749 
	C124.667381,129.105621 124.254700,129.477509 123.303329,130.035660 
	C123.050148,130.308594 122.796967,130.581543 121.865692,130.975021 
	C116.558876,132.745087 111.252060,134.515137 105.490028,136.169373 
	C105.490028,136.169373 105.064903,136.369095 104.366531,136.270081 
	C103.908096,136.352173 103.449654,136.434265 102.084404,136.302414 
	C97.115738,136.318481 92.145996,136.274902 87.178658,136.364624 
	C79.697563,136.499741 79.070686,137.425491 81.233955,144.895966 
	C88.143379,144.895966 95.085426,144.895966 102.911903,145.052689 
	C112.163918,145.135544 120.673752,142.855865 128.746536,136.995392 
	C130.209045,135.705368 131.671555,134.415329 133.725815,132.874908 
	C134.831589,131.590698 135.937363,130.306503 137.637161,128.674545 
	C140.682144,122.105171 143.727127,115.535797 146.993225,108.326904 
	C147.039154,107.216972 147.085083,106.107048 147.487198,104.181946 
	C147.436310,102.125580 147.385437,100.069206 147.548523,97.290916 
	C147.101379,95.127930 146.654251,92.964951 146.188171,90.920044 
	C146.188171,90.920044 146.301834,90.882889 146.309021,90.113701 
	C145.568466,88.038742 144.827911,85.963776 144.033081,83.961502 
	C144.033081,83.961502 144.123260,83.951553 144.109787,83.331314 
	C143.797958,82.824501 143.486130,82.317688 143.132339,81.906075 
	C143.132339,81.906075 143.236130,81.898903 143.171692,81.226837 
	C142.477631,80.110825 141.783585,78.994804 141.026566,77.970123 
	C141.026566,77.970123 141.125946,77.920815 141.031113,77.292114 
	C140.400253,76.472580 139.769394,75.653046 139.084122,74.923805 
	C139.084122,74.923805 139.187424,74.902763 139.060974,74.362801 
	C138.782379,74.140289 138.503799,73.917778 138.198639,73.840965 
M57.110317,81.933380 
	C48.749554,81.993286 40.388790,82.053200 31.169357,81.942368 
	C24.687973,82.508041 28.994232,87.230560 28.268717,90.548447 
	C28.852282,90.581673 29.435846,90.614906 30.945417,90.737251 
	C35.637295,90.627251 40.329170,90.517258 45.875576,90.673027 
	C48.258408,90.579689 50.641239,90.486343 53.914684,90.672646 
	C59.623219,90.599335 65.331757,90.526024 71.871811,90.684677 
	C73.585686,90.598358 75.299553,90.512039 77.712082,90.673225 
	C80.813225,90.589722 83.914360,90.506218 87.875023,90.674255 
	C89.955299,90.596687 92.035568,90.519127 94.570419,90.624313 
	C94.570419,90.624313 95.020927,90.431778 95.899796,90.674301 
	C99.239838,90.843994 102.579872,91.013687 106.344765,91.709190 
	C114.362541,97.078072 114.604088,104.309151 106.156197,111.093887 
	C98.771446,111.460770 91.386688,111.827652 83.265877,112.030602 
	C82.515862,112.067818 81.765839,112.105034 80.089439,111.976151 
	C71.655792,111.976151 63.222149,111.976151 54.658501,111.976151 
	C54.658501,115.303253 54.658501,118.011734 54.658501,120.824348 
	C65.698624,120.824348 76.335297,120.824348 87.670639,120.935921 
	C88.136086,120.880867 88.601540,120.825813 89.978470,120.927750 
	C94.996086,120.759140 100.013695,120.590538 105.821190,120.385048 
	C120.595039,116.617584 126.415253,100.057487 116.678093,88.846909 
	C114.802032,86.686951 111.606499,85.673042 108.478104,83.963707 
	C107.848404,83.592857 107.218704,83.222015 105.856674,82.276360 
	C89.918610,82.219910 73.980545,82.163460 57.110317,81.933380 
M35.627907,136.183868 
	C33.178982,136.183868 30.730053,136.183868 27.928188,136.183868 
	C27.928188,139.396881 27.928188,142.092636 27.928188,144.820786 
	C41.627846,144.820786 54.984402,144.820786 68.370636,144.820786 
	C68.370636,141.812866 68.370636,139.141373 68.370636,136.185272 
	C57.465115,136.185272 47.029289,136.185272 35.627907,136.183868 
M58.820229,28.442354 
	C53.770885,28.824841 53.152454,30.273064 55.170364,37.108658 
	C59.555729,37.108658 63.957024,37.108658 68.298714,37.108658 
	C69.495216,28.451036 69.495216,28.450975 61.706711,28.442467 
	C61.041790,28.441740 60.376869,28.442553 58.820229,28.442354 
M40.188473,162.951218 
	C36.122540,162.951218 32.056606,162.951218 28.162621,162.951218 
	C28.162621,166.377625 28.162621,168.947342 28.162621,171.622833 
	C33.126923,171.622833 37.694290,171.622833 43.620190,171.622833 
	C42.677341,168.380112 41.894318,165.687057 40.188473,162.951218 
M38.314568,120.986176 
	C39.737339,120.874352 41.160110,120.762535 42.499260,120.657280 
	C42.499260,117.595810 42.499260,115.021492 42.499260,112.418076 
	C37.438625,112.418076 32.741711,112.418076 28.126469,112.418076 
	C28.126469,115.427628 28.126469,118.004570 28.126469,120.984024 
	C31.447968,120.984024 34.408588,120.984024 38.314568,120.986176 
M48.361664,64.975250 
	C50.292919,64.975250 52.224178,64.975250 54.337173,64.975250 
	C54.337173,61.676941 54.337173,58.983425 54.337173,56.320499 
	C45.274868,56.320499 36.608288,56.320499 27.858799,56.320499 
	C27.858799,59.280243 27.858799,61.863571 27.858799,64.974457 
	C34.570873,64.974457 40.982166,64.974457 48.361664,64.975250 
M40.947918,28.426624 
	C36.677418,28.426624 32.406918,28.426624 27.995045,28.426624 
	C27.995045,31.774723 27.995045,34.467072 27.995045,37.063683 
	C33.131622,37.063683 37.835739,37.063683 43.361141,37.063683 
	C42.768578,33.858608 42.282661,31.230352 40.947918,28.426624 
z"/>
<path fill="#981977" opacity="1.000000" stroke="none" 
	d="
M161.883316,64.028473 
	C173.322617,84.457115 175.417816,105.566628 166.010437,127.920631 
	C165.372040,128.946930 165.229828,129.530731 165.087616,130.114517 
	C165.087601,130.114517 165.039459,130.042664 164.807800,130.197754 
	C164.413345,130.939301 164.250565,131.525742 164.087769,132.112183 
	C164.087753,132.112183 164.037506,132.038605 163.806625,132.194916 
	C163.411942,132.935547 163.248138,133.519836 163.084335,134.104141 
	C163.084335,134.104141 163.012024,134.012436 162.654877,134.022446 
	C158.795883,134.081757 157.343750,132.828323 158.747589,129.134933 
	C159.617340,126.846657 160.046860,124.370346 160.488190,121.944641 
	C161.204544,118.007256 161.768448,114.042122 162.396713,110.088707 
	C162.464157,109.528275 162.531601,108.967842 162.795517,107.921722 
	C162.991989,107.436028 163.009079,107.039742 163.009079,107.039742 
	C163.490372,97.039238 162.484970,87.242287 159.381256,77.386093 
	C163.301514,76.643906 164.178986,73.562531 162.401917,71.944130 
	C159.187988,69.017128 161.232147,66.682434 161.883316,64.028473 
z"/>
<path fill="#9A1A76" opacity="1.000000" stroke="none" 
	d="
M147.334564,98.012840 
	C147.385437,100.069206 147.436310,102.125580 147.060791,104.729660 
	C146.680298,106.507065 146.726196,107.736740 146.772110,108.966423 
	C143.727127,115.535797 140.682144,122.105171 137.075928,128.738586 
	C136.009781,128.535736 135.504837,128.268814 134.999939,127.668198 
	C135.001831,126.889618 135.003662,126.444748 135.288483,125.782883 
	C137.242371,122.112732 138.871841,118.657745 136.035767,115.006401 
	C136.179489,114.452751 136.323212,113.899101 137.091309,113.081444 
	C138.071503,110.660164 138.427322,108.502892 138.783142,106.345619 
	C138.750717,105.755997 138.718307,105.166367 139.109589,104.020195 
	C139.668503,100.889351 140.366867,98.183380 139.803116,95.772530 
	C139.014664,92.400734 137.285065,89.249001 135.958130,86.003120 
	C135.958130,86.003120 135.761520,85.837921 135.771103,85.395233 
	C135.513565,84.637993 135.246460,84.323441 134.979340,84.008896 
	C134.979340,84.008896 135.002670,84.003624 135.003448,83.587631 
	C133.996445,80.121407 132.988663,77.071182 131.986099,73.616913 
	C131.997375,72.135376 132.003418,71.057861 132.442627,69.944565 
	C133.406219,69.686852 133.936661,69.464935 134.467102,69.243019 
	C134.467102,69.243019 134.613983,69.372505 134.492126,69.782974 
	C135.241913,70.798912 136.113571,71.404381 136.985214,72.009850 
	C136.985214,72.009850 137.000610,72.000305 137.024811,72.322571 
	C137.478699,73.026886 137.908386,73.408943 138.338058,73.791000 
	C138.338058,73.791000 138.198639,73.840965 138.246307,74.052483 
	C138.591797,74.476921 138.889603,74.689842 139.187424,74.902763 
	C139.187424,74.902763 139.084122,74.923805 139.072144,75.252106 
	C139.748764,76.360550 140.437347,77.140678 141.125946,77.920815 
	C141.125946,77.920815 141.026566,77.970123 141.054276,78.274857 
	C141.800034,79.686028 142.518082,80.792465 143.236130,81.898903 
	C143.236130,81.898903 143.132339,81.906075 143.116669,82.182831 
	C143.441757,82.956902 143.782516,83.454224 144.123260,83.951553 
	C144.123260,83.951553 144.033081,83.961502 144.034729,84.320381 
	C144.791534,86.747139 145.546692,88.815010 146.301834,90.882889 
	C146.301834,90.882889 146.188171,90.920044 146.129959,91.280121 
	C146.492691,93.764420 146.913635,95.888626 147.334564,98.012840 
z"/>
<path fill="#9B1C75" opacity="1.000000" stroke="none" 
	d="
M106.989006,110.995621 
	C114.604088,104.309151 114.362541,97.078072 106.279816,91.179413 
	C107.149796,88.476570 108.084724,86.303505 109.019653,84.130447 
	C111.606499,85.673042 114.802032,86.686951 116.678093,88.846909 
	C126.415253,100.057487 120.595039,116.617584 105.565475,120.056305 
	C109.895844,115.921509 110.259361,114.031219 106.989006,110.995621 
z"/>
<path fill="#DB4D60" opacity="1.000000" stroke="none" 
	d="
M36.110687,136.184570 
	C47.029289,136.185272 57.465115,136.185272 68.370636,136.185272 
	C68.370636,139.141373 68.370636,141.812866 68.370636,144.820786 
	C54.984402,144.820786 41.627846,144.820786 27.928188,144.820786 
	C27.928188,142.092636 27.928188,139.396881 27.928188,136.183868 
	C30.730053,136.183868 33.178982,136.183868 36.110687,136.184570 
M43.930717,144.003250 
	C48.230160,144.001465 52.545563,144.207657 56.819981,143.879730 
	C58.225449,143.771912 59.524803,142.280945 60.872681,141.422470 
	C59.549252,140.281097 58.321022,138.322845 56.884102,138.155396 
	C52.968647,137.699112 48.965027,137.999451 44.062195,137.990234 
	C40.102173,137.987900 36.118942,137.747986 32.196587,138.131210 
	C31.052317,138.243011 30.081650,140.131668 29.031410,141.205872 
	C30.055857,142.139404 31.014544,143.774292 32.116829,143.877640 
	C35.714569,144.214966 39.364685,143.993698 43.930717,144.003250 
z"/>
<path fill="#EA3C48" opacity="1.000000" stroke="none" 
	d="
M28.086128,89.943802 
	C28.994232,87.230560 24.687973,82.508041 31.907166,82.301422 
	C39.419762,82.795212 46.194553,82.929962 52.978817,83.486420 
	C52.992943,85.606125 52.997593,87.304131 53.001122,89.001068 
	C53.000000,89.000000 53.002178,89.002136 52.580215,88.999390 
	C49.779182,89.466850 47.400116,89.937057 45.021046,90.407272 
	C40.329170,90.517258 35.637295,90.627251 30.301779,90.493393 
	C29.134136,90.147629 28.610132,90.045715 28.086128,89.943802 
z"/>
<path fill="#B92A66" opacity="1.000000" stroke="none" 
	d="
M122.038895,168.108154 
	C117.984253,169.098648 113.929604,170.089157 109.320808,171.013535 
	C108.563622,170.933502 108.379288,170.985672 108.213654,171.103912 
	C106.431847,171.335480 104.650040,171.567047 102.124390,171.524719 
	C99.226395,170.856567 97.072227,170.462357 95.384789,170.045578 
	C99.232162,170.012497 102.612816,170.001984 106.400124,169.994843 
	C107.459656,169.991882 108.295311,170.242630 108.731979,169.932205 
	C110.182312,168.901138 111.489136,167.668213 112.850983,166.512695 
	C111.344894,165.675629 109.917053,164.384644 108.314301,164.108353 
	C105.936836,163.698532 103.435455,164.007568 100.655579,164.009369 
	C99.882652,164.006851 99.440979,164.005585 98.999680,163.789734 
	C99.000053,163.575165 98.999855,163.146027 98.999855,163.146027 
	C107.657112,161.409073 116.314369,159.672104 125.687332,157.960464 
	C127.264366,158.319275 128.125687,158.652771 128.993500,158.993103 
	C129.000000,158.999939 129.013596,159.012848 129.009811,159.419510 
	C129.323654,162.743912 128.551437,164.762054 125.269463,165.503677 
	C124.058281,165.777390 123.108116,167.206192 122.038895,168.108154 
z"/>
<path fill="#AD216C" opacity="1.000000" stroke="none" 
	d="
M141.983780,52.999893 
	C141.637482,52.984581 141.358459,52.839706 140.942688,52.086349 
	C140.421371,51.432056 140.104019,51.256687 139.786682,51.081318 
	C135.824188,48.648769 131.861710,46.216217 128.075211,43.451351 
	C132.282333,42.689445 130.830627,38.947521 132.055161,36.822384 
	C134.584702,37.990204 137.114243,39.158028 139.958954,40.909882 
	C141.195145,41.988636 142.116196,42.483353 143.037231,42.978073 
	C143.037231,42.978073 143.003433,43.003937 143.127106,43.219589 
	C143.558044,43.590820 143.865280,43.746399 144.172531,43.901978 
	C144.172531,43.901974 144.074142,43.920425 144.088226,44.238464 
	C146.073029,47.360874 148.043747,50.165241 149.984222,53.295856 
	C149.293686,54.422871 148.633408,55.223637 147.568726,56.041294 
	C146.642410,56.193768 146.120483,56.329350 145.598572,56.464928 
	C145.598572,56.464928 145.633408,56.442986 145.635223,56.118042 
	C145.291870,55.660065 144.946716,55.527031 144.601562,55.394001 
	C144.699371,55.257645 144.797180,55.121292 144.762680,54.892250 
	C144.285904,54.670094 143.941452,54.540619 143.597000,54.411144 
	C143.597000,54.411144 143.935120,54.195274 143.779236,53.996311 
	C143.076813,53.531532 142.530304,53.265713 141.983780,52.999893 
z"/>
<path fill="#9F1C75" opacity="1.000000" stroke="none" 
	d="
M147.973145,56.024399 
	C148.633408,55.223637 149.293686,54.422871 150.418488,53.296341 
	C151.731674,52.798656 152.580338,52.626743 153.429001,52.454826 
	C153.429001,52.454826 153.403152,52.533150 153.399078,52.854454 
	C153.722473,53.336452 154.049973,53.497154 154.377457,53.657852 
	C154.377457,53.657852 154.183167,53.928650 154.267395,54.074207 
	C154.674484,54.395985 154.997345,54.572208 155.320190,54.748428 
	C155.320190,54.748432 155.201767,54.818329 155.258392,55.038055 
	C155.619003,55.458668 155.923004,55.659554 156.227005,55.860435 
	C156.227005,55.860435 156.117340,55.887821 156.192444,56.101212 
	C156.554749,56.527111 156.841965,56.739620 157.129166,56.952129 
	C157.472870,57.038113 157.724030,57.239510 157.958710,58.118004 
	C158.694016,59.450420 159.353241,60.221153 160.012466,60.991890 
	C160.012466,60.991890 160.000000,60.999847 160.024780,61.307495 
	C160.440979,62.050903 160.832413,62.486664 161.223831,62.922421 
	C161.549728,63.022659 161.763702,63.235439 161.874542,63.794617 
	C161.232147,66.682434 159.187988,69.017128 162.401917,71.944130 
	C164.178986,73.562531 163.301514,76.643906 159.365326,76.997589 
	C158.028214,75.187492 157.084808,73.367638 156.069550,70.920135 
	C155.675201,69.863129 155.352707,69.433769 155.030197,69.004410 
	C155.030197,69.004410 154.807327,68.815811 154.855438,68.259781 
	C153.865372,64.398720 153.547745,60.524940 148.886002,60.080086 
	C148.886002,60.080086 148.968185,60.031536 148.870697,59.828697 
	C148.497375,59.426281 148.221527,59.226704 147.945694,59.027126 
	C147.945694,59.027126 148.001068,59.003609 147.996094,58.648857 
	C147.985123,57.537540 147.979141,56.780968 147.973145,56.024399 
z"/>
<path fill="#B52A66" opacity="1.000000" stroke="none" 
	d="
M131.930145,36.497787 
	C130.830627,38.947521 132.282333,42.689445 127.828911,43.190666 
	C122.696739,41.735126 117.986855,40.207962 113.482285,38.345181 
	C116.170708,38.083611 117.979904,37.228161 116.210678,34.628204 
	C114.954514,32.782192 112.784515,31.558022 111.022392,30.056299 
	C117.949974,32.095264 124.877548,34.134228 131.930145,36.497787 
z"/>
<path fill="#E24459" opacity="1.000000" stroke="none" 
	d="
M59.266090,28.442501 
	C60.376869,28.442553 61.041790,28.441740 61.706711,28.442467 
	C69.495216,28.450975 69.495216,28.451036 68.298714,37.108658 
	C63.957024,37.108658 59.555729,37.108658 55.170364,37.108658 
	C53.152454,30.273064 53.770885,28.824841 59.266090,28.442501 
z"/>
<path fill="#AE266C" opacity="1.000000" stroke="none" 
	d="
M122.421539,168.106567 
	C123.108116,167.206192 124.058281,165.777390 125.269463,165.503677 
	C128.551437,164.762054 129.323654,162.743912 129.291870,159.379791 
	C129.896988,158.627090 130.216263,158.320755 130.535522,158.014420 
	C130.326813,157.833054 130.118103,157.651688 129.909393,157.470322 
	C129.601929,157.975632 129.294464,158.480957 128.987000,158.986267 
	C128.125687,158.652771 127.264366,158.319275 126.056702,157.939545 
	C130.894638,154.599243 136.078918,151.305191 141.611481,148.325546 
	C141.509186,150.340347 141.215042,152.102432 140.574066,153.727737 
	C139.391495,156.726318 141.116913,157.044861 143.360168,157.035019 
	C136.508163,160.724991 129.656158,164.414963 122.421539,168.106567 
z"/>
<path fill="#BD2961" opacity="1.000000" stroke="none" 
	d="
M102.027473,144.895966 
	C95.085426,144.895966 88.143379,144.895966 81.233955,144.895966 
	C79.070686,137.425491 79.697563,136.499741 87.178658,136.364624 
	C92.145996,136.274902 97.115738,136.318481 102.635803,136.703827 
	C104.125816,137.402374 105.064430,137.699493 106.001373,138.425034 
	C106.002480,140.565842 106.005257,142.278214 105.648674,143.993774 
	C104.202034,144.296631 103.114754,144.596298 102.027473,144.895966 
M88.448738,138.021744 
	C87.625755,138.021408 86.802467,138.035446 85.979851,138.017899 
	C83.910912,137.973740 82.016663,137.912949 81.992111,140.931305 
	C81.968353,143.851776 83.669685,144.074539 85.845139,143.986435 
	C86.995445,143.939835 88.155449,144.053818 89.299934,143.959793 
	C91.246742,143.799820 93.797089,144.810730 93.984673,141.282318 
	C94.183762,137.537109 91.654419,138.044647 88.448738,138.021744 
z"/>
<path fill="#A81B6E" opacity="1.000000" stroke="none" 
	d="
M143.656464,156.929901 
	C141.116913,157.044861 139.391495,156.726318 140.574066,153.727737 
	C141.215042,152.102432 141.509186,150.340347 141.949829,148.237701 
	C143.539154,146.091995 145.138412,144.348557 147.204285,142.260468 
	C148.120972,141.292374 148.571045,140.668900 149.021118,140.045441 
	C149.021118,140.045441 148.995148,140.004791 149.380646,140.003235 
	C150.253693,139.930115 150.749390,139.892975 151.227280,139.780334 
	C152.523865,139.474670 153.812912,139.137009 155.104950,138.812027 
	C154.833740,140.104233 154.472961,141.385620 154.315186,142.691528 
	C154.139023,144.149643 154.147171,145.630020 154.075104,147.100708 
	C154.075089,147.100708 154.024857,147.027115 153.812729,147.149963 
	C153.427048,147.591995 153.253510,147.911194 153.079956,148.230392 
	C153.067780,148.547058 152.927841,148.790192 152.192963,149.081970 
	C151.486832,149.456024 151.247879,149.707901 151.008911,149.959763 
	C148.656860,152.248108 146.304810,154.536453 143.656464,156.929901 
z"/>
<path fill="#EB4B51" opacity="1.000000" stroke="none" 
	d="
M40.649883,162.972610 
	C41.894318,165.687057 42.677341,168.380112 43.620190,171.622833 
	C37.694290,171.622833 33.126923,171.622833 28.162621,171.622833 
	C28.162621,168.947342 28.162621,166.377625 28.162621,162.951218 
	C32.056606,162.951218 36.122540,162.951218 40.649883,162.972610 
z"/>
<path fill="#E94953" opacity="1.000000" stroke="none" 
	d="
M37.841888,120.985100 
	C34.408588,120.984024 31.447968,120.984024 28.126469,120.984024 
	C28.126469,118.004570 28.126469,115.427628 28.126469,112.418076 
	C32.741711,112.418076 37.438625,112.418076 42.499260,112.418076 
	C42.499260,115.021492 42.499260,117.595810 42.499260,120.657280 
	C41.160110,120.762535 39.737339,120.874352 37.841888,120.985100 
z"/>
<path fill="#AA246C" opacity="1.000000" stroke="none" 
	d="
M106.572601,111.044754 
	C110.259361,114.031219 109.895844,115.921509 105.170532,120.074753 
	C100.013695,120.590538 94.996086,120.759140 89.826736,120.611725 
	C90.481964,120.198181 91.386848,120.299660 92.075180,119.960999 
	C93.436546,119.291237 95.402565,118.642555 95.816185,117.509644 
	C96.638405,115.257545 95.355545,113.953529 92.737823,113.900063 
	C90.481827,113.853996 88.235397,113.339600 85.656326,113.023148 
	C84.889618,113.012794 84.451302,113.011559 84.008820,112.806396 
	C84.004639,112.602463 84.001938,112.194527 84.001938,112.194527 
	C91.386688,111.827652 98.771446,111.460770 106.572601,111.044754 
z"/>
<path fill="#9F2575" opacity="1.000000" stroke="none" 
	d="
M154.382980,146.963821 
	C154.147171,145.630020 154.139023,144.149643 154.315186,142.691528 
	C154.472961,141.385620 154.833740,140.104233 155.104950,138.812027 
	C153.812912,139.137009 152.523865,139.474670 151.227280,139.780334 
	C150.749390,139.892975 150.253693,139.930115 149.403595,140.010559 
	C156.320068,131.596146 160.044128,121.582855 162.248245,110.456009 
	C161.768448,114.042122 161.204544,118.007256 160.488190,121.944641 
	C160.046860,124.370346 159.617340,126.846657 158.747589,129.134933 
	C157.343750,132.828323 158.795883,134.081757 162.703644,134.054565 
	C160.303314,138.326782 157.497086,142.576859 154.382980,146.963821 
z"/>
<path fill="#DE525E" opacity="1.000000" stroke="none" 
	d="
M47.877563,64.974854 
	C40.982166,64.974457 34.570873,64.974457 27.858799,64.974457 
	C27.858799,61.863571 27.858799,59.280243 27.858799,56.320499 
	C36.608288,56.320499 45.274868,56.320499 54.337173,56.320499 
	C54.337173,58.983425 54.337173,61.676941 54.337173,64.975250 
	C52.224178,64.975250 50.292919,64.975250 47.877563,64.974854 
M34.763023,57.972626 
	C32.448948,58.186073 29.164619,57.103371 29.161585,60.989155 
	C29.158524,64.908493 32.483166,63.996330 34.764347,63.928368 
	C39.543110,63.785995 44.328396,63.474129 49.074272,62.918297 
	C50.120731,62.795738 51.014431,61.368904 51.978477,60.542667 
	C50.870090,59.690250 49.807167,58.183083 48.645195,58.102402 
	C44.350941,57.804218 40.023952,57.977356 34.763023,57.972626 
z"/>
<path fill="#E43A51" opacity="1.000000" stroke="none" 
	d="
M57.007526,163.092056 
	C57.464188,163.059830 57.920853,163.027603 59.026344,163.332733 
	C64.116508,163.784317 68.557846,163.898560 72.998032,164.421295 
	C73.195068,168.915604 71.168312,170.358536 67.228668,170.068573 
	C65.541359,169.944382 63.797417,170.589600 61.677582,170.909424 
	C59.072933,170.601730 56.869907,170.269836 54.666885,169.937927 
	C54.596287,168.574875 54.525688,167.211807 54.823151,165.384384 
	C55.796646,164.310699 56.402088,163.701370 57.007526,163.092056 
z"/>
<path fill="#D22B56" opacity="1.000000" stroke="none" 
	d="
M100.999046,37.045612 
	C100.256233,37.113640 99.513412,37.181667 98.117348,36.859730 
	C93.523964,36.317612 89.584320,36.069202 85.643524,36.049610 
	C83.300003,36.037964 81.385315,35.454346 82.151093,32.809437 
	C82.491753,31.632856 84.367241,30.187737 85.620407,30.113138 
	C90.726318,29.809196 95.860977,29.988394 100.989685,30.430088 
	C100.995895,32.928959 100.997467,34.987286 100.999046,37.045612 
z"/>
<path fill="#AC276B" opacity="1.000000" stroke="none" 
	d="
M109.034241,56.665756 
	C113.819016,58.089596 118.603783,59.513432 123.625145,61.506187 
	C123.239609,64.723907 122.617493,67.372704 121.995377,70.021500 
	C116.936928,68.352829 111.878479,66.684151 106.719986,64.674911 
	C108.719994,64.002747 110.820038,63.671143 112.923836,63.338940 
	C111.374222,60.680347 110.204231,58.673054 109.034241,56.665756 
z"/>
<path fill="#B73469" opacity="1.000000" stroke="none" 
	d="
M108.675812,56.465431 
	C110.204231,58.673054 111.374222,60.680347 112.923836,63.338940 
	C110.820038,63.671143 108.719994,64.002747 106.332840,64.588333 
	C102.350151,64.858994 98.654579,64.875679 94.814972,64.572266 
	C97.263359,63.836014 99.920410,63.637920 102.416916,62.898102 
	C103.438835,62.595261 104.113716,61.121365 104.946472,60.180206 
	C104.057198,59.457764 103.234070,58.227169 102.267143,58.101315 
	C98.200844,57.572052 94.091591,57.372906 89.544182,57.038742 
	C86.056145,57.039417 83.021973,57.054264 79.532181,57.054085 
	C75.028801,56.827446 70.981056,56.615826 66.933304,56.404209 
	C80.727997,56.357841 94.522690,56.311474 108.675812,56.465431 
z"/>
<path fill="#D83D5F" opacity="1.000000" stroke="none" 
	d="
M66.655106,56.644279 
	C70.981056,56.615826 75.028801,56.827446 79.533157,57.447479 
	C79.837852,59.764786 79.685936,61.673683 79.541374,63.490059 
	C80.807190,63.951202 81.866745,64.337204 82.926300,64.723213 
	C77.575409,64.723213 72.224518,64.723213 66.376900,64.723213 
	C66.376900,61.974091 66.376900,59.429218 66.655106,56.644279 
M76.202652,63.604801 
	C76.206909,63.210678 76.211166,62.816555 76.215431,62.422432 
	C76.051559,62.420895 75.745262,62.408329 75.744408,62.419415 
	C75.714035,62.811592 75.712303,63.205990 76.202652,63.604801 
z"/>
<path fill="#C72560" opacity="1.000000" stroke="none" 
	d="
M101.434547,37.152740 
	C100.997467,34.987286 100.995895,32.928959 101.321213,30.425251 
	C102.089752,29.977789 102.531410,29.975710 103.418297,29.982733 
	C105.940941,29.985826 108.018356,29.979820 110.095772,29.973812 
	C110.095772,29.973812 110.561737,29.985420 110.792068,30.020859 
	C112.784515,31.558022 114.954514,32.782192 116.210678,34.628204 
	C117.979904,37.228161 116.170708,38.083611 113.289185,38.024994 
	C109.217194,37.780231 105.543617,37.520050 101.434547,37.152740 
z"/>
<path fill="#C5265E" opacity="1.000000" stroke="none" 
	d="
M89.998055,57.052925 
	C94.091591,57.372906 98.200844,57.572052 102.267143,58.101315 
	C103.234070,58.227169 104.057198,59.457764 104.946472,60.180206 
	C104.113716,61.121365 103.438835,62.595261 102.416916,62.898102 
	C99.920410,63.637920 97.263359,63.836014 94.366112,64.480286 
	C92.327423,64.760017 90.593552,64.811638 88.442665,64.419502 
	C88.683113,61.668137 89.340584,59.360531 89.998055,57.052925 
z"/>
<path fill="#C44667" opacity="1.000000" stroke="none" 
	d="
M102.973068,29.973631 
	C102.531410,29.975710 102.089752,29.977789 101.316574,29.984707 
	C95.860977,29.988394 90.726318,29.809196 85.620407,30.113138 
	C84.367241,30.187737 82.491753,31.632856 82.151093,32.809437 
	C81.385315,35.454346 83.300003,36.037964 85.643524,36.049610 
	C89.584320,36.069202 93.523964,36.317612 97.749817,36.780884 
	C93.087891,37.223240 88.134445,37.521023 83.197327,37.349266 
	C82.174156,37.313671 80.691780,35.688450 80.345810,34.521645 
	C79.854843,32.865849 80.221184,30.955853 80.221184,28.577494 
	C87.837967,28.577494 95.062515,28.577494 102.644348,29.008984 
	C102.992111,29.618193 102.982590,29.795912 102.973068,29.973631 
z"/>
<path fill="#C6506B" opacity="1.000000" stroke="none" 
	d="
M86.971962,120.824348 
	C76.335297,120.824348 65.698624,120.824348 54.658501,120.824348 
	C54.658501,118.011734 54.658501,115.303253 54.658501,111.976151 
	C63.222149,111.976151 71.655792,111.976151 80.539787,112.272438 
	C80.990135,112.568726 80.959129,112.996933 80.522385,112.993469 
	C78.037292,113.012543 75.988960,113.035088 73.507240,113.042526 
	C68.463417,113.340912 63.824883,113.455811 59.261395,114.101280 
	C58.053154,114.272171 57.075951,116.076538 55.992661,117.130859 
	C57.172771,118.088455 58.292274,119.766243 59.544113,119.871597 
	C63.666058,120.218491 67.835930,119.995903 72.451263,119.998863 
	C76.937561,120.008057 80.959969,120.010422 85.264847,120.029633 
	C86.022186,120.305771 86.497078,120.565056 86.971962,120.824348 
z"/>
<path fill="#A72171" opacity="1.000000" stroke="none" 
	d="
M122.178146,70.286041 
	C122.617493,67.372704 123.239609,64.723907 123.927353,61.726395 
	C125.566086,62.310238 127.139206,63.242802 128.992249,64.801239 
	C130.324493,66.048752 131.376785,66.670380 132.429092,67.292007 
	C132.429092,67.292007 132.584076,67.405968 132.431488,67.845314 
	C132.189072,68.849892 132.099258,69.415123 132.009460,69.980354 
	C132.003418,71.057861 131.997375,72.135376 131.691376,73.724365 
	C130.145187,74.283760 128.898941,74.331673 127.652695,74.379585 
	C127.652695,74.379585 127.719803,74.189636 127.691895,73.976715 
	C127.132782,73.502213 126.601593,73.240639 126.070396,72.979065 
	C124.833908,72.169571 123.597412,71.360069 122.178146,70.286041 
z"/>
<path fill="#DD515C" opacity="1.000000" stroke="none" 
	d="
M41.372330,28.514360 
	C42.282661,31.230352 42.768578,33.858608 43.361141,37.063683 
	C37.835739,37.063683 33.131622,37.063683 27.995045,37.063683 
	C27.995045,34.467072 27.995045,31.774723 27.995045,28.426624 
	C32.406918,28.426624 36.677418,28.426624 41.372330,28.514360 
M34.549267,36.011719 
	C35.376823,36.010540 36.204689,35.994175 37.031872,36.011177 
	C39.121166,36.054111 41.011963,36.077702 41.040844,33.062626 
	C41.068951,30.128574 39.350384,29.901150 37.164978,29.983286 
	C36.008038,30.026768 34.842163,29.916155 33.690865,30.007689 
	C31.724766,30.164005 29.173038,29.185446 28.986597,32.720234 
	C28.788414,36.477608 31.324291,35.986027 34.549267,36.011719 
z"/>
<path fill="#AA1B6C" opacity="1.000000" stroke="none" 
	d="
M108.748878,84.047073 
	C108.084724,86.303505 107.149796,88.476570 106.067390,90.916504 
	C102.579872,91.013687 99.239838,90.843994 95.465492,90.492470 
	C95.031189,90.310638 95.039276,90.189018 95.342728,89.997940 
	C101.383842,88.595131 97.357979,85.449974 97.456047,83.019226 
	C100.812126,82.956779 103.700562,82.903969 106.589005,82.851166 
	C107.218704,83.222015 107.848404,83.592857 108.748878,84.047073 
z"/>
<path fill="#C7295D" opacity="1.000000" stroke="none" 
	d="
M77.013428,90.425713 
	C75.299553,90.512039 73.585686,90.598358 71.527893,90.216019 
	C71.457909,87.503479 71.731857,85.259590 72.465660,83.008202 
	C76.612083,83.017014 80.298660,83.033333 83.988068,83.437424 
	C82.895851,85.421181 81.979034,87.192177 80.643738,88.552315 
	C79.737648,89.475250 78.244194,89.821533 77.013428,90.425713 
z"/>
<path fill="#CD3658" opacity="1.000000" stroke="none" 
	d="
M72.005806,83.015709 
	C71.731857,85.259590 71.457909,87.503479 71.112129,90.100037 
	C65.331757,90.526024 59.623219,90.599335 53.458897,90.301590 
	C53.000633,89.621071 53.000320,89.311607 53.002178,89.002136 
	C53.002178,89.002136 53.000000,89.000000 53.460510,89.002678 
	C56.033047,89.003700 58.145195,89.016151 60.257072,88.997612 
	C65.641052,88.950356 66.131073,88.325516 65.431229,83.003754 
	C67.914772,82.999992 69.960289,83.007851 72.005806,83.015709 
z"/>
<path fill="#CD315B" opacity="1.000000" stroke="none" 
	d="
M89.544182,57.038746 
	C89.340584,59.360531 88.683113,61.668137 88.016739,64.335335 
	C86.594231,64.756393 85.180618,64.817871 83.346649,64.801277 
	C81.866745,64.337204 80.807190,63.951202 79.541374,63.490059 
	C79.685936,61.673683 79.837852,59.764786 79.988785,57.462502 
	C83.021973,57.054264 86.056145,57.039417 89.544182,57.038746 
z"/>
<path fill="#B62A66" opacity="1.000000" stroke="none" 
	d="
M87.321304,120.880135 
	C86.497078,120.565056 86.022186,120.305771 85.316795,119.640472 
	C85.385773,117.167053 85.685257,115.099663 85.984741,113.032257 
	C88.235397,113.339600 90.481827,113.853996 92.737823,113.900063 
	C95.355545,113.953529 96.638405,115.257545 95.816185,117.509644 
	C95.402565,118.642555 93.436546,119.291237 92.075180,119.960999 
	C91.386848,120.299660 90.481964,120.198181 89.370987,120.533234 
	C88.601540,120.825813 88.136086,120.880867 87.321304,120.880135 
z"/>
<path fill="#C85671" opacity="1.000000" stroke="none" 
	d="
M54.559906,170.314972 
	C56.869907,170.269836 59.072933,170.601730 62.133133,170.936905 
	C70.656921,170.640854 78.323532,170.341537 86.439331,170.047775 
	C89.565033,170.058258 92.241547,170.063202 94.918068,170.068130 
	C97.072227,170.462357 99.226395,170.856567 101.674232,171.474945 
	C86.916328,171.787567 71.864754,171.895401 56.813099,171.909760 
	C56.026768,171.910507 55.239674,171.116180 54.559906,170.314972 
z"/>
<path fill="#BC2462" opacity="1.000000" stroke="none" 
	d="
M77.362755,90.549469 
	C78.244194,89.821533 79.737648,89.475250 80.643738,88.552315 
	C81.979034,87.192177 82.895851,85.421181 84.433289,83.421722 
	C87.244865,83.024963 89.614075,83.031654 91.982254,83.408890 
	C90.325989,85.993858 88.670746,88.208282 87.015503,90.422707 
	C83.914360,90.506218 80.813225,90.589722 77.362755,90.549469 
z"/>
<path fill="#AB286C" opacity="1.000000" stroke="none" 
	d="
M106.003052,137.996613 
	C105.064430,137.699493 104.125816,137.402374 103.089211,136.810791 
	C103.449654,136.434265 103.908096,136.352173 104.805176,136.442123 
	C105.243820,136.614166 105.668076,136.625168 105.668076,136.625168 
	C105.668076,136.625168 105.945236,136.285187 105.945236,136.285187 
	C111.252060,134.515137 116.558876,132.745087 122.566727,130.960266 
	C123.509315,130.966461 123.750870,130.987427 123.938904,131.352005 
	C121.920464,134.127533 119.955544,136.559433 117.568146,138.992188 
	C113.431458,138.660904 109.717255,138.328766 106.003052,137.996613 
z"/>
<path fill="#B22066" opacity="1.000000" stroke="none" 
	d="
M87.445267,90.548477 
	C88.670746,88.208282 90.325989,85.993858 92.400085,83.396271 
	C94.208755,83.018349 95.598587,83.023605 96.988411,83.028854 
	C97.357979,85.449974 101.383842,88.595131 95.175217,89.968880 
	C94.471619,90.165329 94.275482,90.268883 94.115845,90.441566 
	C92.035568,90.519127 89.955299,90.596687 87.445267,90.548477 
z"/>
<path fill="#A23661" opacity="1.000000" stroke="none" 
	d="
M97.456047,83.019226 
	C95.598587,83.023605 94.208755,83.018349 92.401108,83.025726 
	C89.614075,83.031654 87.244865,83.024963 84.430450,83.033966 
	C80.298660,83.033333 76.612083,83.017014 72.465660,83.008202 
	C69.960289,83.007851 67.914772,82.999992 64.995193,82.995041 
	C62.087315,82.993622 60.053493,82.989288 58.021362,82.765373 
	C58.023052,82.545784 58.042480,82.107010 58.042480,82.107010 
	C73.980545,82.163460 89.918610,82.219910 106.222839,82.563766 
	C103.700562,82.903969 100.812126,82.956779 97.456047,83.019226 
z"/>
<path fill="#9E1F71" opacity="1.000000" stroke="none" 
	d="
M135.813385,115.265640 
	C138.871841,118.657745 137.242371,122.112732 134.986420,125.748131 
	C132.624054,125.977295 130.846695,126.024216 128.997925,125.995331 
	C128.926498,125.919525 128.784744,125.766861 128.784744,125.766861 
	C131.053482,122.352867 133.322235,118.938873 135.813385,115.265640 
z"/>
<path fill="#AB286C" opacity="1.000000" stroke="none" 
	d="
M102.469688,144.974319 
	C103.114754,144.596298 104.202034,144.296631 106.039665,143.948792 
	C111.529716,142.271347 116.269417,140.642090 121.338638,138.865463 
	C123.749123,138.103104 125.830086,137.488098 127.964066,136.935974 
	C128.017090,136.998840 128.103683,137.138687 128.103683,137.138687 
	C120.673752,142.855865 112.163918,145.135544 102.469688,144.974319 
z"/>
<path fill="#C4315C" opacity="1.000000" stroke="none" 
	d="
M72.999184,164.012787 
	C68.557846,163.898560 64.116508,163.784317 59.362015,163.410416 
	C72.057083,163.098267 85.065315,163.045761 98.536697,163.069641 
	C98.999855,163.146027 99.000053,163.575165 98.539017,163.790619 
	C94.383110,164.011185 90.688240,164.016296 86.529419,164.016327 
	C81.710037,164.011749 77.354607,164.012268 72.999184,164.012787 
z"/>
<path fill="#9E2872" opacity="1.000000" stroke="none" 
	d="
M127.799438,74.673645 
	C128.898941,74.331673 130.145187,74.283760 131.686157,74.128395 
	C132.988663,77.071182 133.996445,80.121407 134.994751,83.597107 
	C132.638901,81.004288 130.292542,77.985992 127.799438,74.673645 
z"/>
<path fill="#A42D74" opacity="1.000000" stroke="none" 
	d="
M153.291443,52.165718 
	C152.580338,52.626743 151.731674,52.798656 150.448746,52.970093 
	C148.043747,50.165241 146.073029,47.360874 144.111603,44.194206 
	C147.131897,46.513474 150.142883,49.195038 153.291443,52.165718 
z"/>
<path fill="#9E2872" opacity="1.000000" stroke="none" 
	d="
M135.982635,86.397308 
	C137.285065,89.249001 139.014664,92.400734 139.803116,95.772530 
	C140.366867,98.183380 139.668503,100.889351 139.227875,103.739838 
	C137.950684,98.274513 136.978928,92.532997 135.982635,86.397308 
z"/>
<path fill="#CD3658" opacity="1.000000" stroke="none" 
	d="
M57.576401,82.020195 
	C58.042480,82.107010 58.023052,82.545784 57.600471,82.775131 
	C55.775040,83.024567 54.372192,83.044640 52.969341,83.064713 
	C46.194553,82.929962 39.419762,82.795212 32.336502,82.386787 
	C40.388790,82.053200 48.749554,81.993286 57.576401,82.020195 
z"/>
<path fill="#A42D74" opacity="1.000000" stroke="none" 
	d="
M148.987762,60.404617 
	C153.547745,60.524940 153.865372,64.398720 154.857819,68.113815 
	C152.904556,65.925636 150.997040,63.327389 148.987762,60.404617 
z"/>
<path fill="#DC3351" opacity="1.000000" stroke="none" 
	d="
M52.580215,88.999390 
	C53.000320,89.311607 53.000633,89.621071 53.013588,90.161774 
	C50.641239,90.486343 48.258408,90.579689 45.448311,90.540146 
	C47.400116,89.937057 49.779182,89.466850 52.580215,88.999390 
z"/>
<path fill="#9E1F71" opacity="1.000000" stroke="none" 
	d="
M133.134064,133.125305 
	C131.671555,134.415329 130.209045,135.705368 128.425110,137.067047 
	C128.103683,137.138687 128.017090,136.998840 128.035614,136.598770 
	C129.671463,135.101181 131.288788,134.003662 132.962952,132.961090 
	C133.019775,133.016037 133.134064,133.125305 133.134064,133.125305 
z"/>
<path fill="#9E1F71" opacity="1.000000" stroke="none" 
	d="
M134.999908,128.001907 
	C135.504837,128.268814 136.009781,128.535736 136.778931,128.912476 
	C135.937363,130.306503 134.831589,131.590698 133.429932,133.000107 
	C133.134064,133.125305 133.019775,133.016037 132.996429,132.614075 
	C133.648682,130.808716 134.324295,129.405319 134.999908,128.001907 
z"/>
<path fill="#9A2873" opacity="1.000000" stroke="none" 
	d="
M147.441544,97.651878 
	C146.913635,95.888626 146.492691,93.764420 146.139435,91.221085 
	C146.654251,92.964951 147.101379,95.127930 147.441544,97.651878 
z"/>
<path fill="#9E2872" opacity="1.000000" stroke="none" 
	d="
M138.504944,106.625847 
	C138.427322,108.502892 138.071503,110.660164 137.312805,112.891586 
	C137.348862,110.945847 137.787796,108.925964 138.504944,106.625847 
z"/>
<path fill="#9A2873" opacity="1.000000" stroke="none" 
	d="
M146.305420,90.498291 
	C145.546692,88.815010 144.791534,86.747139 144.061890,84.284035 
	C144.827911,85.963776 145.568466,88.038742 146.305420,90.498291 
z"/>
<path fill="#B52A66" opacity="1.000000" stroke="none" 
	d="
M103.418297,29.982733 
	C102.982590,29.795912 102.992111,29.618193 103.016388,29.173914 
	C105.226013,29.041958 107.420883,29.176558 109.855766,29.642487 
	C108.018356,29.979820 105.940941,29.985826 103.418297,29.982733 
z"/>
<path fill="#B62A66" opacity="1.000000" stroke="none" 
	d="
M80.959129,112.996933 
	C80.959129,112.996933 80.990135,112.568726 81.002975,112.355492 
	C81.765839,112.105034 82.515862,112.067818 83.633911,112.112564 
	C84.001938,112.194527 84.004639,112.602463 83.819450,113.053810 
	C82.742554,113.335747 81.850838,113.166336 80.959129,112.996933 
z"/>
<path fill="#9A2873" opacity="1.000000" stroke="none" 
	d="
M132.263153,67.046051 
	C131.376785,66.670380 130.324493,66.048752 129.184479,65.068497 
	C130.096909,65.406616 131.097061,66.103355 132.263153,67.046051 
z"/>
<path fill="#9E1F71" opacity="1.000000" stroke="none" 
	d="
M125.630783,128.547562 
	C126.493546,127.694870 127.356308,126.842171 128.501907,125.878166 
	C128.784744,125.766861 128.926498,125.919525 128.931992,126.306976 
	C127.966019,127.471313 126.994545,128.248199 125.923698,128.906769 
	C125.824318,128.788452 125.630783,128.547562 125.630783,128.547562 
z"/>
<path fill="#A42D74" opacity="1.000000" stroke="none" 
	d="
M147.568726,56.041294 
	C147.979141,56.780968 147.985123,57.537540 147.977692,58.672676 
	C147.252365,58.369743 146.540466,57.688251 145.713562,56.735844 
	C146.120483,56.329350 146.642410,56.193768 147.568726,56.041294 
z"/>
<path fill="#C85671" opacity="1.000000" stroke="none" 
	d="
M56.657196,163.017731 
	C56.402088,163.701370 55.796646,164.310699 54.942146,164.989441 
	C55.231010,164.353729 55.768936,163.648560 56.657196,163.017731 
z"/>
<path fill="#9A2873" opacity="1.000000" stroke="none" 
	d="
M136.908966,71.726456 
	C136.113571,71.404381 135.241913,70.798912 134.562241,69.851311 
	C135.447052,70.153801 136.139877,70.798431 136.908966,71.726456 
z"/>
<path fill="#9A2873" opacity="1.000000" stroke="none" 
	d="
M146.882660,108.646667 
	C146.726196,107.736740 146.680298,106.507065 146.882706,105.137253 
	C147.085083,106.107048 147.039154,107.216972 146.882660,108.646667 
z"/>
<path fill="#9A2873" opacity="1.000000" stroke="none" 
	d="
M141.078522,77.606461 
	C140.437347,77.140678 139.748764,76.360550 139.099350,75.206963 
	C139.769394,75.653046 140.400253,76.472580 141.078522,77.606461 
z"/>
<path fill="#9A2873" opacity="1.000000" stroke="none" 
	d="
M143.203918,81.562866 
	C142.518082,80.792465 141.800034,79.686028 141.085754,78.229187 
	C141.783585,78.994804 142.477631,80.110825 143.203918,81.562866 
z"/>
<path fill="#9A2873" opacity="1.000000" stroke="none" 
	d="
M132.442627,69.944565 
	C132.099258,69.415123 132.189072,68.849892 132.501617,67.911140 
	C133.223495,67.961884 133.722610,68.386139 134.344421,69.026711 
	C133.936661,69.464935 133.406219,69.686852 132.442627,69.944565 
z"/>
<path fill="#A42D74" opacity="1.000000" stroke="none" 
	d="
M142.883240,42.702736 
	C142.116196,42.483353 141.195145,41.988636 140.155090,41.184372 
	C140.933792,41.392353 141.831528,41.909878 142.883240,42.702736 
z"/>
<path fill="#A42D74" opacity="1.000000" stroke="none" 
	d="
M159.963013,60.687675 
	C159.353241,60.221153 158.694016,59.450420 158.009186,58.360554 
	C158.626923,58.822102 159.270233,59.602783 159.963013,60.687675 
z"/>
<path fill="#9F2575" opacity="1.000000" stroke="none" 
	d="
M148.749893,140.166901 
	C148.571045,140.668900 148.120972,141.292374 147.357361,141.958359 
	C147.522095,141.430038 148.000381,140.859192 148.749893,140.166901 
z"/>
<path fill="#A42D74" opacity="1.000000" stroke="none" 
	d="
M142.098740,53.262623 
	C142.530304,53.265713 143.076813,53.531532 143.624268,54.123665 
	C143.154694,54.141769 142.684204,53.833561 142.098740,53.262623 
z"/>
<path fill="#9F2575" opacity="1.000000" stroke="none" 
	d="
M165.325043,129.924545 
	C165.229828,129.530731 165.372040,128.946930 165.768967,128.187714 
	C165.869949,128.586380 165.716217,129.160477 165.325043,129.924545 
z"/>
<path fill="#9F2575" opacity="1.000000" stroke="none" 
	d="
M163.336273,133.932678 
	C163.248138,133.519836 163.411942,132.935547 163.850998,132.198792 
	C163.946915,132.617950 163.767563,133.189575 163.336273,133.932678 
z"/>
<path fill="#9F2575" opacity="1.000000" stroke="none" 
	d="
M164.337570,131.935776 
	C164.250565,131.525742 164.413345,130.939301 164.851044,130.197922 
	C164.946426,130.615128 164.766907,131.187241 164.337570,131.935776 
z"/>
<path fill="#9E1F71" opacity="1.000000" stroke="none" 
	d="
M123.842018,129.849380 
	C124.254700,129.477509 124.667381,129.105621 125.355423,128.640656 
	C125.630783,128.547562 125.824318,128.788452 125.756157,129.143433 
	C125.152428,129.692505 124.616859,129.886597 124.021591,130.022736 
	C123.961884,129.964783 123.842018,129.849380 123.842018,129.849380 
z"/>
<path fill="#9A2873" opacity="1.000000" stroke="none" 
	d="
M144.116516,83.641434 
	C143.782516,83.454224 143.441757,82.956902 143.137650,82.135223 
	C143.486130,82.317688 143.797958,82.824501 144.116516,83.641434 
z"/>
<path fill="#E37892" opacity="1.000000" stroke="none" 
	d="
M28.177422,90.246124 
	C28.610132,90.045715 29.134136,90.147629 29.838776,90.448837 
	C29.435846,90.614906 28.852282,90.581673 28.177422,90.246124 
z"/>
<path fill="#9E2872" opacity="1.000000" stroke="none" 
	d="
M126.196793,73.232712 
	C126.601593,73.240639 127.132782,73.502213 127.694992,74.077393 
	C127.258400,74.089447 126.790794,73.787903 126.196793,73.232712 
z"/>
<path fill="#A42D74" opacity="1.000000" stroke="none" 
	d="
M161.174133,62.627579 
	C160.832413,62.486664 160.440979,62.050903 160.030060,61.301754 
	C160.381836,61.436485 160.753128,61.884613 161.174133,62.627579 
z"/>
<path fill="#9A2873" opacity="1.000000" stroke="none" 
	d="
M138.266449,73.506454 
	C137.908386,73.408943 137.478699,73.026886 137.019287,72.330246 
	C137.391296,72.417747 137.793076,72.819832 138.266449,73.506454 
z"/>
<path fill="#A42D74" opacity="1.000000" stroke="none" 
	d="
M155.043732,69.281250 
	C155.352707,69.433769 155.675201,69.863129 156.023529,70.572357 
	C155.718643,70.420853 155.387955,69.989471 155.043732,69.281250 
z"/>
<path fill="#C85671" opacity="1.000000" stroke="none" 
	d="
M108.343719,171.207321 
	C108.379288,170.985672 108.563622,170.933502 108.906662,170.989197 
	C108.913162,171.242111 108.722191,171.335358 108.343719,171.207321 
z"/>
<path fill="#A42D74" opacity="1.000000" stroke="none" 
	d="
M148.012207,59.285202 
	C148.221527,59.226704 148.497375,59.426281 148.855499,59.873936 
	C148.651428,59.929100 148.365082,59.736187 148.012207,59.285202 
z"/>
<path fill="#9A2873" opacity="1.000000" stroke="none" 
	d="
M139.124207,74.632782 
	C138.889603,74.689842 138.591797,74.476921 138.259583,73.979630 
	C138.503799,73.917778 138.782379,74.140289 139.124207,74.632782 
z"/>
<path fill="#9E2872" opacity="1.000000" stroke="none" 
	d="
M135.009613,84.325089 
	C135.246460,84.323441 135.513565,84.637993 135.805939,85.271652 
	C135.567429,85.274261 135.303665,84.957764 135.009613,84.325089 
z"/>
<path fill="#A42D74" opacity="1.000000" stroke="none" 
	d="
M144.072662,43.649757 
	C143.865280,43.746399 143.558044,43.590820 143.132080,43.198959 
	C143.333176,43.107628 143.652969,43.252583 144.072662,43.649757 
z"/>
<path fill="#BC2462" opacity="1.000000" stroke="none" 
	d="
M94.343132,90.532944 
	C94.275482,90.268883 94.471619,90.165329 94.871765,90.159958 
	C95.039276,90.189018 95.031189,90.310638 95.026062,90.371208 
	C95.020927,90.431778 94.570419,90.624313 94.343132,90.532944 
z"/>
<path fill="#9F2575" opacity="1.000000" stroke="none" 
	d="
M162.907837,107.123047 
	C163.009079,107.039742 162.991989,107.436028 162.971619,107.532974 
	C162.951263,107.629913 162.755920,107.460327 162.755920,107.460327 
	C162.755920,107.460327 162.806610,107.206345 162.907837,107.123047 
z"/>
<path fill="#A42D74" opacity="1.000000" stroke="none" 
	d="
M139.904434,51.332298 
	C140.104019,51.256687 140.421371,51.432056 140.853607,51.861267 
	C140.653076,51.937828 140.337631,51.760551 139.904434,51.332298 
z"/>
<path fill="#9F2575" opacity="1.000000" stroke="none" 
	d="
M151.298279,149.981232 
	C151.247879,149.707901 151.486832,149.456024 151.984711,149.144806 
	C152.024979,149.391205 151.806320,149.696960 151.298279,149.981232 
z"/>
<path fill="#A42D74" opacity="1.000000" stroke="none" 
	d="
M154.307388,53.418243 
	C154.049973,53.497154 153.722473,53.336452 153.433029,52.877846 
	C153.817047,52.663567 154.072464,52.863129 154.307388,53.418243 
z"/>
<path fill="#9F2575" opacity="1.000000" stroke="none" 
	d="
M153.333084,148.115311 
	C153.253510,147.911194 153.427048,147.591995 153.856247,147.159485 
	C153.936661,147.364182 153.761444,147.682205 153.333084,148.115311 
z"/>
<path fill="#A42D74" opacity="1.000000" stroke="none" 
	d="
M143.690842,54.646042 
	C143.941452,54.540619 144.285904,54.670094 144.625854,55.103233 
	C144.342468,55.231579 144.063568,55.056259 143.690842,54.646042 
z"/>
<path fill="#A42D74" opacity="1.000000" stroke="none" 
	d="
M155.243622,54.493988 
	C154.997345,54.572208 154.674484,54.395985 154.342773,53.925583 
	C154.611633,53.834118 154.889343,54.036831 155.243622,54.493988 
z"/>
<path fill="#A42D74" opacity="1.000000" stroke="none" 
	d="
M144.696014,55.631378 
	C144.946716,55.527031 145.291870,55.660065 145.635651,56.097458 
	C145.352997,56.224133 145.071732,56.046448 144.696014,55.631378 
z"/>
<path fill="#A42D74" opacity="1.000000" stroke="none" 
	d="
M156.152863,55.598885 
	C155.923004,55.659554 155.619003,55.458668 155.281921,54.973457 
	C155.525467,54.905197 155.802094,55.121262 156.152863,55.598885 
z"/>
<path fill="#CB436D" opacity="1.000000" stroke="none" 
	d="
M105.717636,136.227280 
	C105.945236,136.285187 105.668076,136.625168 105.668076,136.625168 
	C105.668076,136.625168 105.243820,136.614166 105.154358,136.491638 
	C105.064903,136.369095 105.490028,136.169373 105.717636,136.227280 
z"/>
<path fill="#A42D74" opacity="1.000000" stroke="none" 
	d="
M157.059418,56.686272 
	C156.841965,56.739620 156.554749,56.527111 156.203690,56.045830 
	C156.423111,55.991512 156.706375,56.205963 157.059418,56.686272 
z"/>
<path fill="#9E1F71" opacity="1.000000" stroke="none" 
	d="
M123.992416,131.008392 
	C123.750870,130.987427 123.509315,130.966461 122.905762,130.899994 
	C122.796967,130.581543 123.050148,130.308594 123.572678,129.942520 
	C123.842018,129.849380 123.961884,129.964783 123.995087,130.254059 
	C124.028282,130.543350 123.992416,131.008392 123.992416,131.008392 
z"/>
<path fill="#A81A71" opacity="1.000000" stroke="none" 
	d="
M123.938904,131.352005 
	C123.992416,131.008392 124.028282,130.543350 124.054787,130.312012 
	C124.616859,129.886597 125.152428,129.692505 125.855537,129.261734 
	C126.994545,128.248199 127.966019,127.471313 129.003418,126.382790 
	C130.846695,126.024216 132.624054,125.977295 134.703445,125.965118 
	C135.003662,126.444748 135.001831,126.889618 134.999939,127.668198 
	C134.324295,129.405319 133.648682,130.808716 132.939590,132.559143 
	C131.288788,134.003662 129.671463,135.101181 127.982590,136.535889 
	C125.830086,137.488098 123.749123,138.103104 121.173103,138.628235 
	C119.782242,138.689346 118.886429,138.840347 117.990623,138.991348 
	C119.955544,136.559433 121.920464,134.127533 123.938904,131.352005 
z"/>
<path fill="#EE3649" opacity="1.000000" stroke="none" 
	d="
M44.996338,138.000000 
	C48.965027,137.999451 52.968647,137.699112 56.884102,138.155396 
	C58.321022,138.322845 59.549252,140.281097 60.872681,141.422470 
	C59.524803,142.280945 58.225449,143.771912 56.819981,143.879730 
	C52.545563,144.207657 48.230160,144.001465 43.503822,143.640167 
	C43.716728,141.518066 44.356529,139.759033 44.996338,138.000000 
z"/>
<path fill="#F63B43" opacity="1.000000" stroke="none" 
	d="
M44.529266,137.995117 
	C44.356529,139.759033 43.716728,141.518066 43.035789,143.632202 
	C39.364685,143.993698 35.714569,144.214966 32.116829,143.877640 
	C31.014544,143.774292 30.055857,142.139404 29.031410,141.205872 
	C30.081650,140.131668 31.052317,138.243011 32.196587,138.131210 
	C36.118942,137.747986 40.102173,137.987900 44.529266,137.995117 
z"/>
<path fill="#DC3351" opacity="1.000000" stroke="none" 
	d="
M52.978817,83.486420 
	C54.372192,83.044640 55.775040,83.024567 57.598778,82.994720 
	C60.053493,82.989288 62.087315,82.993622 64.557175,83.006668 
	C66.131073,88.325516 65.641052,88.950356 60.257072,88.997612 
	C58.145195,89.016151 56.033047,89.003700 53.461632,89.003746 
	C52.997593,87.304131 52.992943,85.606125 52.978817,83.486420 
z"/>
<path fill="#D22A58" opacity="1.000000" stroke="none" 
	d="
M86.993378,164.021408 
	C90.688240,164.016296 94.383110,164.011185 98.538635,164.005188 
	C99.440979,164.005585 99.882652,164.006851 100.701508,164.362701 
	C102.716949,166.475327 104.355209,168.233383 105.993469,169.991455 
	C102.612816,170.001984 99.232162,170.012497 95.384789,170.045578 
	C92.241547,170.063202 89.565033,170.058258 86.483994,169.664398 
	C86.384109,167.524109 86.688744,165.772766 86.993378,164.021408 
z"/>
<path fill="#C4315C" opacity="1.000000" stroke="none" 
	d="
M106.400124,169.994843 
	C104.355209,168.233383 102.716949,166.475327 101.032753,164.363937 
	C103.435455,164.007568 105.936836,163.698532 108.314301,164.108353 
	C109.917053,164.384644 111.344894,165.675629 112.850983,166.512695 
	C111.489136,167.668213 110.182312,168.901138 108.731979,169.932205 
	C108.295311,170.242630 107.459656,169.991882 106.400124,169.994843 
z"/>
<path fill="#B92A66" opacity="1.000000" stroke="none" 
	d="
M128.993500,158.993103 
	C129.294464,158.480957 129.601929,157.975632 129.909393,157.470322 
	C130.118103,157.651688 130.326813,157.833054 130.535522,158.014420 
	C130.216263,158.320755 129.896988,158.627090 129.295654,158.973145 
	C129.013596,159.012848 129.000000,158.999939 128.993500,158.993103 
z"/>
<path fill="#CB436D" opacity="1.000000" stroke="none" 
	d="
M88.910118,138.022278 
	C91.654419,138.044647 94.183762,137.537109 93.984673,141.282318 
	C93.797089,144.810730 91.246742,143.799820 89.299934,143.959793 
	C88.155449,144.053818 86.995445,143.939835 85.845139,143.986435 
	C83.669685,144.074539 81.968353,143.851776 81.992111,140.931305 
	C82.016663,137.912949 83.910912,137.973740 85.979851,138.017899 
	C86.802467,138.035446 87.625755,138.021408 88.910118,138.022278 
z"/>
<path fill="#B81E68" opacity="1.000000" stroke="none" 
	d="
M117.568146,138.992188 
	C118.886429,138.840347 119.782242,138.689346 120.843582,138.775574 
	C116.269417,140.642090 111.529716,142.271347 106.399025,143.945602 
	C106.005257,142.278214 106.002480,140.565842 106.001373,138.425049 
	C109.717255,138.328766 113.431458,138.660904 117.568146,138.992188 
z"/>
<path fill="#C42F61" opacity="1.000000" stroke="none" 
	d="
M80.522385,112.993469 
	C81.850838,113.166336 82.742554,113.335747 83.823624,113.257736 
	C84.451302,113.011559 84.889618,113.012794 85.656334,113.023148 
	C85.685257,115.099663 85.385773,117.167053 85.034332,119.623611 
	C80.959969,120.010422 76.937561,120.008057 72.497955,119.634949 
	C72.700714,117.195343 73.320671,115.126488 73.940620,113.057632 
	C75.988960,113.035088 78.037292,113.012543 80.522385,112.993469 
z"/>
<path fill="#F43B43" opacity="1.000000" stroke="none" 
	d="
M35.236145,57.972977 
	C40.023952,57.977356 44.350941,57.804218 48.645195,58.102402 
	C49.807167,58.183083 50.870090,59.690250 51.978477,60.542664 
	C51.014431,61.368904 50.120731,62.795738 49.074272,62.918297 
	C44.328396,63.474129 39.543110,63.785995 34.764347,63.928368 
	C32.483166,63.996330 29.158524,64.908493 29.161585,60.989155 
	C29.164619,57.103371 32.448948,58.186073 35.236145,57.972977 
z"/>
<path fill="#DC3152" opacity="1.000000" stroke="none" 
	d="
M86.529419,164.016327 
	C86.688744,165.772766 86.384109,167.524109 86.034805,169.658844 
	C78.323532,170.341537 70.656921,170.640854 62.534756,170.912689 
	C63.797417,170.589600 65.541359,169.944382 67.228668,170.068573 
	C71.168312,170.358536 73.195068,168.915604 72.998032,164.421295 
	C77.354607,164.012268 81.710037,164.011749 86.529419,164.016327 
z"/>
<path fill="#CD315B" opacity="1.000000" stroke="none" 
	d="
M75.954605,63.602440 
	C75.712303,63.205990 75.714035,62.811592 75.744408,62.419415 
	C75.745262,62.408329 76.051559,62.420895 76.215431,62.422432 
	C76.211166,62.816555 76.206909,63.210678 75.954605,63.602440 
z"/>
<path fill="#D72E56" opacity="1.000000" stroke="none" 
	d="
M73.507240,113.042526 
	C73.320671,115.126488 72.700714,117.195343 72.034073,119.628120 
	C67.835930,119.995903 63.666058,120.218491 59.544113,119.871597 
	C58.292274,119.766243 57.172771,118.088455 55.992661,117.130859 
	C57.075951,116.076538 58.053154,114.272171 59.261395,114.101280 
	C63.824883,113.455811 68.463417,113.340912 73.507240,113.042526 
z"/>
<path fill="#F93C42" opacity="1.000000" stroke="none" 
	d="
M34.086487,36.011097 
	C31.324291,35.986027 28.788414,36.477608 28.986597,32.720234 
	C29.173038,29.185446 31.724766,30.164005 33.690865,30.007689 
	C34.842163,29.916155 36.008038,30.026768 37.164978,29.983286 
	C39.350384,29.901150 41.068951,30.128574 41.040844,33.062626 
	C41.011963,36.077702 39.121166,36.054111 37.031872,36.011177 
	C36.204689,35.994175 35.376823,36.010540 34.086487,36.011097 
z"/>
</svg>