<svg width="720" height="720" viewBox="0 0 720 720" fill="none" xmlns="http://www.w3.org/2000/svg">
<rect width="720" height="720" rx="130" fill="#99CCEE"/>
<path d="M197.089 406.277C204.981 397.437 210.603 386.528 213.043 374.465C219.34 405.618 246.87 429.073 279.88 429.073C312.894 429.073 340.427 405.613 346.72 374.454V429.073H369.32V347.517L414.913 393.109L460.309 347.517V429.073H483.301V374.453C489.595 405.612 517.127 429.073 550.141 429.073C577.267 429.073 597.602 410.354 608.586 387.419L617.32 360.879L600.188 345.092C592.462 322.386 577.267 292.688 550.141 292.688C517.127 292.688 489.595 316.147 483.301 347.307V292.688L414.913 360.879L346.72 292.688V347.307C340.427 316.148 312.894 292.688 279.88 292.688C246.871 292.688 219.341 316.142 213.043 347.295C210.603 335.233 204.983 324.324 197.09 315.484C184.602 301.497 166.435 292.688 146.209 292.688H101V429.073H146.209C166.434 429.073 184.6 420.263 197.089 406.277ZM550.141 315.377C575.27 315.377 595.644 335.749 595.644 360.879C595.644 386.01 575.27 406.383 550.141 406.383C525.01 406.383 504.637 386.01 504.637 360.879C504.637 335.75 525.01 315.377 550.141 315.377ZM279.88 315.377C305.011 315.377 325.384 335.749 325.384 360.879C325.384 386.01 305.011 406.383 279.88 406.383C254.75 406.383 234.377 386.01 234.377 360.879C234.377 335.75 254.749 315.377 279.88 315.377ZM123.599 315.485H149.187C172.927 317.021 191.711 336.751 191.711 360.88C191.711 385.015 172.919 404.75 149.17 406.277H123.599V315.485Z" fill="white"/>
<path d="M602.5 359.537C602.5 388.828 578.754 412.574 549.463 412.574C520.171 412.574 496.426 388.828 496.426 359.537C496.426 330.245 520.171 306.5 549.463 306.5C578.754 306.5 602.5 330.245 602.5 359.537Z" fill="white" stroke="white" stroke-width="33"/>
<circle cx="549" cy="360" r="37" fill="#99CCEE"/>
</svg>
