<svg id="svg" version="1.1" xmlns="http://www.w3.org/2000/svg" xmlns:xlink="http://www.w3.org/1999/xlink" width="400" height="160.01919846412287" viewBox="0, 0, 400,160.01919846412287"><g id="svgg"><path id="path0" d="M264.000 24.028 C 262.029 24.188,261.151 24.511,260.526 25.304 C 259.980 25.998,258.333 29.107,258.333 29.445 C 258.333 29.567,258.254 29.667,258.157 29.667 C 258.060 29.667,258.030 29.746,258.090 29.844 C 258.150 29.941,258.091 30.148,257.958 30.302 C 257.690 30.616,257.433 31.183,257.474 31.375 C 257.488 31.444,257.425 31.500,257.333 31.500 C 257.242 31.500,257.167 31.593,257.167 31.706 C 257.167 31.819,256.935 32.400,256.652 32.997 C 256.166 34.023,256.052 34.253,255.679 34.958 C 254.894 36.441,254.181 38.000,254.287 38.003 C 254.358 38.004,254.342 38.060,254.250 38.128 C 254.158 38.195,253.960 38.512,253.810 38.833 C 253.659 39.154,253.115 40.291,252.601 41.359 C 252.087 42.428,251.667 43.374,251.667 43.462 C 251.667 43.550,251.512 43.819,251.323 44.059 C 251.133 44.300,251.021 44.566,251.074 44.651 C 251.126 44.736,251.110 44.830,251.038 44.861 C 250.907 44.917,250.086 46.547,249.071 48.769 L 248.529 49.955 247.056 50.074 C 244.565 50.277,244.297 50.349,243.671 50.981 C 243.315 51.341,242.500 52.897,242.500 53.217 C 242.500 53.357,242.444 53.497,242.375 53.528 C 242.016 53.687,241.473 55.165,241.586 55.677 L 241.704 56.214 243.622 56.113 C 245.519 56.014,245.537 56.017,245.244 56.340 C 245.081 56.520,245.012 56.667,245.089 56.667 C 245.167 56.667,245.112 56.760,244.967 56.875 C 244.823 56.990,244.578 57.476,244.423 57.956 C 244.268 58.437,244.072 58.872,243.987 58.925 C 243.903 58.977,243.833 59.165,243.833 59.343 C 243.833 59.521,243.766 59.667,243.685 59.667 C 243.603 59.667,243.485 59.873,243.422 60.125 C 243.359 60.377,243.193 60.846,243.053 61.167 C 242.914 61.487,242.739 61.900,242.666 62.083 C 242.593 62.267,242.160 63.204,241.705 64.167 C 241.249 65.129,240.774 66.160,240.648 66.458 C 240.522 66.756,240.362 67.000,240.293 67.000 C 240.223 67.000,240.167 67.103,240.167 67.230 C 240.167 67.356,240.052 67.554,239.913 67.670 C 239.773 67.786,239.691 67.913,239.731 67.953 C 239.807 68.029,238.817 69.950,238.333 70.667 C 238.179 70.896,237.877 71.440,237.663 71.875 C 237.449 72.310,237.213 72.667,237.137 72.667 C 237.062 72.667,237.000 72.764,237.000 72.883 C 237.000 73.002,236.906 73.194,236.792 73.308 C 236.677 73.423,236.577 73.569,236.569 73.633 C 236.527 73.988,236.149 74.667,235.994 74.667 C 235.895 74.667,235.855 74.733,235.905 74.814 C 235.955 74.896,235.885 75.055,235.748 75.168 C 235.612 75.281,235.500 75.477,235.500 75.604 C 235.500 75.730,235.430 75.833,235.344 75.833 C 235.258 75.833,235.093 76.096,234.977 76.417 C 234.861 76.737,234.706 77.000,234.633 77.000 C 234.560 77.000,234.500 77.077,234.500 77.172 C 234.500 77.267,234.162 77.856,233.750 78.483 C 233.338 79.109,233.000 79.706,233.000 79.810 C 233.000 79.915,232.925 80.000,232.833 80.000 C 232.742 80.000,232.667 80.112,232.667 80.250 C 232.667 80.387,232.600 80.500,232.519 80.500 C 232.438 80.500,232.255 80.746,232.112 81.047 C 231.883 81.530,231.676 81.822,230.997 82.625 C 230.900 82.740,230.866 82.833,230.922 82.833 C 230.978 82.833,230.925 82.939,230.804 83.069 C 230.682 83.199,230.397 83.555,230.168 83.861 C 229.362 84.941,226.882 87.302,226.174 87.663 C 223.159 89.201,220.743 86.646,222.159 83.417 C 222.239 83.233,222.615 82.342,222.993 81.436 C 223.372 80.529,224.022 79.029,224.438 78.102 C 224.854 77.175,225.295 76.192,225.418 75.917 C 226.082 74.437,226.333 73.820,226.333 73.668 C 226.333 73.576,226.400 73.500,226.482 73.500 C 226.563 73.500,226.730 73.162,226.851 72.750 C 226.973 72.337,227.139 72.000,227.221 72.000 C 227.302 72.000,227.326 71.887,227.273 71.750 C 227.220 71.612,227.231 71.500,227.297 71.499 C 227.395 71.499,228.050 70.118,228.087 69.833 C 228.093 69.787,228.265 69.379,228.470 68.926 C 228.675 68.473,228.887 67.929,228.940 67.718 C 228.993 67.506,229.089 67.333,229.153 67.333 C 229.217 67.333,229.403 67.015,229.568 66.625 C 230.519 64.365,231.559 62.055,231.705 61.875 C 231.798 61.760,231.829 61.667,231.773 61.667 C 231.718 61.667,231.821 61.402,232.003 61.078 C 232.185 60.755,232.333 60.407,232.333 60.305 C 232.333 60.204,232.624 59.513,232.979 58.769 C 234.120 56.383,234.461 55.599,234.676 54.875 C 234.792 54.485,234.962 54.167,235.054 54.167 C 235.147 54.167,235.176 54.121,235.121 54.065 C 235.065 54.009,235.165 53.692,235.343 53.359 C 236.414 51.360,235.286 50.842,231.000 51.365 C 229.201 51.584,227.500 52.469,227.500 53.185 C 227.500 53.253,227.398 53.412,227.273 53.537 C 227.147 53.662,226.793 54.436,226.485 55.257 C 226.177 56.078,225.860 56.796,225.781 56.852 C 225.703 56.908,225.646 57.002,225.655 57.061 C 225.697 57.319,225.450 58.000,225.315 58.000 C 225.234 58.000,225.167 57.771,225.167 57.490 C 225.167 56.781,224.857 55.548,224.469 54.714 C 224.290 54.328,224.150 53.970,224.158 53.919 C 224.192 53.715,222.908 52.354,222.071 51.707 C 220.960 50.849,217.642 50.317,215.916 50.720 C 213.903 51.190,212.175 51.779,211.153 52.341 C 210.656 52.615,210.044 52.929,209.792 53.039 C 209.540 53.149,209.333 53.289,209.333 53.350 C 209.333 53.410,209.108 53.553,208.833 53.667 C 208.558 53.781,208.333 53.928,208.333 53.993 C 208.333 54.059,208.130 54.206,207.882 54.319 C 207.634 54.432,207.330 54.669,207.206 54.845 C 207.082 55.022,206.912 55.167,206.827 55.167 C 206.742 55.167,206.465 55.350,206.211 55.574 C 205.958 55.798,205.339 56.341,204.836 56.782 C 203.595 57.869,199.131 62.333,199.285 62.333 C 199.352 62.333,199.185 62.542,198.912 62.797 C 198.640 63.052,198.117 63.624,197.750 64.068 C 197.383 64.512,196.984 64.978,196.863 65.104 C 196.742 65.230,196.700 65.333,196.770 65.333 C 196.840 65.333,196.783 65.427,196.644 65.542 C 196.271 65.849,195.333 67.105,195.333 67.298 C 195.333 67.389,195.216 67.509,195.073 67.564 C 194.929 67.619,194.849 67.724,194.894 67.796 C 194.939 67.869,194.756 68.179,194.488 68.487 C 194.219 68.794,194.000 69.148,194.000 69.273 C 194.000 69.398,193.941 69.500,193.869 69.500 C 193.797 69.500,193.599 69.744,193.429 70.042 C 193.259 70.340,192.717 71.189,192.226 71.928 C 191.735 72.668,191.333 73.362,191.333 73.470 C 191.333 73.578,191.263 73.667,191.177 73.667 C 191.092 73.667,190.927 73.929,190.811 74.250 C 190.695 74.571,190.540 74.833,190.467 74.833 C 190.393 74.833,190.333 74.936,190.333 75.062 C 190.333 75.188,189.921 75.897,189.417 76.637 C 188.912 77.378,188.500 78.052,188.500 78.136 C 188.500 78.220,188.345 78.486,188.155 78.728 C 187.965 78.969,187.855 79.167,187.911 79.167 C 187.967 79.167,187.860 79.331,187.673 79.531 C 187.486 79.732,187.333 79.963,187.333 80.045 C 187.333 80.181,186.211 81.974,186.006 82.167 C 185.864 82.299,185.513 82.885,185.347 83.266 C 185.263 83.458,185.093 83.720,184.970 83.849 C 184.846 83.978,184.487 84.515,184.171 85.042 C 183.855 85.569,183.537 86.000,183.465 86.000 C 183.392 86.000,183.333 86.085,183.333 86.188 C 183.333 86.420,181.635 88.667,181.460 88.667 C 181.390 88.667,181.333 88.738,181.333 88.824 C 181.333 89.055,179.120 91.163,178.875 91.165 C 178.760 91.166,178.667 91.233,178.667 91.314 C 178.667 91.395,178.498 91.515,178.292 91.581 C 174.480 92.800,172.589 90.015,174.686 86.273 C 174.781 86.102,174.889 85.810,174.925 85.625 C 174.960 85.439,175.123 85.140,175.286 84.960 C 175.450 84.779,175.565 84.602,175.544 84.567 C 175.506 84.505,175.895 83.598,176.766 81.719 C 176.986 81.243,177.167 80.774,177.167 80.677 C 177.167 80.580,177.242 80.500,177.333 80.500 C 177.425 80.500,177.500 80.430,177.500 80.344 C 177.500 80.258,177.587 79.977,177.694 79.719 C 177.801 79.461,177.900 79.212,177.915 79.167 C 177.988 78.929,178.423 78.072,178.506 78.000 C 178.559 77.954,178.704 77.654,178.829 77.333 C 179.199 76.381,180.179 74.253,181.858 70.754 C 182.165 70.114,182.419 69.551,182.421 69.504 C 182.425 69.422,183.171 67.810,184.080 65.917 C 184.300 65.458,184.700 64.596,184.970 64.000 C 185.240 63.404,185.746 62.317,186.094 61.583 C 186.443 60.850,186.714 60.194,186.697 60.125 C 186.681 60.056,186.742 60.000,186.833 60.000 C 186.925 60.000,187.000 59.895,187.000 59.767 C 187.000 59.497,187.695 57.951,187.960 57.632 C 188.058 57.513,188.147 57.342,188.157 57.250 C 188.168 57.158,188.250 56.809,188.340 56.475 C 188.556 55.673,188.316 55.044,187.739 54.899 C 186.852 54.676,182.881 55.110,182.351 55.487 C 182.084 55.678,181.802 55.833,181.724 55.834 C 181.547 55.834,180.500 57.357,180.500 57.615 C 180.500 57.720,180.443 57.831,180.373 57.861 C 180.236 57.921,176.570 65.219,176.638 65.298 C 176.660 65.324,176.563 65.460,176.423 65.601 C 176.282 65.742,176.167 65.964,176.167 66.095 C 176.167 66.226,176.092 66.333,176.000 66.333 C 175.908 66.333,175.849 66.390,175.868 66.458 C 175.886 66.527,175.758 66.846,175.583 67.167 C 175.407 67.487,175.255 67.787,175.245 67.833 C 175.207 68.000,174.754 68.919,174.670 69.000 C 174.472 69.190,173.990 70.167,174.094 70.167 C 174.156 70.167,174.006 70.429,173.761 70.750 C 173.517 71.071,173.359 71.333,173.410 71.333 C 173.462 71.333,173.327 71.615,173.111 71.958 C 172.894 72.302,172.439 73.108,172.100 73.750 C 171.385 75.103,171.124 75.551,170.981 75.667 C 170.924 75.712,170.711 76.079,170.507 76.482 C 170.303 76.884,169.994 77.366,169.820 77.553 C 169.646 77.739,169.456 78.048,169.397 78.238 C 169.338 78.428,168.849 79.195,168.311 79.943 C 167.773 80.690,167.333 81.349,167.333 81.408 C 167.333 81.550,166.626 82.552,166.417 82.706 C 166.325 82.773,166.312 82.829,166.387 82.831 C 166.462 82.832,166.425 82.938,166.304 83.065 C 166.182 83.192,165.956 83.473,165.801 83.690 C 165.646 83.906,165.346 84.323,165.135 84.616 C 164.923 84.909,164.491 85.509,164.174 85.949 C 163.857 86.390,163.456 86.900,163.284 87.083 C 163.112 87.267,162.866 87.618,162.737 87.865 C 162.608 88.111,162.335 88.430,162.131 88.573 C 161.926 88.716,161.816 88.833,161.886 88.833 C 161.956 88.833,161.236 89.621,160.285 90.583 C 159.334 91.546,158.468 92.333,158.361 92.333 C 158.254 92.333,158.167 92.403,158.167 92.488 C 158.167 92.838,156.299 93.500,155.311 93.500 C 152.680 93.500,151.496 91.376,152.664 88.750 C 152.745 88.567,153.042 87.905,153.323 87.280 C 153.604 86.655,153.833 86.113,153.833 86.075 C 153.833 86.038,154.088 85.462,154.399 84.795 C 154.710 84.129,155.167 83.096,155.414 82.500 C 155.662 81.904,155.932 81.345,156.015 81.258 C 156.099 81.171,156.167 80.965,156.167 80.800 C 156.167 80.635,156.233 80.500,156.315 80.500 C 156.396 80.500,156.563 80.162,156.685 79.750 C 156.806 79.338,156.955 79.000,157.015 79.000 C 157.074 79.000,157.218 78.662,157.333 78.250 C 157.449 77.837,157.609 77.500,157.688 77.500 C 157.768 77.500,157.822 77.444,157.808 77.375 C 157.778 77.233,158.160 76.305,158.750 75.083 C 159.085 74.391,159.450 73.551,159.584 73.167 C 159.600 73.121,159.752 72.783,159.921 72.417 C 160.090 72.050,160.215 71.694,160.198 71.625 C 160.181 71.556,160.234 71.500,160.315 71.500 C 160.458 71.500,160.689 70.853,160.618 70.655 C 160.599 70.602,160.715 70.428,160.875 70.268 C 161.035 70.107,161.167 69.862,161.167 69.722 C 161.167 69.582,161.272 69.269,161.401 69.026 C 161.625 68.603,161.824 68.175,162.987 65.625 C 163.269 65.006,163.500 64.402,163.500 64.283 C 163.500 64.164,163.580 63.986,163.678 63.888 C 163.776 63.790,163.876 63.607,163.901 63.480 C 164.121 62.331,164.336 62.251,167.667 62.077 C 168.721 62.022,169.996 61.856,170.500 61.709 C 171.004 61.562,171.473 61.455,171.542 61.471 C 171.610 61.487,171.667 61.425,171.667 61.333 C 171.667 61.242,171.764 61.167,171.884 61.167 C 172.516 61.167,174.500 58.005,174.500 56.999 C 174.500 55.954,173.795 55.763,171.083 56.069 C 170.625 56.121,169.520 56.208,168.627 56.263 L 167.004 56.362 167.752 54.848 C 168.163 54.015,168.500 53.296,168.500 53.250 C 168.500 53.205,168.731 52.661,169.013 52.042 C 169.296 51.423,169.588 50.767,169.663 50.583 C 169.737 50.400,169.986 49.837,170.215 49.333 C 170.444 48.829,170.744 48.154,170.882 47.833 C 171.021 47.512,171.329 46.823,171.567 46.302 C 171.805 45.781,172.000 45.274,172.000 45.177 C 172.000 45.080,172.075 45.000,172.167 45.000 C 172.258 45.000,172.333 44.854,172.333 44.677 C 172.333 44.499,172.410 44.306,172.503 44.248 C 172.596 44.191,172.634 44.082,172.588 44.007 C 172.542 43.932,172.608 43.785,172.735 43.679 C 172.863 43.573,173.018 43.286,173.079 43.040 C 173.141 42.795,173.368 42.217,173.585 41.755 C 173.801 41.294,174.002 40.804,174.031 40.667 C 174.060 40.529,174.121 40.379,174.167 40.333 C 174.213 40.287,174.370 39.987,174.518 39.667 C 175.226 38.122,175.397 37.744,175.420 37.667 C 175.433 37.621,175.532 37.372,175.639 37.114 C 175.746 36.856,175.833 36.575,175.833 36.489 C 175.833 36.403,175.908 36.333,176.000 36.333 C 176.092 36.333,176.154 36.277,176.139 36.208 C 176.124 36.140,176.263 35.746,176.448 35.333 C 176.633 34.921,176.885 34.302,177.009 33.958 C 177.132 33.615,177.298 33.333,177.377 33.333 C 177.455 33.333,177.477 33.264,177.424 33.178 C 177.371 33.093,177.389 32.985,177.464 32.939 C 177.750 32.762,177.684 31.567,177.373 31.286 C 176.527 30.520,170.904 31.188,170.556 32.095 C 170.506 32.225,170.407 32.296,170.337 32.252 C 170.267 32.209,169.919 32.753,169.564 33.462 C 169.209 34.170,168.843 34.805,168.751 34.872 C 168.659 34.940,168.636 34.996,168.700 34.997 C 168.763 34.999,168.377 35.881,167.840 36.958 C 166.635 39.376,165.584 41.627,165.428 42.125 C 165.364 42.331,165.241 42.500,165.155 42.500 C 165.070 42.500,165.016 42.556,165.035 42.625 C 165.073 42.761,164.997 42.932,163.307 46.479 C 162.680 47.796,162.167 48.940,162.167 49.020 C 162.167 49.101,162.079 49.167,161.972 49.167 C 161.865 49.167,161.823 49.212,161.879 49.268 C 161.935 49.324,161.685 49.924,161.323 50.602 C 160.962 51.280,160.665 51.928,160.663 52.042 C 160.661 52.156,160.513 52.438,160.333 52.667 C 160.154 52.896,160.006 53.246,160.004 53.444 C 160.002 53.643,159.944 53.831,159.875 53.861 C 159.702 53.938,158.667 55.973,158.667 56.236 C 158.667 56.496,158.078 57.198,157.888 57.165 C 157.539 57.106,154.543 57.392,154.213 57.516 C 153.499 57.784,151.552 60.571,151.869 60.872 C 151.894 60.897,151.747 61.153,151.541 61.442 C 150.363 63.097,151.057 63.451,154.757 63.082 L 155.431 63.015 154.750 64.382 C 154.090 65.708,153.197 67.709,153.153 67.960 C 153.142 68.028,152.848 68.646,152.500 69.333 C 151.797 70.724,149.949 74.537,149.915 74.667 C 149.881 74.797,149.026 76.527,148.721 77.083 C 148.570 77.358,148.387 77.696,148.315 77.833 C 147.314 79.735,146.858 80.559,146.314 81.448 C 145.958 82.030,145.667 82.580,145.667 82.670 C 145.667 82.760,145.610 82.834,145.542 82.835 C 145.473 82.836,145.279 83.125,145.111 83.476 C 144.942 83.828,144.624 84.326,144.402 84.584 C 144.181 84.841,144.000 85.153,144.000 85.276 C 144.000 85.399,143.938 85.500,143.861 85.500 C 143.785 85.500,143.617 85.705,143.486 85.956 C 143.257 86.399,142.946 86.829,142.563 87.235 C 142.461 87.344,142.243 87.692,142.079 88.008 C 141.916 88.325,141.457 88.921,141.060 89.333 C 140.662 89.746,140.336 90.173,140.335 90.283 C 140.334 90.393,140.239 90.543,140.124 90.617 C 140.009 90.690,139.696 91.050,139.428 91.417 C 136.797 95.019,133.335 96.307,131.464 94.379 C 130.845 93.741,130.651 92.111,131.092 91.260 C 131.225 91.005,131.333 90.706,131.333 90.598 C 131.333 90.489,131.629 89.798,131.990 89.061 C 132.351 88.324,132.697 87.522,132.758 87.277 C 132.819 87.033,132.943 86.833,133.032 86.833 C 133.121 86.833,133.162 86.740,133.123 86.625 C 133.084 86.510,133.228 86.137,133.443 85.795 C 133.658 85.453,133.833 85.107,133.833 85.027 C 133.833 84.869,134.740 82.863,135.931 80.386 C 136.336 79.544,136.667 78.738,136.667 78.594 C 136.667 78.451,136.734 78.333,136.815 78.333 C 136.897 78.333,137.015 78.127,137.079 77.875 C 137.142 77.623,137.444 76.892,137.751 76.250 C 138.618 74.434,139.167 73.173,139.167 72.995 C 139.167 72.906,139.232 72.833,139.312 72.833 C 139.391 72.833,139.551 72.496,139.667 72.083 C 139.782 71.671,139.942 71.333,140.022 71.333 C 140.101 71.333,140.167 71.215,140.167 71.070 C 140.167 70.925,140.554 70.006,141.027 69.028 C 141.501 68.050,141.888 67.156,141.888 67.042 C 141.889 66.927,141.945 66.833,142.015 66.833 C 142.084 66.833,142.190 66.608,142.250 66.333 C 142.310 66.058,142.429 65.833,142.513 65.833 C 142.598 65.833,142.651 65.777,142.633 65.708 C 142.580 65.515,143.052 64.333,143.182 64.333 C 143.245 64.333,143.348 64.130,143.411 63.880 C 143.473 63.631,143.707 63.043,143.929 62.573 C 144.151 62.102,144.333 61.631,144.333 61.526 C 144.333 61.420,144.392 61.333,144.463 61.333 C 144.660 61.333,145.023 60.337,145.102 59.583 C 145.238 58.268,144.756 58.108,141.403 58.359 C 139.123 58.530,137.478 59.617,137.076 61.218 C 137.014 61.465,136.900 61.667,136.822 61.667 C 136.743 61.667,136.599 61.967,136.500 62.333 C 136.401 62.700,136.251 63.000,136.167 63.000 C 136.082 63.000,135.932 63.300,135.833 63.667 C 135.735 64.033,135.582 64.333,135.494 64.333 C 135.405 64.333,135.333 64.429,135.333 64.547 C 135.333 64.664,134.583 66.252,133.667 68.075 C 132.750 69.898,132.000 71.478,132.000 71.586 C 132.000 71.694,131.852 71.953,131.670 72.163 C 131.489 72.372,131.377 72.602,131.421 72.674 C 131.466 72.746,131.439 72.830,131.362 72.861 C 131.285 72.892,130.913 73.554,130.536 74.333 C 129.881 75.685,129.534 76.318,128.362 78.292 C 128.076 78.773,127.886 79.167,127.941 79.167 C 127.995 79.167,127.860 79.410,127.641 79.708 C 127.422 80.006,127.133 80.475,126.999 80.750 C 126.689 81.384,126.121 82.233,125.958 82.306 C 125.890 82.336,125.833 82.437,125.833 82.530 C 125.833 82.623,125.665 82.935,125.459 83.224 C 125.252 83.513,125.084 83.793,125.084 83.845 C 125.083 83.898,124.951 84.072,124.790 84.234 C 124.629 84.395,124.540 84.596,124.592 84.680 C 124.644 84.764,124.621 84.833,124.541 84.833 C 124.460 84.833,124.226 85.133,124.020 85.500 C 123.814 85.867,123.571 86.167,123.479 86.167 C 123.388 86.167,123.356 86.235,123.408 86.319 C 123.460 86.403,123.445 86.497,123.376 86.527 C 123.194 86.608,122.167 88.146,122.167 88.338 C 122.167 88.427,122.110 88.501,122.042 88.501 C 121.973 88.502,121.730 88.783,121.501 89.126 C 121.273 89.469,121.023 89.796,120.946 89.852 C 120.868 89.908,120.830 89.989,120.861 90.031 C 120.915 90.106,120.172 91.120,119.667 91.660 C 119.529 91.807,119.193 92.225,118.920 92.589 C 117.997 93.818,117.635 94.200,116.358 95.295 C 115.520 96.013,115.414 96.085,114.667 96.438 C 113.458 97.009,112.866 97.153,112.342 97.002 C 112.076 96.926,111.826 96.896,111.786 96.936 C 111.615 97.107,110.661 95.890,110.565 95.377 C 110.431 94.664,110.612 93.030,110.922 92.152 C 111.053 91.782,111.146 91.427,111.130 91.364 C 111.114 91.301,111.257 90.912,111.447 90.500 C 111.637 90.087,111.892 89.469,112.013 89.125 C 112.134 88.781,112.294 88.500,112.367 88.500 C 112.440 88.500,112.500 88.355,112.500 88.179 C 112.500 88.002,112.618 87.739,112.762 87.595 C 112.906 87.451,112.976 87.333,112.917 87.333 C 112.858 87.333,112.928 87.215,113.073 87.070 C 113.218 86.925,113.297 86.743,113.249 86.665 C 113.201 86.587,113.239 86.475,113.334 86.416 C 113.430 86.357,113.731 85.883,114.005 85.363 C 114.279 84.842,114.595 84.267,114.707 84.083 C 115.299 83.120,116.121 81.690,116.336 81.250 C 116.471 80.975,116.788 80.457,117.041 80.100 C 117.293 79.742,117.500 79.311,117.500 79.142 C 117.500 78.972,117.575 78.833,117.667 78.833 C 117.758 78.833,117.833 78.721,117.833 78.583 C 117.833 78.446,117.893 78.333,117.967 78.333 C 118.040 78.333,118.200 78.052,118.323 77.708 C 118.446 77.365,118.601 77.046,118.667 77.000 C 118.734 76.954,119.030 76.429,119.326 75.833 C 119.621 75.237,119.999 74.487,120.165 74.167 C 120.671 73.189,121.710 70.798,121.760 70.500 C 121.768 70.454,121.872 70.192,121.991 69.917 C 122.620 68.469,123.052 67.052,122.926 66.849 C 122.872 66.761,122.904 66.643,122.997 66.585 C 123.393 66.341,123.113 62.804,122.634 61.998 C 122.082 61.068,120.702 59.625,120.490 59.756 C 120.404 59.809,120.333 59.791,120.333 59.715 C 120.333 59.004,114.971 58.390,112.917 58.866 C 112.642 58.930,112.304 59.007,112.167 59.037 C 112.029 59.068,111.822 59.152,111.706 59.225 C 111.589 59.297,111.321 59.388,111.109 59.426 C 110.285 59.576,106.131 61.866,105.083 62.749 C 104.808 62.980,104.413 63.300,104.205 63.460 C 102.771 64.561,101.190 65.983,99.478 67.714 C 97.895 69.314,97.876 69.311,98.677 67.600 C 99.038 66.831,99.333 66.118,99.333 66.017 C 99.333 65.916,99.408 65.833,99.500 65.833 C 99.592 65.833,99.651 65.777,99.632 65.708 C 99.614 65.640,99.742 65.321,99.917 65.000 C 100.093 64.679,100.244 64.379,100.254 64.333 C 100.264 64.287,100.370 63.938,100.491 63.557 C 100.896 62.276,100.182 61.470,98.874 61.732 C 98.623 61.783,97.704 61.872,96.833 61.931 C 95.962 61.990,95.175 62.084,95.083 62.139 C 94.992 62.195,94.815 62.256,94.690 62.275 C 93.965 62.385,91.589 65.700,91.965 66.076 C 92.015 66.126,91.975 66.167,91.877 66.167 C 91.736 66.167,91.447 66.710,91.259 67.333 C 91.245 67.379,90.956 68.000,90.617 68.712 C 90.277 69.424,90.000 70.081,90.000 70.170 C 90.000 70.260,89.941 70.333,89.870 70.333 C 89.767 70.333,89.420 70.998,89.261 71.500 C 89.247 71.546,89.073 71.893,88.875 72.271 C 88.676 72.649,88.561 73.006,88.618 73.063 C 88.675 73.120,88.643 73.167,88.547 73.167 C 88.451 73.167,88.199 73.598,87.988 74.125 C 87.777 74.652,87.524 75.138,87.427 75.206 C 87.330 75.273,87.305 75.329,87.371 75.331 C 87.438 75.332,87.201 75.877,86.845 76.542 C 86.489 77.206,86.185 77.804,86.169 77.870 C 86.077 78.266,85.744 79.000,85.657 79.000 C 85.600 79.000,85.454 79.300,85.333 79.667 C 85.212 80.033,85.050 80.333,84.973 80.333 C 84.896 80.333,84.833 80.444,84.833 80.578 C 84.833 80.713,84.689 81.081,84.512 81.396 C 84.335 81.710,84.235 82.013,84.290 82.067 C 84.344 82.122,84.301 82.167,84.194 82.167 C 84.087 82.167,84.000 82.254,84.000 82.360 C 84.000 82.467,83.431 83.723,82.737 85.152 C 82.042 86.581,81.060 88.612,80.554 89.667 C 80.049 90.721,79.567 91.696,79.483 91.833 C 79.400 91.971,79.282 92.196,79.222 92.333 C 79.161 92.471,78.926 92.996,78.698 93.500 C 78.470 94.004,78.262 94.522,78.236 94.650 C 78.210 94.778,78.121 94.928,78.037 94.983 C 77.954 95.038,77.751 95.442,77.585 95.880 C 77.419 96.319,77.220 96.717,77.142 96.765 C 77.064 96.814,77.000 96.968,77.000 97.109 C 77.000 97.249,76.850 97.555,76.667 97.788 C 76.483 98.021,76.333 98.352,76.333 98.522 C 76.333 98.693,76.258 98.833,76.167 98.833 C 76.075 98.833,76.000 98.901,76.000 98.984 C 76.000 99.138,74.855 101.615,73.608 104.160 C 73.228 104.936,72.917 105.624,72.917 105.688 C 72.917 105.753,72.860 105.862,72.792 105.931 C 72.605 106.117,72.641 107.464,72.836 107.585 C 72.929 107.643,72.966 107.753,72.919 107.830 C 72.807 108.011,73.957 108.199,74.500 108.087 C 74.729 108.041,75.517 107.966,76.250 107.922 C 79.733 107.713,80.973 107.380,81.793 106.431 C 82.189 105.971,82.833 104.850,82.833 104.618 C 82.833 104.543,83.052 104.041,83.318 103.504 C 83.585 102.966,83.760 102.482,83.707 102.430 C 83.654 102.377,83.703 102.333,83.815 102.333 C 83.928 102.333,83.981 102.271,83.934 102.195 C 83.887 102.118,84.067 101.649,84.334 101.153 C 84.601 100.656,84.823 100.125,84.827 99.972 C 84.830 99.819,84.891 99.669,84.962 99.639 C 85.032 99.608,85.301 99.058,85.558 98.417 C 85.816 97.775,86.096 97.138,86.181 97.000 C 86.266 96.862,86.384 96.638,86.442 96.500 C 86.501 96.362,86.688 95.935,86.858 95.551 C 87.028 95.166,87.167 94.740,87.167 94.604 C 87.167 94.468,87.263 94.258,87.380 94.137 C 87.497 94.016,87.697 93.598,87.823 93.208 C 87.950 92.819,88.107 92.500,88.172 92.500 C 88.237 92.500,88.385 92.162,88.500 91.750 C 88.615 91.337,88.767 91.000,88.837 91.000 C 88.907 91.000,89.015 90.794,89.078 90.542 C 89.201 90.049,89.386 89.609,90.286 87.667 C 91.365 85.337,91.912 84.251,92.112 84.041 C 92.222 83.926,92.363 83.669,92.426 83.470 C 92.489 83.271,92.610 83.028,92.695 82.929 C 93.005 82.569,93.978 81.000,93.892 81.000 C 93.844 81.000,94.001 80.756,94.242 80.458 C 94.483 80.160,94.809 79.746,94.965 79.537 C 95.122 79.329,95.344 79.053,95.458 78.924 C 95.573 78.796,95.667 78.637,95.667 78.573 C 95.667 78.508,95.858 78.278,96.092 78.061 C 96.326 77.844,96.479 77.667,96.432 77.667 C 96.385 77.667,96.550 77.436,96.798 77.155 C 97.451 76.415,100.833 73.032,100.833 73.119 C 100.833 73.159,101.056 72.980,101.328 72.721 C 102.009 72.073,102.216 71.908,102.623 71.690 C 102.816 71.587,103.077 71.408,103.202 71.293 C 103.578 70.949,104.025 70.688,105.167 70.150 C 109.179 68.257,110.942 68.921,110.083 72.000 C 110.019 72.229,109.928 72.623,109.881 72.875 C 109.834 73.127,109.725 73.333,109.638 73.333 C 109.551 73.333,109.522 73.401,109.573 73.483 C 109.623 73.565,109.553 73.846,109.417 74.108 C 109.280 74.369,109.168 74.677,109.168 74.792 C 109.167 74.906,109.092 75.000,109.000 75.000 C 108.908 75.000,108.833 75.097,108.833 75.216 C 108.833 75.407,108.064 76.979,107.024 78.914 C 106.827 79.280,106.667 79.673,106.667 79.789 C 106.667 79.905,106.603 80.000,106.525 80.000 C 106.448 80.000,106.259 80.281,106.106 80.625 C 105.795 81.327,105.494 81.855,105.216 82.191 C 105.113 82.315,105.038 82.454,105.051 82.500 C 105.063 82.546,104.690 83.258,104.223 84.083 C 103.755 84.908,103.237 85.883,103.070 86.250 C 102.904 86.617,102.725 86.954,102.673 87.000 C 102.584 87.078,101.869 88.517,101.497 89.366 C 101.404 89.577,101.189 89.975,101.020 90.250 C 100.850 90.525,100.743 90.806,100.782 90.875 C 100.821 90.944,100.774 91.000,100.677 91.000 C 100.579 91.000,100.516 91.056,100.535 91.125 C 100.554 91.194,100.449 91.513,100.301 91.833 C 99.508 93.555,98.645 96.365,98.205 98.667 C 98.064 99.400,98.069 102.590,98.211 103.227 C 98.463 104.354,100.036 106.667,100.550 106.667 C 100.632 106.667,100.905 106.814,101.157 106.993 C 102.183 107.724,106.164 107.836,107.083 107.161 C 107.175 107.094,107.494 106.986,107.792 106.923 C 108.090 106.859,108.333 106.738,108.333 106.653 C 108.333 106.569,108.390 106.508,108.458 106.518 C 108.682 106.550,109.333 106.298,109.333 106.178 C 109.333 106.114,109.593 105.960,109.910 105.836 C 110.227 105.712,110.524 105.510,110.571 105.388 C 110.618 105.266,110.737 105.167,110.835 105.167 C 111.573 105.167,118.144 98.801,119.131 97.130 C 119.547 96.427,119.588 96.539,119.526 98.190 C 119.470 99.674,119.762 101.667,120.034 101.667 C 120.107 101.667,120.167 101.777,120.167 101.912 C 120.167 102.444,121.426 104.333,121.781 104.333 C 121.902 104.333,122.000 104.402,122.000 104.486 C 122.000 104.674,123.386 105.461,123.981 105.612 C 126.021 106.127,130.079 105.510,130.472 104.625 C 130.503 104.556,130.624 104.500,130.741 104.500 C 130.859 104.500,131.209 104.276,131.519 104.003 C 131.829 103.729,132.137 103.504,132.202 103.503 C 132.267 103.501,132.473 103.336,132.660 103.135 C 132.847 102.935,133.000 102.825,133.000 102.892 C 133.000 102.958,133.306 102.710,133.680 102.340 C 134.054 101.970,134.394 101.667,134.436 101.667 C 134.523 101.667,136.632 99.531,137.954 98.105 C 138.432 97.589,138.791 97.167,138.751 97.167 C 138.711 97.167,138.882 96.953,139.131 96.691 C 139.779 96.011,140.493 95.104,140.497 94.958 C 140.499 94.890,140.580 94.833,140.678 94.833 C 140.785 94.833,140.810 94.978,140.740 95.197 C 139.640 98.664,142.068 103.214,145.500 104.116 C 146.404 104.354,149.193 104.176,149.819 103.841 C 150.010 103.739,150.167 103.697,150.167 103.748 C 150.167 103.799,150.370 103.708,150.618 103.546 C 150.866 103.383,151.072 103.276,151.076 103.307 C 151.086 103.384,152.061 102.950,152.167 102.822 C 152.212 102.767,152.625 102.506,153.083 102.244 C 153.542 101.981,154.287 101.462,154.739 101.091 C 155.192 100.720,155.680 100.322,155.823 100.206 C 156.307 99.813,159.746 96.395,160.333 95.722 C 160.654 95.355,161.179 94.734,161.500 94.342 C 161.821 93.951,162.257 93.432,162.469 93.190 L 162.856 92.750 162.721 93.417 C 162.351 95.251,162.781 98.973,163.424 99.506 C 163.558 99.617,163.667 99.795,163.667 99.901 C 163.667 100.352,165.778 102.131,166.500 102.289 C 168.219 102.664,169.024 102.660,170.917 102.262 C 171.964 102.042,174.791 100.556,174.972 100.130 C 175.003 100.059,175.105 100.000,175.199 100.000 C 175.630 100.000,181.333 94.280,181.333 93.848 C 181.333 93.748,181.402 93.667,181.486 93.667 C 181.570 93.667,181.922 93.280,182.270 92.807 C 182.617 92.334,183.109 91.719,183.363 91.441 C 183.617 91.163,183.793 90.905,183.756 90.867 C 183.718 90.829,183.851 90.626,184.052 90.416 C 184.252 90.205,184.642 89.642,184.917 89.163 C 185.192 88.684,185.548 88.172,185.708 88.026 C 185.869 87.879,186.000 87.663,186.000 87.546 C 186.000 87.429,186.056 87.333,186.125 87.334 C 186.194 87.334,186.256 88.065,186.263 88.959 C 186.271 89.852,186.336 90.921,186.408 91.333 C 186.480 91.746,186.558 92.233,186.582 92.417 C 186.627 92.775,186.672 92.932,186.986 93.833 C 187.098 94.154,187.213 94.492,187.241 94.583 C 187.419 95.164,187.761 95.833,187.880 95.833 C 187.957 95.833,187.973 95.908,187.917 96.000 C 187.860 96.092,187.893 96.167,187.990 96.167 C 188.087 96.167,188.167 96.250,188.167 96.351 C 188.167 96.765,189.795 98.530,190.742 99.143 C 191.113 99.384,191.463 99.644,191.519 99.721 C 191.575 99.798,191.687 99.865,191.769 99.869 C 191.937 99.877,192.201 99.951,192.625 100.109 C 192.785 100.168,193.029 100.257,193.167 100.305 C 193.526 100.432,196.131 100.436,196.917 100.311 C 197.548 100.211,197.774 100.149,198.458 99.889 C 198.619 99.829,198.791 99.772,198.842 99.764 C 199.124 99.720,201.199 98.578,201.490 98.307 C 201.679 98.131,201.833 98.034,201.833 98.091 C 201.833 98.257,202.997 97.289,204.109 96.197 C 204.673 95.643,205.186 95.241,205.248 95.303 C 205.310 95.366,205.336 95.331,205.306 95.227 C 205.275 95.123,205.588 94.707,206.000 94.303 C 206.412 93.899,207.142 93.122,207.622 92.576 C 208.101 92.030,208.661 91.396,208.866 91.167 C 209.071 90.938,209.221 90.730,209.199 90.705 C 209.159 90.659,209.372 90.382,209.843 89.867 C 210.417 89.239,211.167 88.191,211.167 88.018 C 211.167 87.916,211.251 87.833,211.354 87.833 C 211.482 87.833,211.499 88.005,211.408 88.375 C 211.246 89.028,211.243 92.184,211.403 93.000 C 211.556 93.777,211.847 94.710,212.001 94.917 C 212.070 95.008,212.182 95.267,212.252 95.492 C 212.321 95.717,212.461 95.996,212.564 96.111 C 213.009 96.614,213.167 96.826,213.167 96.921 C 213.167 97.134,214.373 98.148,214.965 98.432 C 215.753 98.811,217.456 98.881,218.468 98.576 C 218.898 98.447,219.250 98.344,219.250 98.348 C 219.250 98.362,219.930 98.131,220.417 97.951 C 221.351 97.606,224.729 95.282,225.347 94.558 C 225.492 94.389,225.867 94.017,226.180 93.733 C 226.494 93.448,227.162 92.743,227.667 92.166 C 228.171 91.589,228.736 90.948,228.922 90.740 C 229.108 90.533,229.446 90.119,229.672 89.822 C 229.898 89.524,230.177 89.185,230.292 89.069 C 230.406 88.952,230.500 88.786,230.500 88.699 C 230.500 88.612,230.618 88.443,230.761 88.324 C 230.905 88.205,231.170 87.839,231.350 87.512 C 231.561 87.128,231.639 87.059,231.569 87.317 C 230.527 91.182,232.946 95.752,236.678 96.972 C 237.383 97.202,239.236 97.230,239.636 97.017 C 239.790 96.934,240.198 96.822,240.543 96.767 C 240.887 96.713,241.300 96.597,241.459 96.509 C 241.619 96.422,242.256 96.118,242.875 95.833 C 243.494 95.549,244.000 95.254,244.000 95.178 C 244.000 95.103,244.209 94.954,244.464 94.848 C 244.719 94.743,245.150 94.465,245.422 94.231 C 245.694 93.997,246.179 93.605,246.500 93.362 C 248.122 92.128,251.907 87.959,253.396 85.764 L 253.768 85.216 253.726 86.541 C 253.687 87.761,253.872 89.396,254.117 90.000 C 254.172 90.138,254.225 90.325,254.234 90.417 C 254.373 91.857,256.814 94.491,258.558 95.083 C 259.391 95.366,262.265 95.413,262.429 95.146 C 262.479 95.066,262.648 95.000,262.806 95.000 C 264.389 95.000,269.451 91.004,271.921 87.805 C 272.015 87.683,272.353 87.246,272.671 86.833 C 272.990 86.421,273.345 86.022,273.462 85.948 C 273.578 85.874,273.630 85.742,273.577 85.656 C 273.524 85.570,273.544 85.500,273.621 85.500 C 273.698 85.500,273.893 85.278,274.053 85.006 C 274.214 84.734,274.441 84.416,274.558 84.298 C 274.676 84.180,274.844 83.953,274.933 83.793 C 275.045 83.593,275.081 83.980,275.051 85.043 C 274.949 88.606,276.348 91.670,278.607 92.833 C 279.052 93.063,279.470 93.325,279.536 93.417 C 279.976 94.035,284.387 93.482,286.083 92.596 C 286.358 92.453,286.671 92.335,286.778 92.334 C 286.885 92.334,286.997 92.277,287.028 92.208 C 287.058 92.140,287.589 91.821,288.208 91.500 C 288.827 91.179,289.333 90.860,289.333 90.792 C 289.333 90.723,289.446 90.667,289.583 90.667 C 289.721 90.667,289.833 90.592,289.833 90.500 C 289.833 90.408,289.940 90.333,290.069 90.333 C 290.199 90.333,290.331 90.277,290.361 90.208 C 290.392 90.139,290.901 89.725,291.493 89.288 C 293.305 87.953,296.422 85.013,298.333 82.838 C 298.746 82.368,299.308 81.733,299.583 81.427 C 299.858 81.121,300.271 80.628,300.500 80.333 C 300.859 79.870,302.254 78.146,303.129 77.083 C 303.280 76.900,303.731 76.271,304.132 75.686 C 304.906 74.557,304.900 74.566,305.627 73.667 C 305.886 73.346,306.475 72.521,306.935 71.833 C 307.395 71.146,308.032 70.208,308.350 69.750 C 309.205 68.518,310.833 65.852,310.833 65.683 C 310.833 65.602,310.927 65.498,311.042 65.452 C 311.156 65.405,311.437 65.004,311.665 64.559 C 311.893 64.114,312.212 63.605,312.373 63.427 C 312.535 63.249,312.667 62.968,312.667 62.802 C 312.667 62.636,312.742 62.500,312.833 62.500 C 312.925 62.500,313.000 62.405,313.000 62.289 C 313.000 62.174,313.264 61.686,313.588 61.206 C 313.911 60.726,314.138 60.333,314.093 60.333 C 314.047 60.333,314.197 60.058,314.426 59.721 C 314.655 59.383,314.886 58.933,314.939 58.721 C 314.992 58.508,315.097 58.333,315.171 58.333 C 315.246 58.333,315.356 58.108,315.417 57.832 C 315.478 57.556,315.587 57.367,315.660 57.413 C 315.733 57.458,315.834 57.289,315.884 57.037 C 316.070 56.109,316.443 55.911,317.890 55.972 C 319.447 56.038,322.027 55.724,322.203 55.447 C 322.272 55.339,322.329 55.307,322.331 55.377 C 322.332 55.447,322.602 55.392,322.930 55.255 L 323.526 55.006 322.807 55.878 C 322.411 56.358,322.012 56.805,321.919 56.872 C 321.826 56.940,321.811 56.996,321.885 56.997 C 321.959 56.999,321.691 57.431,321.290 57.958 C 320.112 59.506,318.658 61.668,318.479 62.140 C 318.387 62.380,318.255 62.616,318.185 62.663 C 317.924 62.841,315.308 68.200,315.092 69.000 C 315.030 69.229,314.915 69.567,314.838 69.750 C 314.588 70.340,314.124 71.904,314.068 72.347 C 314.038 72.584,313.935 72.983,313.839 73.234 C 312.779 76.023,313.414 81.353,315.164 84.354 C 316.150 86.045,318.273 88.300,319.138 88.574 C 319.337 88.637,319.500 88.759,319.500 88.845 C 319.500 88.930,319.566 89.000,319.646 89.000 C 319.727 89.000,320.083 89.126,320.438 89.279 C 321.158 89.591,321.144 89.587,322.112 89.825 C 323.730 90.223,325.028 90.314,326.324 90.121 C 326.731 90.060,327.406 89.961,327.824 89.901 C 328.241 89.841,328.669 89.723,328.774 89.640 C 328.879 89.556,329.029 89.506,329.107 89.528 C 329.309 89.585,330.537 89.160,330.817 88.937 C 330.946 88.834,331.096 88.755,331.151 88.761 C 331.365 88.786,332.167 88.420,332.167 88.297 C 332.167 88.225,332.271 88.167,332.398 88.167 C 332.681 88.167,333.132 87.929,334.378 87.122 C 334.907 86.780,335.413 86.500,335.503 86.500 C 335.593 86.500,335.667 86.440,335.667 86.367 C 335.667 86.293,336.017 86.012,336.446 85.742 C 336.874 85.471,337.335 85.137,337.471 85.000 C 337.606 84.862,337.890 84.635,338.101 84.493 C 339.061 83.851,342.233 80.783,344.110 78.680 C 344.554 78.184,345.123 77.563,345.375 77.300 C 345.627 77.037,345.834 76.768,345.835 76.703 C 345.837 76.637,346.118 76.269,346.460 75.885 C 346.803 75.501,347.346 74.839,347.667 74.415 C 347.988 73.990,348.388 73.479,348.558 73.279 C 348.727 73.080,349.053 72.598,349.282 72.208 C 349.511 71.819,349.766 71.500,349.849 71.500 C 349.932 71.500,350.000 71.429,350.000 71.342 C 350.000 71.182,350.974 69.655,351.174 69.500 C 351.233 69.454,351.387 69.216,351.516 68.972 C 352.040 67.975,352.906 66.580,353.032 66.528 C 353.106 66.497,353.167 66.328,353.167 66.153 C 353.167 65.977,353.227 65.833,353.301 65.833 C 353.374 65.833,353.730 65.252,354.091 64.542 C 354.452 63.831,354.793 63.212,354.849 63.167 C 354.906 63.121,355.047 62.783,355.164 62.417 C 355.281 62.050,355.430 61.675,355.494 61.583 C 355.559 61.492,355.627 61.098,355.646 60.708 C 355.724 59.095,354.121 60.344,352.659 63.038 C 352.517 63.299,352.349 63.460,352.284 63.395 C 352.220 63.331,352.167 63.374,352.167 63.492 C 352.167 63.610,351.960 63.949,351.708 64.246 C 351.226 64.814,350.996 65.099,350.360 65.917 C 349.650 66.830,348.259 68.407,347.542 69.114 C 347.152 69.497,346.833 69.891,346.833 69.989 C 346.833 70.087,346.756 70.167,346.661 70.167 C 346.566 70.167,346.244 70.410,345.944 70.708 C 345.469 71.181,343.122 73.284,342.550 73.750 C 342.437 73.842,342.230 74.013,342.089 74.132 C 341.948 74.250,341.833 74.303,341.833 74.250 C 341.833 74.197,341.631 74.341,341.384 74.570 C 341.137 74.799,340.724 75.074,340.467 75.180 C 340.210 75.287,340.000 75.431,340.000 75.501 C 340.000 75.571,339.756 75.753,339.458 75.905 C 339.160 76.057,338.692 76.327,338.417 76.504 C 337.410 77.154,334.454 78.500,334.035 78.500 C 333.869 78.500,333.662 78.568,333.575 78.651 C 332.612 79.567,327.056 79.609,325.602 78.710 C 324.994 78.334,324.012 77.377,324.121 77.267 C 324.177 77.212,324.147 77.167,324.055 77.167 C 323.903 77.167,323.506 76.505,323.405 76.083 C 323.062 74.659,322.986 74.034,323.014 72.836 C 323.033 72.056,323.103 71.267,323.172 71.083 C 323.240 70.900,323.386 70.262,323.496 69.667 C 323.606 69.071,323.767 68.497,323.854 68.393 C 323.941 68.288,323.997 68.138,323.979 68.059 C 323.962 67.981,323.994 67.804,324.051 67.667 C 324.188 67.337,324.672 65.962,324.726 65.750 C 324.749 65.658,324.892 65.349,325.044 65.063 C 325.196 64.777,325.273 64.495,325.216 64.438 C 325.158 64.380,325.199 64.333,325.306 64.333 C 325.412 64.333,325.500 64.225,325.500 64.093 C 325.500 63.868,326.692 61.515,327.363 60.417 C 327.531 60.142,327.801 59.654,327.962 59.333 C 328.264 58.734,328.783 57.905,329.081 57.547 C 329.174 57.436,329.345 57.231,329.462 57.092 C 329.578 56.954,329.675 56.782,329.676 56.712 C 329.678 56.641,329.824 56.416,330.001 56.212 C 330.179 56.009,330.524 55.521,330.768 55.129 C 331.012 54.737,331.333 54.295,331.481 54.147 C 331.629 53.999,331.938 53.638,332.167 53.346 C 332.396 53.054,332.883 52.496,333.250 52.106 C 333.617 51.716,334.067 51.214,334.250 50.990 C 334.433 50.766,334.969 50.232,335.441 49.802 C 335.912 49.372,336.256 48.978,336.204 48.927 C 336.153 48.875,336.194 48.833,336.295 48.833 C 336.397 48.833,336.812 48.552,337.218 48.208 C 338.492 47.130,338.682 46.986,339.265 46.655 C 339.578 46.478,340.115 46.174,340.458 45.979 C 344.293 43.802,347.419 45.598,345.934 49.125 C 345.695 49.692,345.500 50.271,345.500 50.412 C 345.500 50.552,345.440 50.667,345.368 50.667 C 345.295 50.667,345.096 51.004,344.926 51.417 C 344.756 51.829,344.553 52.167,344.475 52.167 C 344.397 52.167,344.333 52.273,344.333 52.403 C 344.333 52.533,344.273 52.664,344.199 52.694 C 344.125 52.725,343.833 53.087,343.551 53.500 C 342.067 55.673,338.972 58.164,336.917 58.841 C 335.850 59.193,335.687 59.212,333.583 59.231 C 331.621 59.250,331.583 59.257,331.564 59.632 C 331.491 61.092,335.349 62.348,337.833 61.673 C 338.154 61.586,338.642 61.477,338.917 61.430 C 341.387 61.014,346.137 58.185,348.733 55.584 C 350.857 53.455,351.077 53.178,351.904 51.583 C 352.094 51.217,352.295 50.879,352.350 50.833 C 353.301 50.043,353.558 43.833,352.640 43.833 C 352.563 43.833,352.500 43.714,352.500 43.568 C 352.500 43.305,351.909 42.436,351.796 42.533 C 351.764 42.561,351.478 42.340,351.161 42.042 C 350.843 41.745,350.490 41.501,350.375 41.501 C 350.260 41.500,350.167 41.425,350.167 41.333 C 350.167 41.242,350.110 41.179,350.042 41.194 C 349.973 41.208,349.700 41.131,349.436 41.022 C 348.403 40.597,344.369 40.395,342.917 40.696 C 342.009 40.884,340.267 41.500,339.167 42.023 C 338.571 42.305,337.823 42.660,337.504 42.810 C 337.186 42.960,336.586 43.312,336.171 43.591 C 335.756 43.870,335.204 44.205,334.944 44.335 C 334.684 44.465,334.305 44.724,334.102 44.911 C 333.898 45.097,333.430 45.458,333.060 45.712 C 332.691 45.966,332.229 46.322,332.035 46.503 C 331.840 46.685,331.621 46.835,331.549 46.838 C 331.476 46.841,331.004 47.218,330.500 47.677 C 329.328 48.744,329.292 48.772,328.544 49.207 C 328.199 49.408,327.819 49.667,327.701 49.782 C 327.582 49.898,327.207 50.121,326.867 50.279 C 326.528 50.437,326.204 50.633,326.148 50.714 C 326.092 50.795,326.000 50.859,325.943 50.855 C 325.886 50.851,325.557 50.966,325.211 51.111 C 324.866 51.256,324.508 51.386,324.417 51.400 C 324.325 51.414,324.147 51.490,324.022 51.568 C 323.405 51.953,319.905 52.311,318.795 52.103 L 318.214 51.994 318.461 50.872 C 318.597 50.255,318.748 49.637,318.796 49.500 C 318.844 49.362,318.919 49.137,318.962 49.000 C 319.618 46.908,318.803 42.157,317.609 41.117 C 316.524 40.173,313.782 39.589,313.095 40.156 C 312.997 40.237,312.635 40.356,312.292 40.420 C 311.948 40.485,311.667 40.604,311.667 40.685 C 311.667 40.767,311.606 40.815,311.532 40.792 C 311.363 40.740,310.251 41.598,309.693 42.211 C 307.532 44.587,307.139 49.234,308.844 52.269 C 309.403 53.264,309.243 53.767,306.703 59.000 C 306.192 60.054,305.754 61.023,305.730 61.153 C 305.707 61.283,305.533 61.599,305.344 61.855 C 305.155 62.110,305.000 62.398,305.000 62.493 C 305.000 62.589,304.912 62.667,304.806 62.667 C 304.699 62.667,304.659 62.714,304.717 62.773 C 304.776 62.831,304.691 63.075,304.529 63.315 C 304.367 63.554,304.088 64.068,303.909 64.456 C 303.730 64.845,303.527 65.164,303.458 65.165 C 303.390 65.166,303.333 65.253,303.333 65.359 C 303.333 65.465,303.146 65.798,302.917 66.098 C 302.688 66.399,302.500 66.724,302.500 66.822 C 302.500 66.920,302.434 67.000,302.354 67.000 C 302.273 67.000,302.109 67.244,301.988 67.542 C 301.868 67.840,301.671 68.143,301.551 68.217 C 301.431 68.290,301.333 68.452,301.333 68.578 C 301.333 68.703,301.276 68.831,301.205 68.861 C 301.134 68.892,300.798 69.329,300.458 69.833 C 299.227 71.657,298.655 72.445,297.824 73.458 C 297.730 73.573,297.694 73.667,297.743 73.667 C 297.793 73.667,297.702 73.803,297.542 73.969 C 297.156 74.368,295.981 75.794,295.674 76.235 C 295.280 76.799,291.310 80.713,290.583 81.253 C 290.217 81.525,289.879 81.786,289.833 81.832 C 289.749 81.918,289.261 82.202,288.114 82.834 C 286.790 83.564,285.255 83.409,284.604 82.479 C 284.090 81.746,284.404 79.839,285.450 77.333 C 285.508 77.196,285.565 77.046,285.577 77.000 C 285.589 76.954,285.815 76.467,286.079 75.917 C 286.343 75.367,286.546 74.860,286.530 74.792 C 286.513 74.723,286.587 74.667,286.694 74.667 C 286.801 74.667,286.845 74.623,286.792 74.570 C 286.739 74.516,287.281 73.316,287.996 71.903 C 288.712 70.490,289.263 69.333,289.221 69.333 C 289.179 69.333,289.297 69.119,289.484 68.856 C 289.671 68.594,289.776 68.331,289.717 68.273 C 289.659 68.214,289.703 68.167,289.815 68.167 C 289.928 68.167,289.979 68.100,289.929 68.020 C 289.879 67.939,289.977 67.695,290.146 67.478 C 290.315 67.261,290.510 66.896,290.578 66.667 C 290.646 66.438,290.797 66.098,290.913 65.913 C 291.030 65.727,291.300 65.165,291.515 64.663 C 291.729 64.161,292.148 63.317,292.445 62.788 C 292.743 62.259,292.982 61.787,292.976 61.739 C 292.951 61.528,293.388 60.667,293.520 60.667 C 293.601 60.667,293.667 60.560,293.667 60.430 C 293.667 60.299,294.042 59.438,294.500 58.516 C 294.958 57.594,295.333 56.799,295.333 56.750 C 295.333 56.700,295.534 56.343,295.778 55.955 C 296.023 55.567,296.205 55.250,296.183 55.250 C 296.160 55.250,296.454 54.575,296.836 53.750 C 297.494 52.329,297.619 52.070,297.988 51.375 C 300.280 47.060,300.292 45.808,298.042 46.070 C 297.606 46.120,296.650 46.206,295.917 46.259 C 293.100 46.464,292.610 46.952,290.079 52.083 C 289.266 53.733,288.553 55.121,288.496 55.167 C 288.373 55.266,288.136 55.816,288.067 56.164 C 288.040 56.299,287.939 56.437,287.842 56.469 C 287.746 56.501,287.667 56.638,287.667 56.773 C 287.667 56.907,287.479 57.294,287.250 57.631 C 287.021 57.968,286.833 58.324,286.833 58.423 C 286.833 58.521,286.622 58.935,286.363 59.342 C 286.105 59.750,285.878 60.139,285.859 60.207 C 285.750 60.595,285.558 60.978,285.232 61.459 C 285.030 61.757,284.657 62.450,284.403 63.000 C 284.149 63.550,283.880 64.000,283.804 64.000 C 283.728 64.000,283.667 64.068,283.667 64.152 C 283.667 64.364,282.320 66.728,282.129 66.852 C 282.042 66.908,281.993 66.983,282.020 67.019 C 282.047 67.054,281.757 67.543,281.375 68.105 C 280.994 68.667,280.728 69.173,280.785 69.230 C 280.842 69.287,280.801 69.333,280.694 69.333 C 280.588 69.333,280.500 69.432,280.500 69.552 C 280.500 69.672,280.350 69.931,280.167 70.128 C 279.983 70.325,279.833 70.535,279.833 70.594 C 279.833 70.653,279.622 70.975,279.364 71.309 C 279.105 71.643,278.646 72.329,278.342 72.833 C 278.038 73.337,277.741 73.787,277.681 73.833 C 277.621 73.879,277.292 74.329,276.950 74.833 C 276.607 75.337,276.064 76.125,275.742 76.583 C 275.420 77.042,275.065 77.555,274.953 77.724 C 274.842 77.893,274.576 78.230,274.362 78.474 C 274.149 78.717,273.849 79.104,273.696 79.333 C 273.394 79.783,273.279 79.926,272.057 81.369 C 269.092 84.868,266.163 85.768,264.651 83.645 C 264.250 83.082,264.124 81.049,264.463 80.617 C 264.549 80.507,264.663 80.192,264.716 79.917 C 264.768 79.642,265.016 78.967,265.267 78.417 C 265.518 77.867,265.739 77.342,265.759 77.250 C 265.779 77.158,266.037 76.558,266.333 75.917 C 267.290 73.841,267.650 73.000,267.580 73.000 C 267.542 73.000,267.748 72.569,268.037 72.042 C 268.326 71.515,268.558 71.046,268.552 71.000 C 268.536 70.891,268.714 70.442,269.179 69.417 C 269.386 68.958,269.562 68.537,269.570 68.481 C 269.577 68.425,269.783 67.938,270.027 67.398 C 270.983 65.286,271.333 64.488,271.333 64.424 C 271.333 64.388,271.599 63.771,271.924 63.054 C 272.248 62.337,272.578 61.600,272.657 61.417 C 272.736 61.233,272.958 60.728,273.150 60.293 C 273.343 59.859,273.500 59.464,273.500 59.415 C 273.500 59.340,274.218 57.757,275.086 55.917 C 275.216 55.642,275.343 55.304,275.369 55.167 C 275.395 55.029,275.459 54.879,275.511 54.833 C 275.563 54.788,275.954 53.887,276.379 52.833 C 276.804 51.779,277.305 50.602,277.493 50.216 C 278.444 48.259,277.904 47.746,275.059 47.908 C 271.635 48.102,270.203 49.014,269.419 51.500 C 269.341 51.747,268.909 52.595,268.825 52.667 C 268.771 52.712,268.594 53.087,268.432 53.500 C 268.269 53.913,267.845 54.794,267.488 55.458 C 267.132 56.123,266.870 56.667,266.905 56.667 C 266.941 56.667,266.679 57.229,266.323 57.917 C 265.967 58.604,265.730 59.168,265.796 59.169 C 265.863 59.171,265.835 59.227,265.736 59.294 C 265.535 59.431,264.667 61.213,264.667 61.490 C 264.667 61.587,264.587 61.667,264.490 61.667 C 264.393 61.667,264.352 61.729,264.399 61.805 C 264.447 61.882,264.298 62.219,264.070 62.555 C 263.842 62.892,263.714 63.168,263.786 63.169 C 263.858 63.171,263.841 63.227,263.748 63.294 C 263.550 63.438,262.667 65.231,262.667 65.490 C 262.667 65.587,262.610 65.667,262.542 65.668 C 262.473 65.669,262.337 65.837,262.240 66.043 C 261.683 67.222,259.077 71.741,258.146 73.139 C 257.699 73.811,257.333 74.416,257.333 74.483 C 257.333 74.549,257.195 74.752,257.026 74.934 C 256.856 75.116,256.613 75.457,256.484 75.691 C 256.061 76.463,254.279 79.082,254.138 79.139 C 254.062 79.169,254.000 79.266,254.000 79.354 C 254.000 79.537,252.926 81.029,251.927 82.234 C 251.206 83.104,249.333 85.020,249.333 84.888 C 249.333 84.845,249.216 84.927,249.072 85.071 C 248.041 86.102,246.005 86.693,244.833 86.301 C 242.307 85.457,242.051 83.380,243.969 79.289 C 244.709 77.710,244.894 77.262,244.862 77.125 C 244.846 77.056,244.896 77.000,244.974 77.000 C 245.051 77.000,245.205 76.696,245.316 76.325 C 245.428 75.953,245.708 75.297,245.939 74.866 C 246.345 74.111,247.601 71.222,247.783 70.625 C 247.832 70.465,247.938 70.333,248.019 70.333 C 248.100 70.333,248.167 70.261,248.167 70.172 C 248.167 70.083,248.354 69.600,248.583 69.099 C 248.813 68.598,249.000 68.138,249.000 68.078 C 249.000 67.951,249.323 67.222,250.066 65.670 C 250.351 65.076,250.590 64.551,250.598 64.504 C 250.607 64.456,250.752 64.117,250.922 63.750 C 251.091 63.383,251.241 63.046,251.254 63.000 C 251.267 62.954,251.365 62.706,251.472 62.447 C 251.579 62.189,251.667 61.908,251.667 61.822 C 251.667 61.737,251.742 61.667,251.833 61.667 C 251.925 61.667,252.000 61.553,252.000 61.414 C 252.000 61.276,252.072 61.032,252.159 60.873 C 252.395 60.445,253.439 58.148,253.617 57.667 C 254.371 55.624,254.696 55.167,255.402 55.156 C 255.777 55.150,256.346 55.118,256.667 55.084 C 258.428 54.900,259.809 54.798,260.266 54.818 C 260.550 54.830,261.000 54.727,261.266 54.588 C 261.532 54.449,261.840 54.335,261.950 54.334 C 262.060 54.334,262.227 54.202,262.320 54.042 C 262.413 53.881,262.492 53.820,262.495 53.905 C 262.522 54.747,264.833 50.826,264.833 49.938 C 264.833 48.713,264.747 48.702,259.000 49.148 C 258.129 49.216,257.398 49.261,257.376 49.248 C 257.354 49.235,257.485 48.915,257.668 48.537 C 257.851 48.159,258.000 47.771,258.000 47.675 C 258.000 47.579,258.075 47.500,258.167 47.500 C 258.258 47.500,258.318 47.444,258.300 47.375 C 258.282 47.306,258.432 46.917,258.633 46.510 C 258.835 46.104,259.000 45.644,259.000 45.489 C 259.000 45.334,259.112 45.114,259.250 45.000 C 259.387 44.886,259.500 44.685,259.500 44.555 C 259.500 44.424,259.628 44.077,259.785 43.783 C 259.941 43.490,260.078 43.212,260.088 43.167 C 260.113 43.058,260.451 42.304,260.985 41.167 C 261.221 40.662,261.422 40.212,261.430 40.167 C 261.476 39.904,261.875 38.996,262.966 36.667 C 263.658 35.190,265.639 30.737,265.969 29.917 C 266.117 29.550,266.315 29.195,266.410 29.128 C 266.506 29.060,266.518 29.004,266.439 29.003 C 266.360 29.001,266.416 28.815,266.564 28.589 C 266.712 28.363,266.833 28.070,266.833 27.936 C 266.833 27.803,266.890 27.669,266.958 27.639 C 267.208 27.528,267.877 25.621,267.894 24.971 C 267.924 23.838,267.528 23.742,264.000 24.028 M281.167 29.308 C 279.538 29.936,277.364 31.540,277.327 32.141 C 277.323 32.201,277.101 32.506,276.833 32.819 C 276.566 33.132,276.386 33.450,276.433 33.527 C 276.481 33.604,276.440 33.667,276.343 33.667 C 276.246 33.667,276.167 33.800,276.167 33.963 C 276.167 34.126,276.036 34.445,275.876 34.671 C 275.440 35.291,275.463 37.718,275.913 38.462 C 276.565 39.540,279.832 40.144,281.016 39.405 C 281.145 39.325,281.336 39.246,281.441 39.230 C 282.497 39.070,285.667 36.055,285.667 35.212 C 285.667 35.132,285.756 34.977,285.865 34.868 C 285.974 34.759,286.080 34.576,286.100 34.460 C 286.120 34.345,286.247 33.987,286.384 33.667 C 287.110 31.956,286.428 29.687,285.043 29.208 C 284.243 28.931,281.993 28.990,281.167 29.308 M105.104 29.952 C 105.084 29.972,104.584 30.029,103.992 30.079 C 102.365 30.219,99.566 30.892,98.391 31.427 C 98.103 31.559,97.811 31.667,97.744 31.667 C 97.677 31.667,97.351 31.835,97.020 32.041 C 96.688 32.246,96.363 32.415,96.297 32.416 C 96.231 32.416,96.024 32.548,95.837 32.708 C 95.649 32.869,95.428 33.000,95.345 33.000 C 95.112 33.000,94.169 33.567,94.168 33.708 C 94.167 33.777,94.054 33.833,93.917 33.833 C 93.779 33.833,93.667 33.903,93.667 33.989 C 93.667 34.074,93.498 34.197,93.292 34.261 C 93.085 34.326,92.879 34.428,92.833 34.490 C 92.787 34.551,92.450 34.818,92.083 35.083 C 91.717 35.348,91.210 35.751,90.958 35.980 C 90.706 36.209,90.500 36.330,90.500 36.249 C 90.500 36.169,90.406 36.227,90.292 36.379 C 90.106 36.624,89.407 36.662,83.917 36.724 C 80.525 36.763,77.525 36.837,77.250 36.889 C 76.975 36.941,75.962 37.097,75.000 37.237 C 73.183 37.500,70.888 37.904,70.167 38.087 C 69.938 38.145,69.600 38.216,69.417 38.244 C 68.617 38.366,65.788 39.183,65.568 39.355 C 65.468 39.433,65.344 39.455,65.292 39.404 C 65.241 39.352,64.892 39.467,64.516 39.658 C 64.141 39.850,63.833 39.959,63.833 39.900 C 63.833 39.841,63.709 39.895,63.558 40.021 C 63.406 40.147,63.237 40.241,63.183 40.230 C 62.966 40.185,61.675 40.738,59.598 41.765 C 58.781 42.169,58.000 42.500,57.862 42.500 C 57.724 42.500,57.662 42.551,57.725 42.614 C 57.825 42.714,57.222 43.047,56.750 43.153 C 56.658 43.174,56.471 43.282,56.333 43.394 C 56.196 43.506,55.878 43.700,55.628 43.826 C 55.377 43.951,55.024 44.191,54.843 44.360 C 54.662 44.529,54.436 44.667,54.340 44.667 C 54.245 44.667,54.167 44.754,54.167 44.861 C 54.167 44.968,54.119 45.008,54.060 44.949 C 53.962 44.851,53.298 45.308,52.653 45.918 C 52.507 46.055,52.301 46.167,52.194 46.167 C 52.087 46.167,52.000 46.225,52.000 46.297 C 52.000 46.369,51.759 46.570,51.465 46.744 C 51.171 46.918,50.723 47.272,50.471 47.530 C 50.218 47.789,49.952 48.000,49.879 48.000 C 49.806 48.000,49.653 48.150,49.539 48.333 C 49.424 48.517,49.250 48.667,49.151 48.667 C 48.827 48.667,46.100 51.297,44.500 53.154 C 43.996 53.739,43.508 54.302,43.417 54.405 C 42.878 55.009,42.167 56.006,42.167 56.157 C 42.167 56.254,42.089 56.333,41.995 56.333 C 41.900 56.333,41.768 56.465,41.702 56.625 C 41.636 56.785,41.228 57.458,40.795 58.121 C 40.362 58.783,39.806 59.720,39.559 60.204 C 39.313 60.688,38.999 61.215,38.863 61.375 C 38.727 61.535,38.668 61.667,38.734 61.667 C 38.799 61.667,38.735 61.833,38.593 62.037 C 38.450 62.241,38.333 62.535,38.333 62.690 C 38.333 62.845,38.268 62.997,38.188 63.028 C 38.032 63.087,37.149 65.108,37.125 65.458 C 37.117 65.573,37.049 65.667,36.972 65.667 C 36.896 65.667,36.833 65.798,36.832 65.958 C 36.832 66.119,36.609 66.887,36.338 67.667 C 36.067 68.446,35.842 69.248,35.839 69.448 C 35.836 69.649,35.763 69.857,35.677 69.910 C 35.591 69.963,35.521 70.136,35.521 70.295 C 35.521 70.454,35.369 71.292,35.182 72.158 C 34.996 73.024,34.797 74.224,34.740 74.824 C 34.683 75.425,34.583 76.217,34.518 76.583 C 34.379 77.362,34.414 83.735,34.564 84.833 C 34.620 85.246,34.704 85.887,34.750 86.259 C 34.817 86.803,35.124 88.486,35.552 90.667 C 35.745 91.650,36.637 94.304,36.882 94.625 C 36.969 94.740,36.990 94.833,36.927 94.833 C 36.865 94.833,37.002 95.190,37.233 95.625 C 37.463 96.060,37.858 96.867,38.110 97.417 C 39.391 100.206,41.620 103.000,42.565 103.000 C 43.376 103.000,44.187 101.592,43.542 101.306 C 43.473 101.275,43.158 100.875,42.842 100.417 C 42.526 99.958,42.188 99.528,42.092 99.461 C 41.983 99.385,41.979 99.337,42.083 99.333 C 42.193 99.330,42.192 99.286,42.081 99.206 C 41.898 99.073,41.392 98.074,40.836 96.750 C 40.644 96.292,40.377 95.718,40.243 95.474 C 40.109 95.231,40.000 94.917,40.000 94.777 C 40.000 94.636,39.913 94.311,39.808 94.053 C 39.702 93.794,39.593 93.508,39.566 93.417 C 39.439 92.990,38.967 91.047,38.918 90.750 C 38.888 90.567,38.785 90.004,38.689 89.500 C 38.357 87.752,38.298 86.901,38.286 83.667 C 38.275 80.610,38.498 77.717,38.832 76.583 C 38.913 76.308,39.015 75.821,39.059 75.500 C 39.240 74.182,40.409 70.505,41.126 69.000 C 41.278 68.679,41.388 68.360,41.368 68.292 C 41.349 68.223,41.408 68.167,41.500 68.167 C 41.592 68.167,41.655 68.110,41.640 68.042 C 41.625 67.973,41.705 67.692,41.818 67.417 C 41.931 67.142,42.025 66.879,42.026 66.833 C 42.027 66.787,42.089 66.675,42.163 66.583 C 42.304 66.409,43.205 64.780,43.639 63.917 C 43.777 63.642,43.989 63.357,44.111 63.283 C 44.233 63.210,44.333 63.041,44.333 62.908 C 44.333 62.775,44.403 62.667,44.489 62.667 C 44.574 62.667,44.693 62.514,44.752 62.328 C 44.811 62.142,45.041 61.793,45.263 61.554 C 45.485 61.314,45.667 61.016,45.667 60.892 C 45.667 60.768,45.740 60.667,45.829 60.667 C 45.918 60.667,46.103 60.450,46.240 60.186 C 46.377 59.921,46.848 59.312,47.286 58.833 C 47.725 58.353,48.153 57.838,48.238 57.689 C 48.492 57.240,51.986 53.802,53.417 52.593 C 54.150 51.973,55.157 51.117,55.654 50.691 C 56.151 50.265,56.601 49.919,56.654 49.921 C 56.707 49.923,56.862 49.832,57.000 49.718 C 57.438 49.356,58.393 48.685,59.149 48.210 C 59.551 47.957,60.243 47.506,60.686 47.208 C 61.129 46.910,61.538 46.667,61.595 46.667 C 61.652 46.667,61.935 46.498,62.224 46.292 C 62.513 46.086,62.788 45.915,62.833 45.912 C 62.879 45.909,63.742 45.497,64.750 44.997 C 65.758 44.496,66.621 44.079,66.667 44.071 C 66.712 44.062,66.961 43.968,67.219 43.861 C 67.477 43.754,67.728 43.667,67.777 43.667 C 67.863 43.667,68.347 43.467,69.417 42.991 C 69.692 42.869,70.029 42.754,70.167 42.736 C 70.304 42.718,70.642 42.614,70.917 42.504 C 71.192 42.394,71.529 42.274,71.667 42.237 C 71.804 42.201,72.329 42.050,72.833 41.902 C 73.607 41.675,75.135 41.312,77.000 40.912 C 78.221 40.651,81.690 40.222,83.667 40.087 C 84.446 40.035,85.349 39.965,85.674 39.933 C 86.262 39.875,86.256 39.883,84.507 41.656 C 83.541 42.636,82.375 43.878,81.917 44.418 C 81.458 44.957,80.876 45.627,80.622 45.907 C 79.688 46.938,79.555 47.096,79.074 47.750 C 78.804 48.117,78.377 48.642,78.126 48.917 C 77.874 49.192,77.668 49.468,77.667 49.530 C 77.667 49.592,77.568 49.742,77.447 49.863 C 77.326 49.984,76.937 50.496,76.583 51.000 C 76.229 51.504,75.842 52.014,75.723 52.134 C 75.604 52.253,75.225 52.778,74.881 53.301 C 74.538 53.823,74.199 54.275,74.128 54.306 C 74.058 54.336,74.000 54.462,74.000 54.585 C 74.000 54.709,73.897 54.912,73.772 55.038 C 73.646 55.164,73.419 55.506,73.267 55.800 C 73.116 56.093,72.927 56.333,72.848 56.333 C 72.770 56.333,72.661 56.465,72.608 56.625 C 72.554 56.785,72.414 57.062,72.297 57.240 C 71.598 58.300,70.829 59.566,70.218 60.663 C 68.724 63.343,68.000 64.710,68.000 64.852 C 68.000 64.933,67.931 65.000,67.847 65.000 C 67.762 65.000,67.644 65.225,67.583 65.500 C 67.523 65.775,67.404 66.000,67.320 66.000 C 67.236 66.000,67.167 66.114,67.167 66.253 C 67.167 66.393,66.991 66.786,66.777 67.128 C 66.562 67.470,66.336 67.956,66.273 68.208 C 66.211 68.460,66.087 68.667,65.997 68.667 C 65.907 68.667,65.833 68.798,65.833 68.958 C 65.832 69.119,65.697 69.475,65.532 69.750 C 65.368 70.025,65.129 70.512,65.002 70.833 C 64.874 71.154,64.601 71.690,64.395 72.023 C 64.188 72.357,64.065 72.676,64.121 72.732 C 64.176 72.788,64.135 72.833,64.028 72.833 C 63.921 72.833,63.848 72.890,63.867 72.958 C 63.902 73.090,63.400 74.210,62.316 76.417 C 61.955 77.150,61.671 77.787,61.684 77.833 C 61.697 77.879,61.474 78.348,61.189 78.875 C 60.904 79.402,60.702 79.833,60.740 79.833 C 60.778 79.833,60.591 80.265,60.324 80.792 C 60.056 81.319,59.837 81.844,59.835 81.958 C 59.834 82.073,59.758 82.167,59.667 82.167 C 59.575 82.167,59.512 82.223,59.527 82.292 C 59.542 82.360,59.467 82.628,59.360 82.886 C 59.254 83.144,59.167 83.425,59.167 83.511 C 59.167 83.597,59.095 83.667,59.008 83.667 C 58.920 83.667,58.799 83.929,58.739 84.250 C 58.679 84.571,58.569 84.833,58.494 84.833 C 58.420 84.833,58.269 85.115,58.158 85.458 C 58.047 85.802,57.892 86.165,57.813 86.265 C 57.734 86.365,57.719 86.497,57.779 86.557 C 57.840 86.617,57.801 86.667,57.694 86.667 C 57.587 86.667,57.500 86.782,57.500 86.923 C 57.500 87.063,57.381 87.359,57.237 87.581 C 57.092 87.802,56.957 88.080,56.936 88.200 C 56.896 88.437,56.628 89.042,55.646 91.109 C 55.291 91.856,55.000 92.536,55.000 92.619 C 55.000 92.703,54.812 93.160,54.583 93.635 C 54.354 94.110,54.167 94.531,54.167 94.572 C 54.167 94.612,54.079 94.856,53.972 95.114 C 53.865 95.372,53.768 95.621,53.756 95.667 C 53.744 95.712,53.518 96.200,53.253 96.750 C 52.989 97.300,52.767 97.787,52.760 97.833 C 52.754 97.879,52.551 98.329,52.309 98.833 C 52.067 99.337,51.740 100.050,51.581 100.417 C 51.423 100.783,51.124 101.458,50.917 101.917 C 50.018 103.904,49.722 104.593,49.709 104.731 C 49.701 104.813,49.630 104.925,49.551 104.981 C 49.420 105.074,48.758 106.452,48.744 106.661 C 48.741 106.710,48.631 106.938,48.500 107.167 C 48.369 107.396,48.256 107.621,48.248 107.667 C 48.215 107.864,46.837 110.545,46.657 110.762 C 46.548 110.893,46.511 111.000,46.575 111.000 C 46.639 111.000,46.535 111.198,46.345 111.439 C 46.155 111.681,46.000 111.981,46.000 112.106 C 46.000 112.231,45.921 112.333,45.823 112.333 C 45.726 112.333,45.693 112.408,45.750 112.500 C 45.807 112.592,45.782 112.667,45.696 112.667 C 45.555 112.667,45.407 113.003,45.374 113.398 C 45.367 113.479,45.295 113.592,45.214 113.648 C 45.133 113.704,44.816 114.200,44.511 114.750 C 44.205 115.300,43.909 115.787,43.852 115.833 C 43.796 115.879,43.637 116.142,43.500 116.417 C 43.363 116.692,43.207 116.954,43.155 117.000 C 43.102 117.046,42.803 117.515,42.490 118.042 C 42.178 118.569,41.865 119.000,41.794 119.000 C 41.724 119.000,41.667 119.106,41.667 119.236 C 41.667 119.366,41.516 119.647,41.332 119.861 C 41.148 120.075,40.735 120.550,40.415 120.917 C 40.095 121.283,39.834 121.629,39.833 121.684 C 39.833 121.739,39.665 121.973,39.458 122.204 C 39.252 122.434,38.636 123.130,38.090 123.749 C 37.543 124.368,36.543 125.410,35.867 126.063 C 35.191 126.716,34.457 127.437,34.236 127.665 C 34.014 127.893,33.833 128.013,33.833 127.931 C 33.833 127.849,33.646 127.999,33.417 128.266 C 33.188 128.532,33.000 128.694,33.000 128.625 C 33.000 128.556,32.855 128.631,32.679 128.792 C 32.176 129.248,31.992 129.381,30.792 130.154 C 30.173 130.553,29.667 130.949,29.667 131.033 C 29.667 131.117,29.592 131.140,29.500 131.083 C 29.408 131.027,29.333 131.041,29.333 131.116 C 29.333 131.191,29.090 131.358,28.792 131.488 C 28.494 131.617,28.212 131.767,28.167 131.820 C 28.121 131.873,27.036 132.442,25.757 133.083 C 23.442 134.244,22.665 135.004,23.357 135.431 C 23.438 135.482,23.468 135.584,23.422 135.659 C 23.102 136.177,24.506 136.185,26.417 135.678 C 26.783 135.580,27.346 135.456,27.667 135.401 C 27.988 135.346,28.344 135.225,28.458 135.130 C 28.573 135.036,28.667 135.015,28.667 135.083 C 28.667 135.152,28.760 135.135,28.875 135.046 C 28.990 134.958,29.456 134.784,29.911 134.661 C 30.366 134.537,31.174 134.226,31.705 133.968 C 32.237 133.711,32.722 133.500,32.782 133.500 C 33.008 133.500,35.936 131.954,36.458 131.559 C 36.756 131.334,37.000 131.194,37.000 131.249 C 37.000 131.335,38.180 130.510,38.785 130.002 C 38.895 129.909,39.035 129.833,39.094 129.833 C 39.229 129.833,40.712 128.675,41.592 127.883 C 41.816 127.680,42.000 127.540,42.000 127.571 C 42.000 127.602,42.289 127.355,42.642 127.022 C 42.994 126.689,43.632 126.106,44.058 125.726 C 44.485 125.346,44.833 124.952,44.833 124.851 C 44.833 124.749,44.937 124.667,45.064 124.667 C 45.191 124.667,45.428 124.464,45.590 124.216 C 45.753 123.968,46.230 123.414,46.651 122.985 C 47.072 122.557,47.604 121.967,47.833 121.674 C 48.485 120.843,49.222 119.961,49.542 119.633 C 49.702 119.468,49.833 119.293,49.833 119.243 C 49.833 119.193,50.021 118.950,50.250 118.703 C 50.479 118.456,50.667 118.193,50.667 118.119 C 50.667 118.045,50.835 117.804,51.042 117.584 C 51.680 116.901,51.852 116.667,51.715 116.664 C 51.643 116.663,51.662 116.606,51.758 116.539 C 51.854 116.472,52.115 116.154,52.337 115.833 C 52.559 115.513,52.801 115.175,52.873 115.083 C 53.157 114.726,53.836 113.693,54.609 112.442 C 55.053 111.722,55.546 110.934,55.703 110.692 C 55.861 110.449,56.116 110.025,56.270 109.750 C 56.424 109.475,56.717 109.025,56.921 108.750 C 57.126 108.475,57.564 107.733,57.896 107.101 C 58.227 106.470,58.566 105.870,58.650 105.768 C 58.733 105.666,59.099 105.021,59.463 104.333 C 59.828 103.646,60.393 102.615,60.721 102.042 C 61.048 101.469,61.277 101.000,61.230 101.000 C 61.183 101.000,61.289 100.794,61.467 100.542 C 61.645 100.290,61.987 99.671,62.228 99.167 C 62.469 98.662,62.729 98.138,62.807 98.000 C 63.270 97.181,64.188 95.343,64.598 94.417 C 64.760 94.050,65.034 93.544,65.208 93.292 C 65.381 93.040,65.481 92.833,65.429 92.833 C 65.378 92.833,65.598 92.340,65.918 91.736 C 66.238 91.133,66.500 90.533,66.500 90.403 C 66.500 90.273,66.575 90.167,66.667 90.167 C 66.758 90.167,66.819 90.110,66.802 90.042 C 66.785 89.973,66.895 89.634,67.045 89.289 C 67.196 88.943,67.333 88.606,67.350 88.539 C 67.368 88.472,67.558 88.137,67.774 87.795 C 67.990 87.453,68.167 87.088,68.167 86.984 C 68.167 86.880,68.312 86.523,68.489 86.189 C 68.805 85.595,69.883 83.330,69.928 83.167 C 70.040 82.755,70.513 81.676,71.095 80.500 C 71.481 79.721,72.193 78.221,72.677 77.167 C 73.161 76.112,73.609 75.212,73.672 75.167 C 73.736 75.121,73.845 74.896,73.914 74.667 C 73.983 74.438,74.138 74.137,74.258 74.000 C 74.378 73.862,74.491 73.675,74.509 73.583 C 74.567 73.293,74.722 72.920,74.821 72.833 C 74.948 72.723,75.546 71.472,75.596 71.214 C 75.618 71.103,75.777 70.803,75.950 70.548 C 76.123 70.292,76.446 69.708,76.667 69.250 C 76.888 68.792,77.203 68.218,77.368 67.974 C 77.532 67.731,77.667 67.418,77.667 67.278 C 77.667 67.138,77.763 66.925,77.880 66.804 C 77.997 66.682,78.504 65.758,79.005 64.750 C 79.506 63.742,79.958 62.879,80.009 62.833 C 80.176 62.682,80.830 61.333,80.736 61.333 C 80.685 61.333,80.784 61.127,80.955 60.875 C 81.126 60.623,81.357 60.229,81.469 60.000 C 81.580 59.771,81.888 59.186,82.153 58.700 C 82.418 58.215,82.642 57.783,82.650 57.742 C 82.704 57.469,83.426 56.073,83.537 56.027 C 83.612 55.995,83.809 55.695,83.975 55.360 C 84.520 54.260,85.539 52.426,85.856 51.974 C 86.027 51.731,86.167 51.450,86.167 51.349 C 86.167 51.249,86.242 51.167,86.333 51.167 C 86.425 51.167,86.500 51.017,86.500 50.833 C 86.500 50.650,86.575 50.500,86.667 50.500 C 86.758 50.500,86.833 50.387,86.833 50.250 C 86.833 50.112,86.908 50.000,87.000 50.000 C 87.092 50.000,87.167 49.926,87.167 49.837 C 87.167 49.747,87.439 49.240,87.772 48.712 C 89.146 46.528,89.332 46.241,89.496 46.049 C 89.590 45.938,89.667 45.811,89.667 45.766 C 89.667 45.721,89.855 45.481,90.085 45.232 C 90.315 44.984,90.474 44.752,90.438 44.716 C 90.402 44.680,90.514 44.485,90.686 44.284 C 91.620 43.190,91.833 42.898,91.833 42.714 C 91.833 42.603,91.990 42.428,92.181 42.326 C 92.372 42.223,92.488 42.100,92.439 42.051 C 92.390 42.002,92.609 41.718,92.925 41.419 C 93.241 41.121,93.500 40.834,93.500 40.781 C 93.500 40.727,93.685 40.484,93.911 40.241 L 94.321 39.798 98.202 39.932 C 103.688 40.121,106.029 40.036,107.417 39.595 C 107.508 39.566,107.829 39.486,108.128 39.416 C 108.428 39.347,108.715 39.224,108.765 39.142 C 108.815 39.061,108.926 39.038,109.012 39.090 C 109.097 39.143,109.167 39.094,109.167 38.982 C 109.167 38.870,109.215 38.826,109.273 38.884 C 109.370 38.982,110.042 38.671,110.646 38.250 C 111.312 37.785,112.501 36.471,112.595 36.094 C 112.654 35.859,112.754 35.667,112.816 35.667 C 112.960 35.667,113.050 35.102,113.041 34.250 C 113.031 33.307,112.950 32.833,112.798 32.833 C 112.726 32.833,112.667 32.731,112.667 32.607 C 112.667 31.872,110.581 30.508,108.917 30.154 C 108.092 29.979,105.229 29.827,105.104 29.952 M108.167 32.746 C 110.324 33.239,111.044 33.955,110.556 35.123 C 110.186 36.009,108.350 37.333,107.491 37.333 C 107.313 37.333,107.167 37.391,107.167 37.462 C 107.167 37.705,103.429 37.787,101.250 37.591 C 99.164 37.404,98.804 37.374,97.958 37.321 C 97.523 37.294,97.167 37.254,97.167 37.232 C 97.167 37.055,97.396 36.667,97.500 36.667 C 97.572 36.667,97.867 36.447,98.154 36.178 C 98.442 35.910,98.900 35.592,99.172 35.471 C 99.444 35.351,99.667 35.206,99.667 35.150 C 99.667 35.003,103.020 33.360,103.507 33.268 C 103.641 33.243,104.050 33.139,104.417 33.036 C 104.783 32.933,105.454 32.806,105.907 32.754 C 106.360 32.701,106.772 32.617,106.823 32.566 C 106.903 32.486,107.209 32.527,108.167 32.746 M191.583 36.371 C 191.033 36.561,190.546 36.770,190.500 36.836 C 190.454 36.901,190.261 37.004,190.070 37.063 C 189.650 37.194,187.880 38.973,187.383 39.765 C 186.107 41.797,185.549 45.500,186.519 45.500 C 186.600 45.500,186.667 45.604,186.667 45.731 C 186.667 45.960,187.502 46.436,188.215 46.613 C 189.339 46.894,192.147 46.458,192.519 45.945 C 192.575 45.868,192.657 45.830,192.701 45.861 C 192.746 45.892,193.184 45.635,193.675 45.292 C 194.166 44.948,194.509 44.667,194.438 44.667 C 194.366 44.667,194.520 44.450,194.779 44.185 C 196.841 42.076,197.729 39.088,196.822 37.311 C 196.632 36.939,196.436 36.675,196.387 36.724 C 196.338 36.773,196.151 36.676,195.971 36.508 C 195.312 35.895,193.158 35.828,191.583 36.371 M148.466 39.665 C 148.034 39.804,147.588 40.010,147.474 40.125 C 147.360 40.240,147.142 40.333,146.990 40.333 C 146.191 40.333,142.906 44.512,143.136 45.235 C 143.163 45.318,143.094 45.442,142.985 45.509 C 142.646 45.719,142.694 48.179,143.047 48.718 C 143.953 50.101,147.709 50.589,148.908 49.480 C 148.995 49.399,149.202 49.333,149.367 49.333 C 149.532 49.333,149.667 49.263,149.667 49.178 C 149.667 49.092,149.813 48.976,149.992 48.919 C 150.370 48.799,151.608 47.630,152.086 46.940 C 152.268 46.678,152.513 46.362,152.631 46.237 C 152.749 46.113,152.845 45.973,152.844 45.924 C 152.841 45.729,153.069 45.244,153.207 45.150 C 153.289 45.095,153.375 44.945,153.400 44.817 C 153.424 44.688,153.529 44.283,153.633 43.917 C 154.612 40.471,152.185 38.474,148.466 39.665 M218.833 57.479 C 219.405 57.839,220.034 58.571,220.146 59.007 C 220.438 60.149,220.491 60.594,220.484 61.833 C 220.475 63.349,220.352 64.278,219.930 66.000 C 219.585 67.411,219.591 67.389,219.469 67.585 C 219.411 67.677,219.311 68.033,219.247 68.376 C 219.182 68.719,219.058 69.000,218.972 69.000 C 218.885 69.000,218.852 69.062,218.899 69.138 C 218.946 69.214,218.806 69.626,218.590 70.054 C 218.373 70.483,218.229 70.833,218.270 70.833 C 218.311 70.833,218.160 71.164,217.934 71.568 C 217.709 71.971,217.558 72.336,217.599 72.377 C 217.641 72.419,217.560 72.547,217.421 72.663 C 217.281 72.779,217.167 73.015,217.167 73.187 C 217.167 73.359,217.101 73.500,217.020 73.500 C 216.940 73.500,216.774 73.744,216.652 74.042 C 216.530 74.340,216.334 74.682,216.215 74.804 C 216.097 74.925,216.000 75.131,216.000 75.262 C 216.000 75.393,215.921 75.500,215.823 75.500 C 215.726 75.500,215.689 75.569,215.741 75.652 C 215.793 75.736,215.779 75.830,215.709 75.861 C 215.529 75.941,214.667 77.293,214.667 77.496 C 214.667 77.590,214.597 77.667,214.511 77.667 C 214.426 77.667,214.311 77.808,214.256 77.980 C 214.202 78.153,214.028 78.446,213.870 78.631 C 213.712 78.817,213.471 79.137,213.333 79.342 C 213.196 79.547,212.933 79.892,212.750 80.109 C 212.567 80.326,212.267 80.698,212.083 80.936 C 211.900 81.175,211.556 81.605,211.318 81.893 C 211.081 82.181,210.744 82.593,210.568 82.807 C 209.892 83.637,207.014 86.454,206.072 87.209 C 205.528 87.644,205.004 88.065,204.906 88.144 C 204.809 88.223,204.546 88.385,204.323 88.502 C 204.099 88.620,203.879 88.762,203.833 88.817 C 202.792 90.067,199.756 90.339,198.494 89.295 C 197.552 88.515,196.799 84.667,197.398 83.697 C 197.452 83.610,197.539 83.249,197.592 82.894 C 197.645 82.540,197.846 81.800,198.039 81.250 C 198.232 80.700,198.404 80.137,198.422 80.000 C 198.464 79.667,198.628 79.225,199.013 78.398 C 199.189 78.022,199.333 77.590,199.333 77.440 C 199.333 77.290,199.408 77.167,199.500 77.167 C 199.592 77.167,199.667 77.085,199.667 76.985 C 199.667 76.885,200.032 76.042,200.479 75.110 C 200.926 74.179,201.318 73.342,201.350 73.250 C 201.382 73.158,201.522 72.950,201.662 72.786 C 201.802 72.623,201.919 72.435,201.923 72.370 C 201.932 72.180,202.364 71.446,202.611 71.198 C 202.735 71.074,202.794 70.904,202.742 70.820 C 202.690 70.736,202.717 70.667,202.803 70.667 C 202.889 70.667,203.049 70.450,203.159 70.184 C 203.269 69.919,203.485 69.563,203.639 69.393 C 203.888 69.118,204.202 68.672,204.748 67.820 C 206.653 64.845,210.511 60.625,212.583 59.248 C 213.133 58.882,213.608 58.527,213.639 58.458 C 213.669 58.390,213.794 58.333,213.917 58.333 C 214.039 58.333,214.165 58.254,214.197 58.158 C 214.230 58.061,214.367 57.960,214.503 57.933 C 214.639 57.906,214.975 57.788,215.250 57.670 C 215.525 57.552,215.927 57.432,216.143 57.404 C 216.360 57.375,216.570 57.319,216.611 57.278 C 216.797 57.092,218.457 57.242,218.833 57.479 M356.444 96.942 C 356.429 96.957,354.917 97.014,353.083 97.070 C 349.265 97.186,346.697 97.299,344.667 97.438 C 343.887 97.492,342.800 97.558,342.250 97.586 C 341.371 97.630,339.180 97.788,335.250 98.091 C 334.196 98.172,333.609 98.236,332.333 98.408 C 332.104 98.439,331.167 98.521,330.250 98.592 C 329.333 98.662,328.433 98.745,328.250 98.777 C 328.067 98.809,327.504 98.866,327.000 98.906 C 326.496 98.945,325.933 99.011,325.750 99.052 C 325.567 99.094,324.817 99.179,324.083 99.241 C 323.350 99.303,322.525 99.393,322.250 99.441 C 321.975 99.489,321.450 99.549,321.083 99.576 C 320.518 99.618,318.030 99.920,316.917 100.083 C 316.733 100.109,315.833 100.219,314.917 100.326 C 314.000 100.433,313.025 100.559,312.750 100.606 C 312.475 100.653,311.950 100.718,311.583 100.752 C 311.217 100.785,310.654 100.853,310.333 100.902 C 309.416 101.043,306.793 101.381,306.333 101.418 C 306.104 101.436,305.354 101.544,304.667 101.657 C 303.979 101.770,302.967 101.895,302.417 101.935 C 301.867 101.974,301.304 102.050,301.167 102.103 C 300.895 102.207,300.807 102.221,298.583 102.511 C 296.794 102.744,296.723 102.754,295.310 102.986 C 294.701 103.086,293.853 103.203,293.426 103.246 C 292.999 103.289,292.594 103.359,292.527 103.400 C 292.459 103.442,291.919 103.523,291.327 103.580 C 290.735 103.637,290.114 103.724,289.947 103.773 C 289.781 103.823,289.406 103.885,289.114 103.913 C 288.822 103.941,288.058 104.054,287.417 104.165 C 286.775 104.276,285.912 104.397,285.500 104.434 C 285.087 104.471,284.563 104.551,284.333 104.610 C 283.707 104.773,283.506 104.806,282.417 104.925 C 281.867 104.985,281.378 105.058,281.330 105.087 C 281.282 105.116,280.907 105.187,280.496 105.245 C 280.086 105.303,279.300 105.420,278.750 105.505 C 278.200 105.590,277.450 105.704,277.083 105.759 C 276.717 105.814,276.267 105.885,276.083 105.917 C 275.900 105.949,275.450 106.023,275.083 106.081 C 274.717 106.139,273.967 106.261,273.417 106.351 C 270.766 106.788,269.218 107.039,268.888 107.084 C 268.689 107.112,268.314 107.178,268.055 107.231 C 267.493 107.346,266.577 107.504,266.000 107.586 C 265.771 107.619,264.908 107.764,264.083 107.910 C 263.258 108.055,262.208 108.219,261.750 108.273 C 261.292 108.328,260.859 108.406,260.789 108.448 C 260.639 108.536,260.329 108.595,258.750 108.834 C 257.244 109.062,257.236 109.064,254.000 109.666 C 252.487 109.947,251.063 110.199,250.833 110.227 C 250.604 110.254,250.117 110.333,249.750 110.402 C 249.383 110.471,248.296 110.669,247.333 110.841 C 246.371 111.013,245.358 111.196,245.083 111.247 C 244.808 111.299,244.208 111.380,243.750 111.428 C 243.292 111.477,242.808 111.553,242.676 111.599 C 242.543 111.644,241.380 111.869,240.092 112.097 C 238.804 112.326,237.600 112.541,237.417 112.575 C 237.233 112.609,236.071 112.801,234.833 113.003 C 232.312 113.414,232.494 113.384,230.333 113.751 C 229.463 113.899,228.563 114.049,228.333 114.084 C 227.827 114.161,224.548 114.674,224.083 114.750 C 223.900 114.779,223.338 114.883,222.833 114.981 C 222.329 115.079,221.654 115.193,221.333 115.236 C 220.695 115.320,217.997 115.735,216.417 115.992 C 215.867 116.082,215.004 116.203,214.500 116.263 C 213.996 116.323,213.433 116.406,213.250 116.448 C 213.067 116.491,212.654 116.552,212.333 116.585 C 212.012 116.618,210.963 116.768,210.000 116.919 C 209.037 117.070,207.953 117.225,207.589 117.263 C 207.226 117.302,206.813 117.367,206.672 117.408 C 206.532 117.449,205.892 117.533,205.250 117.595 C 204.608 117.657,203.933 117.763,203.750 117.831 C 203.567 117.899,203.267 117.931,203.083 117.902 C 202.900 117.874,202.450 117.917,202.083 117.998 C 201.717 118.079,200.967 118.193,200.417 118.252 C 199.867 118.311,199.229 118.387,199.000 118.422 C 197.690 118.622,194.967 118.989,194.250 119.063 C 193.792 119.110,192.779 119.229,192.000 119.327 C 191.221 119.424,190.208 119.546,189.750 119.596 C 189.292 119.647,188.729 119.715,188.500 119.747 C 187.223 119.929,186.668 119.999,185.917 120.074 C 185.458 120.120,184.633 120.206,184.083 120.265 C 183.533 120.325,182.858 120.395,182.583 120.422 C 182.308 120.449,181.333 120.555,180.417 120.658 C 179.500 120.760,178.338 120.883,177.833 120.931 C 176.584 121.050,175.857 121.130,175.167 121.224 C 174.846 121.268,173.946 121.355,173.167 121.417 C 171.662 121.537,171.215 121.587,170.417 121.723 C 170.142 121.770,169.129 121.857,168.167 121.916 C 167.204 121.975,165.944 122.095,165.366 122.183 C 164.789 122.271,164.263 122.309,164.197 122.269 C 164.132 122.228,163.742 122.255,163.331 122.329 C 162.624 122.455,161.749 122.539,158.833 122.759 C 155.031 123.046,151.512 123.332,150.417 123.444 C 149.867 123.500,149.004 123.564,148.500 123.587 C 147.303 123.641,142.032 123.985,140.750 124.093 C 140.200 124.139,138.925 124.214,137.917 124.259 C 136.908 124.304,135.783 124.367,135.417 124.399 C 130.138 124.855,106.103 124.853,101.417 124.396 C 101.050 124.360,100.075 124.290,99.250 124.239 C 96.593 124.076,96.116 124.038,94.167 123.835 C 93.112 123.725,91.987 123.612,91.667 123.583 C 89.766 123.410,86.786 123.052,86.167 122.922 C 85.938 122.874,85.112 122.756,84.333 122.661 C 83.554 122.566,82.804 122.457,82.667 122.420 C 82.529 122.383,82.135 122.311,81.792 122.260 C 80.423 122.056,79.885 121.963,79.167 121.808 C 78.754 121.719,78.042 121.581,77.583 121.500 C 77.125 121.420,76.505 121.279,76.205 121.188 C 75.906 121.096,75.606 121.007,75.539 120.990 C 75.472 120.972,75.342 120.934,75.250 120.906 C 75.021 120.836,73.493 120.493,73.083 120.420 C 72.900 120.388,72.750 120.345,72.750 120.326 C 72.750 120.307,72.600 120.271,72.417 120.247 C 72.022 120.194,69.396 119.383,68.917 119.165 C 68.733 119.082,68.268 118.934,67.882 118.836 C 67.496 118.738,67.136 118.585,67.081 118.495 C 67.025 118.406,66.867 118.333,66.729 118.333 C 66.592 118.333,66.069 118.146,65.568 117.917 C 64.172 117.278,63.333 117.490,63.333 118.479 C 63.333 118.847,64.060 119.667,64.386 119.667 C 64.480 119.667,64.675 119.764,64.820 119.883 C 64.965 120.002,65.683 120.349,66.417 120.655 C 67.150 120.962,68.125 121.381,68.583 121.588 C 69.042 121.794,70.054 122.165,70.833 122.413 C 71.612 122.660,72.400 122.928,72.583 123.008 C 72.893 123.144,74.486 123.588,75.250 123.751 C 75.836 123.876,77.075 124.196,77.333 124.289 C 77.471 124.339,77.696 124.396,77.833 124.415 C 77.971 124.435,78.421 124.545,78.833 124.660 C 79.728 124.909,80.137 125.008,80.583 125.082 C 80.767 125.112,81.235 125.211,81.625 125.301 C 82.015 125.391,82.333 125.432,82.333 125.393 C 82.333 125.354,82.465 125.392,82.625 125.477 C 82.785 125.563,83.217 125.680,83.583 125.738 C 83.950 125.795,84.737 125.919,85.333 126.012 C 85.929 126.105,86.679 126.250,87.000 126.333 C 87.321 126.417,88.032 126.533,88.581 126.591 C 89.130 126.648,89.642 126.735,89.720 126.783 C 89.798 126.831,90.136 126.892,90.472 126.918 C 90.808 126.945,91.308 127.009,91.583 127.061 C 91.858 127.113,92.683 127.231,93.417 127.322 C 94.150 127.413,95.313 127.560,96.000 127.648 C 97.168 127.799,98.373 127.922,100.167 128.076 C 100.579 128.112,101.179 128.178,101.500 128.224 C 101.821 128.270,102.796 128.354,103.667 128.412 C 104.537 128.469,105.438 128.550,105.667 128.592 C 105.896 128.634,106.893 128.703,107.882 128.745 C 108.871 128.788,110.146 128.865,110.715 128.918 C 118.201 129.606,142.470 129.606,152.833 128.918 C 153.612 128.866,155.000 128.790,155.917 128.750 C 156.833 128.710,157.958 128.638,158.417 128.592 C 158.875 128.545,159.850 128.469,160.583 128.422 C 163.732 128.222,165.104 128.124,165.417 128.079 C 166.111 127.978,167.464 127.842,168.750 127.744 C 170.323 127.624,171.040 127.554,171.833 127.444 C 172.154 127.399,172.958 127.314,173.620 127.255 C 176.383 127.008,176.773 126.973,177.250 126.927 C 178.311 126.826,182.608 126.321,183.083 126.242 C 183.358 126.196,183.921 126.121,184.333 126.074 C 184.746 126.027,185.271 125.958,185.500 125.920 C 185.729 125.882,186.404 125.803,187.000 125.745 C 187.596 125.686,188.271 125.612,188.500 125.580 C 188.729 125.548,189.817 125.394,190.917 125.238 C 192.017 125.082,193.142 124.931,193.417 124.903 C 193.897 124.853,194.364 124.789,196.000 124.551 C 196.412 124.491,196.862 124.430,197.000 124.417 C 197.137 124.403,197.625 124.337,198.083 124.271 C 198.542 124.204,199.404 124.080,200.000 123.996 C 200.596 123.911,201.346 123.800,201.667 123.749 C 201.987 123.699,203.037 123.542,204.000 123.401 C 204.963 123.261,205.938 123.117,206.167 123.083 C 209.272 122.621,210.290 122.478,210.500 122.475 C 210.637 122.473,210.862 122.430,211.000 122.378 C 211.275 122.274,211.431 122.242,212.417 122.091 C 212.783 122.035,213.308 121.954,213.583 121.911 C 213.858 121.868,214.308 121.800,214.583 121.759 C 214.858 121.719,215.308 121.646,215.583 121.598 C 215.858 121.550,216.608 121.434,217.250 121.339 C 218.434 121.165,220.076 120.889,220.833 120.736 C 221.063 120.690,221.438 120.623,221.667 120.588 C 223.006 120.380,224.304 120.156,224.667 120.071 C 224.896 120.017,225.405 119.944,225.798 119.909 C 226.192 119.874,226.572 119.809,226.643 119.764 C 226.715 119.720,227.143 119.640,227.595 119.586 C 228.047 119.532,228.604 119.442,228.833 119.386 C 229.063 119.331,229.362 119.268,229.500 119.247 C 229.637 119.225,230.237 119.118,230.833 119.009 C 231.429 118.899,232.142 118.784,232.417 118.754 C 232.692 118.724,233.517 118.574,234.250 118.421 C 234.983 118.268,235.771 118.112,236.000 118.074 C 236.229 118.035,236.792 117.926,237.250 117.830 C 237.708 117.734,238.421 117.617,238.833 117.569 C 239.246 117.521,239.808 117.414,240.083 117.331 C 240.587 117.179,243.585 116.586,244.667 116.425 C 245.442 116.309,245.940 116.217,247.917 115.827 C 248.833 115.646,250.146 115.387,250.833 115.252 C 251.521 115.117,252.308 114.961,252.583 114.906 C 252.858 114.850,253.421 114.742,253.833 114.666 C 254.755 114.494,255.123 114.423,257.333 113.989 C 258.296 113.799,259.271 113.616,259.500 113.582 C 259.729 113.548,260.479 113.398,261.167 113.249 C 261.854 113.101,262.604 112.961,262.833 112.940 C 263.063 112.918,263.700 112.796,264.250 112.669 C 264.800 112.542,265.305 112.452,265.372 112.468 C 265.440 112.485,266.143 112.347,266.936 112.162 C 267.729 111.977,268.574 111.817,268.814 111.807 C 269.054 111.796,269.475 111.725,269.750 111.648 C 270.025 111.572,271.150 111.349,272.250 111.153 C 273.350 110.957,274.400 110.764,274.583 110.724 C 274.767 110.683,275.142 110.617,275.417 110.576 C 275.692 110.535,276.104 110.463,276.333 110.415 C 276.820 110.314,279.571 109.833,280.140 109.750 C 280.354 109.718,280.879 109.614,281.307 109.517 C 282.175 109.321,284.648 108.859,285.417 108.751 C 285.692 108.712,286.207 108.638,286.561 108.588 C 286.916 108.537,287.253 108.467,287.311 108.431 C 287.426 108.361,288.359 108.201,289.417 108.070 C 290.219 107.971,290.504 107.914,290.833 107.787 C 290.971 107.734,291.496 107.641,292.000 107.579 C 292.504 107.518,293.029 107.443,293.167 107.414 C 293.304 107.384,293.717 107.312,294.083 107.254 C 294.450 107.195,294.862 107.117,295.000 107.080 C 295.137 107.043,295.625 106.969,296.083 106.915 C 296.542 106.862,297.142 106.770,297.417 106.712 C 297.692 106.654,298.067 106.584,298.250 106.556 C 298.905 106.458,300.715 106.164,301.063 106.100 C 301.673 105.986,302.738 105.791,303.027 105.740 C 303.179 105.714,303.666 105.642,304.110 105.581 C 304.554 105.520,305.104 105.432,305.333 105.386 C 305.917 105.267,307.607 105.013,308.500 104.910 C 308.912 104.863,309.594 104.747,310.014 104.652 C 310.434 104.557,311.034 104.451,311.347 104.415 C 312.351 104.301,314.371 104.010,316.000 103.745 C 316.871 103.604,317.846 103.461,318.167 103.429 C 318.487 103.396,319.350 103.280,320.083 103.170 C 320.817 103.060,321.604 102.947,321.833 102.919 C 322.063 102.890,322.250 102.854,322.250 102.838 C 322.250 102.822,322.550 102.776,322.917 102.734 C 323.283 102.692,324.446 102.543,325.500 102.402 C 328.225 102.037,329.638 101.852,330.500 101.748 C 330.912 101.699,331.512 101.624,331.833 101.582 C 333.463 101.370,335.188 101.163,336.083 101.072 C 336.633 101.016,337.308 100.940,337.583 100.904 C 339.379 100.664,342.291 100.356,343.667 100.259 C 344.079 100.231,344.754 100.162,345.167 100.108 C 345.579 100.053,346.404 99.970,347.000 99.923 C 347.596 99.876,348.646 99.791,349.333 99.735 C 353.836 99.365,356.915 99.248,362.000 99.253 C 365.092 99.256,369.260 99.435,369.485 99.574 C 369.543 99.610,369.926 99.688,370.337 99.748 C 371.480 99.914,372.445 100.157,373.219 100.474 C 373.477 100.580,373.790 100.667,373.915 100.667 C 374.175 100.667,375.167 101.610,375.167 101.857 C 375.167 101.948,375.093 102.160,375.002 102.329 C 374.725 102.848,375.304 103.403,375.969 103.257 C 376.263 103.192,376.464 103.076,376.415 102.998 C 376.367 102.920,376.404 102.809,376.497 102.752 C 376.778 102.578,376.695 101.115,376.379 100.662 C 375.834 99.880,375.278 99.333,375.027 99.333 C 374.889 99.333,374.649 99.219,374.494 99.078 C 374.339 98.938,374.071 98.794,373.898 98.760 C 373.725 98.725,373.358 98.608,373.083 98.500 C 372.517 98.278,372.387 98.246,370.692 97.909 C 370.018 97.775,369.418 97.637,369.359 97.601 C 369.299 97.566,368.537 97.482,367.667 97.415 C 366.796 97.348,365.858 97.274,365.583 97.249 C 364.332 97.138,356.516 96.876,356.444 96.942 " stroke="none" fill="#2cc4ec" fill-rule="evenodd"></path><path id="path1" d="M106.125 29.951 C 106.331 29.991,106.669 29.991,106.875 29.951 C 107.081 29.911,106.912 29.879,106.500 29.879 C 106.087 29.879,105.919 29.911,106.125 29.951 M150.292 39.451 C 150.498 39.491,150.835 39.491,151.042 39.451 C 151.248 39.411,151.079 39.379,150.667 39.379 C 150.254 39.379,150.085 39.411,150.292 39.451 M145.875 50.115 C 146.035 50.157,146.298 50.157,146.458 50.115 C 146.619 50.073,146.487 50.039,146.167 50.039 C 145.846 50.039,145.715 50.073,145.875 50.115 M34.383 80.500 C 34.383 81.004,34.415 81.210,34.453 80.958 C 34.491 80.706,34.491 80.294,34.453 80.042 C 34.415 79.790,34.383 79.996,34.383 80.500 M140.552 97.083 C 140.553 97.633,140.584 97.838,140.621 97.539 C 140.658 97.239,140.657 96.789,140.619 96.539 C 140.581 96.288,140.551 96.533,140.552 97.083 M357.208 96.955 C 357.552 96.991,358.115 96.991,358.458 96.955 C 358.802 96.919,358.521 96.889,357.833 96.889 C 357.146 96.889,356.865 96.919,357.208 96.955 M164.417 101.000 C 164.775 101.367,165.105 101.667,165.151 101.667 C 165.197 101.667,164.941 101.367,164.583 101.000 C 164.225 100.633,163.895 100.333,163.849 100.333 C 163.803 100.333,164.059 100.633,164.417 101.000 M146.875 104.282 C 147.035 104.323,147.298 104.323,147.458 104.282 C 147.619 104.240,147.487 104.205,147.167 104.205 C 146.846 104.205,146.715 104.240,146.875 104.282 M72.523 107.021 C 72.510 107.263,72.631 107.562,72.792 107.688 C 73.045 107.887,73.058 107.884,72.891 107.667 C 72.785 107.529,72.664 107.229,72.622 107.000 L 72.545 106.583 72.523 107.021 M109.708 124.782 C 109.869 124.823,110.131 124.823,110.292 124.782 C 110.452 124.740,110.321 124.705,110.000 124.705 C 109.679 124.705,109.548 124.740,109.708 124.782 M110.960 124.785 C 111.168 124.824,111.468 124.823,111.627 124.781 C 111.786 124.739,111.617 124.707,111.250 124.709 C 110.883 124.711,110.753 124.745,110.960 124.785 M124.208 124.782 C 124.369 124.823,124.631 124.823,124.792 124.782 C 124.952 124.740,124.821 124.705,124.500 124.705 C 124.179 124.705,124.048 124.740,124.208 124.782 M121.127 129.451 C 121.334 129.491,121.634 129.490,121.794 129.448 C 121.953 129.406,121.783 129.374,121.417 129.375 C 121.050 129.377,120.920 129.411,121.127 129.451 M140.042 129.448 C 140.202 129.490,140.465 129.490,140.625 129.448 C 140.785 129.406,140.654 129.372,140.333 129.372 C 140.012 129.372,139.881 129.406,140.042 129.448 " stroke="none" fill="#30c4ec" fill-rule="evenodd"></path><path id="path2" d="M106.125 29.951 C 106.331 29.991,106.669 29.991,106.875 29.951 C 107.081 29.911,106.912 29.879,106.500 29.879 C 106.087 29.879,105.919 29.911,106.125 29.951 M150.292 39.451 C 150.498 39.491,150.835 39.491,151.042 39.451 C 151.248 39.411,151.079 39.379,150.667 39.379 C 150.254 39.379,150.085 39.411,150.292 39.451 M145.875 50.115 C 146.035 50.157,146.298 50.157,146.458 50.115 C 146.619 50.073,146.487 50.039,146.167 50.039 C 145.846 50.039,145.715 50.073,145.875 50.115 M34.383 80.500 C 34.383 81.004,34.415 81.210,34.453 80.958 C 34.491 80.706,34.491 80.294,34.453 80.042 C 34.415 79.790,34.383 79.996,34.383 80.500 M140.552 97.083 C 140.553 97.633,140.584 97.838,140.621 97.539 C 140.658 97.239,140.657 96.789,140.619 96.539 C 140.581 96.288,140.551 96.533,140.552 97.083 M357.208 96.955 C 357.552 96.991,358.115 96.991,358.458 96.955 C 358.802 96.919,358.521 96.889,357.833 96.889 C 357.146 96.889,356.865 96.919,357.208 96.955 M164.417 101.000 C 164.775 101.367,165.105 101.667,165.151 101.667 C 165.197 101.667,164.941 101.367,164.583 101.000 C 164.225 100.633,163.895 100.333,163.849 100.333 C 163.803 100.333,164.059 100.633,164.417 101.000 M146.875 104.282 C 147.035 104.323,147.298 104.323,147.458 104.282 C 147.619 104.240,147.487 104.205,147.167 104.205 C 146.846 104.205,146.715 104.240,146.875 104.282 M72.523 107.021 C 72.510 107.263,72.631 107.562,72.792 107.688 C 73.045 107.887,73.058 107.884,72.891 107.667 C 72.785 107.529,72.664 107.229,72.622 107.000 L 72.545 106.583 72.523 107.021 M109.708 124.782 C 109.869 124.823,110.131 124.823,110.292 124.782 C 110.452 124.740,110.321 124.705,110.000 124.705 C 109.679 124.705,109.548 124.740,109.708 124.782 M110.960 124.785 C 111.168 124.824,111.468 124.823,111.627 124.781 C 111.786 124.739,111.617 124.707,111.250 124.709 C 110.883 124.711,110.753 124.745,110.960 124.785 M124.208 124.782 C 124.369 124.823,124.631 124.823,124.792 124.782 C 124.952 124.740,124.821 124.705,124.500 124.705 C 124.179 124.705,124.048 124.740,124.208 124.782 M121.127 129.451 C 121.334 129.491,121.634 129.490,121.794 129.448 C 121.953 129.406,121.783 129.374,121.417 129.375 C 121.050 129.377,120.920 129.411,121.127 129.451 M140.042 129.448 C 140.202 129.490,140.465 129.490,140.625 129.448 C 140.785 129.406,140.654 129.372,140.333 129.372 C 140.012 129.372,139.881 129.406,140.042 129.448 " stroke="none" fill="#30c4ec" fill-rule="evenodd"></path><path id="path3" d="M106.125 29.951 C 106.331 29.991,106.669 29.991,106.875 29.951 C 107.081 29.911,106.912 29.879,106.500 29.879 C 106.087 29.879,105.919 29.911,106.125 29.951 M150.292 39.451 C 150.498 39.491,150.835 39.491,151.042 39.451 C 151.248 39.411,151.079 39.379,150.667 39.379 C 150.254 39.379,150.085 39.411,150.292 39.451 M145.875 50.115 C 146.035 50.157,146.298 50.157,146.458 50.115 C 146.619 50.073,146.487 50.039,146.167 50.039 C 145.846 50.039,145.715 50.073,145.875 50.115 M34.383 80.500 C 34.383 81.004,34.415 81.210,34.453 80.958 C 34.491 80.706,34.491 80.294,34.453 80.042 C 34.415 79.790,34.383 79.996,34.383 80.500 M140.552 97.083 C 140.553 97.633,140.584 97.838,140.621 97.539 C 140.658 97.239,140.657 96.789,140.619 96.539 C 140.581 96.288,140.551 96.533,140.552 97.083 M357.208 96.955 C 357.552 96.991,358.115 96.991,358.458 96.955 C 358.802 96.919,358.521 96.889,357.833 96.889 C 357.146 96.889,356.865 96.919,357.208 96.955 M164.417 101.000 C 164.775 101.367,165.105 101.667,165.151 101.667 C 165.197 101.667,164.941 101.367,164.583 101.000 C 164.225 100.633,163.895 100.333,163.849 100.333 C 163.803 100.333,164.059 100.633,164.417 101.000 M146.875 104.282 C 147.035 104.323,147.298 104.323,147.458 104.282 C 147.619 104.240,147.487 104.205,147.167 104.205 C 146.846 104.205,146.715 104.240,146.875 104.282 M72.523 107.021 C 72.510 107.263,72.631 107.562,72.792 107.688 C 73.045 107.887,73.058 107.884,72.891 107.667 C 72.785 107.529,72.664 107.229,72.622 107.000 L 72.545 106.583 72.523 107.021 M109.708 124.782 C 109.869 124.823,110.131 124.823,110.292 124.782 C 110.452 124.740,110.321 124.705,110.000 124.705 C 109.679 124.705,109.548 124.740,109.708 124.782 M110.960 124.785 C 111.168 124.824,111.468 124.823,111.627 124.781 C 111.786 124.739,111.617 124.707,111.250 124.709 C 110.883 124.711,110.753 124.745,110.960 124.785 M124.208 124.782 C 124.369 124.823,124.631 124.823,124.792 124.782 C 124.952 124.740,124.821 124.705,124.500 124.705 C 124.179 124.705,124.048 124.740,124.208 124.782 M121.127 129.451 C 121.334 129.491,121.634 129.490,121.794 129.448 C 121.953 129.406,121.783 129.374,121.417 129.375 C 121.050 129.377,120.920 129.411,121.127 129.451 M140.042 129.448 C 140.202 129.490,140.465 129.490,140.625 129.448 C 140.785 129.406,140.654 129.372,140.333 129.372 C 140.012 129.372,139.881 129.406,140.042 129.448 " stroke="none" fill="#30c4ec" fill-rule="evenodd"></path><path id="path4" d="M106.125 29.951 C 106.331 29.991,106.669 29.991,106.875 29.951 C 107.081 29.911,106.912 29.879,106.500 29.879 C 106.087 29.879,105.919 29.911,106.125 29.951 M150.292 39.451 C 150.498 39.491,150.835 39.491,151.042 39.451 C 151.248 39.411,151.079 39.379,150.667 39.379 C 150.254 39.379,150.085 39.411,150.292 39.451 M145.875 50.115 C 146.035 50.157,146.298 50.157,146.458 50.115 C 146.619 50.073,146.487 50.039,146.167 50.039 C 145.846 50.039,145.715 50.073,145.875 50.115 M34.383 80.500 C 34.383 81.004,34.415 81.210,34.453 80.958 C 34.491 80.706,34.491 80.294,34.453 80.042 C 34.415 79.790,34.383 79.996,34.383 80.500 M140.552 97.083 C 140.553 97.633,140.584 97.838,140.621 97.539 C 140.658 97.239,140.657 96.789,140.619 96.539 C 140.581 96.288,140.551 96.533,140.552 97.083 M357.208 96.955 C 357.552 96.991,358.115 96.991,358.458 96.955 C 358.802 96.919,358.521 96.889,357.833 96.889 C 357.146 96.889,356.865 96.919,357.208 96.955 M164.417 101.000 C 164.775 101.367,165.105 101.667,165.151 101.667 C 165.197 101.667,164.941 101.367,164.583 101.000 C 164.225 100.633,163.895 100.333,163.849 100.333 C 163.803 100.333,164.059 100.633,164.417 101.000 M146.875 104.282 C 147.035 104.323,147.298 104.323,147.458 104.282 C 147.619 104.240,147.487 104.205,147.167 104.205 C 146.846 104.205,146.715 104.240,146.875 104.282 M72.523 107.021 C 72.510 107.263,72.631 107.562,72.792 107.688 C 73.045 107.887,73.058 107.884,72.891 107.667 C 72.785 107.529,72.664 107.229,72.622 107.000 L 72.545 106.583 72.523 107.021 M109.708 124.782 C 109.869 124.823,110.131 124.823,110.292 124.782 C 110.452 124.740,110.321 124.705,110.000 124.705 C 109.679 124.705,109.548 124.740,109.708 124.782 M110.960 124.785 C 111.168 124.824,111.468 124.823,111.627 124.781 C 111.786 124.739,111.617 124.707,111.250 124.709 C 110.883 124.711,110.753 124.745,110.960 124.785 M124.208 124.782 C 124.369 124.823,124.631 124.823,124.792 124.782 C 124.952 124.740,124.821 124.705,124.500 124.705 C 124.179 124.705,124.048 124.740,124.208 124.782 M121.127 129.451 C 121.334 129.491,121.634 129.490,121.794 129.448 C 121.953 129.406,121.783 129.374,121.417 129.375 C 121.050 129.377,120.920 129.411,121.127 129.451 M140.042 129.448 C 140.202 129.490,140.465 129.490,140.625 129.448 C 140.785 129.406,140.654 129.372,140.333 129.372 C 140.012 129.372,139.881 129.406,140.042 129.448 " stroke="none" fill="#30c4ec" fill-rule="evenodd"></path></g></svg>