<svg version="1.1" id="Layer_1" xmlns="http://www.w3.org/2000/svg" xmlns:xlink="http://www.w3.org/1999/xlink" x="0px" y="0px"
	 width="100%" viewBox="0 0 2048 2047" enable-background="new 0 0 2048 2047" xml:space="preserve">
<path fill="#FFFFFF" opacity="1.000000" stroke="none" 
	d="
M1081.000000,2048.000000 
	C720.666687,2048.000000 360.833344,2048.000000 1.000000,2048.000000 
	C1.000000,1365.666626 1.000000,683.333313 1.000000,1.000000 
	C683.666687,1.000000 1366.333374,1.000000 2049.000000,1.000000 
	C2049.000000,683.333313 2049.000000,1365.666626 2049.000000,2048.000000 
	C1726.500000,2048.000000 1404.000000,2048.000000 1081.000000,2048.000000 
M73.225075,1189.973145 
	C72.265800,1194.943481 71.422874,1199.939819 70.322075,1204.878662 
	C68.292511,1213.984497 65.053169,1222.968750 64.287720,1232.167358 
	C63.503708,1241.589355 61.952511,1251.414917 65.900444,1260.722168 
	C69.195915,1268.491211 71.217667,1277.176147 76.033485,1283.845337 
	C85.615288,1297.114746 96.783424,1309.233276 107.194885,1321.910645 
	C114.330780,1330.599487 122.249077,1338.840576 128.108124,1348.336548 
	C136.390594,1361.760132 140.467102,1376.802246 140.204102,1392.868896 
	C139.961365,1407.697632 139.499451,1422.571777 140.363480,1437.354126 
	C141.064011,1449.339111 142.406464,1461.545654 145.601654,1473.060669 
	C149.683853,1487.772217 159.471817,1499.467529 171.572311,1508.586060 
	C187.934311,1520.915771 204.916656,1532.419800 221.560425,1544.378906 
	C230.844070,1551.049683 238.683273,1559.281128 244.310211,1569.167969 
	C251.824600,1582.371460 256.280670,1596.791626 259.016907,1611.738892 
	C259.693268,1615.433960 260.549744,1619.110107 261.571075,1622.724976 
	C263.612122,1629.948853 265.503601,1637.240234 268.048431,1644.290161 
	C271.133026,1652.835327 273.985748,1661.639160 278.442230,1669.476318 
	C286.862122,1684.283813 300.541321,1693.377686 315.879242,1699.970581 
	C324.129822,1703.516968 332.650116,1706.431030 341.002441,1709.746948 
	C350.255585,1713.420410 359.695709,1716.738647 368.609772,1721.116821 
	C376.966827,1725.221680 385.283234,1729.803955 392.646088,1735.444336 
	C403.267792,1743.581299 410.076050,1755.160645 416.507233,1766.672852 
	C423.977936,1780.045654 430.462830,1793.971191 437.989075,1807.310547 
	C446.417206,1822.248291 457.032898,1835.414917 473.316193,1842.441040 
	C479.346924,1845.043457 485.895050,1846.509888 492.285461,1848.197998 
	C499.036560,1849.981567 505.815216,1852.291748 512.698730,1852.805420 
	C525.354736,1853.750122 537.842285,1855.124146 550.355408,1857.483398 
	C559.664734,1859.238647 569.004639,1860.531372 577.413574,1864.898071 
	C584.482056,1868.568604 592.030457,1872.200195 597.629578,1877.637573 
	C610.721863,1890.351318 622.592957,1904.311523 635.293030,1917.443604 
	C647.610413,1930.179810 659.254456,1944.039062 677.706726,1948.405640 
	C684.624451,1950.042725 691.555176,1952.304565 698.566040,1952.681763 
	C705.911316,1953.077026 713.376526,1951.694702 720.759644,1950.834229 
	C733.642883,1949.332764 746.466797,1946.811890 759.382996,1946.238770 
	C774.104431,1945.585571 788.881348,1944.700562 803.379028,1950.286377 
	C815.974426,1955.139160 827.130371,1962.124512 838.329041,1969.282715 
	C853.423279,1978.931152 868.299011,1988.955322 883.738037,1998.018311 
	C894.039246,2004.065430 905.880737,2005.884277 917.687195,2004.656738 
	C926.460571,2003.744507 935.248474,2001.766846 943.690552,1999.163208 
	C955.570129,1995.499634 967.059875,1990.591553 978.856934,1986.635132 
	C990.176758,1982.838745 1001.476196,1978.403687 1013.153320,1976.416260 
	C1024.486450,1974.487183 1036.400757,1975.226196 1047.607666,1978.559448 
	C1059.186035,1982.003418 1070.538208,1986.265381 1081.845215,1990.550171 
	C1097.500732,1996.483032 1112.786987,2003.197632 1129.915039,2004.464966 
	C1140.063965,2005.215942 1150.242310,2005.130249 1159.137207,2001.003662 
	C1172.197388,1994.944580 1184.527832,1987.194702 1196.780151,1979.542358 
	C1211.834351,1970.140259 1225.323975,1958.112671 1242.290527,1951.965088 
	C1249.294189,1949.427368 1256.598145,1946.647583 1263.898560,1946.213379 
	C1281.217407,1945.183350 1298.472900,1946.377808 1315.553223,1950.371460 
	C1323.689209,1952.273926 1332.297119,1952.689575 1340.699829,1952.760376 
	C1348.212158,1952.823608 1355.825195,1951.974243 1363.228394,1950.622070 
	C1369.675903,1949.444458 1376.464844,1948.038818 1382.103760,1944.924683 
	C1399.058960,1935.561157 1411.407471,1920.870361 1424.260010,1906.748657 
	C1434.645142,1895.337891 1445.240479,1883.991455 1456.782104,1873.792969 
	C1470.816650,1861.391968 1489.236328,1858.934570 1506.768311,1855.413086 
	C1518.960938,1852.964355 1531.490234,1851.939575 1543.923950,1851.025635 
	C1553.800171,1850.299805 1562.880737,1847.190674 1572.117432,1844.132812 
	C1587.957764,1838.888794 1599.137817,1827.835083 1607.454834,1814.299683 
	C1620.533203,1793.015259 1632.064819,1770.784058 1644.974976,1749.390259 
	C1648.814697,1743.027466 1654.385498,1737.194458 1660.373169,1732.748291 
	C1673.483154,1723.013184 1688.928345,1717.600830 1703.961670,1711.496460 
	C1718.546631,1705.574341 1733.323608,1699.938965 1747.323242,1692.815552 
	C1760.057739,1686.335571 1769.214355,1675.710571 1775.113525,1662.417480 
	C1779.158813,1653.301514 1782.536865,1644.090820 1784.600708,1634.255005 
	C1786.979858,1622.916748 1790.209717,1611.726196 1793.645142,1600.649780 
	C1796.680420,1590.863403 1799.726562,1580.946411 1804.158813,1571.757812 
	C1811.419922,1556.704956 1824.489502,1546.737793 1837.690674,1537.200073 
	C1851.889648,1526.941162 1866.693481,1517.457275 1880.337891,1506.518188 
	C1887.288086,1500.945801 1892.759033,1493.270996 1898.024292,1485.920288 
	C1904.494141,1476.887939 1906.618530,1466.215210 1907.332520,1455.214355 
	C1907.955933,1445.612793 1909.381958,1436.047729 1909.666504,1426.443115 
	C1910.104858,1411.655029 1909.695068,1396.843262 1910.028687,1382.050049 
	C1910.127808,1377.657471 1911.074463,1373.156250 1912.391357,1368.941895 
	C1916.990723,1354.222534 1925.399658,1341.628174 1935.193970,1329.918579 
	C1948.038330,1314.562378 1961.305786,1299.548584 1973.798096,1283.913696 
	C1980.871948,1275.060181 1984.965088,1264.182129 1985.698120,1253.060181 
	C1986.431152,1241.936523 1985.192139,1230.547241 1983.604980,1219.447754 
	C1982.244873,1209.935669 1979.184326,1200.665283 1976.847290,1191.295044 
	C1975.941406,1187.662964 1974.884521,1184.067505 1974.024292,1180.425049 
	C1972.636475,1174.548706 1970.765381,1168.704712 1970.182129,1162.741211 
	C1969.503784,1155.806030 1970.267456,1148.742554 1969.906494,1141.760498 
	C1969.448486,1132.904297 1972.334473,1124.754150 1975.835571,1117.133667 
	C1983.163208,1101.184814 1991.945557,1085.905273 1999.309204,1069.971313 
	C2004.240479,1059.300293 2009.415649,1048.281128 2011.513184,1036.871948 
	C2014.502563,1020.611328 2011.766602,1004.241821 2004.434204,989.147461 
	C1995.104858,969.942627 1984.953369,951.127014 1976.015503,931.747437 
	C1972.745361,924.657104 1971.219604,916.525513 1970.206543,908.699524 
	C1969.251953,901.324646 1969.692871,893.707397 1970.140381,886.233948 
	C1970.451172,881.041504 1971.532104,875.843567 1972.769531,870.770264 
	C1974.654175,863.043884 1977.254761,855.487976 1979.031250,847.740479 
	C1981.051025,838.933105 1982.136597,829.905884 1984.288452,821.136108 
	C1986.875977,810.589661 1986.465942,800.375122 1984.383057,789.729675 
	C1982.019531,777.650024 1976.512451,767.261780 1969.142944,758.047058 
	C1955.890625,741.476074 1941.581543,725.755127 1928.016968,709.427429 
	C1917.792358,697.120117 1911.773926,682.654297 1910.121948,666.856567 
	C1908.880005,654.978027 1909.421753,642.916687 1909.079834,630.939331 
	C1908.763062,619.843079 1908.913452,608.688965 1907.763428,597.674622 
	C1906.797119,588.419189 1905.505615,578.832886 1902.115601,570.282043 
	C1897.185791,557.846375 1888.405762,547.658020 1877.482666,539.692871 
	C1861.727539,528.204224 1846.071167,516.553955 1829.927490,505.630615 
	C1807.072388,490.165985 1797.800781,466.756958 1791.205566,441.662354 
	C1789.173584,433.930237 1788.294189,425.887817 1786.136108,418.198212 
	C1783.555298,409.001526 1780.431396,399.931702 1777.052612,390.992126 
	C1774.098999,383.177185 1769.960205,376.045288 1764.302368,369.644379 
	C1753.543457,357.472656 1739.445923,350.770294 1725.009399,344.671234 
	C1711.293579,338.876617 1697.363525,333.560364 1683.384155,328.424561 
	C1659.941772,319.812164 1644.439819,303.072083 1633.021606,281.458862 
	C1623.556152,263.542145 1613.736450,245.757401 1602.991943,228.591339 
	C1595.971680,217.375320 1585.625732,209.148682 1572.661133,204.975037 
	C1567.432739,203.291931 1562.182007,201.582642 1556.826050,200.414413 
	C1548.900757,198.685745 1540.913574,197.119217 1532.876953,196.055740 
	C1524.379761,194.931305 1515.793579,194.482193 1507.248047,193.717468 
	C1506.761719,193.673935 1506.297119,193.422974 1505.813843,193.303940 
	C1499.994507,191.870987 1494.243896,189.817276 1488.337646,189.157623 
	C1478.459473,188.054352 1469.250000,184.211884 1461.950806,178.598297 
	C1449.944214,169.364456 1439.098877,158.417053 1428.764404,147.264877 
	C1416.139282,133.640747 1404.420410,119.214729 1389.223511,108.188744 
	C1379.449463,101.097305 1368.162109,97.142281 1356.651123,96.455399 
	C1342.533447,95.612976 1328.248047,97.576660 1314.035767,98.336319 
	C1313.708618,98.353806 1313.390747,98.506096 1313.062500,98.551315 
	C1302.155029,100.053490 1291.284546,102.136940 1280.325439,102.843910 
	C1272.876465,103.324440 1265.390625,103.173859 1257.713623,101.404503 
	C1250.633545,99.772758 1243.507690,98.150322 1237.512085,94.611710 
	C1220.783691,84.738297 1204.448730,74.164505 1188.288086,63.373341 
	C1174.621826,54.247711 1160.568359,46.481770 1143.970825,44.186184 
	C1131.868652,42.512367 1120.266724,45.074287 1108.834229,48.188797 
	C1100.664917,50.414326 1092.876343,54.012817 1084.865601,56.850941 
	C1073.330688,60.937599 1061.840454,65.190193 1050.150024,68.782227 
	C1043.610474,70.791557 1036.741089,72.446259 1029.954834,72.738991 
	C1022.639893,73.054527 1015.150085,72.116692 1007.916931,70.762413 
	C1000.271179,69.330887 992.709351,67.136879 985.345093,64.596748 
	C976.547791,61.562294 968.112732,57.477657 959.315369,54.443268 
	C946.774109,50.117554 934.305847,45.776295 920.897278,44.087097 
	C912.680115,43.051914 904.657837,43.595493 897.360901,45.760044 
	C887.270203,48.753323 877.465454,53.571507 868.429932,59.072731 
	C852.249390,68.924171 836.838379,80.030090 820.904358,90.299232 
	C810.048828,97.295387 797.831848,101.985893 785.153137,102.683777 
	C771.017456,103.461823 756.734009,101.555588 742.515259,100.809769 
	C742.187317,100.792564 741.865906,100.671280 741.538757,100.613724 
	C732.971802,99.106857 724.449463,96.748596 715.826782,96.293625 
	C702.364685,95.583313 688.608032,94.681526 675.897705,100.836876 
	C668.766235,104.290504 661.115051,107.350533 655.116699,112.305351 
	C646.055603,119.790016 638.074219,128.622559 629.925903,137.160919 
	C619.718872,147.856552 610.017700,159.040741 599.661438,169.585098 
	C595.683594,173.635269 590.806946,177.063095 585.801575,179.784454 
	C577.715759,184.180588 569.544922,188.407669 559.963196,189.347992 
	C553.547974,189.977570 547.366455,192.740448 540.953247,193.692520 
	C528.949341,195.474533 516.815918,196.381744 504.809021,198.147003 
	C497.435425,199.231079 490.189819,201.201874 482.898743,202.828293 
	C468.173340,206.113068 456.474396,214.713959 448.275970,226.623474 
	C438.215729,241.237640 429.639343,256.949615 421.325653,272.665283 
	C414.853546,284.899780 408.095276,296.881622 399.009125,307.278809 
	C387.954681,319.928253 372.672791,326.286255 357.710022,332.691284 
	C341.635193,339.572327 324.907898,344.966278 308.993317,352.174835 
	C290.057892,360.751740 277.312500,375.839264 270.593964,395.345978 
	C265.926361,408.897980 262.927704,423.018585 258.986206,436.828857 
	C255.976257,447.375092 252.887680,457.909943 249.419846,468.311768 
	C244.604660,482.754883 235.318481,494.116821 223.247238,503.038971 
	C206.778046,515.211853 189.820816,526.724182 173.342438,538.885010 
	C161.976181,547.273193 152.615265,557.694641 147.342728,570.964661 
	C142.103500,584.150757 140.833679,598.287476 140.297104,612.296448 
	C139.672470,628.605347 140.654236,644.978943 139.930405,661.279602 
	C139.563721,669.537292 138.029190,678.085083 135.170700,685.817078 
	C129.680008,700.668823 119.689079,712.866577 109.402344,724.777283 
	C98.042686,737.930359 86.445923,750.949341 76.077202,764.864807 
	C67.942970,775.781433 63.155979,788.543030 63.909252,802.617920 
	C64.296631,809.856018 64.919785,817.117432 66.054054,824.270386 
	C67.439392,833.006470 69.241257,841.695190 71.294975,850.301270 
	C73.148560,858.068726 76.377342,865.576965 77.566605,873.416870 
	C79.119156,883.651489 79.174507,894.107422 80.033638,904.454895 
	C80.808792,913.790771 77.932594,922.541260 74.353020,930.658936 
	C67.932457,945.219360 59.823479,959.026550 53.114033,973.470886 
	C47.602772,985.335693 41.091885,997.276794 38.632191,1009.887817 
	C35.217747,1027.394043 37.867443,1045.153564 46.189861,1061.496582 
	C52.070042,1073.043823 58.499981,1084.333618 63.884510,1096.104248 
	C69.655067,1108.718994 76.220558,1121.369751 79.248360,1134.727905 
	C82.330566,1148.326172 80.233650,1162.753418 77.418541,1176.620483 
	C76.551025,1180.893799 74.852425,1184.998535 73.225075,1189.973145 
z"/>
<path fill="#5EC7EB" opacity="1.000000" stroke="none" 
	d="
M73.379723,1189.576782 
	C74.852425,1184.998535 76.551025,1180.893799 77.418541,1176.620483 
	C80.233650,1162.753418 82.330566,1148.326172 79.248360,1134.727905 
	C76.220558,1121.369751 69.655067,1108.718994 63.884510,1096.104248 
	C58.499981,1084.333618 52.070042,1073.043823 46.189861,1061.496582 
	C37.867443,1045.153564 35.217747,1027.394043 38.632191,1009.887817 
	C41.091885,997.276794 47.602772,985.335693 53.114033,973.470886 
	C59.823479,959.026550 67.932457,945.219360 74.353020,930.658936 
	C77.932594,922.541260 80.808792,913.790771 80.033638,904.454895 
	C79.174507,894.107422 79.119156,883.651489 77.566605,873.416870 
	C76.377342,865.576965 73.148560,858.068726 71.294975,850.301270 
	C69.241257,841.695190 67.439392,833.006470 66.054054,824.270386 
	C64.919785,817.117432 64.296631,809.856018 63.909252,802.617920 
	C63.155979,788.543030 67.942970,775.781433 76.077202,764.864807 
	C86.445923,750.949341 98.042686,737.930359 109.402344,724.777283 
	C119.689079,712.866577 129.680008,700.668823 135.170700,685.817078 
	C138.029190,678.085083 139.563721,669.537292 139.930405,661.279602 
	C140.654236,644.978943 139.672470,628.605347 140.297104,612.296448 
	C140.833679,598.287476 142.103500,584.150757 147.342728,570.964661 
	C152.615265,557.694641 161.976181,547.273193 173.342438,538.885010 
	C189.820816,526.724182 206.778046,515.211853 223.247238,503.038971 
	C235.318481,494.116821 244.604660,482.754883 249.419846,468.311768 
	C252.887680,457.909943 255.976257,447.375092 258.986206,436.828857 
	C262.927704,423.018585 265.926361,408.897980 270.593964,395.345978 
	C277.312500,375.839264 290.057892,360.751740 308.993317,352.174835 
	C324.907898,344.966278 341.635193,339.572327 357.710022,332.691284 
	C372.672791,326.286255 387.954681,319.928253 399.009125,307.278809 
	C408.095276,296.881622 414.853546,284.899780 421.325653,272.665283 
	C429.639343,256.949615 438.215729,241.237640 448.275970,226.623474 
	C456.474396,214.713959 468.173340,206.113068 482.898743,202.828293 
	C490.189819,201.201874 497.435425,199.231079 504.809021,198.147003 
	C516.815918,196.381744 528.949341,195.474533 540.953247,193.692520 
	C547.366455,192.740448 553.547974,189.977570 559.963196,189.347992 
	C569.544922,188.407669 577.715759,184.180588 585.801575,179.784454 
	C590.806946,177.063095 595.683594,173.635269 599.661438,169.585098 
	C610.017700,159.040741 619.718872,147.856552 629.925903,137.160919 
	C638.074219,128.622559 646.055603,119.790016 655.116699,112.305351 
	C661.115051,107.350533 668.766235,104.290504 675.897705,100.836876 
	C688.608032,94.681526 702.364685,95.583313 715.826782,96.293625 
	C724.449463,96.748596 732.971802,99.106857 741.538757,100.613724 
	C741.865906,100.671280 742.187317,100.792564 742.515259,100.809769 
	C756.734009,101.555588 771.017456,103.461823 785.153137,102.683777 
	C797.831848,101.985893 810.048828,97.295387 820.904358,90.299232 
	C836.838379,80.030090 852.249390,68.924171 868.429932,59.072731 
	C877.465454,53.571507 887.270203,48.753323 897.360901,45.760044 
	C904.657837,43.595493 912.680115,43.051914 920.897278,44.087097 
	C934.305847,45.776295 946.774109,50.117554 959.315369,54.443268 
	C968.112732,57.477657 976.547791,61.562294 985.345093,64.596748 
	C992.709351,67.136879 1000.271179,69.330887 1007.916931,70.762413 
	C1015.150085,72.116692 1022.639893,73.054527 1029.954834,72.738991 
	C1036.741089,72.446259 1043.610474,70.791557 1050.150024,68.782227 
	C1061.840454,65.190193 1073.330688,60.937599 1084.865601,56.850941 
	C1092.876343,54.012817 1100.664917,50.414326 1108.834229,48.188797 
	C1120.266724,45.074287 1131.868652,42.512367 1143.970825,44.186184 
	C1160.568359,46.481770 1174.621826,54.247711 1188.288086,63.373341 
	C1204.448730,74.164505 1220.783691,84.738297 1237.512085,94.611710 
	C1243.507690,98.150322 1250.633545,99.772758 1257.713623,101.404503 
	C1265.390625,103.173859 1272.876465,103.324440 1280.325439,102.843910 
	C1291.284546,102.136940 1302.155029,100.053490 1313.062500,98.551315 
	C1313.390747,98.506096 1313.708618,98.353806 1314.035767,98.336319 
	C1328.248047,97.576660 1342.533447,95.612976 1356.651123,96.455399 
	C1368.162109,97.142281 1379.449463,101.097305 1389.223511,108.188744 
	C1404.420410,119.214729 1416.139282,133.640747 1428.764404,147.264877 
	C1439.098877,158.417053 1449.944214,169.364456 1461.950806,178.598297 
	C1469.250000,184.211884 1478.459473,188.054352 1488.337646,189.157623 
	C1494.243896,189.817276 1499.994507,191.870987 1505.813843,193.303940 
	C1506.297119,193.422974 1506.761719,193.673935 1507.248047,193.717468 
	C1515.793579,194.482193 1524.379761,194.931305 1532.876953,196.055740 
	C1540.913574,197.119217 1548.900757,198.685745 1556.826050,200.414413 
	C1562.182007,201.582642 1567.432739,203.291931 1572.661133,204.975037 
	C1585.625732,209.148682 1595.971680,217.375320 1602.991943,228.591339 
	C1613.736450,245.757401 1623.556152,263.542145 1633.021606,281.458862 
	C1644.439819,303.072083 1659.941772,319.812164 1683.384155,328.424561 
	C1697.363525,333.560364 1711.293579,338.876617 1725.009399,344.671234 
	C1739.445923,350.770294 1753.543457,357.472656 1764.302368,369.644379 
	C1769.960205,376.045288 1774.098999,383.177185 1777.052612,390.992126 
	C1780.431396,399.931702 1783.555298,409.001526 1786.136108,418.198212 
	C1788.294189,425.887817 1789.173584,433.930237 1791.205566,441.662354 
	C1797.800781,466.756958 1807.072388,490.165985 1829.927490,505.630615 
	C1846.071167,516.553955 1861.727539,528.204224 1877.482666,539.692871 
	C1888.405762,547.658020 1897.185791,557.846375 1902.115601,570.282043 
	C1905.505615,578.832886 1906.797119,588.419189 1907.763428,597.674622 
	C1908.913452,608.688965 1908.763062,619.843079 1909.079834,630.939331 
	C1909.421753,642.916687 1908.880005,654.978027 1910.121948,666.856567 
	C1911.773926,682.654297 1917.792358,697.120117 1928.016968,709.427429 
	C1941.581543,725.755127 1955.890625,741.476074 1969.142944,758.047058 
	C1976.512451,767.261780 1982.019531,777.650024 1984.383057,789.729675 
	C1986.465942,800.375122 1986.875977,810.589661 1984.288452,821.136108 
	C1982.136597,829.905884 1981.051025,838.933105 1979.031250,847.740479 
	C1977.254761,855.487976 1974.654175,863.043884 1972.769531,870.770264 
	C1971.532104,875.843567 1970.451172,881.041504 1970.140381,886.233948 
	C1969.692871,893.707397 1969.251953,901.324646 1970.206543,908.699524 
	C1971.219604,916.525513 1972.745361,924.657104 1976.015503,931.747437 
	C1984.953369,951.127014 1995.104858,969.942627 2004.434204,989.147461 
	C2011.766602,1004.241821 2014.502563,1020.611328 2011.513184,1036.871948 
	C2009.415649,1048.281128 2004.240479,1059.300293 1999.309204,1069.971313 
	C1991.945557,1085.905273 1983.163208,1101.184814 1975.835571,1117.133667 
	C1972.334473,1124.754150 1969.448486,1132.904297 1969.906494,1141.760498 
	C1970.267456,1148.742554 1969.503784,1155.806030 1970.182129,1162.741211 
	C1970.765381,1168.704712 1972.636475,1174.548706 1974.024292,1180.425049 
	C1974.884521,1184.067505 1975.941406,1187.662964 1976.847290,1191.295044 
	C1979.184326,1200.665283 1982.244873,1209.935669 1983.604980,1219.447754 
	C1985.192139,1230.547241 1986.431152,1241.936523 1985.698120,1253.060181 
	C1984.965088,1264.182129 1980.871948,1275.060181 1973.798096,1283.913696 
	C1961.305786,1299.548584 1948.038330,1314.562378 1935.193970,1329.918579 
	C1925.399658,1341.628174 1916.990723,1354.222534 1912.391357,1368.941895 
	C1911.074463,1373.156250 1910.127808,1377.657471 1910.028687,1382.050049 
	C1909.695068,1396.843262 1910.104858,1411.655029 1909.666504,1426.443115 
	C1909.381958,1436.047729 1907.955933,1445.612793 1907.332520,1455.214355 
	C1906.618530,1466.215210 1904.494141,1476.887939 1898.024292,1485.920288 
	C1892.759033,1493.270996 1887.288086,1500.945801 1880.337891,1506.518188 
	C1866.693481,1517.457275 1851.889648,1526.941162 1837.690674,1537.200073 
	C1824.489502,1546.737793 1811.419922,1556.704956 1804.158813,1571.757812 
	C1799.726562,1580.946411 1796.680420,1590.863403 1793.645142,1600.649780 
	C1790.209717,1611.726196 1786.979858,1622.916748 1784.600708,1634.255005 
	C1782.536865,1644.090820 1779.158813,1653.301514 1775.113525,1662.417480 
	C1769.214355,1675.710571 1760.057739,1686.335571 1747.323242,1692.815552 
	C1733.323608,1699.938965 1718.546631,1705.574341 1703.961670,1711.496460 
	C1688.928345,1717.600830 1673.483154,1723.013184 1660.373169,1732.748291 
	C1654.385498,1737.194458 1648.814697,1743.027466 1644.974976,1749.390259 
	C1632.064819,1770.784058 1620.533203,1793.015259 1607.454834,1814.299683 
	C1599.137817,1827.835083 1587.957764,1838.888794 1572.117432,1844.132812 
	C1562.880737,1847.190674 1553.800171,1850.299805 1543.923950,1851.025635 
	C1531.490234,1851.939575 1518.960938,1852.964355 1506.768311,1855.413086 
	C1489.236328,1858.934570 1470.816650,1861.391968 1456.782104,1873.792969 
	C1445.240479,1883.991455 1434.645142,1895.337891 1424.260010,1906.748657 
	C1411.407471,1920.870361 1399.058960,1935.561157 1382.103760,1944.924683 
	C1376.464844,1948.038818 1369.675903,1949.444458 1363.228394,1950.622070 
	C1355.825195,1951.974243 1348.212158,1952.823608 1340.699829,1952.760376 
	C1332.297119,1952.689575 1323.689209,1952.273926 1315.553223,1950.371460 
	C1298.472900,1946.377808 1281.217407,1945.183350 1263.898560,1946.213379 
	C1256.598145,1946.647583 1249.294189,1949.427368 1242.290527,1951.965088 
	C1225.323975,1958.112671 1211.834351,1970.140259 1196.780151,1979.542358 
	C1184.527832,1987.194702 1172.197388,1994.944580 1159.137207,2001.003662 
	C1150.242310,2005.130249 1140.063965,2005.215942 1129.915039,2004.464966 
	C1112.786987,2003.197632 1097.500732,1996.483032 1081.845215,1990.550171 
	C1070.538208,1986.265381 1059.186035,1982.003418 1047.607666,1978.559448 
	C1036.400757,1975.226196 1024.486450,1974.487183 1013.153320,1976.416260 
	C1001.476196,1978.403687 990.176758,1982.838745 978.856934,1986.635132 
	C967.059875,1990.591553 955.570129,1995.499634 943.690552,1999.163208 
	C935.248474,2001.766846 926.460571,2003.744507 917.687195,2004.656738 
	C905.880737,2005.884277 894.039246,2004.065430 883.738037,1998.018311 
	C868.299011,1988.955322 853.423279,1978.931152 838.329041,1969.282715 
	C827.130371,1962.124512 815.974426,1955.139160 803.379028,1950.286377 
	C788.881348,1944.700562 774.104431,1945.585571 759.382996,1946.238770 
	C746.466797,1946.811890 733.642883,1949.332764 720.759644,1950.834229 
	C713.376526,1951.694702 705.911316,1953.077026 698.566040,1952.681763 
	C691.555176,1952.304565 684.624451,1950.042725 677.706726,1948.405640 
	C659.254456,1944.039062 647.610413,1930.179810 635.293030,1917.443604 
	C622.592957,1904.311523 610.721863,1890.351318 597.629578,1877.637573 
	C592.030457,1872.200195 584.482056,1868.568604 577.413574,1864.898071 
	C569.004639,1860.531372 559.664734,1859.238647 550.355408,1857.483398 
	C537.842285,1855.124146 525.354736,1853.750122 512.698730,1852.805420 
	C505.815216,1852.291748 499.036560,1849.981567 492.285461,1848.197998 
	C485.895050,1846.509888 479.346924,1845.043457 473.316193,1842.441040 
	C457.032898,1835.414917 446.417206,1822.248291 437.989075,1807.310547 
	C430.462830,1793.971191 423.977936,1780.045654 416.507233,1766.672852 
	C410.076050,1755.160645 403.267792,1743.581299 392.646088,1735.444336 
	C385.283234,1729.803955 376.966827,1725.221680 368.609772,1721.116821 
	C359.695709,1716.738647 350.255585,1713.420410 341.002441,1709.746948 
	C332.650116,1706.431030 324.129822,1703.516968 315.879242,1699.970581 
	C300.541321,1693.377686 286.862122,1684.283813 278.442230,1669.476318 
	C273.985748,1661.639160 271.133026,1652.835327 268.048431,1644.290161 
	C265.503601,1637.240234 263.612122,1629.948853 261.571075,1622.724976 
	C260.549744,1619.110107 259.693268,1615.433960 259.016907,1611.738892 
	C256.280670,1596.791626 251.824600,1582.371460 244.310211,1569.167969 
	C238.683273,1559.281128 230.844070,1551.049683 221.560425,1544.378906 
	C204.916656,1532.419800 187.934311,1520.915771 171.572311,1508.586060 
	C159.471817,1499.467529 149.683853,1487.772217 145.601654,1473.060669 
	C142.406464,1461.545654 141.064011,1449.339111 140.363480,1437.354126 
	C139.499451,1422.571777 139.961365,1407.697632 140.204102,1392.868896 
	C140.467102,1376.802246 136.390594,1361.760132 128.108124,1348.336548 
	C122.249077,1338.840576 114.330780,1330.599487 107.194885,1321.910645 
	C96.783424,1309.233276 85.615288,1297.114746 76.033485,1283.845337 
	C71.217667,1277.176147 69.195915,1268.491211 65.900444,1260.722168 
	C61.952511,1251.414917 63.503708,1241.589355 64.287720,1232.167358 
	C65.053169,1222.968750 68.292511,1213.984497 70.322075,1204.878662 
	C71.422874,1199.939819 72.265800,1194.943481 73.379723,1189.576782 
M535.945190,970.945984 
	C535.945190,970.945984 535.610229,970.613953 535.710083,969.891907 
	C536.080200,968.966797 536.413574,968.024902 536.826294,967.119202 
	C540.000793,960.152161 543.490601,953.309937 546.286560,946.194824 
	C548.772705,939.867859 546.483826,936.919312 539.788025,937.090698 
	C535.970520,937.188477 532.167419,937.866150 528.350159,937.956360 
	C519.263855,938.171265 512.997742,942.276978 509.121948,950.574829 
	C501.934113,965.963623 494.497131,981.236267 487.136993,996.544312 
	C464.189392,1044.272095 441.222687,1091.990845 418.286682,1139.724243 
	C416.557037,1143.323853 414.726593,1146.915405 413.447754,1150.682007 
	C411.583496,1156.172974 413.796021,1159.203369 419.566833,1158.951538 
	C426.706207,1158.639648 433.821350,1157.421265 440.952972,1157.365356 
	C452.114899,1157.278076 458.154358,1151.216797 462.175995,1141.560791 
	C468.255127,1126.964722 474.582092,1112.462891 481.186523,1098.096924 
	C490.497101,1077.844604 499.160034,1057.201294 509.928619,1037.736816 
	C522.529724,1014.960022 539.505249,995.441956 561.611267,981.034424 
	C569.030640,976.198853 576.941589,972.172913 586.123840,971.928101 
	C592.265808,971.764282 594.807556,973.947937 594.024231,979.904053 
	C593.295776,985.443115 592.217712,991.257141 589.766907,996.191833 
	C580.514832,1014.820862 570.702637,1033.173706 560.983948,1051.568604 
	C549.452454,1073.394653 538.437317,1095.282837 535.317017,1120.365356 
	C532.529846,1142.769897 546.148682,1158.564331 568.122375,1156.840210 
	C577.111877,1156.134888 585.151489,1152.481812 592.710571,1147.736816 
	C607.130432,1138.685181 618.748901,1126.533936 629.958679,1113.944580 
	C632.779358,1110.776855 635.450256,1107.475830 638.190002,1104.235962 
	C638.878174,1106.242310 638.661438,1107.812500 638.494690,1109.387939 
	C637.084717,1122.712769 640.483398,1134.510010 651.461487,1142.646484 
	C662.137878,1150.559326 674.118164,1150.654785 685.978088,1144.991943 
	C700.694458,1137.965210 712.126160,1126.756226 722.957336,1114.923584 
	C728.985657,1108.337891 734.664978,1101.432495 739.963440,1095.294678 
	C739.963440,1100.074707 739.771851,1105.349854 739.999695,1110.606934 
	C740.661316,1125.873901 751.068665,1137.822754 766.037170,1140.377930 
	C776.217529,1142.115723 785.489380,1138.978149 794.229858,1134.113647 
	C808.988464,1125.899536 820.924683,1114.313232 832.043640,1101.821167 
	C836.867371,1096.401855 841.490479,1090.803955 846.000610,1085.526001 
	C846.000610,1093.131836 845.308899,1100.742676 846.153137,1108.179199 
	C847.639099,1121.267700 856.753662,1130.229980 869.783081,1132.324219 
	C880.411316,1134.032471 889.844849,1130.335693 898.623047,1124.865234 
	C917.497742,1113.102905 931.437439,1096.320679 944.650696,1078.869873 
	C949.409790,1072.584473 953.883484,1066.082886 958.321777,1059.910522 
	C959.245544,1068.590576 959.329407,1077.329468 961.241272,1085.648315 
	C964.964050,1101.846924 973.424744,1114.930054 989.936829,1120.769897 
	C1003.197632,1125.459717 1015.569824,1121.766724 1027.213623,1115.112305 
	C1041.019043,1107.222534 1051.753540,1095.793823 1061.985840,1083.898682 
	C1068.149170,1076.734009 1073.996094,1069.296997 1080.003418,1062.003174 
	C1080.003418,1062.003174 1080.025146,1062.022339 1080.175415,1062.887573 
	C1078.122070,1075.131226 1078.602783,1087.082031 1084.026367,1098.538330 
	C1088.830566,1108.686279 1098.305420,1116.053467 1106.627930,1114.503662 
	C1113.720825,1113.182861 1121.003540,1111.168945 1127.339600,1107.826172 
	C1144.646362,1098.695801 1157.247314,1084.173096 1169.037598,1068.940796 
	C1171.464355,1065.805664 1173.838257,1062.629517 1176.193481,1059.529053 
	C1176.482300,1065.227905 1176.507812,1070.526855 1177.063965,1075.769531 
	C1178.538574,1089.668823 1188.110352,1102.261108 1199.874878,1105.244385 
	C1208.861328,1107.523438 1217.708496,1106.240234 1226.193970,1102.436279 
	C1242.068237,1095.319946 1254.558960,1083.905884 1265.871094,1071.068970 
	C1271.528809,1064.648560 1276.796143,1057.884277 1282.613159,1050.822510 
	C1283.129272,1056.777710 1283.331665,1062.030884 1284.080566,1067.205078 
	C1286.322388,1082.694336 1297.108276,1095.106201 1310.633179,1097.555420 
	C1320.844238,1099.404419 1330.053711,1096.232422 1338.645874,1090.890503 
	C1356.739136,1079.641724 1369.545654,1063.234985 1381.970093,1046.455688 
	C1383.048218,1044.999756 1384.188965,1043.590454 1386.007812,1041.249146 
	C1386.007812,1046.399292 1385.873901,1050.063843 1386.032593,1053.715576 
	C1386.537476,1065.337646 1390.307129,1075.648926 1399.284058,1083.398682 
	C1409.492310,1092.211304 1421.059204,1091.264160 1432.737915,1087.018188 
	C1450.460327,1080.575073 1465.096924,1069.320435 1478.709351,1056.659546 
	C1501.395020,1035.559570 1520.921631,1011.660583 1537.801025,985.826050 
	C1553.448364,961.876709 1567.525635,936.902710 1582.396484,912.441956 
	C1583.296753,910.961121 1585.138184,908.960083 1586.474243,909.009827 
	C1596.998047,909.401672 1607.377075,909.117554 1617.549927,905.144531 
	C1616.675781,907.126892 1615.554810,908.662659 1614.390625,910.164978 
	C1602.003418,926.151489 1591.081177,943.050293 1582.765869,961.531494 
	C1575.126587,978.510132 1569.402954,995.957581 1569.951294,1014.941040 
	C1570.987915,1050.831421 1602.205933,1086.079224 1649.587280,1068.716675 
	C1672.348999,1060.375854 1690.615112,1045.383911 1707.421753,1028.587524 
	C1726.941895,1009.079285 1743.472046,987.112183 1757.531006,963.373230 
	C1762.862061,954.371704 1767.464844,944.922180 1772.016724,935.492065 
	C1772.808350,933.852112 1771.688843,931.289734 1771.452026,929.153503 
	C1769.644653,930.262939 1767.330811,930.978455 1766.112061,932.545654 
	C1758.246338,942.660828 1751.095703,953.365784 1742.815796,963.117737 
	C1725.762573,983.202881 1706.240723,1000.492676 1682.378052,1012.265442 
	C1669.552734,1018.593018 1656.193481,1022.968079 1641.568604,1021.997253 
	C1626.550415,1021.000427 1616.564331,1011.673645 1616.073853,997.143311 
	C1615.845825,990.387146 1615.997559,983.312561 1617.718262,976.845642 
	C1629.160278,933.841370 1652.827515,898.485413 1686.508423,869.727905 
	C1693.881226,863.432861 1702.172119,858.461487 1712.018066,856.676392 
	C1724.125122,854.481384 1731.179932,861.607727 1727.588745,873.384094 
	C1725.624146,879.826477 1722.683228,886.237915 1718.928345,891.819763 
	C1705.263184,912.134094 1688.877808,928.241516 1661.442261,925.025208 
	C1660.208740,924.880615 1657.991455,925.667236 1657.735229,926.488892 
	C1657.394287,927.582153 1658.146240,929.597961 1659.109375,930.397400 
	C1661.244629,932.169861 1663.662476,934.319336 1666.218262,934.726807 
	C1672.708008,935.761292 1679.427734,936.859497 1685.891113,936.234558 
	C1698.766602,934.989563 1709.966675,928.690125 1720.733521,921.980652 
	C1737.762817,911.368591 1751.840210,897.946960 1759.067749,878.632935 
	C1766.917358,857.655945 1757.427979,840.241943 1735.624390,835.777405 
	C1725.115845,833.625671 1714.726562,834.938110 1704.608765,838.276611 
	C1685.122192,844.706421 1668.630737,856.127563 1653.171143,869.275024 
	C1641.085205,879.553528 1627.843506,887.751770 1611.927368,890.509399 
	C1605.633545,891.599854 1599.209473,891.864441 1592.751343,889.812378 
	C1595.756226,877.892212 1598.827271,866.720581 1597.095703,854.795044 
	C1595.347290,842.753113 1589.014893,834.232117 1579.805054,833.012268 
	C1567.072876,831.325867 1554.556030,837.636169 1548.418335,849.064819 
	C1540.998169,862.881714 1541.305908,876.960632 1548.242310,890.726013 
	C1550.154419,894.520691 1550.226685,897.482727 1548.514771,900.975586 
	C1540.602905,917.118286 1533.356567,933.626770 1524.679810,949.346252 
	C1509.730103,976.430664 1491.797485,1001.478699 1469.313477,1022.937622 
	C1461.514038,1030.381592 1453.516479,1037.924438 1442.414307,1040.381836 
	C1434.782227,1042.071045 1429.652588,1038.240845 1430.163086,1030.399536 
	C1430.501099,1025.208496 1431.858276,1019.780823 1434.056885,1015.064026 
	C1446.931030,987.444763 1460.117554,959.970093 1473.338867,932.514099 
	C1483.095215,912.253357 1493.106934,892.115662 1502.916992,871.880493 
	C1506.291382,864.919739 1504.187622,861.783997 1496.553223,861.992249 
	C1495.220703,862.028564 1493.885986,862.200012 1492.557861,862.152710 
	C1477.887939,861.630554 1468.619141,868.104492 1462.358887,881.770569 
	C1452.935669,902.341553 1442.205566,922.352966 1431.274170,942.185181 
	C1413.721680,974.029846 1394.056519,1004.567078 1370.484619,1032.336548 
	C1365.466309,1038.248779 1358.828003,1043.565186 1351.849976,1046.846069 
	C1342.175903,1051.394287 1333.128662,1044.341675 1333.913818,1033.803223 
	C1334.277832,1028.917358 1335.401855,1023.850464 1337.326660,1019.356140 
	C1352.534546,983.848877 1368.026978,948.463501 1383.413330,913.032593 
	C1388.320312,901.733032 1393.351074,890.481873 1397.973999,879.066406 
	C1400.347290,873.205627 1397.937988,870.089966 1391.598999,870.187683 
	C1387.948853,870.243896 1384.308716,870.970886 1380.659180,871.017212 
	C1370.674561,871.143799 1364.394165,876.126404 1360.139038,884.977722 
	C1341.237915,924.294678 1323.451660,964.209290 1299.136353,1000.678040 
	C1288.607056,1016.470398 1278.961304,1032.999390 1264.710205,1045.850708 
	C1260.166626,1049.947876 1254.502441,1053.625977 1248.712769,1055.339233 
	C1238.064453,1058.490112 1229.251953,1050.777222 1230.075073,1039.778076 
	C1230.390625,1035.561401 1231.761230,1031.296753 1233.341553,1027.328857 
	C1236.296265,1019.909607 1239.750488,1012.689026 1243.004761,1005.389282 
	C1257.310181,973.300171 1271.659058,941.230286 1285.861084,909.095398 
	C1287.221558,906.017151 1289.001831,904.981628 1292.279175,904.922729 
	C1298.261230,904.815369 1304.228394,904.059692 1310.211426,903.786194 
	C1321.256714,903.281311 1329.271729,898.443665 1333.410767,887.933411 
	C1334.746826,884.540100 1338.336060,881.384583 1335.514404,877.365051 
	C1332.601196,873.215088 1328.208984,875.291504 1324.403564,875.509155 
	C1316.686523,875.950562 1308.984009,876.644531 1300.599243,877.286133 
	C1301.325195,875.128967 1301.637817,873.867493 1302.159180,872.699097 
	C1315.051025,843.808228 1327.974121,814.931396 1340.868652,786.041748 
	C1343.989868,779.048706 1347.246216,772.104492 1350.047363,764.983215 
	C1352.854126,757.847412 1350.571777,754.824646 1343.022217,755.150513 
	C1339.370239,755.308105 1335.733032,755.952393 1332.083984,756.002686 
	C1322.006836,756.141541 1315.347778,760.798706 1311.039917,769.978516 
	C1295.615723,802.846375 1279.502686,835.397278 1264.526367,868.464966 
	C1260.292358,877.813843 1255.215698,882.768066 1244.808594,881.954773 
	C1238.595825,881.469177 1234.520142,885.054443 1231.930786,890.475891 
	C1229.921143,894.683228 1227.858032,898.866089 1225.916016,903.104431 
	C1223.587036,908.187073 1224.929810,910.135498 1230.665283,909.874329 
	C1234.843262,909.684143 1239.010132,909.248596 1243.141846,908.925476 
	C1237.396973,922.149902 1232.471558,935.085632 1226.272217,947.378967 
	C1217.278198,965.213745 1207.896851,982.901489 1197.687500,1000.060913 
	C1188.083984,1016.201965 1177.518799,1031.805908 1166.723389,1047.187500 
	C1161.680542,1054.372803 1155.307617,1060.792725 1146.357788,1063.439819 
	C1136.654053,1066.309814 1127.869141,1059.120117 1129.423706,1049.401123 
	C1130.152710,1044.843384 1131.237915,1040.192749 1133.080078,1035.986572 
	C1148.510864,1000.754822 1164.178589,965.626953 1179.722046,930.444458 
	C1184.968506,918.568909 1190.263916,906.707581 1195.138550,894.678345 
	C1197.425781,889.034424 1194.978638,885.988342 1188.879883,886.138245 
	C1184.396118,886.248413 1179.927246,886.957092 1175.443359,887.073486 
	C1164.729858,887.351562 1157.602417,892.260864 1153.951294,902.491699 
	C1151.911621,908.207214 1149.212280,913.687378 1146.260986,920.551270 
	C1146.021118,918.118652 1145.951416,917.160339 1145.829102,916.208740 
	C1143.193237,895.708557 1130.587036,882.460754 1107.942627,883.800720 
	C1092.234375,884.730286 1078.461914,890.752258 1066.001587,899.678772 
	C1040.447632,917.985718 1018.520813,940.169617 1001.128296,966.276794 
	C983.502930,992.733582 967.423340,1020.216187 950.414185,1047.089600 
	C943.472046,1058.057861 936.277100,1068.988647 925.818054,1077.077148 
	C918.205872,1082.963989 909.374146,1083.557129 903.634460,1079.068237 
	C898.039001,1074.692139 897.056885,1067.387573 901.379333,1057.997559 
	C919.623474,1018.363770 938.014709,978.797607 956.307983,939.186340 
	C960.424988,930.271606 964.631714,921.382141 968.286072,912.275879 
	C970.509521,906.735107 968.278992,903.981934 962.288086,904.057312 
	C958.304871,904.107422 954.329224,904.857971 950.347168,904.887512 
	C941.168396,904.955444 935.203186,909.304932 931.114868,917.449951 
	C919.533508,940.523132 907.960144,963.612122 895.755432,986.357849 
	C879.258972,1017.102173 860.102051,1046.145264 837.378174,1072.697266 
	C831.424316,1079.654175 824.856750,1086.237915 815.802490,1089.196289 
	C809.499084,1091.256104 803.418640,1090.169189 798.601318,1085.529541 
	C794.131042,1081.223877 794.338623,1075.666626 796.044128,1070.129272 
	C796.826843,1067.588257 797.704651,1065.056885 798.784851,1062.630371 
	C816.594543,1022.623474 834.408081,982.617981 852.409973,942.697571 
	C853.147888,941.061218 855.635010,939.453979 857.484497,939.216980 
	C863.745605,938.414673 870.088257,938.259338 876.396545,937.811951 
	C883.218567,937.328064 889.890198,935.912964 894.135681,930.100037 
	C897.241272,925.847961 899.632996,920.982971 901.752563,916.133179 
	C903.275696,912.648071 900.835876,909.392334 896.990356,909.127197 
	C895.022156,908.991455 893.017761,909.406128 891.028137,909.550842 
	C883.146606,910.123840 875.264343,910.688354 866.753174,911.301331 
	C867.516052,909.223145 867.892578,907.980225 868.416138,906.802612 
	C881.471558,877.438171 894.543762,848.081238 907.609558,818.721497 
	C910.520752,812.179810 913.599243,805.704956 916.272766,799.067261 
	C919.078308,792.101685 916.570740,788.743225 909.159241,789.160156 
	C904.676575,789.412231 900.203369,789.838318 895.727722,790.208984 
	C887.355652,790.902344 881.488220,794.951050 877.976379,802.741577 
	C873.733582,812.153931 869.101685,821.390564 864.657227,830.712341 
	C852.400024,856.420532 840.034851,882.078491 828.006897,907.893433 
	C825.753174,912.730530 823.579712,916.118225 817.525208,915.262756 
	C814.967651,914.901306 812.251709,915.751404 809.600098,915.945740 
	C804.528381,916.317322 800.749695,918.679138 798.428101,923.195801 
	C795.991211,927.936768 793.607117,932.707458 791.321777,937.523071 
	C789.193970,942.006653 790.576965,944.117126 795.641968,943.938660 
	C800.538025,943.766296 805.423279,943.287659 810.871033,942.904236 
	C810.308838,944.347351 810.060852,945.117126 809.718811,945.842590 
	C801.125366,964.069275 792.623413,982.340149 783.896851,1000.502930 
	C770.066650,1029.287842 753.614624,1056.441528 733.016785,1080.951660 
	C727.428406,1087.601562 721.693665,1094.218506 713.117737,1097.124268 
	C707.130798,1099.152832 701.078552,1098.902466 696.135620,1094.585083 
	C691.169556,1090.247559 691.942078,1084.453979 693.517334,1078.825195 
	C694.232178,1076.270630 695.177917,1073.754883 696.271912,1071.335938 
	C714.181335,1031.736328 732.144714,992.161255 750.060547,952.564514 
	C753.628784,944.678345 757.333557,936.834778 760.441528,928.765930 
	C762.624573,923.098511 760.145142,920.005127 754.106018,920.205078 
	C749.292236,920.364319 744.482910,920.869446 739.689758,921.388794 
	C732.104004,922.210876 726.861694,926.220459 723.518799,933.110046 
	C717.339478,945.845154 710.827698,958.419067 704.664978,971.161987 
	C690.800964,999.828979 675.988159,1027.950928 657.926392,1054.254150 
	C647.652954,1069.215210 637.969238,1084.642700 624.519958,1097.111572 
	C618.670288,1102.534790 612.323242,1106.977295 603.678772,1106.180664 
	C598.020569,1105.659058 594.515259,1102.936768 595.009583,1097.391968 
	C595.680603,1089.864258 596.047180,1081.693115 599.256409,1075.122803 
	C609.110657,1054.948608 620.666687,1035.611816 630.773010,1015.552490 
	C638.842529,999.535767 646.139038,983.095947 653.022522,966.529785 
	C656.356018,958.507202 657.342896,949.704224 654.026123,941.141663 
	C648.679688,927.339539 637.004211,923.224670 623.760315,922.122070 
	C607.402466,920.760193 593.055115,926.844543 579.471924,935.132751 
	C563.274292,945.016174 549.677002,958.036865 535.945190,970.945984 
M412.745972,821.172180 
	C411.607971,821.424133 410.476105,821.709045 409.331055,821.923279 
	C355.772034,831.946289 310.359802,857.017090 275.830231,899.027222 
	C228.089752,957.110291 217.333771,1022.864380 241.087326,1094.101318 
	C245.914520,1108.578125 253.695038,1121.633179 264.358002,1132.779907 
	C266.450134,1134.966797 268.816132,1135.891357 271.420410,1133.895752 
	C274.174438,1131.785278 274.130646,1129.156006 272.192078,1126.437012 
	C270.452606,1123.997314 268.581787,1121.637451 267.012909,1119.091919 
	C253.909927,1097.832764 248.525726,1074.242065 247.238312,1049.716309 
	C245.628128,1019.041443 251.798615,989.734131 265.455597,962.182495 
	C288.346832,916.001831 324.718292,883.191406 369.363190,858.933899 
	C394.516479,845.266968 421.697479,837.641357 450.033936,834.142456 
	C459.312683,832.996704 468.662262,832.424561 477.979462,831.590149 
	C455.862946,854.228821 436.569672,878.357666 419.058533,903.960571 
	C400.653778,930.869812 385.886505,959.781372 372.337280,989.332764 
	C355.959534,1025.053223 339.682465,1060.822144 323.686188,1096.714600 
	C308.972809,1129.728516 294.705078,1162.949463 276.426483,1194.219238 
	C262.194275,1218.566895 245.078003,1240.522339 222.660461,1258.018677 
	C209.447495,1268.331055 195.025238,1276.567505 179.858414,1283.576904 
	C176.940201,1284.925537 175.045975,1286.970337 176.286133,1290.240845 
	C177.444122,1293.294556 179.795441,1293.937134 183.182144,1293.270752 
	C200.486267,1289.865479 216.895294,1283.979614 232.339142,1275.578613 
	C258.345520,1261.431763 279.466187,1241.540649 298.088928,1218.783569 
	C324.516418,1186.489258 345.295502,1150.586548 363.901062,1113.487427 
	C381.888672,1077.620605 398.001587,1040.816528 415.813599,1004.857849 
	C432.741425,970.684204 450.471313,936.894470 468.478088,903.273132 
	C481.063202,879.774780 495.045532,857.074951 512.195251,836.490906 
	C515.132812,832.965088 517.932861,830.796326 523.038086,831.145386 
	C536.645020,832.076050 550.308167,832.856689 563.933167,832.650513 
	C576.035095,832.467407 587.672241,829.538147 597.653015,821.971802 
	C604.215515,816.996765 608.227234,810.697510 606.862732,802.247437 
	C605.518127,793.920898 599.517029,789.579895 592.068359,786.853027 
	C581.685547,783.051941 571.073425,784.083984 560.488586,785.477844 
	C540.086243,788.164612 522.101135,796.969360 506.430267,809.674500 
	C498.013855,816.498108 489.495361,817.695374 479.705963,816.693420 
	C477.227295,816.439758 474.705719,816.082947 472.243256,816.276062 
	C452.693115,817.809082 433.152466,819.463562 412.745972,821.172180 
M1798.448120,1106.174805 
	C1770.166016,1107.078247 1741.848755,1107.386963 1713.611450,1109.051392 
	C1685.058594,1110.734375 1656.513184,1113.127075 1628.093262,1116.346436 
	C1585.963379,1121.118774 1543.873169,1126.377808 1501.901367,1132.376343 
	C1452.355957,1139.456909 1402.888306,1147.143677 1353.507446,1155.297363 
	C1287.062134,1166.268921 1220.830688,1178.558228 1154.323242,1189.122803 
	C1095.050659,1198.537842 1035.593384,1206.875122 976.090881,1214.728516 
	C938.510925,1219.688477 900.732544,1223.252808 862.980469,1226.770386 
	C825.714050,1230.242676 788.393372,1233.234009 751.050049,1235.745850 
	C722.493042,1237.666870 693.875305,1239.052002 665.262817,1239.673462 
	C639.462280,1240.234131 613.603210,1240.128174 587.822510,1239.054199 
	C557.583557,1237.794678 527.277161,1236.256836 497.231659,1232.816650 
	C470.363617,1229.740356 443.658142,1224.631470 417.180176,1219.009644 
	C403.132538,1216.027100 389.686768,1210.145630 376.049408,1205.345215 
	C373.108734,1204.310059 370.261902,1204.026367 369.389557,1207.024170 
	C368.853455,1208.866577 370.484711,1211.605347 371.711182,1213.590454 
	C372.392365,1214.693115 374.179382,1215.242676 375.573273,1215.755127 
	C393.046021,1222.178955 410.228394,1229.641357 428.088867,1234.710693 
	C466.751038,1245.683594 506.408539,1251.967896 546.445312,1254.918579 
	C586.922913,1257.901855 627.476318,1260.487183 668.039795,1261.482300 
	C702.475037,1262.326904 736.982239,1261.003174 771.437988,1259.979370 
	C794.714783,1259.287842 818.011963,1258.061157 841.203308,1255.990479 
	C880.455444,1252.485840 919.692078,1248.636353 958.821228,1243.975464 
	C996.132690,1239.530884 1033.392578,1234.458252 1070.504639,1228.584595 
	C1116.650879,1221.281128 1162.690918,1213.247437 1208.651611,1204.844604 
	C1265.906250,1194.376709 1323.005371,1183.061890 1380.225220,1172.400513 
	C1414.882446,1165.943359 1449.601440,1159.795044 1484.365479,1153.940552 
	C1518.961914,1148.114136 1553.611328,1142.573120 1588.309204,1137.387085 
	C1616.098877,1133.233521 1643.951782,1129.421631 1671.858521,1126.157593 
	C1697.294800,1123.182617 1722.823975,1120.951660 1748.343140,1118.751099 
	C1778.225464,1116.174316 1808.180786,1114.925049 1838.068481,1118.240112 
	C1846.205322,1119.142578 1854.171265,1122.023682 1862.057983,1124.499023 
	C1864.701660,1125.328857 1867.452515,1127.106079 1866.409790,1131.251099 
	C1866.080811,1132.558716 1867.791504,1134.379517 1868.568848,1135.965576 
	C1870.192505,1134.885620 1872.535889,1134.169434 1873.301147,1132.655518 
	C1875.372192,1128.557495 1873.506348,1122.596558 1868.611328,1119.680298 
	C1863.388306,1116.568726 1857.706421,1113.236084 1851.865601,1112.339233 
	C1834.481323,1109.669800 1816.920654,1108.149048 1798.448120,1106.174805 
M974.468384,864.721313 
	C993.721497,863.082031 1004.673706,851.508789 1010.217468,834.098022 
	C1014.224243,821.514465 1008.255005,814.248901 995.256348,813.717712 
	C975.231934,812.899231 959.219788,833.557800 958.092896,849.476074 
	C957.488342,858.015686 961.634216,862.810608 970.197632,864.143250 
	C971.346619,864.322021 972.490784,864.530945 974.468384,864.721313 
M800.018738,856.392334 
	C800.955750,853.558167 802.198730,850.784790 802.775452,847.879089 
	C804.972351,836.810181 799.393372,830.423584 788.158691,829.853027 
	C767.432129,828.800415 751.736206,848.966248 750.090759,865.253174 
	C749.329712,872.786377 752.425659,878.066406 758.797668,879.604370 
	C762.725159,880.552185 767.086914,880.894348 771.055298,880.262634 
	C784.907715,878.057861 793.604614,869.062866 800.018738,856.392334 
M1404.509521,830.903992 
	C1424.583496,830.363647 1438.084229,812.754639 1440.836548,797.936707 
	C1442.976074,786.418823 1437.364014,780.031189 1425.752563,779.926941 
	C1409.188477,779.778259 1393.518066,792.759583 1388.989746,810.381348 
	C1385.704224,823.166443 1390.349854,829.673950 1404.509521,830.903992 
z"/>
<path fill="#F6F5F3" opacity="1.000000" stroke="none" 
	d="
M1079.985107,1061.982422 
	C1073.996094,1069.296997 1068.149170,1076.734009 1061.985840,1083.898682 
	C1051.753540,1095.793823 1041.019043,1107.222534 1027.213623,1115.112305 
	C1015.569824,1121.766724 1003.197632,1125.459717 989.936829,1120.769897 
	C973.424744,1114.930054 964.964050,1101.846924 961.241272,1085.648315 
	C959.329407,1077.329468 959.245544,1068.590576 958.321777,1059.910522 
	C953.883484,1066.082886 949.409790,1072.584473 944.650696,1078.869873 
	C931.437439,1096.320679 917.497742,1113.102905 898.623047,1124.865234 
	C889.844849,1130.335693 880.411316,1134.032471 869.783081,1132.324219 
	C856.753662,1130.229980 847.639099,1121.267700 846.153137,1108.179199 
	C845.308899,1100.742676 846.000610,1093.131836 846.000610,1085.526001 
	C841.490479,1090.803955 836.867371,1096.401855 832.043640,1101.821167 
	C820.924683,1114.313232 808.988464,1125.899536 794.229858,1134.113647 
	C785.489380,1138.978149 776.217529,1142.115723 766.037170,1140.377930 
	C751.068665,1137.822754 740.661316,1125.873901 739.999695,1110.606934 
	C739.771851,1105.349854 739.963440,1100.074707 739.963440,1095.294678 
	C734.664978,1101.432495 728.985657,1108.337891 722.957336,1114.923584 
	C712.126160,1126.756226 700.694458,1137.965210 685.978088,1144.991943 
	C674.118164,1150.654785 662.137878,1150.559326 651.461487,1142.646484 
	C640.483398,1134.510010 637.084717,1122.712769 638.494690,1109.387939 
	C638.661438,1107.812500 638.878174,1106.242310 638.190002,1104.235962 
	C635.450256,1107.475830 632.779358,1110.776855 629.958679,1113.944580 
	C618.748901,1126.533936 607.130432,1138.685181 592.710571,1147.736816 
	C585.151489,1152.481812 577.111877,1156.134888 568.122375,1156.840210 
	C546.148682,1158.564331 532.529846,1142.769897 535.317017,1120.365356 
	C538.437317,1095.282837 549.452454,1073.394653 560.983948,1051.568604 
	C570.702637,1033.173706 580.514832,1014.820862 589.766907,996.191833 
	C592.217712,991.257141 593.295776,985.443115 594.024231,979.904053 
	C594.807556,973.947937 592.265808,971.764282 586.123840,971.928101 
	C576.941589,972.172913 569.030640,976.198853 561.611267,981.034424 
	C539.505249,995.441956 522.529724,1014.960022 509.928619,1037.736816 
	C499.160034,1057.201294 490.497101,1077.844604 481.186523,1098.096924 
	C474.582092,1112.462891 468.255127,1126.964722 462.175995,1141.560791 
	C458.154358,1151.216797 452.114899,1157.278076 440.952972,1157.365356 
	C433.821350,1157.421265 426.706207,1158.639648 419.566833,1158.951538 
	C413.796021,1159.203369 411.583496,1156.172974 413.447754,1150.682007 
	C414.726593,1146.915405 416.557037,1143.323853 418.286682,1139.724243 
	C441.222687,1091.990845 464.189392,1044.272095 487.136993,996.544312 
	C494.497131,981.236267 501.934113,965.963623 509.121948,950.574829 
	C512.997742,942.276978 519.263855,938.171265 528.350159,937.956360 
	C532.167419,937.866150 535.970520,937.188477 539.788025,937.090698 
	C546.483826,936.919312 548.772705,939.867859 546.286560,946.194824 
	C543.490601,953.309937 540.000793,960.152161 536.826294,967.119202 
	C536.413574,968.024902 536.080200,968.966797 535.471924,970.422974 
	C535.122437,971.268311 535.011108,971.582458 534.683899,972.017822 
	C534.485168,972.549805 534.502258,972.960632 534.519409,973.371399 
	C534.730957,972.966797 534.942505,972.562134 535.395630,972.098145 
	C535.851685,971.786987 536.066162,971.535156 536.280640,971.283325 
	C549.677002,958.036865 563.274292,945.016174 579.471924,935.132751 
	C593.055115,926.844543 607.402466,920.760193 623.760315,922.122070 
	C637.004211,923.224670 648.679688,927.339539 654.026123,941.141663 
	C657.342896,949.704224 656.356018,958.507202 653.022522,966.529785 
	C646.139038,983.095947 638.842529,999.535767 630.773010,1015.552490 
	C620.666687,1035.611816 609.110657,1054.948608 599.256409,1075.122803 
	C596.047180,1081.693115 595.680603,1089.864258 595.009583,1097.391968 
	C594.515259,1102.936768 598.020569,1105.659058 603.678772,1106.180664 
	C612.323242,1106.977295 618.670288,1102.534790 624.519958,1097.111572 
	C637.969238,1084.642700 647.652954,1069.215210 657.926392,1054.254150 
	C675.988159,1027.950928 690.800964,999.828979 704.664978,971.161987 
	C710.827698,958.419067 717.339478,945.845154 723.518799,933.110046 
	C726.861694,926.220459 732.104004,922.210876 739.689758,921.388794 
	C744.482910,920.869446 749.292236,920.364319 754.106018,920.205078 
	C760.145142,920.005127 762.624573,923.098511 760.441528,928.765930 
	C757.333557,936.834778 753.628784,944.678345 750.060547,952.564514 
	C732.144714,992.161255 714.181335,1031.736328 696.271912,1071.335938 
	C695.177917,1073.754883 694.232178,1076.270630 693.517334,1078.825195 
	C691.942078,1084.453979 691.169556,1090.247559 696.135620,1094.585083 
	C701.078552,1098.902466 707.130798,1099.152832 713.117737,1097.124268 
	C721.693665,1094.218506 727.428406,1087.601562 733.016785,1080.951660 
	C753.614624,1056.441528 770.066650,1029.287842 783.896851,1000.502930 
	C792.623413,982.340149 801.125366,964.069275 809.718811,945.842590 
	C810.060852,945.117126 810.308838,944.347351 810.871033,942.904236 
	C805.423279,943.287659 800.538025,943.766296 795.641968,943.938660 
	C790.576965,944.117126 789.193970,942.006653 791.321777,937.523071 
	C793.607117,932.707458 795.991211,927.936768 798.428101,923.195801 
	C800.749695,918.679138 804.528381,916.317322 809.600098,915.945740 
	C812.251709,915.751404 814.967651,914.901306 817.525208,915.262756 
	C823.579712,916.118225 825.753174,912.730530 828.006897,907.893433 
	C840.034851,882.078491 852.400024,856.420532 864.657227,830.712341 
	C869.101685,821.390564 873.733582,812.153931 877.976379,802.741577 
	C881.488220,794.951050 887.355652,790.902344 895.727722,790.208984 
	C900.203369,789.838318 904.676575,789.412231 909.159241,789.160156 
	C916.570740,788.743225 919.078308,792.101685 916.272766,799.067261 
	C913.599243,805.704956 910.520752,812.179810 907.609558,818.721497 
	C894.543762,848.081238 881.471558,877.438171 868.416138,906.802612 
	C867.892578,907.980225 867.516052,909.223145 866.753174,911.301331 
	C875.264343,910.688354 883.146606,910.123840 891.028137,909.550842 
	C893.017761,909.406128 895.022156,908.991455 896.990356,909.127197 
	C900.835876,909.392334 903.275696,912.648071 901.752563,916.133179 
	C899.632996,920.982971 897.241272,925.847961 894.135681,930.100037 
	C889.890198,935.912964 883.218567,937.328064 876.396545,937.811951 
	C870.088257,938.259338 863.745605,938.414673 857.484497,939.216980 
	C855.635010,939.453979 853.147888,941.061218 852.409973,942.697571 
	C834.408081,982.617981 816.594543,1022.623474 798.784851,1062.630371 
	C797.704651,1065.056885 796.826843,1067.588257 796.044128,1070.129272 
	C794.338623,1075.666626 794.131042,1081.223877 798.601318,1085.529541 
	C803.418640,1090.169189 809.499084,1091.256104 815.802490,1089.196289 
	C824.856750,1086.237915 831.424316,1079.654175 837.378174,1072.697266 
	C860.102051,1046.145264 879.258972,1017.102173 895.755432,986.357849 
	C907.960144,963.612122 919.533508,940.523132 931.114868,917.449951 
	C935.203186,909.304932 941.168396,904.955444 950.347168,904.887512 
	C954.329224,904.857971 958.304871,904.107422 962.288086,904.057312 
	C968.278992,903.981934 970.509521,906.735107 968.286072,912.275879 
	C964.631714,921.382141 960.424988,930.271606 956.307983,939.186340 
	C938.014709,978.797607 919.623474,1018.363770 901.379333,1057.997559 
	C897.056885,1067.387573 898.039001,1074.692139 903.634460,1079.068237 
	C909.374146,1083.557129 918.205872,1082.963989 925.818054,1077.077148 
	C936.277100,1068.988647 943.472046,1058.057861 950.414185,1047.089600 
	C967.423340,1020.216187 983.502930,992.733582 1001.128296,966.276794 
	C1018.520813,940.169617 1040.447632,917.985718 1066.001587,899.678772 
	C1078.461914,890.752258 1092.234375,884.730286 1107.942627,883.800720 
	C1130.587036,882.460754 1143.193237,895.708557 1145.829102,916.208740 
	C1145.951416,917.160339 1146.021118,918.118652 1146.260986,920.551270 
	C1149.212280,913.687378 1151.911621,908.207214 1153.951294,902.491699 
	C1157.602417,892.260864 1164.729858,887.351562 1175.443359,887.073486 
	C1179.927246,886.957092 1184.396118,886.248413 1188.879883,886.138245 
	C1194.978638,885.988342 1197.425781,889.034424 1195.138550,894.678345 
	C1190.263916,906.707581 1184.968506,918.568909 1179.722046,930.444458 
	C1164.178589,965.626953 1148.510864,1000.754822 1133.080078,1035.986572 
	C1131.237915,1040.192749 1130.152710,1044.843384 1129.423706,1049.401123 
	C1127.869141,1059.120117 1136.654053,1066.309814 1146.357788,1063.439819 
	C1155.307617,1060.792725 1161.680542,1054.372803 1166.723389,1047.187500 
	C1177.518799,1031.805908 1188.083984,1016.201965 1197.687500,1000.060913 
	C1207.896851,982.901489 1217.278198,965.213745 1226.272217,947.378967 
	C1232.471558,935.085632 1237.396973,922.149902 1243.141846,908.925476 
	C1239.010132,909.248596 1234.843262,909.684143 1230.665283,909.874329 
	C1224.929810,910.135498 1223.587036,908.187073 1225.916016,903.104431 
	C1227.858032,898.866089 1229.921143,894.683228 1231.930786,890.475891 
	C1234.520142,885.054443 1238.595825,881.469177 1244.808594,881.954773 
	C1255.215698,882.768066 1260.292358,877.813843 1264.526367,868.464966 
	C1279.502686,835.397278 1295.615723,802.846375 1311.039917,769.978516 
	C1315.347778,760.798706 1322.006836,756.141541 1332.083984,756.002686 
	C1335.733032,755.952393 1339.370239,755.308105 1343.022217,755.150513 
	C1350.571777,754.824646 1352.854126,757.847412 1350.047363,764.983215 
	C1347.246216,772.104492 1343.989868,779.048706 1340.868652,786.041748 
	C1327.974121,814.931396 1315.051025,843.808228 1302.159180,872.699097 
	C1301.637817,873.867493 1301.325195,875.128967 1300.599243,877.286133 
	C1308.984009,876.644531 1316.686523,875.950562 1324.403564,875.509155 
	C1328.208984,875.291504 1332.601196,873.215088 1335.514404,877.365051 
	C1338.336060,881.384583 1334.746826,884.540100 1333.410767,887.933411 
	C1329.271729,898.443665 1321.256714,903.281311 1310.211426,903.786194 
	C1304.228394,904.059692 1298.261230,904.815369 1292.279175,904.922729 
	C1289.001831,904.981628 1287.221558,906.017151 1285.861084,909.095398 
	C1271.659058,941.230286 1257.310181,973.300171 1243.004761,1005.389282 
	C1239.750488,1012.689026 1236.296265,1019.909607 1233.341553,1027.328857 
	C1231.761230,1031.296753 1230.390625,1035.561401 1230.075073,1039.778076 
	C1229.251953,1050.777222 1238.064453,1058.490112 1248.712769,1055.339233 
	C1254.502441,1053.625977 1260.166626,1049.947876 1264.710205,1045.850708 
	C1278.961304,1032.999390 1288.607056,1016.470398 1299.136353,1000.678040 
	C1323.451660,964.209290 1341.237915,924.294678 1360.139038,884.977722 
	C1364.394165,876.126404 1370.674561,871.143799 1380.659180,871.017212 
	C1384.308716,870.970886 1387.948853,870.243896 1391.598999,870.187683 
	C1397.937988,870.089966 1400.347290,873.205627 1397.973999,879.066406 
	C1393.351074,890.481873 1388.320312,901.733032 1383.413330,913.032593 
	C1368.026978,948.463501 1352.534546,983.848877 1337.326660,1019.356140 
	C1335.401855,1023.850464 1334.277832,1028.917358 1333.913818,1033.803223 
	C1333.128662,1044.341675 1342.175903,1051.394287 1351.849976,1046.846069 
	C1358.828003,1043.565186 1365.466309,1038.248779 1370.484619,1032.336548 
	C1394.056519,1004.567078 1413.721680,974.029846 1431.274170,942.185181 
	C1442.205566,922.352966 1452.935669,902.341553 1462.358887,881.770569 
	C1468.619141,868.104492 1477.887939,861.630554 1492.557861,862.152710 
	C1493.885986,862.200012 1495.220703,862.028564 1496.553223,861.992249 
	C1504.187622,861.783997 1506.291382,864.919739 1502.916992,871.880493 
	C1493.106934,892.115662 1483.095215,912.253357 1473.338867,932.514099 
	C1460.117554,959.970093 1446.931030,987.444763 1434.056885,1015.064026 
	C1431.858276,1019.780823 1430.501099,1025.208496 1430.163086,1030.399536 
	C1429.652588,1038.240845 1434.782227,1042.071045 1442.414307,1040.381836 
	C1453.516479,1037.924438 1461.514038,1030.381592 1469.313477,1022.937622 
	C1491.797485,1001.478699 1509.730103,976.430664 1524.679810,949.346252 
	C1533.356567,933.626770 1540.602905,917.118286 1548.514771,900.975586 
	C1550.226685,897.482727 1550.154419,894.520691 1548.242310,890.726013 
	C1541.305908,876.960632 1540.998169,862.881714 1548.418335,849.064819 
	C1554.556030,837.636169 1567.072876,831.325867 1579.805054,833.012268 
	C1589.014893,834.232117 1595.347290,842.753113 1597.095703,854.795044 
	C1598.827271,866.720581 1595.756226,877.892212 1592.751343,889.812378 
	C1599.209473,891.864441 1605.633545,891.599854 1611.927368,890.509399 
	C1627.843506,887.751770 1641.085205,879.553528 1653.171143,869.275024 
	C1668.630737,856.127563 1685.122192,844.706421 1704.608765,838.276611 
	C1714.726562,834.938110 1725.115845,833.625671 1735.624390,835.777405 
	C1757.427979,840.241943 1766.917358,857.655945 1759.067749,878.632935 
	C1751.840210,897.946960 1737.762817,911.368591 1720.733521,921.980652 
	C1709.966675,928.690125 1698.766602,934.989563 1685.891113,936.234558 
	C1679.427734,936.859497 1672.708008,935.761292 1666.218262,934.726807 
	C1663.662476,934.319336 1661.244629,932.169861 1659.109375,930.397400 
	C1658.146240,929.597961 1657.394287,927.582153 1657.735229,926.488892 
	C1657.991455,925.667236 1660.208740,924.880615 1661.442261,925.025208 
	C1688.877808,928.241516 1705.263184,912.134094 1718.928345,891.819763 
	C1722.683228,886.237915 1725.624146,879.826477 1727.588745,873.384094 
	C1731.179932,861.607727 1724.125122,854.481384 1712.018066,856.676392 
	C1702.172119,858.461487 1693.881226,863.432861 1686.508423,869.727905 
	C1652.827515,898.485413 1629.160278,933.841370 1617.718262,976.845642 
	C1615.997559,983.312561 1615.845825,990.387146 1616.073853,997.143311 
	C1616.564331,1011.673645 1626.550415,1021.000427 1641.568604,1021.997253 
	C1656.193481,1022.968079 1669.552734,1018.593018 1682.378052,1012.265442 
	C1706.240723,1000.492676 1725.762573,983.202881 1742.815796,963.117737 
	C1751.095703,953.365784 1758.246338,942.660828 1766.112061,932.545654 
	C1767.330811,930.978455 1769.644653,930.262939 1771.452026,929.153442 
	C1771.688843,931.289734 1772.808350,933.852112 1772.016724,935.492065 
	C1767.464844,944.922180 1762.862061,954.371704 1757.531006,963.373230 
	C1743.472046,987.112183 1726.941895,1009.079285 1707.421753,1028.587524 
	C1690.615112,1045.383911 1672.348999,1060.375854 1649.587280,1068.716675 
	C1602.205933,1086.079224 1570.987915,1050.831421 1569.951294,1014.941040 
	C1569.402954,995.957581 1575.126587,978.510132 1582.765869,961.531494 
	C1591.081177,943.050293 1602.003418,926.151489 1614.390625,910.164978 
	C1615.554810,908.662659 1616.675781,907.126892 1617.549927,905.144531 
	C1607.377075,909.117554 1596.998047,909.401672 1586.474243,909.009827 
	C1585.138184,908.960083 1583.296753,910.961121 1582.396484,912.441956 
	C1567.525635,936.902710 1553.448364,961.876709 1537.801025,985.826050 
	C1520.921631,1011.660583 1501.395020,1035.559570 1478.709351,1056.659546 
	C1465.096924,1069.320435 1450.460327,1080.575073 1432.737915,1087.018188 
	C1421.059204,1091.264160 1409.492310,1092.211304 1399.284058,1083.398682 
	C1390.307129,1075.648926 1386.537476,1065.337646 1386.032593,1053.715576 
	C1385.873901,1050.063843 1386.007812,1046.399292 1386.007812,1041.249146 
	C1384.188965,1043.590454 1383.048218,1044.999756 1381.970093,1046.455688 
	C1369.545654,1063.234985 1356.739136,1079.641724 1338.645874,1090.890503 
	C1330.053711,1096.232422 1320.844238,1099.404419 1310.633179,1097.555420 
	C1297.108276,1095.106201 1286.322388,1082.694336 1284.080566,1067.205078 
	C1283.331665,1062.030884 1283.129272,1056.777710 1282.613159,1050.822510 
	C1276.796143,1057.884277 1271.528809,1064.648560 1265.871094,1071.068970 
	C1254.558960,1083.905884 1242.068237,1095.319946 1226.193970,1102.436279 
	C1217.708496,1106.240234 1208.861328,1107.523438 1199.874878,1105.244385 
	C1188.110352,1102.261108 1178.538574,1089.668823 1177.063965,1075.769531 
	C1176.507812,1070.526855 1176.482300,1065.227905 1176.193481,1059.529053 
	C1173.838257,1062.629517 1171.464355,1065.805664 1169.037598,1068.940796 
	C1157.247314,1084.173096 1144.646362,1098.695801 1127.339600,1107.826172 
	C1121.003540,1111.168945 1113.720825,1113.182861 1106.627930,1114.503662 
	C1098.305420,1116.053467 1088.830566,1108.686279 1084.026367,1098.538330 
	C1078.602783,1087.082031 1078.122070,1075.131226 1080.296021,1062.427856 
	C1080.398315,1061.759766 1080.380005,1061.551392 1080.361572,1061.343018 
	C1080.236084,1061.556152 1080.110596,1061.769287 1079.985107,1061.982422 
M1122.151733,952.602051 
	C1124.091309,943.239929 1125.281250,933.855408 1122.336548,924.480774 
	C1120.128418,917.451172 1116.298340,914.417480 1109.086670,914.910034 
	C1104.864014,915.198486 1100.450684,916.110779 1096.599976,917.817932 
	C1083.035522,923.831604 1072.698242,934.015869 1063.279175,945.148865 
	C1042.304199,969.940674 1026.028564,997.462158 1015.787659,1028.374878 
	C1012.742493,1037.567017 1010.816528,1046.964722 1011.880798,1056.808716 
	C1013.345520,1070.356201 1023.267700,1076.543823 1035.687866,1071.074219 
	C1040.528687,1068.942383 1045.252563,1066.275757 1049.516357,1063.152100 
	C1063.052368,1053.235840 1074.445679,1041.073364 1084.598267,1027.792847 
	C1101.732544,1005.379333 1115.764648,981.349670 1122.151733,952.602051 
z"/>
<path fill="#F6F5F3" opacity="1.000000" stroke="none" 
	d="
M413.177429,821.126465 
	C433.152466,819.463562 452.693115,817.809082 472.243256,816.276062 
	C474.705719,816.082947 477.227295,816.439758 479.705963,816.693420 
	C489.495361,817.695374 498.013855,816.498108 506.430267,809.674500 
	C522.101135,796.969360 540.086243,788.164612 560.488586,785.477844 
	C571.073425,784.083984 581.685547,783.051941 592.068359,786.853027 
	C599.517029,789.579895 605.518127,793.920898 606.862732,802.247437 
	C608.227234,810.697510 604.215515,816.996765 597.653015,821.971802 
	C587.672241,829.538147 576.035095,832.467407 563.933167,832.650513 
	C550.308167,832.856689 536.645020,832.076050 523.038086,831.145386 
	C517.932861,830.796326 515.132812,832.965088 512.195251,836.490906 
	C495.045532,857.074951 481.063202,879.774780 468.478088,903.273132 
	C450.471313,936.894470 432.741425,970.684204 415.813599,1004.857849 
	C398.001587,1040.816528 381.888672,1077.620605 363.901062,1113.487427 
	C345.295502,1150.586548 324.516418,1186.489258 298.088928,1218.783569 
	C279.466187,1241.540649 258.345520,1261.431763 232.339142,1275.578613 
	C216.895294,1283.979614 200.486267,1289.865479 183.182144,1293.270752 
	C179.795441,1293.937134 177.444122,1293.294556 176.286133,1290.240845 
	C175.045975,1286.970337 176.940201,1284.925537 179.858414,1283.576904 
	C195.025238,1276.567505 209.447495,1268.331055 222.660461,1258.018677 
	C245.078003,1240.522339 262.194275,1218.566895 276.426483,1194.219238 
	C294.705078,1162.949463 308.972809,1129.728516 323.686188,1096.714600 
	C339.682465,1060.822144 355.959534,1025.053223 372.337280,989.332764 
	C385.886505,959.781372 400.653778,930.869812 419.058533,903.960571 
	C436.569672,878.357666 455.862946,854.228821 477.979462,831.590149 
	C468.662262,832.424561 459.312683,832.996704 450.033936,834.142456 
	C421.697479,837.641357 394.516479,845.266968 369.363190,858.933899 
	C324.718292,883.191406 288.346832,916.001831 265.455597,962.182495 
	C251.798615,989.734131 245.628128,1019.041443 247.238312,1049.716309 
	C248.525726,1074.242065 253.909927,1097.832764 267.012909,1119.091919 
	C268.581787,1121.637451 270.452606,1123.997314 272.192078,1126.437012 
	C274.130646,1129.156006 274.174438,1131.785278 271.420410,1133.895752 
	C268.816132,1135.891357 266.450134,1134.966797 264.358002,1132.779907 
	C253.695038,1121.633179 245.914520,1108.578125 241.087326,1094.101318 
	C217.333771,1022.864380 228.089752,957.110291 275.830231,899.027222 
	C310.359802,857.017090 355.772034,831.946289 409.331055,821.923279 
	C410.476105,821.709045 411.607971,821.424133 413.177429,821.126465 
M543.662720,808.142151 
	C539.024658,811.554321 534.386658,814.966553 529.748596,818.378784 
	C530.003174,818.933167 530.257751,819.487549 530.512329,820.041931 
	C543.898682,820.670105 557.286743,821.793030 570.670654,821.744812 
	C578.992188,821.714844 587.250244,819.664124 593.313110,813.032898 
	C598.078369,807.820862 597.065369,802.154846 590.626465,799.374634 
	C587.503174,798.026062 583.938843,797.216736 580.537292,797.079773 
	C567.301941,796.546692 555.442566,801.044739 543.662720,808.142151 
z"/>
<path fill="#F5F5F3" opacity="1.000000" stroke="none" 
	d="
M1798.938477,1106.177002 
	C1816.920654,1108.149048 1834.481323,1109.669800 1851.865601,1112.339233 
	C1857.706421,1113.236084 1863.388306,1116.568726 1868.611328,1119.680298 
	C1873.506348,1122.596558 1875.372192,1128.557495 1873.301147,1132.655518 
	C1872.535889,1134.169434 1870.192505,1134.885620 1868.568848,1135.965576 
	C1867.791504,1134.379517 1866.080811,1132.558716 1866.409790,1131.251099 
	C1867.452515,1127.106079 1864.701660,1125.328857 1862.057983,1124.499023 
	C1854.171265,1122.023682 1846.205322,1119.142578 1838.068481,1118.240112 
	C1808.180786,1114.925049 1778.225464,1116.174316 1748.343140,1118.751099 
	C1722.823975,1120.951660 1697.294800,1123.182617 1671.858521,1126.157593 
	C1643.951782,1129.421631 1616.098877,1133.233521 1588.309204,1137.387085 
	C1553.611328,1142.573120 1518.961914,1148.114136 1484.365479,1153.940552 
	C1449.601440,1159.795044 1414.882446,1165.943359 1380.225220,1172.400513 
	C1323.005371,1183.061890 1265.906250,1194.376709 1208.651611,1204.844604 
	C1162.690918,1213.247437 1116.650879,1221.281128 1070.504639,1228.584595 
	C1033.392578,1234.458252 996.132690,1239.530884 958.821228,1243.975464 
	C919.692078,1248.636353 880.455444,1252.485840 841.203308,1255.990479 
	C818.011963,1258.061157 794.714783,1259.287842 771.437988,1259.979370 
	C736.982239,1261.003174 702.475037,1262.326904 668.039795,1261.482300 
	C627.476318,1260.487183 586.922913,1257.901855 546.445312,1254.918579 
	C506.408539,1251.967896 466.751038,1245.683594 428.088867,1234.710693 
	C410.228394,1229.641357 393.046021,1222.178955 375.573273,1215.755127 
	C374.179382,1215.242676 372.392365,1214.693115 371.711182,1213.590454 
	C370.484711,1211.605347 368.853455,1208.866577 369.389557,1207.024170 
	C370.261902,1204.026367 373.108734,1204.310059 376.049408,1205.345215 
	C389.686768,1210.145630 403.132538,1216.027100 417.180176,1219.009644 
	C443.658142,1224.631470 470.363617,1229.740356 497.231659,1232.816650 
	C527.277161,1236.256836 557.583557,1237.794678 587.822510,1239.054199 
	C613.603210,1240.128174 639.462280,1240.234131 665.262817,1239.673462 
	C693.875305,1239.052002 722.493042,1237.666870 751.050049,1235.745850 
	C788.393372,1233.234009 825.714050,1230.242676 862.980469,1226.770386 
	C900.732544,1223.252808 938.510925,1219.688477 976.090881,1214.728516 
	C1035.593384,1206.875122 1095.050659,1198.537842 1154.323242,1189.122803 
	C1220.830688,1178.558228 1287.062134,1166.268921 1353.507446,1155.297363 
	C1402.888306,1147.143677 1452.355957,1139.456909 1501.901367,1132.376343 
	C1543.873169,1126.377808 1585.963379,1121.118774 1628.093262,1116.346436 
	C1656.513184,1113.127075 1685.058594,1110.734375 1713.611450,1109.051392 
	C1741.848755,1107.386963 1770.166016,1107.078247 1798.938477,1106.177002 
z"/>
<path fill="#F6F5F3" opacity="1.000000" stroke="none" 
	d="
M974.052795,864.723633 
	C972.490784,864.530945 971.346619,864.322021 970.197632,864.143250 
	C961.634216,862.810608 957.488342,858.015686 958.092896,849.476074 
	C959.219788,833.557800 975.231934,812.899231 995.256348,813.717712 
	C1008.255005,814.248901 1014.224243,821.514465 1010.217468,834.098022 
	C1004.673706,851.508789 993.721497,863.082031 974.052795,864.723633 
z"/>
<path fill="#F6F5F3" opacity="1.000000" stroke="none" 
	d="
M799.894043,856.752441 
	C793.604614,869.062866 784.907715,878.057861 771.055298,880.262634 
	C767.086914,880.894348 762.725159,880.552185 758.797668,879.604370 
	C752.425659,878.066406 749.329712,872.786377 750.090759,865.253174 
	C751.736206,848.966248 767.432129,828.800415 788.158691,829.853027 
	C799.393372,830.423584 804.972351,836.810181 802.775452,847.879089 
	C802.198730,850.784790 800.955750,853.558167 799.894043,856.752441 
z"/>
<path fill="#F6F5F3" opacity="1.000000" stroke="none" 
	d="
M1404.074463,830.903198 
	C1390.349854,829.673950 1385.704224,823.166443 1388.989746,810.381348 
	C1393.518066,792.759583 1409.188477,779.778259 1425.752563,779.926941 
	C1437.364014,780.031189 1442.976074,786.418823 1440.836548,797.936707 
	C1438.084229,812.754639 1424.583496,830.363647 1404.074463,830.903198 
z"/>
<path fill="#5FC7EB" opacity="1.000000" stroke="none" 
	d="
M1122.100830,953.023926 
	C1115.764648,981.349670 1101.732544,1005.379333 1084.598267,1027.792847 
	C1074.445679,1041.073364 1063.052368,1053.235840 1049.516357,1063.152100 
	C1045.252563,1066.275757 1040.528687,1068.942383 1035.687866,1071.074219 
	C1023.267700,1076.543823 1013.345520,1070.356201 1011.880798,1056.808716 
	C1010.816528,1046.964722 1012.742493,1037.567017 1015.787659,1028.374878 
	C1026.028564,997.462158 1042.304199,969.940674 1063.279175,945.148865 
	C1072.698242,934.015869 1083.035522,923.831604 1096.599976,917.817932 
	C1100.450684,916.110779 1104.864014,915.198486 1109.086670,914.910034 
	C1116.298340,914.417480 1120.128418,917.451172 1122.336548,924.480774 
	C1125.281250,933.855408 1124.091309,943.239929 1122.100830,953.023926 
z"/>
<path fill="#5EC7EB" opacity="1.000000" stroke="none" 
	d="
M535.154114,972.157532 
	C534.942505,972.562134 534.730957,972.966797 534.519409,973.371399 
	C534.502258,972.960632 534.485168,972.549805 534.747681,972.082886 
	C535.027283,972.026794 535.154114,972.157532 535.154114,972.157532 
z"/>
<path fill="#5EC7EB" opacity="1.000000" stroke="none" 
	d="
M534.963501,971.961731 
	C535.011108,971.582458 535.122437,971.268311 535.421997,970.784058 
	C535.610229,970.613953 535.945190,970.945984 536.112915,971.114624 
	C536.066162,971.535156 535.851685,971.786987 535.395630,972.098145 
	C535.154114,972.157532 535.027283,972.026794 534.963501,971.961731 
z"/>
<path fill="#5EC7EB" opacity="1.000000" stroke="none" 
	d="
M1079.994263,1061.992798 
	C1080.110596,1061.769287 1080.236084,1061.556152 1080.361572,1061.343018 
	C1080.380005,1061.551392 1080.398315,1061.759766 1080.220947,1061.995239 
	C1080.025146,1062.022339 1080.003418,1062.003174 1079.994263,1061.992798 
z"/>
<path fill="#61C8EB" opacity="1.000000" stroke="none" 
	d="
M543.981628,807.967590 
	C555.442566,801.044739 567.301941,796.546692 580.537292,797.079773 
	C583.938843,797.216736 587.503174,798.026062 590.626465,799.374634 
	C597.065369,802.154846 598.078369,807.820862 593.313110,813.032898 
	C587.250244,819.664124 578.992188,821.714844 570.670654,821.744812 
	C557.286743,821.793030 543.898682,820.670105 530.512329,820.041931 
	C530.257751,819.487549 530.003174,818.933167 529.748596,818.378784 
	C534.386658,814.966553 539.024658,811.554321 543.981628,807.967590 
z"/>
</svg>