<svg version="1.1" id="Layer_1" xmlns="http://www.w3.org/2000/svg" xmlns:xlink="http://www.w3.org/1999/xlink" x="0px" y="0px"
	 width="100%" viewBox="0 0 976 832" enable-background="new 0 0 976 832" xml:space="preserve">
<path fill="#000000" opacity="1.000000" stroke="none" 
	d="
M532.788574,446.000000 
	C532.784424,419.681335 532.903381,393.861572 532.673523,368.044922 
	C532.627808,362.916626 534.305420,361.532928 539.280823,361.601074 
	C558.932800,361.870178 578.591248,361.627991 598.245117,361.807556 
	C607.092102,361.888367 615.809692,363.139465 624.190002,366.276550 
	C645.019226,374.073761 654.636047,392.346161 653.651367,413.530701 
	C652.844788,430.883972 643.985291,443.170105 629.416199,451.828278 
	C628.001282,452.669098 626.580872,453.500702 624.483826,454.737030 
	C635.647522,471.021179 646.673157,487.104034 657.618164,503.069183 
	C655.923157,505.008270 654.168518,504.841003 652.561768,504.843353 
	C642.908264,504.857544 633.254578,504.769775 623.600952,504.770264 
	C621.071655,504.770416 619.770264,503.230713 618.503296,501.349915 
	C610.408508,489.333435 602.171814,477.411469 594.189941,465.320953 
	C592.221985,462.339996 590.045410,460.985626 586.441101,461.168915 
	C581.290833,461.430817 576.096558,461.511932 570.959290,461.140503 
	C566.174561,460.794647 565.010315,462.775543 565.119934,467.210236 
	C565.383362,477.864471 565.078064,488.532196 565.293823,499.188538 
	C565.376709,503.283417 563.855652,504.938629 559.834351,504.882294 
	C552.506897,504.779572 545.175232,504.773560 537.848511,504.904510 
	C533.947083,504.974213 532.690674,503.287292 532.721741,499.469391 
	C532.865295,481.813904 532.787598,464.156647 532.788574,446.000000 
M584.498596,389.266785 
	C579.508484,389.267731 574.514526,389.387909 569.529602,389.227234 
	C566.265808,389.122070 565.133179,390.463654 565.177979,393.651398 
	C565.304321,402.631805 565.149841,411.616028 565.256775,420.596954 
	C565.309631,425.029510 564.706238,429.511963 565.815063,434.358887 
	C578.701904,434.602112 591.524719,435.677155 604.139038,433.142853 
	C615.082703,430.944183 621.092468,422.696320 621.011658,411.542938 
	C620.930176,400.300171 615.179932,393.051331 604.362488,390.293457 
	C598.119751,388.701843 591.789490,389.509583 584.498596,389.266785 
z"/>
<path fill="#000000" opacity="1.000000" stroke="none" 
	d="
M297.964966,476.729858 
	C309.543243,476.834991 308.257385,475.642303 308.338562,486.650482 
	C308.370483,490.982147 308.105682,495.329803 308.397644,499.641632 
	C308.674225,503.725616 306.770020,504.940796 303.117035,504.870300 
	C298.620453,504.783569 294.120575,504.874451 289.622131,504.875000 
	C260.798340,504.878510 231.974564,504.888000 203.150772,504.872498 
	C196.294662,504.868835 196.039932,504.615997 196.037003,497.941620 
	C196.018250,455.122498 196.009048,412.303345 196.016922,369.484222 
	C196.018356,361.720490 196.061478,361.715027 203.742798,361.713867 
	C234.732529,361.709167 265.722870,361.803741 296.711365,361.608307 
	C301.671356,361.577026 303.724640,362.945190 303.348541,368.084167 
	C302.996887,372.889526 303.302582,377.741974 303.294678,382.573669 
	C303.282349,390.107635 303.273621,390.121094 295.917511,390.120056 
	C276.090759,390.117188 256.264038,390.105042 236.437286,390.089600 
	C228.903748,390.083710 228.908356,390.074951 228.908936,397.498016 
	C228.909332,402.662964 229.145920,407.844513 228.805389,412.987427 
	C228.545853,416.906891 230.104919,417.751404 233.687988,417.720367 
	C250.347839,417.575775 267.011719,417.808197 283.669556,417.576965 
	C288.417297,417.511047 290.328705,418.955414 290.052826,423.810425 
	C289.741364,429.291290 289.857452,434.805328 289.995209,440.299744 
	C290.091553,444.142609 288.569824,445.479523 284.659729,445.437622 
	C268.167114,445.260803 251.669403,445.511536 235.178314,445.274353 
	C230.464554,445.206573 228.549240,446.535187 228.827545,451.448761 
	C229.175598,457.593750 228.896408,463.773285 228.924515,469.937714 
	C228.955490,476.727112 228.973557,476.730835 235.993317,476.731323 
	C256.486053,476.732727 276.978760,476.730743 297.964966,476.729858 
z"/>
<path fill="#000000" opacity="1.000000" stroke="none" 
	d="
M145.343201,471.981537 
	C141.196762,491.095062 127.869347,500.410156 110.712898,504.452179 
	C85.105980,510.485138 60.081860,508.670593 36.766960,495.158020 
	C29.727257,491.078003 24.097826,485.436096 19.832891,478.488556 
	C18.795977,476.799408 17.454517,474.936707 19.905516,473.292542 
	C27.204256,468.396454 34.530384,463.541199 42.173943,458.451447 
	C46.170063,463.569641 49.570007,468.488647 54.782158,471.742004 
	C69.814362,481.124847 85.921509,482.838898 102.801231,478.591858 
	C108.351631,477.195343 113.044807,474.299652 113.709984,467.739929 
	C114.378189,461.150238 111.784103,456.873810 104.998756,453.526215 
	C96.087715,449.129852 86.312691,447.626770 76.793114,445.274994 
	C65.280426,442.430786 53.926960,439.228088 44.118477,432.106506 
	C22.688248,416.546753 22.380829,385.906708 43.722725,370.161377 
	C58.390366,359.340027 75.302353,357.492401 92.793198,359.184570 
	C108.465157,360.700684 122.723755,365.638641 133.568436,377.877838 
	C136.014267,380.638153 138.028381,383.680115 139.940186,386.816315 
	C141.280472,389.014923 140.793289,390.532349 138.561203,391.673645 
	C131.441254,395.314178 124.309883,398.933624 117.233971,402.658203 
	C115.094925,403.784149 113.853004,403.151093 112.803383,401.198273 
	C105.759872,388.094086 86.805199,382.367523 70.935280,387.238129 
	C65.502762,388.905334 61.183907,391.776886 60.404430,397.918945 
	C59.612152,404.161926 63.249779,407.901123 68.255180,410.606995 
	C76.122810,414.860229 84.847679,416.520691 93.404640,418.626129 
	C104.084938,421.253998 114.786270,423.762024 124.610374,428.964233 
	C140.871658,437.575165 148.747559,453.700287 145.343201,471.981537 
z"/>
<path fill="#000000" opacity="1.000000" stroke="none" 
	d="
M700.628052,410.005157 
	C696.404663,389.742828 706.469788,371.721191 726.613525,364.017273 
	C746.976440,356.229584 767.429321,357.048889 787.488098,365.288055 
	C797.476013,369.390564 805.017761,376.596405 810.779785,385.738007 
	C812.666138,388.730804 812.774231,390.679840 809.201477,392.398132 
	C802.600342,395.572906 796.096191,398.959534 789.647583,402.436035 
	C787.046387,403.838348 785.499878,403.441956 783.961731,400.888611 
	C774.507080,385.193756 754.418030,383.602356 740.906311,388.002411 
	C736.103394,389.566467 732.559692,392.721924 732.055847,398.350281 
	C731.537659,404.139526 734.409973,407.892029 739.101135,410.506989 
	C746.916992,414.863831 755.643921,416.536621 764.201599,418.642548 
	C775.036926,421.308960 785.915405,423.776428 795.892944,429.069244 
	C811.593628,437.398071 818.486938,450.535522 817.322144,468.081787 
	C816.287231,483.671143 807.815735,494.653290 794.007874,500.300964 
	C763.631042,512.725586 733.848450,510.610077 705.552124,493.472717 
	C699.639404,489.891693 695.185120,484.669159 691.441223,478.835693 
	C689.803284,476.283539 689.665344,474.515167 692.536560,472.701721 
	C698.730408,468.789856 704.805603,464.684357 710.837585,460.524994 
	C713.149109,458.931122 714.510010,459.277435 716.088806,461.604919 
	C724.647522,474.222412 737.458374,479.208374 751.899048,480.556976 
	C759.495850,481.266388 767.200928,481.224731 774.672791,478.822571 
	C780.497192,476.950073 784.857788,473.793457 785.571838,467.253754 
	C786.164673,461.823212 782.720581,456.668030 776.412598,453.651215 
	C767.317261,449.301270 757.393616,447.718353 747.716797,445.315887 
	C737.355225,442.743378 727.153870,439.796722 718.013550,433.949768 
	C709.184692,428.302063 703.271851,420.623810 700.628052,410.005157 
z"/>
<path fill="#000000" opacity="1.000000" stroke="none" 
	d="
M367.134888,444.196655 
	C378.097778,418.056519 388.938812,392.279907 399.663055,366.454834 
	C401.042480,363.133026 402.845490,361.411682 406.697723,361.633301 
	C412.009888,361.938965 417.363434,361.916565 422.678894,361.641479 
	C426.464172,361.445557 428.351440,363.010162 429.774780,366.395996 
	C443.450714,398.928101 457.251190,431.407837 471.023987,463.899200 
	C475.635956,474.779205 480.301605,485.636658 484.870087,496.534882 
	C485.820496,498.802032 487.241882,500.942932 487.273987,503.513031 
	C486.005463,505.117798 484.235077,504.857452 482.626923,504.839233 
	C474.470612,504.746979 466.315247,504.477295 458.159607,504.480072 
	C455.204926,504.481110 453.600677,503.321320 452.584991,500.603088 
	C450.896179,496.083405 448.812042,491.710754 447.144531,487.184052 
	C446.145569,484.472229 444.669403,483.264374 441.649139,483.282745 
	C423.495483,483.393036 405.340637,483.375061 387.186646,483.297363 
	C384.460693,483.285706 382.863464,484.264740 381.900085,486.816193 
	C380.078156,491.641479 378.067474,496.395416 376.139099,501.180603 
	C375.431549,502.936401 374.592896,504.632690 372.384613,504.678497 
	C362.604431,504.881317 352.815979,505.317322 341.870331,504.258850 
	C350.423187,483.916687 358.700043,464.230957 367.134888,444.196655 
M419.133179,418.260071 
	C417.498627,414.954254 416.930206,411.100311 413.883698,407.610382 
	C407.136292,424.280579 400.644989,440.317963 393.920868,456.930573 
	C407.891449,457.178894 420.922516,458.150360 434.853394,457.089111 
	C429.591125,444.061188 424.520508,431.507660 419.133179,418.260071 
z"/>
<path fill="#000000" opacity="1.000000" stroke="none" 
	d="
M880.464966,380.437805 
	C877.303223,371.990082 877.293579,371.960266 885.314636,369.359039 
	C893.424194,366.729156 898.919739,361.296814 902.505981,353.698242 
	C903.457764,351.681519 903.853943,349.310547 906.199524,347.140472 
	C909.294128,353.276062 911.570801,359.407379 916.574036,363.755310 
	C921.505127,368.040466 927.479736,369.901764 933.505493,371.227783 
	C934.643921,373.415680 933.450134,375.042450 932.843689,376.681152 
	C930.648804,382.611542 928.325500,388.501068 927.020325,394.710327 
	C926.424316,397.545654 924.656494,401.148834 927.661316,402.979950 
	C930.581726,404.759674 933.275879,401.814056 935.473816,399.944733 
	C939.634277,396.406219 943.527832,392.553864 948.345642,388.076019 
	C954.194092,399.576904 964.464417,398.581146 975.749817,396.970032 
	C973.820618,402.538452 970.093262,406.417542 969.393188,411.504456 
	C968.649536,416.908234 970.814514,421.605774 972.836792,426.358246 
	C970.739807,429.230011 967.446167,429.795471 964.642151,431.061096 
	C959.629883,433.323517 954.661682,435.614990 950.076050,438.686371 
	C942.151489,443.994263 939.813110,450.084137 942.117432,459.269043 
	C942.675964,461.495483 943.777649,463.637939 943.331116,467.336365 
	C918.392578,454.070862 893.420959,453.729889 868.409424,467.523773 
	C867.782166,463.524200 869.408203,460.825348 870.093628,458.029572 
	C871.895142,450.680725 869.617493,444.960297 863.918396,440.333160 
	C858.682739,436.082275 852.606812,433.373077 846.469604,430.756073 
	C844.041931,429.720917 841.700012,428.484619 838.404541,426.900208 
	C845.062195,416.803192 843.125305,407.222778 835.262329,397.078644 
	C847.030029,398.355560 857.343506,399.623596 863.066406,388.395813 
	C867.008850,390.144470 868.867065,393.482300 871.549133,395.856873 
	C874.172363,398.179321 876.674927,400.642029 879.792969,402.282349 
	C881.205078,403.025208 882.777405,404.213745 884.448914,403.115295 
	C886.338379,401.873657 885.910645,399.749451 885.482849,398.081573 
	C883.996765,392.287964 882.246155,386.562164 880.464966,380.437805 
M894.256897,401.372223 
	C893.415405,410.600616 887.731873,414.284607 879.093018,411.161255 
	C875.100159,409.717682 871.677795,407.286835 868.792480,404.268250 
	C865.908020,401.250549 863.376282,399.761108 859.660950,403.204254 
	C858.183350,404.573608 855.816162,405.157623 853.747803,405.672913 
	C850.853333,406.393921 849.860596,407.822968 850.815735,410.705994 
	C851.173340,411.785339 851.552612,413.186554 851.166016,414.131866 
	C847.816956,422.321472 852.952332,425.239075 859.224915,427.689148 
	C861.219910,428.468445 863.075928,429.681091 864.870117,430.882751 
	C870.444153,434.615936 875.829834,438.555542 878.076965,445.341949 
	C878.841980,447.652435 878.615295,450.284821 880.580017,452.830109 
	C897.507019,447.190643 914.688354,447.448547 932.416809,453.184418 
	C932.696350,441.086090 940.182617,434.912048 948.864014,429.733704 
	C952.287842,427.691437 955.933289,426.017761 959.497742,424.215607 
	C961.077026,423.417114 962.503052,422.573364 961.756531,420.438324 
	C960.230591,416.074127 960.593811,411.617279 961.295715,407.036346 
	C957.901794,405.332977 953.981750,405.174927 951.147766,402.724060 
	C948.646057,400.560486 946.745667,400.876007 944.317749,403.137848 
	C940.308105,406.873077 936.043701,410.430634 930.503601,411.809875 
	C923.518982,413.548767 918.089661,409.623901 917.755554,402.458893 
	C917.648132,400.155304 917.778015,397.764465 918.286255,395.523987 
	C919.388611,390.663971 920.782532,385.869080 922.105286,381.060760 
	C922.567810,379.379242 923.078613,377.625092 921.003906,376.778625 
	C915.242493,374.428131 910.430969,370.671539 905.849792,366.113220 
	C901.700317,370.269989 897.710693,373.828583 892.701904,375.844391 
	C889.285767,377.219238 888.860168,379.297943 890.126038,382.548584 
	C892.367798,388.305328 893.634460,394.336395 894.256897,401.372223 
z"/>
</svg>