<svg version="1.1" id="Layer_1" xmlns="http://www.w3.org/2000/svg" xmlns:xlink="http://www.w3.org/1999/xlink" x="0px" y="0px"
	 width="100%" viewBox="0 0 896 592" enable-background="new 0 0 896 592" xml:space="preserve">
<path fill="#000000" opacity="1.000000" stroke="none" 
	d="
M391.249451,529.270020 
	C382.389465,536.647461 373.701782,543.670044 363.537109,548.524292 
	C360.394867,550.024841 357.162476,551.516418 353.807343,552.358887 
	C341.937347,555.339355 337.215118,553.487976 331.677551,542.302551 
	C328.180603,535.238953 326.891602,527.433105 325.732391,519.694031 
	C321.318451,490.225403 322.457520,460.554230 323.001923,430.941467 
	C323.301270,414.656311 324.648376,398.383087 325.818817,382.125793 
	C326.153961,377.471130 324.277100,374.824951 320.690277,372.246948 
	C306.440247,362.004608 289.691284,356.946625 274.145813,349.408844 
	C259.021484,342.075317 243.029282,336.559082 228.479904,328.031891 
	C216.923798,321.259033 208.172501,311.821014 203.652191,299.019897 
	C198.570770,284.629913 202.779449,270.067169 214.422318,260.219025 
	C223.906265,252.196960 235.095612,247.530182 246.736420,243.831741 
	C281.788727,232.695129 316.835175,221.536453 351.979248,210.695389 
	C359.119324,208.492844 362.674347,205.029251 363.958191,197.172165 
	C369.771454,161.595444 376.120453,126.100471 382.774994,90.669678 
	C385.561676,75.832573 392.260345,62.588463 403.272308,51.968765 
	C417.854858,37.905632 437.265717,38.142849 452.042908,52.006001 
	C463.203278,62.476105 469.940002,75.986343 477.758820,88.721306 
	C490.743439,109.870155 503.305908,131.278091 516.058899,152.569290 
	C520.891052,160.636536 521.925720,160.906021 532.036194,158.210327 
	C572.218628,147.496704 612.407776,136.808289 652.615356,126.189644 
	C663.229736,123.386429 673.843018,122.672745 684.513123,126.416687 
	C698.295044,131.252487 704.824402,142.822083 701.797546,157.043976 
	C698.892822,170.692032 690.297607,180.840561 681.640747,191.015045 
	C657.788574,219.048538 633.948608,247.092407 610.099854,275.128845 
	C606.862427,278.934753 603.718445,282.829285 600.320862,286.487427 
	C596.755859,290.325775 596.487305,294.138916 598.947571,298.746460 
	C609.931641,319.317871 620.746521,339.979645 631.606018,360.617462 
	C638.198486,373.146027 644.974365,385.584259 651.277710,398.257141 
	C657.835510,411.441803 660.215149,425.134674 653.709351,439.130127 
	C645.731689,456.292053 625.925720,466.073853 606.730469,462.942719 
	C589.223206,460.086945 572.765259,453.604889 555.843140,448.734741 
	C542.893860,445.007904 529.987244,441.115631 517.156982,436.999573 
	C509.568146,434.564972 502.080597,431.756073 494.713562,428.713348 
	C491.013580,427.185150 488.688354,427.937927 486.068207,430.792969 
	C468.835083,449.570862 451.281525,468.056854 434.178986,486.951660 
	C420.740326,501.798584 406.588318,515.872070 391.249451,529.270020 
M449.701996,398.215881 
	C458.285858,388.684174 466.876312,379.158356 475.448090,369.615784 
	C477.190613,367.675903 478.888397,366.287720 481.901550,367.133545 
	C501.906799,372.749298 521.953857,378.215851 541.985168,383.738647 
	C554.321350,387.139862 566.666626,390.508911 578.979675,393.991913 
	C582.616455,395.020599 583.196533,393.240051 582.605347,390.379822 
	C582.343018,389.110718 581.622864,387.916748 581.006836,386.743073 
	C565.529968,357.258392 550.019470,327.791321 534.564697,298.295105 
	C530.713806,290.945618 530.870056,290.373413 536.138794,284.176544 
	C560.197876,255.879013 584.257507,227.581909 608.276978,199.250763 
	C609.910828,197.323624 613.074890,195.414993 611.243347,192.546570 
	C609.392212,189.647568 606.300476,191.894516 603.938232,192.511230 
	C569.673584,201.456467 535.448303,210.552155 501.194214,219.538162 
	C491.692169,222.030884 491.681946,221.909241 486.624451,213.533264 
	C469.666199,185.447830 452.699341,157.367599 435.709686,129.301163 
	C434.794159,127.788658 434.072968,125.539558 431.889679,125.867058 
	C429.377502,126.243881 429.570312,128.719284 429.224274,130.649734 
	C422.629791,167.437256 415.952606,204.210281 409.527771,241.027359 
	C408.798401,245.206940 406.665314,247.018890 403.038025,248.160721 
	C380.668396,255.202347 358.317383,262.303162 335.962128,269.390503 
	C321.850342,273.864380 307.737244,278.334229 293.638977,282.850281 
	C292.134796,283.332123 290.030914,283.464355 290.050751,285.671631 
	C290.066162,287.387939 291.683685,288.045837 293.046204,288.681854 
	C296.056824,290.087219 299.034851,291.578888 302.112061,292.822754 
	C331.889282,304.859222 361.676514,316.871155 391.486328,328.826630 
	C394.480713,330.027557 395.941101,331.506927 395.468658,335.132263 
	C393.193329,352.592285 391.304077,370.102295 389.085175,387.570099 
	C385.632141,414.753265 382.010162,441.914917 378.509399,469.092072 
	C378.265869,470.982666 377.813477,473.193451 381.068817,474.125671 
	C403.704681,449.084747 426.463165,423.908173 449.701996,398.215881 
z"/>
</svg>