<svg version="1.1" id="Layer_1" xmlns="http://www.w3.org/2000/svg" xmlns:xlink="http://www.w3.org/1999/xlink" x="0px" y="0px"
	 width="100%" viewBox="0 0 486 487" enable-background="new 0 0 486 487" xml:space="preserve">
<path fill="#000000" opacity="1.000000" stroke="none" 
	d="
M261.000000,488.000000 
	C174.000015,488.000000 87.500038,488.000000 1.000046,488.000000 
	C1.000031,325.666718 1.000031,163.333450 1.000015,1.000134 
	C162.999893,1.000089 324.999786,1.000089 486.999756,1.000045 
	C486.999847,163.333206 486.999847,325.666412 486.999939,487.999817 
	C411.833344,488.000000 336.666656,488.000000 261.000000,488.000000 
M186.668228,442.903412 
	C196.698883,448.699768 206.750778,454.459686 216.755615,460.300262 
	C235.352371,471.156647 254.754715,473.976746 274.252533,463.770538 
	C293.912659,453.479431 312.975708,442.037689 332.201080,430.928375 
	C363.724060,412.712891 395.368561,394.693939 426.561798,375.927246 
	C443.226685,365.901215 452.755463,350.433289 452.873535,330.746643 
	C453.225494,272.085480 453.051147,213.420807 452.948456,154.757736 
	C452.931793,145.243774 449.711914,136.532104 444.890533,128.355408 
	C437.450897,115.738434 425.342560,108.879829 413.141998,101.987816 
	C396.803894,92.758514 380.619934,83.256546 364.362488,73.884346 
	C350.512146,65.899811 336.634521,57.962475 322.800140,49.950432 
	C308.948669,41.928497 295.182892,33.757610 281.292847,25.803467 
	C267.262054,17.768738 252.652527,13.639012 236.212524,17.745188 
	C226.293137,20.222729 217.917603,25.336924 209.299530,30.275267 
	C188.332794,42.289661 167.282364,54.158527 146.352081,66.235847 
	C121.619926,80.506943 96.824646,94.679230 72.350395,109.383163 
	C55.118195,119.736115 45.296829,135.426910 45.146030,155.611160 
	C44.726456,211.771439 44.977028,267.936920 45.042477,324.100220 
	C45.047832,328.698242 45.413864,333.328339 46.029011,337.887329 
	C48.341042,355.022247 57.851559,367.555176 72.126183,376.463348 
	C83.467201,383.540802 95.324745,389.787689 106.913628,396.471588 
	C121.188843,404.704834 135.428299,413.000153 149.673737,421.284943 
	C161.805679,428.340576 173.924210,435.419312 186.668228,442.903412 
z"/>
<path fill="#E25A1C" opacity="1.000000" stroke="none" 
	d="
M186.358444,442.695618 
	C173.924210,435.419312 161.805679,428.340576 149.673737,421.284943 
	C135.428299,413.000153 121.188843,404.704834 106.913628,396.471588 
	C95.324745,389.787689 83.467201,383.540802 72.126183,376.463348 
	C57.851559,367.555176 48.341042,355.022247 46.029011,337.887329 
	C45.413864,333.328339 45.047832,328.698242 45.042477,324.100220 
	C44.977028,267.936920 44.726456,211.771439 45.146030,155.611160 
	C45.296829,135.426910 55.118195,119.736115 72.350395,109.383163 
	C96.824646,94.679230 121.619926,80.506943 146.352081,66.235847 
	C167.282364,54.158527 188.332794,42.289661 209.299530,30.275267 
	C217.917603,25.336924 226.293137,20.222729 236.212524,17.745188 
	C252.652527,13.639012 267.262054,17.768738 281.292847,25.803467 
	C295.182892,33.757610 308.948669,41.928497 322.800140,49.950432 
	C336.634521,57.962475 350.512146,65.899811 364.362488,73.884346 
	C380.619934,83.256546 396.803894,92.758514 413.141998,101.987816 
	C425.342560,108.879829 437.450897,115.738434 444.890533,128.355408 
	C449.711914,136.532104 452.931793,145.243774 452.948456,154.757736 
	C453.051147,213.420807 453.225494,272.085480 452.873535,330.746643 
	C452.755463,350.433289 443.226685,365.901215 426.561798,375.927246 
	C395.368561,394.693939 363.724060,412.712891 332.201080,430.928375 
	C312.975708,442.037689 293.912659,453.479431 274.252533,463.770538 
	C254.754715,473.976746 235.352371,471.156647 216.755615,460.300262 
	C206.750778,454.459686 196.698883,448.699768 186.358444,442.695618 
M361.488831,211.707932 
	C358.680359,207.567657 359.680634,204.120773 362.908356,200.552216 
	C367.707428,195.246399 372.382568,189.781372 376.566406,183.990967 
	C378.093140,181.878036 378.063965,178.640900 378.744629,175.916641 
	C376.030396,175.254395 373.339569,174.446884 370.590057,174.003647 
	C369.536346,173.833786 368.343994,174.478683 367.222687,174.781464 
	C361.283997,176.385117 355.313599,177.884293 349.424896,179.654816 
	C346.390015,180.567307 344.465912,179.990204 342.868439,177.102112 
	C340.374146,172.592484 337.612823,168.219910 334.772888,163.915771 
	C332.792206,160.913895 330.690643,156.528900 326.560638,158.147491 
	C323.730225,159.256744 320.978760,162.823730 319.980804,165.876755 
	C317.981812,171.992294 317.065063,178.484436 315.989655,184.869644 
	C315.431183,188.185333 314.150696,190.181763 310.686493,191.162292 
	C303.653046,193.153076 296.704895,195.475769 289.804840,197.898712 
	C283.343414,200.167633 281.722504,206.679321 287.145264,210.515274 
	C292.211395,214.099014 298.262726,216.317459 303.975830,218.928040 
	C304.782928,219.296829 306.270233,218.718018 307.203278,218.170120 
	C310.170990,216.427490 313.025604,214.492218 316.559784,212.223160 
	C310.451324,209.696518 305.013397,207.447205 299.575470,205.197906 
	C305.503937,202.082047 311.350037,199.916718 317.325012,198.200012 
	C320.949524,197.158630 322.855042,195.532379 323.340759,191.476227 
	C324.075500,185.340927 325.664734,179.307968 326.992859,172.726120 
	C327.938690,173.617752 328.375305,173.888412 328.617157,174.279526 
	C330.629303,177.533615 332.650574,180.783493 334.583618,184.084732 
	C339.175476,191.926758 339.140106,191.879440 347.688049,189.478790 
	C352.626221,188.091904 357.627411,186.929611 362.600250,185.666245 
	C362.781525,186.079468 362.962830,186.492676 363.144104,186.905899 
	C359.080475,191.708954 355.273010,196.764465 350.869751,201.232849 
	C347.523163,204.628891 347.570129,207.468063 349.921143,211.301544 
	C352.707123,215.844208 354.918427,220.739334 357.955597,226.593460 
	C351.463776,224.945099 346.398285,223.658920 340.241699,222.095688 
	C342.070740,226.564514 339.725769,231.739517 345.261169,233.710495 
	C350.107849,235.436234 355.051819,237.266479 360.097961,237.906906 
	C362.937775,238.267349 366.700897,237.064514 368.913239,235.211227 
	C371.677887,232.895203 370.947845,229.223465 369.160919,226.022202 
	C366.648193,221.520630 364.292969,216.931122 361.488831,211.707932 
M166.060089,249.747009 
	C163.953339,264.158875 161.846573,278.570709 159.694702,293.291229 
	C161.957108,293.395264 163.449966,293.341339 164.903900,293.553802 
	C169.245697,294.188232 171.224686,292.701141 171.263474,288.001526 
	C171.295883,284.072937 172.347900,280.152771 172.988144,275.969177 
	C174.421936,276.500641 175.530807,276.818542 176.558853,277.306641 
	C191.982391,284.629425 210.084534,274.034943 214.699448,258.701874 
	C219.858383,241.561417 206.767120,226.721588 189.214890,229.775955 
	C177.900620,231.744827 170.442062,238.422287 166.060089,249.747009 
M148.841949,238.647263 
	C147.170456,236.796692 145.424088,235.007385 143.847015,233.079575 
	C142.002838,230.825272 140.173141,228.232361 142.875427,225.614166 
	C145.626907,222.948303 149.081635,222.119598 152.277664,224.893967 
	C153.960632,226.354904 155.081070,228.463867 156.441589,230.261826 
	C160.693924,227.091370 163.850250,224.738052 167.135727,222.288467 
	C163.070084,214.765060 157.198685,211.270721 149.037476,211.972534 
	C140.317429,212.722351 134.053207,217.328033 130.410324,225.096390 
	C127.050903,232.260254 129.963196,238.323944 134.844574,243.733002 
	C138.409225,247.683014 142.071442,251.551102 145.500092,255.616028 
	C148.900894,259.647980 148.751984,263.043976 145.387634,266.105652 
	C142.119354,269.079895 136.739609,269.173004 133.617767,266.033264 
	C132.010315,264.416595 130.860687,262.344757 129.306503,260.206635 
	C126.749825,261.561523 124.202042,263.064667 121.525917,264.286804 
	C118.855629,265.506317 118.392487,267.016846 119.599548,269.745361 
	C123.043106,277.529236 128.792145,280.788574 139.170044,279.994263 
	C148.646362,279.268921 155.307449,274.319031 159.030945,265.601685 
	C162.553085,257.355713 160.004333,250.372208 154.170700,244.196976 
	C152.571899,242.504562 150.938736,240.844620 148.841949,238.647263 
M221.838364,267.419952 
	C227.241333,276.523529 235.401215,280.907654 244.531219,279.612366 
	C253.824219,278.293945 256.307556,274.620911 254.282791,264.883026 
	C252.642715,265.781830 251.113129,266.764618 249.471237,267.494995 
	C242.224350,270.718750 234.445160,267.511047 231.895798,260.307526 
	C229.652679,253.969360 231.913055,248.714935 236.438721,244.521729 
	C240.963425,240.329376 246.562866,238.576584 252.603806,240.855804 
	C258.783936,243.187515 259.688782,248.704178 259.816895,254.425888 
	C259.846497,255.748169 259.637787,257.080627 259.480072,258.401428 
	C258.715210,264.807159 257.930359,271.210449 257.120270,277.880737 
	C260.783630,277.880737 264.163757,277.880737 268.007233,277.880737 
	C269.041779,268.499756 270.487335,259.443939 270.921356,250.339920 
	C271.373779,240.849503 264.568939,232.264542 255.479355,230.086655 
	C244.668579,227.496384 235.194519,230.531647 227.779846,238.602142 
	C220.434784,246.596848 217.590973,256.016876 221.838364,267.419952 
M338.191833,230.196228 
	C337.735413,227.311752 337.279022,224.427277 336.656158,220.490921 
	C329.957520,227.853378 323.894562,234.517166 316.907440,242.196716 
	C318.121185,232.070023 319.155884,223.437424 320.308136,213.824005 
	C317.113281,215.879272 314.896301,217.622055 312.417786,218.826813 
	C308.562347,220.700897 306.959229,223.504791 306.553253,227.805679 
	C305.710266,236.735947 304.244110,245.606247 303.097198,254.509323 
	C302.090424,262.324707 301.169708,270.151184 300.192596,278.123047 
	C304.376648,278.123047 307.997162,278.123047 311.887177,278.123047 
	C313.072327,269.861267 314.236603,261.744843 315.607300,252.189529 
	C321.248566,260.559601 325.940887,267.751831 330.923248,274.737183 
	C332.038330,276.300537 334.057587,277.880829 335.857452,278.153473 
	C339.391632,278.688812 343.064117,278.310913 347.661133,278.310913 
	C339.771088,267.268219 332.469482,257.049164 325.078674,246.705215 
	C326.716461,244.934433 328.252075,243.425232 329.612640,241.771957 
	C332.527496,238.229904 335.351929,234.613419 338.191833,230.196228 
M275.994812,254.379608 
	C274.995636,262.254211 273.996460,270.128815 272.965759,278.251770 
	C276.801361,278.251770 280.212463,278.251770 283.670837,278.251770 
	C284.054352,276.358765 284.484833,274.750519 284.693237,273.114014 
	C285.512054,266.684875 286.379730,260.258484 287.009338,253.809601 
	C288.100098,242.637863 288.031494,242.631165 298.941437,241.179932 
	C299.373383,237.755920 299.816803,234.240921 300.318359,230.265076 
	C298.081116,230.265076 296.617065,230.259415 295.153076,230.265991 
	C284.193085,230.315186 278.651978,235.179871 277.121307,246.091278 
	C276.775085,248.559372 276.424255,251.026855 275.994812,254.379608 
z"/>
<path fill="#FEFBFA" opacity="1.000000" stroke="none" 
	d="
M361.679626,212.043579 
	C364.292969,216.931122 366.648193,221.520630 369.160919,226.022202 
	C370.947845,229.223465 371.677887,232.895203 368.913239,235.211227 
	C366.700897,237.064514 362.937775,238.267349 360.097961,237.906906 
	C355.051819,237.266479 350.107849,235.436234 345.261169,233.710495 
	C339.725769,231.739517 342.070740,226.564514 340.241699,222.095688 
	C346.398285,223.658920 351.463776,224.945099 357.955597,226.593460 
	C354.918427,220.739334 352.707123,215.844208 349.921143,211.301544 
	C347.570129,207.468063 347.523163,204.628891 350.869751,201.232849 
	C355.273010,196.764465 359.080475,191.708954 363.144104,186.905899 
	C362.962830,186.492676 362.781525,186.079468 362.600250,185.666245 
	C357.627411,186.929611 352.626221,188.091904 347.688049,189.478790 
	C339.140106,191.879440 339.175476,191.926758 334.583618,184.084732 
	C332.650574,180.783493 330.629303,177.533615 328.617157,174.279526 
	C328.375305,173.888412 327.938690,173.617752 326.992859,172.726120 
	C325.664734,179.307968 324.075500,185.340927 323.340759,191.476227 
	C322.855042,195.532379 320.949524,197.158630 317.325012,198.200012 
	C311.350037,199.916718 305.503937,202.082047 299.575470,205.197906 
	C305.013397,207.447205 310.451324,209.696518 316.559784,212.223160 
	C313.025604,214.492218 310.170990,216.427490 307.203278,218.170120 
	C306.270233,218.718018 304.782928,219.296829 303.975830,218.928040 
	C298.262726,216.317459 292.211395,214.099014 287.145264,210.515274 
	C281.722504,206.679321 283.343414,200.167633 289.804840,197.898712 
	C296.704895,195.475769 303.653046,193.153076 310.686493,191.162292 
	C314.150696,190.181763 315.431183,188.185333 315.989655,184.869644 
	C317.065063,178.484436 317.981812,171.992294 319.980804,165.876755 
	C320.978760,162.823730 323.730225,159.256744 326.560638,158.147491 
	C330.690643,156.528900 332.792206,160.913895 334.772888,163.915771 
	C337.612823,168.219910 340.374146,172.592484 342.868439,177.102112 
	C344.465912,179.990204 346.390015,180.567307 349.424896,179.654816 
	C355.313599,177.884293 361.283997,176.385117 367.222687,174.781464 
	C368.343994,174.478683 369.536346,173.833786 370.590057,174.003647 
	C373.339569,174.446884 376.030396,175.254395 378.744629,175.916641 
	C378.063965,178.640900 378.093140,181.878036 376.566406,183.990967 
	C372.382568,189.781372 367.707428,195.246399 362.908356,200.552216 
	C359.680634,204.120773 358.680359,207.567657 361.679626,212.043579 
z"/>
<path fill="#FEFBF9" opacity="1.000000" stroke="none" 
	d="
M166.170166,249.365509 
	C170.442062,238.422287 177.900620,231.744827 189.214890,229.775955 
	C206.767120,226.721588 219.858383,241.561417 214.699448,258.701874 
	C210.084534,274.034943 191.982391,284.629425 176.558853,277.306641 
	C175.530807,276.818542 174.421936,276.500641 172.988144,275.969177 
	C172.347900,280.152771 171.295883,284.072937 171.263474,288.001526 
	C171.224686,292.701141 169.245697,294.188232 164.903900,293.553802 
	C163.449966,293.341339 161.957108,293.395264 159.694702,293.291229 
	C161.846573,278.570709 163.953339,264.158875 166.170166,249.365509 
M204.408310,250.173248 
	C202.506989,243.733627 198.848877,240.545059 192.934433,240.172104 
	C184.044418,239.611526 175.941925,247.085693 175.754471,256.019775 
	C175.592728,263.729950 182.116684,269.599426 189.774780,268.633636 
	C198.726105,267.504700 204.222641,260.932007 204.408310,250.173248 
z"/>
<path fill="#FEFBFA" opacity="1.000000" stroke="none" 
	d="
M149.081650,238.908508 
	C150.938736,240.844620 152.571899,242.504562 154.170700,244.196976 
	C160.004333,250.372208 162.553085,257.355713 159.030945,265.601685 
	C155.307449,274.319031 148.646362,279.268921 139.170044,279.994263 
	C128.792145,280.788574 123.043106,277.529236 119.599548,269.745361 
	C118.392487,267.016846 118.855629,265.506317 121.525917,264.286804 
	C124.202042,263.064667 126.749825,261.561523 129.306503,260.206635 
	C130.860687,262.344757 132.010315,264.416595 133.617767,266.033264 
	C136.739609,269.173004 142.119354,269.079895 145.387634,266.105652 
	C148.751984,263.043976 148.900894,259.647980 145.500092,255.616028 
	C142.071442,251.551102 138.409225,247.683014 134.844574,243.733002 
	C129.963196,238.323944 127.050903,232.260254 130.410324,225.096390 
	C134.053207,217.328033 140.317429,212.722351 149.037476,211.972534 
	C157.198685,211.270721 163.070084,214.765060 167.135727,222.288467 
	C163.850250,224.738052 160.693924,227.091370 156.441589,230.261826 
	C155.081070,228.463867 153.960632,226.354904 152.277664,224.893967 
	C149.081635,222.119598 145.626907,222.948303 142.875427,225.614166 
	C140.173141,228.232361 142.002838,230.825272 143.847015,233.079575 
	C145.424088,235.007385 147.170456,236.796692 149.081650,238.908508 
z"/>
<path fill="#FEFBFA" opacity="1.000000" stroke="none" 
	d="
M221.645782,267.077881 
	C217.590973,256.016876 220.434784,246.596848 227.779846,238.602142 
	C235.194519,230.531647 244.668579,227.496384 255.479355,230.086655 
	C264.568939,232.264542 271.373779,240.849503 270.921356,250.339920 
	C270.487335,259.443939 269.041779,268.499756 268.007233,277.880737 
	C264.163757,277.880737 260.783630,277.880737 257.120270,277.880737 
	C257.930359,271.210449 258.715210,264.807159 259.480072,258.401428 
	C259.637787,257.080627 259.846497,255.748169 259.816895,254.425888 
	C259.688782,248.704178 258.783936,243.187515 252.603806,240.855804 
	C246.562866,238.576584 240.963425,240.329376 236.438721,244.521729 
	C231.913055,248.714935 229.652679,253.969360 231.895798,260.307526 
	C234.445160,267.511047 242.224350,270.718750 249.471237,267.494995 
	C251.113129,266.764618 252.642715,265.781830 254.282791,264.883026 
	C256.307556,274.620911 253.824219,278.293945 244.531219,279.612366 
	C235.401215,280.907654 227.241333,276.523529 221.645782,267.077881 
z"/>
<path fill="#FEFCFA" opacity="1.000000" stroke="none" 
	d="
M338.202637,230.611832 
	C335.351929,234.613419 332.527496,238.229904 329.612640,241.771957 
	C328.252075,243.425232 326.716461,244.934433 325.078674,246.705215 
	C332.469482,257.049164 339.771088,267.268219 347.661133,278.310913 
	C343.064117,278.310913 339.391632,278.688812 335.857452,278.153473 
	C334.057587,277.880829 332.038330,276.300537 330.923248,274.737183 
	C325.940887,267.751831 321.248566,260.559601 315.607300,252.189529 
	C314.236603,261.744843 313.072327,269.861267 311.887177,278.123047 
	C307.997162,278.123047 304.376648,278.123047 300.192596,278.123047 
	C301.169708,270.151184 302.090424,262.324707 303.097198,254.509323 
	C304.244110,245.606247 305.710266,236.735947 306.553253,227.805679 
	C306.959229,223.504791 308.562347,220.700897 312.417786,218.826813 
	C314.896301,217.622055 317.113281,215.879272 320.308136,213.824005 
	C319.155884,223.437424 318.121185,232.070023 316.907440,242.196716 
	C323.894562,234.517166 329.957520,227.853378 336.656158,220.490921 
	C337.279022,224.427277 337.735413,227.311752 338.202637,230.611832 
z"/>
<path fill="#FEF8F6" opacity="1.000000" stroke="none" 
	d="
M276.035156,253.937103 
	C276.424255,251.026855 276.775085,248.559372 277.121307,246.091278 
	C278.651978,235.179871 284.193085,230.315186 295.153076,230.265991 
	C296.617065,230.259415 298.081116,230.265076 300.318359,230.265076 
	C299.816803,234.240921 299.373383,237.755920 298.941437,241.179932 
	C288.031494,242.631165 288.100098,242.637863 287.009338,253.809601 
	C286.379730,260.258484 285.512054,266.684875 284.693237,273.114014 
	C284.484833,274.750519 284.054352,276.358765 283.670837,278.251770 
	C280.212463,278.251770 276.801361,278.251770 272.965759,278.251770 
	C273.996460,270.128815 274.995636,262.254211 276.035156,253.937103 
z"/>
<path fill="#E35D20" opacity="1.000000" stroke="none" 
	d="
M204.490112,250.556290 
	C204.222641,260.932007 198.726105,267.504700 189.774780,268.633636 
	C182.116684,269.599426 175.592728,263.729950 175.754471,256.019775 
	C175.941925,247.085693 184.044418,239.611526 192.934433,240.172104 
	C198.848877,240.545059 202.506989,243.733627 204.490112,250.556290 
z"/>
</svg>