<svg id="svg" version="1.1" xmlns="http://www.w3.org/2000/svg" xmlns:xlink="http://www.w3.org/1999/xlink" width="400" height="400" viewBox="0, 0, 400,400"><g id="svgg"><path id="path0" d="M48.065 213.000 C 48.068 248.860,48.160 277.975,48.269 277.700 C 48.503 277.108,50.000 277.021,50.000 277.600 C 50.000 278.155,323.057 278.155,323.400 277.600 C 323.752 277.030,325.495 277.104,325.735 277.700 C 325.846 277.975,325.951 272.414,325.968 265.343 C 325.996 254.263,325.917 252.454,325.400 252.255 C 324.871 252.052,324.800 245.926,324.800 200.455 C 324.800 153.201,324.746 148.865,324.149 148.636 C 323.792 148.499,304.148 148.396,280.497 148.407 C 256.846 148.419,237.398 148.332,237.281 148.214 C 236.863 147.797,48.742 147.982,49.000 148.400 C 49.136 148.620,49.072 148.800,48.857 148.800 C 48.642 148.800,48.375 148.575,48.263 148.300 C 48.151 148.025,48.062 177.140,48.065 213.000 M73.700 173.082 C 73.205 173.178,72.395 173.178,71.900 173.082 C 71.405 172.987,71.810 172.909,72.800 172.909 C 73.790 172.909,74.195 172.987,73.700 173.082 M161.900 173.076 C 161.515 173.176,160.885 173.176,160.500 173.076 C 160.115 172.975,160.430 172.893,161.200 172.893 C 161.970 172.893,162.285 172.975,161.900 173.076 M212.300 173.087 C 211.695 173.178,210.705 173.178,210.100 173.087 C 209.495 172.995,209.990 172.920,211.200 172.920 C 212.410 172.920,212.905 172.995,212.300 173.087 M244.300 173.076 C 243.915 173.176,243.285 173.176,242.900 173.076 C 242.515 172.975,242.830 172.893,243.600 172.893 C 244.370 172.893,244.685 172.975,244.300 173.076 M134.069 174.262 C 134.970 175.078,135.189 186.251,134.320 187.120 C 133.970 187.470,130.874 187.600,122.894 187.600 C 116.113 187.600,111.653 187.758,111.174 188.014 C 110.419 188.418,110.400 189.193,110.400 219.786 C 110.400 247.759,110.332 251.211,109.771 251.771 C 109.249 252.294,107.981 252.400,102.233 252.400 C 94.737 252.400,94.834 252.427,93.697 250.000 C 93.147 248.825,93.224 192.325,93.779 190.035 C 94.353 187.667,94.034 187.602,81.824 187.587 C 73.458 187.577,70.841 187.454,70.300 187.043 C 69.281 186.270,69.249 175.451,70.262 174.331 C 71.238 173.253,132.879 173.186,134.069 174.262 M163.418 174.582 C 163.958 175.122,164.400 175.762,164.400 176.005 C 164.400 176.248,164.579 176.337,164.797 176.202 C 165.024 176.062,165.161 176.358,165.117 176.891 C 164.993 178.392,168.447 187.756,168.894 187.128 C 169.159 186.755,169.211 186.865,169.072 187.500 C 168.794 188.768,170.413 193.402,170.896 192.720 C 171.142 192.373,171.189 192.548,171.038 193.246 C 170.758 194.540,172.612 199.444,172.907 198.192 C 173.010 197.756,173.051 197.940,172.999 198.600 C 172.917 199.624,175.234 206.914,176.431 209.400 C 176.743 210.048,176.776 209.972,176.603 209.000 C 176.425 208.003,176.463 207.923,176.828 208.524 C 177.069 208.923,177.164 209.518,177.037 209.848 C 176.758 210.575,179.246 218.161,179.972 218.800 C 180.098 218.910,180.218 219.225,180.240 219.500 C 180.394 221.421,180.396 221.425,180.808 220.800 C 181.110 220.342,181.187 220.484,181.133 221.400 C 181.047 222.868,181.539 224.485,181.987 224.208 C 182.168 224.096,182.423 224.283,182.554 224.623 C 182.708 225.027,182.630 225.142,182.327 224.955 C 182.014 224.761,181.951 224.894,182.132 225.367 C 182.279 225.751,182.413 226.276,182.428 226.533 C 182.444 226.790,182.627 226.640,182.836 226.200 C 183.150 225.538,183.187 225.607,183.052 226.600 C 182.962 227.260,183.036 228.160,183.216 228.600 C 183.528 229.360,183.545 229.355,183.572 228.500 C 183.587 228.005,183.780 227.600,184.000 227.600 C 184.220 227.600,184.413 228.005,184.428 228.500 C 184.455 229.355,184.472 229.360,184.784 228.600 C 184.964 228.160,185.026 227.260,184.922 226.600 C 184.792 225.776,184.851 225.567,185.111 225.934 C 185.414 226.361,185.542 226.328,185.758 225.766 C 185.906 225.380,185.845 224.951,185.622 224.814 C 185.382 224.665,185.540 224.287,186.008 223.886 C 186.807 223.202,186.914 222.784,186.849 220.600 C 186.820 219.612,186.872 219.540,187.144 220.191 C 187.575 221.224,189.303 216.231,188.959 214.945 C 188.833 214.475,188.909 213.980,189.128 213.845 C 189.363 213.699,189.440 213.927,189.316 214.399 C 188.885 216.048,189.592 215.125,190.158 213.300 C 190.483 212.255,191.689 208.790,192.840 205.600 C 193.991 202.410,194.928 199.290,194.922 198.667 C 194.914 197.846,195.016 197.680,195.290 198.067 C 195.558 198.443,195.608 198.323,195.462 197.660 C 195.348 197.144,195.369 196.835,195.509 196.975 C 195.932 197.399,197.151 193.867,196.921 192.884 C 196.784 192.305,196.875 192.011,197.167 192.084 C 197.792 192.241,199.283 187.899,198.724 187.553 C 198.436 187.375,198.442 187.063,198.741 186.548 C 199.159 185.829,199.177 185.831,199.219 186.600 C 199.252 187.191,199.372 187.086,199.679 186.200 C 199.908 185.540,200.773 183.178,201.602 180.950 C 202.497 178.543,203.045 176.434,202.952 175.750 C 202.866 175.118,202.903 174.829,203.034 175.108 C 203.200 175.462,203.518 175.303,204.082 174.587 L 204.892 173.557 213.661 173.679 C 220.928 173.779,222.495 173.903,222.809 174.400 C 223.541 175.560,223.309 251.034,222.571 251.771 C 221.760 252.582,208.475 252.715,207.680 251.920 C 207.319 251.559,207.196 246.308,207.186 230.820 C 207.173 212.741,207.101 210.323,206.600 211.200 L 206.028 212.200 205.988 211.200 C 205.952 210.314,203.403 216.532,203.055 218.353 C 202.988 218.709,202.729 219.450,202.481 220.000 C 200.825 223.673,196.878 235.961,197.021 237.000 C 197.149 237.936,197.121 238.000,196.893 237.289 C 196.654 236.546,196.364 237.062,195.316 240.089 C 194.610 242.130,194.205 243.860,194.416 243.933 C 194.970 244.126,194.867 244.879,194.161 245.800 C 193.575 246.564,193.558 246.546,193.780 245.400 C 193.973 244.401,193.913 244.453,193.423 245.711 C 193.099 246.543,192.947 247.517,193.085 247.877 C 193.250 248.307,193.179 248.435,192.880 248.249 C 192.596 248.074,192.322 248.389,192.153 249.084 C 192.005 249.698,191.537 250.695,191.114 251.300 L 190.346 252.400 183.933 252.400 L 177.521 252.400 176.414 251.215 C 175.806 250.564,175.492 249.969,175.718 249.894 C 175.990 249.803,175.976 249.495,175.676 248.979 C 175.348 248.413,175.219 248.364,175.206 248.800 C 175.190 249.326,175.142 249.327,174.815 248.811 C 174.582 248.442,174.587 248.131,174.830 247.982 C 175.061 247.839,174.842 246.745,174.284 245.262 C 173.772 243.898,173.218 242.915,173.055 243.079 C 172.891 243.242,172.863 243.102,172.991 242.768 C 173.296 241.973,171.391 236.879,171.071 237.635 C 170.939 237.946,170.853 237.750,170.878 237.200 C 170.964 235.345,170.814 234.744,170.338 235.038 C 170.060 235.210,169.985 235.148,170.148 234.884 C 170.298 234.642,169.753 232.515,168.938 230.156 C 167.781 226.806,167.383 226.035,167.120 226.634 C 166.853 227.242,166.825 227.193,166.986 226.400 C 167.210 225.289,165.739 220.400,165.180 220.400 C 164.985 220.400,164.913 220.170,165.021 219.889 C 165.129 219.608,164.783 218.312,164.253 217.009 C 163.723 215.706,163.207 214.901,163.107 215.220 C 163.006 215.539,162.998 215.317,163.088 214.726 C 163.178 214.135,162.964 213.145,162.612 212.526 C 162.107 211.640,162.022 211.592,162.212 212.300 C 162.490 213.333,162.095 213.483,161.444 212.592 C 161.117 212.144,161.030 216.993,161.115 231.010 C 161.228 249.803,161.220 250.049,160.388 251.217 L 159.546 252.400 152.673 252.394 C 148.893 252.391,145.530 252.217,145.200 252.009 C 144.110 251.319,144.104 175.496,145.194 174.406 C 146.570 173.030,162.015 173.179,163.418 174.582 M252.224 174.167 C 252.975 174.717,253.007 175.604,253.221 201.667 C 253.443 228.648,253.770 234.428,254.870 230.771 C 255.133 229.895,255.155 229.919,255.094 231.013 C 254.937 233.838,259.186 238.798,260.870 237.757 C 261.148 237.585,261.213 237.655,261.038 237.939 C 260.863 238.221,261.161 238.557,261.802 238.801 C 263.118 239.301,263.310 239.301,263.000 238.800 C 262.716 238.340,263.364 238.340,264.800 238.800 L 265.800 239.120 264.800 239.207 C 264.188 239.260,264.576 239.434,265.800 239.656 C 268.283 240.105,273.188 239.710,272.361 239.128 C 271.965 238.849,272.190 238.800,273.126 238.961 C 275.198 239.319,280.439 236.234,279.724 235.077 C 279.588 234.857,279.670 234.796,279.908 234.943 C 280.145 235.089,280.713 234.685,281.169 234.043 C 282.160 232.652,282.247 232.097,281.360 232.833 C 280.781 233.314,280.782 233.218,281.373 231.802 C 282.174 229.885,282.392 229.644,282.428 230.633 C 282.455 231.364,282.471 231.363,282.773 230.600 C 282.947 230.160,283.021 229.080,282.938 228.200 C 282.832 227.073,282.888 226.832,283.128 227.383 C 283.848 229.039,283.991 224.519,283.996 199.923 L 284.000 174.845 284.889 174.223 C 285.950 173.480,297.903 173.306,299.226 174.014 C 300.241 174.557,300.421 226.721,299.422 230.897 C 299.121 232.161,298.975 233.584,299.100 234.060 C 299.241 234.599,299.171 234.829,298.914 234.670 C 298.676 234.523,298.143 235.399,297.653 236.742 C 295.851 241.686,291.801 246.554,287.255 249.241 C 285.913 250.034,284.948 250.828,285.108 251.005 C 285.269 251.182,285.123 251.229,284.785 251.109 C 284.447 250.989,283.637 251.143,282.985 251.451 C 282.333 251.760,282.124 251.921,282.521 251.811 C 282.963 251.687,283.140 251.773,282.980 252.032 C 282.837 252.264,282.465 252.357,282.155 252.238 C 281.149 251.852,278.885 252.466,279.819 252.872 C 280.412 253.130,280.312 253.170,279.400 253.038 C 278.740 252.943,276.254 253.156,273.876 253.511 C 270.049 254.082,268.992 254.093,264.676 253.606 C 261.994 253.303,258.900 253.067,257.800 253.082 C 256.317 253.102,256.102 253.043,256.968 252.854 C 258.093 252.609,258.066 252.581,256.239 252.094 C 255.197 251.816,254.131 251.709,253.872 251.858 C 253.612 252.007,253.538 251.976,253.707 251.790 C 253.876 251.605,252.985 250.948,251.728 250.331 C 250.286 249.624,249.346 249.363,249.185 249.624 C 249.024 249.885,248.737 249.806,248.408 249.410 C 247.961 248.871,247.994 248.815,248.643 249.013 C 249.196 249.183,249.134 249.050,248.415 248.522 C 247.873 248.125,246.715 247.143,245.843 246.340 C 244.923 245.494,243.992 244.963,243.628 245.078 C 243.232 245.202,243.161 245.150,243.436 244.938 C 243.731 244.709,243.328 243.794,242.193 242.110 C 241.269 240.740,240.369 239.750,240.193 239.910 C 240.016 240.069,239.988 239.996,240.131 239.746 C 240.432 239.220,239.651 236.721,239.261 236.962 C 239.117 237.051,238.971 236.736,238.936 236.262 C 238.838 234.926,237.451 229.814,237.150 229.680 C 236.453 229.369,236.741 175.128,237.443 174.352 C 238.343 173.358,250.901 173.201,252.224 174.167 M223.900 231.900 C 223.841 242.405,223.792 233.810,223.792 212.800 C 223.792 191.790,223.841 183.195,223.900 193.700 C 223.959 204.205,223.959 221.395,223.900 231.900 M69.097 183.483 C 69.020 184.978,68.956 183.860,68.955 181.000 C 68.955 178.140,69.018 176.918,69.096 178.283 C 69.174 179.649,69.174 181.989,69.097 183.483 M236.300 212.100 C 236.238 218.755,236.188 213.310,236.188 200.000 C 236.188 186.690,236.238 181.245,236.300 187.900 C 236.361 194.555,236.361 205.445,236.300 212.100 M111.659 188.928 C 111.331 189.324,111.176 197.998,111.100 220.238 L 110.995 251.000 110.897 219.733 C 110.820 195.011,110.905 188.429,111.300 188.288 C 112.028 188.028,112.180 188.301,111.659 188.928 M104.319 253.097 C 102.624 253.172,99.744 253.172,97.919 253.098 C 96.094 253.024,97.480 252.962,101.000 252.962 C 104.520 252.961,106.014 253.022,104.319 253.097 M155.300 253.097 C 153.705 253.173,151.095 253.173,149.500 253.097 C 147.905 253.021,149.210 252.959,152.400 252.959 C 155.590 252.959,156.895 253.021,155.300 253.097 M186.082 253.097 C 184.478 253.173,181.958 253.173,180.482 253.096 C 179.007 253.019,180.320 252.957,183.400 252.958 C 186.480 252.958,187.687 253.021,186.082 253.097 M211.705 253.082 C 211.214 253.177,210.314 253.179,209.705 253.087 C 209.097 252.995,209.500 252.917,210.600 252.914 C 211.700 252.911,212.197 252.987,211.705 253.082 M218.900 253.095 C 217.745 253.176,215.855 253.176,214.700 253.095 C 213.545 253.014,214.490 252.948,216.800 252.948 C 219.110 252.948,220.055 253.014,218.900 253.095 " stroke="none" fill="#0e4b99" fill-rule="evenodd"></path><path id="path1" d="M237.803 122.254 C 237.066 122.991,236.891 145.875,237.612 147.223 C 238.015 147.976,238.982 147.993,280.712 147.992 C 304.191 147.991,323.985 147.993,324.700 147.995 L 326.000 148.000 326.000 199.551 C 326.000 242.714,326.089 251.176,326.548 251.557 C 326.938 251.880,330.667 251.981,339.448 251.906 L 351.800 251.800 351.903 187.200 C 352.000 126.246,351.966 122.571,351.311 122.088 C 350.178 121.255,238.640 121.417,237.803 122.254 " stroke="none" fill="#f9dc0c" fill-rule="evenodd"></path><path id="path2" d="M0.000 200.000 L 0.000 400.000 200.000 400.000 L 400.000 400.000 400.000 200.000 L 400.000 0.000 200.000 0.000 L 0.000 0.000 0.000 200.000 M351.311 122.088 C 351.966 122.571,352.000 126.246,351.903 187.200 L 351.800 251.800 339.100 251.906 L 326.400 252.011 326.400 264.926 C 326.400 274.437,326.274 277.966,325.920 278.320 C 325.221 279.019,48.779 279.019,48.080 278.320 C 47.493 277.733,47.371 148.189,47.958 147.826 C 48.155 147.704,90.626 147.602,142.338 147.597 C 194.050 147.593,236.594 147.500,236.880 147.391 C 237.294 147.232,237.377 144.719,237.289 135.036 C 237.193 124.534,237.261 122.796,237.792 122.265 C 238.639 121.418,350.165 121.245,351.311 122.088 M71.499 174.346 C 70.245 174.713,70.000 175.791,70.000 180.932 C 70.000 187.759,68.809 187.172,82.686 187.187 C 93.428 187.199,93.992 187.237,94.386 187.974 C 94.661 188.488,94.800 199.189,94.800 219.894 C 94.800 243.585,94.915 251.155,95.280 251.520 C 95.615 251.855,97.772 252.000,102.416 252.000 L 109.072 252.000 109.536 250.981 C 109.875 250.236,110.000 241.659,110.000 219.061 C 110.000 195.560,110.115 188.045,110.480 187.680 C 110.831 187.329,113.991 187.200,122.200 187.200 C 130.409 187.200,133.569 187.071,133.920 186.720 C 134.629 186.011,134.586 175.452,133.871 174.859 C 133.377 174.449,72.849 173.951,71.499 174.346 M146.246 174.334 C 145.866 174.407,145.385 174.914,145.177 175.460 C 144.456 177.357,144.692 250.068,145.423 251.111 C 146.157 252.159,158.522 252.518,159.520 251.520 C 159.881 251.159,160.000 245.824,160.000 229.969 C 160.000 203.306,160.156 202.948,165.215 218.000 C 166.031 220.427,168.959 228.652,169.345 229.600 C 169.479 229.930,169.940 231.280,170.369 232.600 C 170.799 233.920,171.624 236.260,172.203 237.800 C 172.783 239.340,173.994 242.760,174.896 245.400 C 177.306 252.457,176.648 251.972,183.838 251.987 C 191.077 252.002,190.448 252.452,192.767 245.600 C 193.697 242.850,194.611 240.240,194.798 239.800 C 194.985 239.360,195.453 238.100,195.838 237.000 C 196.223 235.900,196.663 234.820,196.815 234.600 C 196.968 234.380,197.187 233.750,197.301 233.200 C 197.416 232.650,198.149 230.400,198.930 228.200 C 202.883 217.063,204.904 211.279,205.241 210.143 C 205.665 208.714,206.565 207.808,207.182 208.189 C 207.464 208.363,207.600 215.382,207.600 229.744 C 207.600 245.774,207.719 251.159,208.080 251.520 C 209.078 252.518,221.443 252.159,222.177 251.111 C 223.041 249.878,223.135 176.210,222.274 175.033 C 221.134 173.475,204.000 174.089,204.000 175.689 C 204.000 175.903,203.748 176.646,203.440 177.340 C 203.132 178.033,202.786 178.960,202.673 179.400 C 202.447 180.272,200.882 184.729,198.598 191.000 C 197.796 193.200,196.579 196.710,195.891 198.800 C 195.204 200.890,194.498 202.660,194.321 202.733 C 194.144 202.807,194.000 203.190,194.000 203.584 C 194.000 204.285,193.119 206.786,192.441 208.013 C 192.254 208.350,191.966 209.244,191.800 210.000 C 191.634 210.756,191.357 211.650,191.185 211.987 C 191.012 212.324,190.571 213.500,190.204 214.600 C 189.838 215.700,189.391 216.960,189.211 217.400 C 189.032 217.840,188.582 219.100,188.211 220.200 C 187.841 221.300,187.383 222.560,187.194 223.000 C 187.004 223.440,186.466 224.979,185.998 226.420 C 184.487 231.068,183.678 231.138,182.066 226.759 C 181.180 224.354,180.749 223.153,178.168 215.900 C 177.600 214.305,176.983 212.640,176.796 212.200 C 176.610 211.760,176.150 210.410,175.776 209.200 C 175.401 207.990,174.967 206.820,174.811 206.600 C 174.656 206.380,173.762 203.950,172.826 201.200 C 171.889 198.450,170.980 195.840,170.805 195.400 C 170.631 194.960,169.908 192.980,169.200 191.000 C 168.492 189.020,167.766 187.040,167.588 186.600 C 166.448 183.785,165.200 180.082,165.200 179.515 C 165.200 179.148,165.034 178.745,164.831 178.619 C 164.628 178.494,164.351 177.898,164.216 177.295 C 163.570 174.419,163.394 174.363,154.750 174.277 C 150.454 174.235,146.627 174.260,146.246 174.334 M240.200 174.400 L 237.800 174.600 237.800 202.200 C 237.800 231.333,237.760 230.619,239.672 236.000 C 240.538 238.437,243.845 244.000,244.428 244.000 C 244.633 244.000,244.800 244.270,244.800 244.600 C 244.800 244.930,244.940 245.200,245.111 245.200 C 245.282 245.200,246.006 245.734,246.721 246.387 C 248.201 247.738,252.592 250.400,253.341 250.400 C 253.616 250.400,254.011 250.543,254.220 250.718 C 257.509 253.474,274.346 253.996,281.000 251.549 C 290.276 248.137,295.080 243.101,298.281 233.433 L 299.352 230.200 299.501 203.121 C 299.607 183.957,299.522 175.801,299.211 175.221 C 298.673 174.216,285.557 173.922,284.924 174.900 C 284.746 175.175,284.510 187.370,284.400 202.000 L 284.200 228.600 282.859 231.710 C 277.916 243.168,259.599 243.625,254.465 232.418 C 252.639 228.434,252.429 225.008,252.414 198.908 L 252.400 174.815 251.500 174.614 C 250.143 174.309,242.924 174.173,240.200 174.400 " stroke="none" fill="#fbfbfb" fill-rule="evenodd"></path><path id="path3" d="M141.400 147.600 L 47.800 147.800 47.699 212.758 C 47.625 260.435,47.717 277.859,48.048 278.258 C 48.711 279.056,325.278 279.070,325.941 278.271 C 326.395 277.724,326.665 251.732,326.221 251.288 C 326.099 251.166,326.000 257.127,326.000 264.533 L 326.000 278.000 187.007 278.000 L 48.014 278.000 48.004 213.000 L 47.993 148.000 142.797 148.000 C 194.938 148.000,237.600 147.856,237.600 147.680 C 237.600 147.504,237.015 147.369,236.300 147.380 C 235.585 147.391,192.880 147.490,141.400 147.600 M70.262 174.331 C 69.249 175.451,69.281 186.270,70.300 187.043 C 70.841 187.454,73.441 187.577,81.726 187.587 C 88.330 187.595,92.750 187.759,93.226 188.014 C 93.981 188.418,94.000 189.192,94.000 219.752 C 94.000 249.590,94.035 251.107,94.731 251.738 C 95.794 252.700,108.814 252.729,109.771 251.771 C 110.332 251.211,110.400 247.759,110.400 219.786 C 110.400 189.193,110.419 188.418,111.174 188.014 C 111.653 187.758,116.113 187.600,122.894 187.600 C 130.874 187.600,133.970 187.470,134.320 187.120 C 135.189 186.251,134.970 175.078,134.069 174.262 C 132.879 173.186,71.238 173.253,70.262 174.331 M145.194 174.406 C 144.104 175.496,144.110 251.319,145.200 252.009 C 146.628 252.911,159.501 252.476,160.184 251.502 C 160.737 250.712,160.810 248.078,160.793 229.649 C 160.772 207.824,160.783 207.549,161.584 209.687 C 163.576 215.007,164.923 218.755,170.030 233.200 C 176.012 250.116,176.110 250.386,176.729 251.500 C 177.215 252.376,177.400 252.400,183.787 252.400 L 190.346 252.400 191.173 251.238 C 191.628 250.599,192.000 249.945,192.000 249.785 C 192.000 249.624,192.616 247.762,193.368 245.646 C 194.662 242.007,199.293 228.881,204.103 215.220 C 205.299 211.821,206.486 208.971,206.739 208.887 C 207.083 208.772,207.200 214.148,207.200 230.087 C 207.200 246.161,207.319 251.559,207.680 251.920 C 208.475 252.715,221.760 252.582,222.571 251.771 C 223.309 251.033,223.541 175.559,222.809 174.400 C 222.491 173.896,221.009 173.800,213.559 173.800 L 204.688 173.800 203.983 174.800 C 203.176 175.946,202.559 178.196,203.153 177.829 C 203.365 177.698,203.654 177.065,203.795 176.423 C 204.244 174.379,204.549 174.312,213.468 174.313 C 220.977 174.314,221.797 174.381,222.274 175.033 C 223.135 176.210,223.041 249.878,222.177 251.111 C 221.443 252.159,209.078 252.518,208.080 251.520 C 207.719 251.159,207.600 245.774,207.600 229.744 C 207.600 215.382,207.464 208.363,207.182 208.189 C 206.565 207.808,205.665 208.714,205.241 210.143 C 204.904 211.279,202.883 217.063,198.930 228.200 C 198.149 230.400,197.416 232.650,197.301 233.200 C 197.187 233.750,196.968 234.380,196.815 234.600 C 196.663 234.820,196.223 235.900,195.838 237.000 C 195.453 238.100,194.985 239.360,194.798 239.800 C 194.611 240.240,193.697 242.850,192.767 245.600 C 190.448 252.452,191.077 252.002,183.838 251.987 C 176.648 251.972,177.306 252.457,174.896 245.400 C 173.994 242.760,172.783 239.340,172.203 237.800 C 171.624 236.260,170.799 233.920,170.369 232.600 C 169.940 231.280,169.479 229.930,169.345 229.600 C 168.959 228.652,166.031 220.427,165.215 218.000 C 160.156 202.948,160.000 203.306,160.000 229.969 C 160.000 245.824,159.881 251.159,159.520 251.520 C 158.483 252.557,146.120 252.155,145.403 251.061 C 144.619 249.864,144.660 175.579,145.446 174.794 C 145.746 174.494,148.630 174.348,154.225 174.348 C 163.467 174.348,163.560 174.375,164.216 177.295 C 164.351 177.898,164.628 178.494,164.831 178.619 C 165.034 178.745,165.200 179.148,165.200 179.515 C 165.200 180.082,166.448 183.785,167.588 186.600 C 167.766 187.040,168.492 189.020,169.200 191.000 C 169.908 192.980,170.631 194.960,170.805 195.400 C 170.980 195.840,171.889 198.450,172.826 201.200 C 173.762 203.950,174.656 206.380,174.811 206.600 C 174.967 206.820,175.401 207.990,175.776 209.200 C 176.150 210.410,176.610 211.760,176.796 212.200 C 176.983 212.640,177.600 214.305,178.168 215.900 C 178.736 217.495,179.633 220.015,180.162 221.500 C 183.816 231.758,184.167 232.054,185.998 226.420 C 186.466 224.979,187.004 223.440,187.194 223.000 C 187.383 222.560,187.841 221.300,188.211 220.200 C 188.582 219.100,189.032 217.840,189.211 217.400 C 189.391 216.960,189.838 215.700,190.204 214.600 C 190.571 213.500,191.012 212.324,191.185 211.987 C 191.615 211.145,192.155 208.542,191.836 208.844 C 191.573 209.094,188.655 217.191,186.051 224.896 C 184.199 230.379,183.821 230.417,182.055 225.298 C 180.682 221.319,178.726 215.852,177.011 211.200 C 176.046 208.584,173.358 201.097,170.189 192.200 C 164.602 176.514,163.995 174.964,163.175 174.300 C 161.768 173.160,146.350 173.250,145.194 174.406 M237.437 174.360 C 236.381 175.526,236.691 227.548,237.778 231.754 C 241.220 245.069,249.210 251.828,263.590 253.586 C 282.190 255.860,295.684 247.373,299.382 231.075 C 300.441 226.407,300.300 174.588,299.226 174.014 C 297.903 173.306,285.950 173.480,284.889 174.223 L 284.000 174.845 284.000 199.997 C 284.000 226.264,283.898 228.099,282.207 232.127 C 277.943 242.289,260.002 242.579,255.157 232.565 C 253.305 228.736,253.205 227.086,253.202 200.300 C 253.200 175.735,253.183 175.183,252.400 174.400 C 251.207 173.207,238.511 173.172,237.437 174.360 M133.871 174.859 C 134.586 175.452,134.629 186.011,133.920 186.720 C 133.569 187.071,130.409 187.200,122.200 187.200 C 113.991 187.200,110.831 187.329,110.480 187.680 C 110.115 188.045,110.000 195.560,110.000 219.061 C 110.000 241.659,109.875 250.236,109.536 250.981 L 109.072 252.000 102.416 252.000 C 97.772 252.000,95.615 251.855,95.280 251.520 C 94.915 251.155,94.800 243.585,94.800 219.894 C 94.800 199.189,94.661 188.488,94.386 187.974 C 93.992 187.237,93.428 187.199,82.686 187.187 C 68.809 187.172,70.000 187.759,70.000 180.932 C 70.000 175.791,70.245 174.713,71.499 174.346 C 72.849 173.951,133.377 174.449,133.871 174.859 M251.500 174.614 L 252.400 174.815 252.414 198.908 C 252.429 225.008,252.639 228.434,254.465 232.418 C 259.599 243.625,277.916 243.168,282.859 231.710 L 284.200 228.600 284.400 202.000 C 284.510 187.370,284.746 175.175,284.924 174.900 C 285.557 173.922,298.673 174.216,299.211 175.221 C 299.522 175.801,299.607 183.957,299.501 203.121 L 299.352 230.200 298.281 233.433 C 295.080 243.101,290.276 248.137,281.000 251.549 C 274.346 253.996,257.509 253.474,254.220 250.718 C 254.011 250.543,253.616 250.400,253.341 250.400 C 252.592 250.400,248.201 247.738,246.721 246.387 C 246.006 245.734,245.282 245.200,245.111 245.200 C 244.940 245.200,244.800 244.930,244.800 244.600 C 244.800 244.270,244.633 244.000,244.428 244.000 C 243.845 244.000,240.538 238.437,239.672 236.000 C 237.760 230.619,237.800 231.333,237.800 202.200 L 237.800 174.600 240.200 174.400 C 242.924 174.173,250.143 174.309,251.500 174.614 M202.283 178.928 C 202.138 179.306,201.103 182.266,199.984 185.507 C 198.864 188.748,197.795 191.760,197.609 192.200 C 197.422 192.640,196.252 195.880,195.008 199.400 C 193.765 202.920,192.555 206.301,192.320 206.913 C 192.085 207.525,192.002 208.136,192.137 208.270 C 192.271 208.405,192.502 208.174,192.650 207.757 C 192.797 207.341,193.162 206.393,193.459 205.651 C 193.757 204.909,194.000 203.979,194.000 203.584 C 194.000 203.190,194.144 202.807,194.321 202.733 C 194.498 202.660,195.204 200.890,195.891 198.800 C 196.579 196.710,197.799 193.200,198.603 191.000 C 199.407 188.800,200.248 186.460,200.472 185.800 C 200.695 185.140,201.326 183.386,201.873 181.902 C 202.420 180.419,202.796 178.988,202.708 178.723 C 202.607 178.420,202.448 178.497,202.283 178.928 " stroke="none" fill="#a9bfea" fill-rule="evenodd"></path><path id="path4" d="M237.338 148.100 C 237.236 148.265,237.298 148.403,237.476 148.407 C 237.654 148.411,257.150 148.412,280.800 148.409 C 304.450 148.406,324.024 148.549,324.298 148.725 C 324.691 148.977,324.818 159.966,324.898 200.589 C 324.979 241.397,325.104 252.168,325.500 252.300 C 325.898 252.433,326.000 241.842,326.000 200.233 L 326.000 148.000 324.700 147.995 C 281.629 147.820,237.478 147.873,237.338 148.100 M71.900 173.082 C 72.395 173.178,73.205 173.178,73.700 173.082 C 74.195 172.987,73.790 172.909,72.800 172.909 C 71.810 172.909,71.405 172.987,71.900 173.082 M160.500 173.076 C 160.885 173.176,161.515 173.176,161.900 173.076 C 162.285 172.975,161.970 172.893,161.200 172.893 C 160.430 172.893,160.115 172.975,160.500 173.076 M210.100 173.087 C 210.705 173.178,211.695 173.178,212.300 173.087 C 212.905 172.995,212.410 172.920,211.200 172.920 C 209.990 172.920,209.495 172.995,210.100 173.087 M242.900 173.076 C 243.285 173.176,243.915 173.176,244.300 173.076 C 244.685 172.975,244.370 172.893,243.600 172.893 C 242.830 172.893,242.515 172.975,242.900 173.076 M223.792 212.800 C 223.792 233.810,223.841 242.405,223.900 231.900 C 223.959 221.395,223.959 204.205,223.900 193.700 C 223.841 183.195,223.792 191.790,223.792 212.800 M68.955 181.000 C 68.956 183.860,69.020 184.978,69.097 183.483 C 69.174 181.989,69.174 179.649,69.096 178.283 C 69.018 176.918,68.955 178.140,68.955 181.000 M236.188 200.000 C 236.188 213.310,236.238 218.755,236.300 212.100 C 236.361 205.445,236.361 194.555,236.300 187.900 C 236.238 181.245,236.188 186.690,236.188 200.000 M198.679 186.557 C 198.515 186.974,198.475 187.409,198.591 187.524 C 198.955 187.889,199.276 187.291,199.124 186.531 C 198.983 185.835,198.962 185.836,198.679 186.557 M111.300 188.288 C 110.905 188.429,110.820 195.011,110.897 219.733 L 110.995 251.000 111.100 220.238 C 111.176 197.998,111.331 189.324,111.659 188.928 C 112.180 188.301,112.028 188.028,111.300 188.288 M93.424 191.847 C 93.021 193.452,93.234 249.574,93.644 249.827 C 93.851 249.955,94.000 237.655,94.000 220.424 C 94.000 204.131,93.930 190.800,93.843 190.800 C 93.757 190.800,93.568 191.271,93.424 191.847 M160.813 210.300 C 160.824 211.676,161.740 213.593,162.177 213.156 C 162.385 212.948,161.236 208.800,160.970 208.800 C 160.876 208.800,160.806 209.475,160.813 210.300 M206.267 209.467 C 206.120 209.613,206.006 210.288,206.014 210.967 L 206.028 212.200 206.600 211.200 C 207.458 209.698,207.229 208.504,206.267 209.467 M160.985 231.800 C 160.985 242.140,161.036 246.427,161.100 241.328 C 161.163 236.228,161.163 227.768,161.100 222.528 C 161.037 217.287,160.985 221.460,160.985 231.800 M282.893 228.000 C 282.893 228.770,282.975 229.085,283.076 228.700 C 283.176 228.315,283.176 227.685,283.076 227.300 C 282.975 226.915,282.893 227.230,282.893 228.000 M183.600 228.400 C 183.600 228.840,183.780 229.200,184.000 229.200 C 184.220 229.200,184.400 228.840,184.400 228.400 C 184.400 227.960,184.220 227.600,184.000 227.600 C 183.780 227.600,183.600 227.960,183.600 228.400 M282.000 230.151 C 282.000 230.234,281.724 230.999,281.387 231.851 L 280.774 233.400 281.587 232.456 C 282.314 231.611,282.716 230.000,282.200 230.000 C 282.090 230.000,282.000 230.068,282.000 230.151 M263.000 238.800 C 263.136 239.020,263.822 239.182,264.524 239.160 C 265.743 239.122,265.755 239.106,264.800 238.800 C 263.364 238.340,262.716 238.340,263.000 238.800 M194.000 244.567 C 194.000 244.879,193.886 245.464,193.746 245.867 C 193.523 246.511,193.570 246.503,194.133 245.800 C 194.862 244.891,194.994 244.000,194.400 244.000 C 194.180 244.000,194.000 244.255,194.000 244.567 M97.919 253.098 C 99.744 253.172,102.624 253.172,104.319 253.097 C 106.014 253.022,104.520 252.961,101.000 252.962 C 97.480 252.962,96.094 253.024,97.919 253.098 M149.500 253.097 C 151.095 253.173,153.705 253.173,155.300 253.097 C 156.895 253.021,155.590 252.959,152.400 252.959 C 149.210 252.959,147.905 253.021,149.500 253.097 M180.482 253.096 C 181.958 253.173,184.478 253.173,186.082 253.097 C 187.687 253.021,186.480 252.958,183.400 252.958 C 180.320 252.957,179.007 253.019,180.482 253.096 M209.705 253.087 C 210.314 253.179,211.214 253.177,211.705 253.082 C 212.197 252.987,211.700 252.911,210.600 252.914 C 209.500 252.917,209.097 252.995,209.705 253.087 M214.700 253.095 C 215.855 253.176,217.745 253.176,218.900 253.095 C 220.055 253.014,219.110 252.948,216.800 252.948 C 214.490 252.948,213.545 253.014,214.700 253.095 M48.400 277.600 C 48.400 277.820,48.760 278.000,49.200 278.000 C 49.640 278.000,50.000 277.820,50.000 277.600 C 50.000 277.380,49.640 277.200,49.200 277.200 C 48.760 277.200,48.400 277.380,48.400 277.600 M323.400 277.600 C 323.256 277.833,323.663 278.000,324.376 278.000 C 325.049 278.000,325.600 277.820,325.600 277.600 C 325.600 277.380,325.161 277.200,324.624 277.200 C 324.087 277.200,323.536 277.380,323.400 277.600 " stroke="none" fill="#21405c" fill-rule="evenodd"></path></g></svg>