<svg id="svg" version="1.1" xmlns="http://www.w3.org/2000/svg" xmlns:xlink="http://www.w3.org/1999/xlink" width="400" height="400" viewBox="0, 0, 400,400"><g id="svgg"><path id="path0" d="M234.305 99.454 C 234.381 124.233,234.287 133.454,233.956 133.854 C 233.579 134.308,227.762 134.400,199.551 134.400 L 165.600 134.400 165.600 167.400 L 165.600 200.400 200.000 200.400 L 234.400 200.400 234.400 167.400 L 234.400 134.400 267.991 134.400 L 301.582 134.400 301.582 100.000 L 301.582 65.600 267.891 65.600 L 234.200 65.600 234.305 99.454 " stroke="none" fill="#e4146c" fill-rule="evenodd"></path><path id="path1" d="M100.184 67.700 C 100.079 67.975,100.040 82.690,100.097 100.400 L 100.200 132.600 166.400 132.600 L 232.600 132.600 232.702 99.900 L 232.805 67.200 166.590 67.200 C 113.986 67.200,100.336 67.303,100.184 67.700 M165.600 300.000 L 165.600 334.400 200.000 334.400 L 234.400 334.400 234.400 300.000 L 234.400 265.600 200.000 265.600 L 165.600 265.600 165.600 300.000 " stroke="none" fill="#944cf4" fill-rule="evenodd"></path><path id="path2" d="M98.400 100.000 C 98.400 132.495,98.439 134.400,99.100 134.400 C 99.761 134.400,99.800 132.495,99.800 100.000 C 99.800 67.505,99.761 65.600,99.100 65.600 C 98.439 65.600,98.400 67.505,98.400 100.000 M167.200 65.998 C 167.200 66.257,178.630 66.431,200.100 66.498 L 233.000 66.600 233.102 99.893 L 233.205 133.187 199.822 133.293 C 178.245 133.362,166.298 133.541,166.040 133.800 C 165.773 134.067,176.905 134.133,199.435 134.000 C 228.892 133.826,233.278 133.723,233.609 133.200 C 234.024 132.543,234.158 68.032,233.748 66.500 L 233.507 65.600 200.353 65.600 C 178.647 65.600,167.200 65.737,167.200 65.998 " stroke="none" fill="#bc34b4" fill-rule="evenodd"></path><path id="path3" d="M99.867 65.867 C 98.773 66.960,101.165 66.998,166.075 66.898 C 219.059 66.816,232.622 66.897,232.905 67.298 C 233.170 67.672,233.219 67.647,233.097 67.200 C 232.954 66.674,228.884 66.587,200.067 66.498 C 178.619 66.431,167.200 66.257,167.200 65.998 C 167.200 65.548,100.315 65.418,99.867 65.867 M99.695 133.600 C 99.870 134.509,164.511 134.710,166.250 133.807 C 167.280 133.272,163.853 133.199,133.490 133.105 C 103.525 133.012,99.593 133.070,99.695 133.600 " stroke="none" fill="#ae39c1" fill-rule="evenodd"></path><path id="path4" d="M233.899 99.138 C 233.961 120.030,233.854 132.825,233.614 133.200 C 233.279 133.723,228.894 133.826,199.515 134.005 L 165.800 134.209 199.620 134.305 C 225.498 134.378,233.553 134.287,233.920 133.920 C 234.465 133.375,234.643 66.197,234.100 65.862 C 233.935 65.760,233.845 80.734,233.899 99.138 " stroke="none" fill="#e83088" fill-rule="evenodd"></path><path id="path5" d="M99.784 67.300 C 99.679 67.575,99.640 82.470,99.697 100.400 L 99.800 133.000 165.958 133.101 C 214.523 133.175,232.259 133.083,232.658 132.752 C 233.107 132.379,233.184 126.765,233.104 99.851 L 233.007 67.400 232.804 100.000 L 232.600 132.600 166.400 132.600 L 100.200 132.600 100.200 100.000 L 100.200 67.400 166.600 67.198 L 233.000 66.996 166.487 66.898 C 113.573 66.820,99.936 66.902,99.784 67.300 " stroke="none" fill="#a450e0" fill-rule="evenodd"></path><path id="path6" d="M99.784 67.300 C 99.679 67.575,99.640 82.470,99.697 100.400 L 99.800 133.000 165.958 133.101 C 214.523 133.175,232.259 133.083,232.658 132.752 C 233.107 132.379,233.184 126.765,233.104 99.851 L 233.007 67.400 232.804 100.000 L 232.600 132.600 166.400 132.600 L 100.200 132.600 100.200 100.000 L 100.200 67.400 166.600 67.198 L 233.000 66.996 166.487 66.898 C 113.573 66.820,99.936 66.902,99.784 67.300 " stroke="none" fill="#a450e0" fill-rule="evenodd"></path></g></svg>